<?xml version="1.0" encoding="utf-8" standalone="no"?>
<!DOCTYPE svg PUBLIC "-//W3C//DTD SVG 1.1//EN"
  "http://www.w3.org/Graphics/SVG/1.1/DTD/svg11.dtd">
<svg xmlns:xlink="http://www.w3.org/1999/xlink" width="432pt" height="288pt" viewBox="0 0 432 288" xmlns="http://www.w3.org/2000/svg" version="1.1">
 <metadata>
  <rdf:RDF xmlns:dc="http://purl.org/dc/elements/1.1/" xmlns:cc="http://creativecommons.org/ns#" xmlns:rdf="http://www.w3.org/1999/02/22-rdf-syntax-ns#">
   <cc:Work>
    <dc:type rdf:resource="http://purl.org/dc/dcmitype/StillImage"/>
    <dc:date>2022-05-16T13:16:01.869671</dc:date>
    <dc:format>image/svg+xml</dc:format>
    <dc:creator>
     <cc:Agent>
      <dc:title>Matplotlib v3.5.2, https://matplotlib.org/</dc:title>
     </cc:Agent>
    </dc:creator>
   </cc:Work>
  </rdf:RDF>
 </metadata>
 <defs>
  <style type="text/css">*{stroke-linejoin: round; stroke-linecap: butt}</style>
 </defs>
 <g id="figure_1">
  <g id="patch_1">
   <path d="M 0 288 
L 432 288 
L 432 0 
L 0 0 
z
" style="fill: #ffffff"/>
  </g>
  <g id="axes_1">
   <g id="patch_2">
    <path d="M 12.14 136.18 
L 141.12 136.18 
L 141.12 8.64 
L 12.14 8.64 
z
" style="fill: #ffffff"/>
   </g>
   <g id="matplotlib.axis_1"/>
   <g id="matplotlib.axis_2"/>
   <g id="line2d_1">
    <path d="M 53.8692 75.444444 
L 55.408234 73.969173 
L 56.980584 72.539107 
L 58.579917 71.160005 
L 60.199795 69.837421 
L 61.833695 68.576679 
L 63.475037 67.382856 
L 65.117212 66.26076 
L 66.753608 65.214909 
L 68.377635 64.249513 
L 69.982755 63.36846 
L 71.562504 62.575299 
L 73.11052 61.873222 
L 74.620572 61.265057 
L 76.086577 60.753252 
L 77.502634 60.339869 
L 78.863039 60.026571 
L 80.162316 59.814622 
L 81.395232 59.704873 
L 82.556823 59.697767 
L 83.642412 59.793332 
L 84.647628 59.991185 
L 85.568422 60.290527 
L 86.401087 60.690154 
L 87.14227 61.188456 
L 87.788987 61.783427 
L 88.338633 62.472672 
L 88.788996 63.253415 
L 89.138262 64.122511 
L 89.385024 65.076463 
L 89.528289 66.111427 
L 89.56748 67.223238 
L 89.502439 68.407418 
L 89.333429 69.659198 
L 89.061129 70.973539 
L 88.686636 72.345148 
L 88.211459 73.768502 
L 87.637509 75.237869 
L 86.9671 76.747333 
L 86.202929 78.290816 
L 85.348074 79.862104 
L 84.405978 81.454867 
L 83.380433 83.062695 
L 82.27557 84.679111 
L 81.095837 86.297608 
L 79.845984 87.911668 
L 78.531045 89.514792 
L 77.156314 91.100525 
L 75.727326 92.662482 
L 74.249836 94.194373 
L 72.729793 95.690029 
L 71.173317 97.143429 
L 69.586677 98.548721 
L 67.97626 99.900244 
L 66.348552 101.192558 
L 64.710107 102.420458 
L 63.067521 103.579001 
L 61.42741 104.663521 
L 59.796377 105.669651 
L 58.18099 106.59334 
L 56.587754 107.430869 
L 55.023083 108.178865 
L 53.493279 108.834316 
L 52.004501 109.394583 
L 50.562744 109.85741 
L 49.173814 110.220933 
L 47.843303 110.483689 
L 46.576569 110.644619 
L 45.378712 110.703076 
L 44.254556 110.658824 
L 43.208627 110.512041 
L 42.245138 110.263319 
L 41.367966 109.913658 
L 40.580646 109.464467 
L 39.886346 108.917555 
L 39.287863 108.275124 
L 38.787607 107.53976 
L 38.387591 106.714425 
L 38.089427 105.802442 
L 37.894315 104.807483 
L 37.803041 103.733554 
L 37.815972 102.584981 
L 37.933057 101.366387 
L 38.153823 100.08268 
L 38.477383 98.739029 
L 38.902432 97.340844 
L 39.427259 95.893755 
L 40.049752 94.403589 
L 40.767404 92.876346 
L 41.577324 91.318176 
L 42.476252 89.735354 
L 43.460568 88.134253 
L 44.526309 86.521319 
L 45.669182 84.903047 
L 46.884587 83.285955 
L 48.167629 81.676552 
L 49.513142 80.081321 
L 50.915708 78.506683 
L 52.369678 76.95898 
L 53.8692 75.444444 
" clip-path="url(#pb6799aacc2)" style="fill: none; stroke: #1f77b4; stroke-width: 1.5; stroke-linecap: square"/>
   </g>
   <g id="line2d_2">
    <path d="M 65.720454 83.133666 
L 65.140411 82.467778 
L 64.658074 81.709937 
L 64.275386 80.863196 
L 63.993886 79.930965 
L 63.81471 78.916996 
L 63.738578 77.825373 
L 63.765796 76.660491 
L 63.896256 75.427041 
L 64.129432 74.12999 
L 64.464385 72.77456 
L 64.899766 71.36621 
L 65.433822 69.910609 
L 66.064402 68.41362 
L 66.788969 66.88127 
L 67.604603 65.31973 
L 68.508021 63.735287 
L 69.495585 62.13432 
L 70.563319 60.523278 
L 71.706922 58.908646 
L 72.921791 57.296927 
L 74.203033 55.69461 
L 75.545489 54.108147 
L 76.943753 52.543926 
L 78.392196 51.008246 
L 79.884985 49.507291 
L 81.416108 48.047104 
L 82.979402 46.633564 
L 84.56857 45.272365 
L 86.177214 43.968987 
L 87.798856 42.728677 
L 89.426967 41.556431 
L 91.054991 40.456968 
L 92.676372 39.434717 
L 94.284581 38.493792 
L 95.873144 37.637983 
L 97.435662 36.870736 
L 98.965845 36.19514 
L 100.457532 35.613915 
L 101.904714 35.129403 
L 103.301566 34.743554 
L 104.642463 34.457921 
L 105.922005 34.273655 
L 107.13504 34.191498 
L 108.276684 34.211781 
L 109.342339 34.334421 
L 110.327715 34.558925 
L 111.228844 34.88439 
L 112.042097 35.309504 
L 112.764199 35.832556 
L 113.392244 36.451439 
L 113.923702 37.163662 
L 114.356432 37.966357 
L 114.688694 38.856292 
L 114.919147 39.829882 
L 115.046866 40.883208 
L 115.071335 42.012029 
L 114.992456 43.211799 
L 114.810547 44.477686 
L 114.52634 45.804595 
L 114.140979 47.187181 
L 113.656016 48.619878 
L 113.073404 50.096916 
L 112.395489 51.612349 
L 111.625001 53.160073 
L 110.765042 54.733858 
L 109.819075 56.327365 
L 108.790908 57.934178 
L 107.684683 59.547827 
L 106.504853 61.161815 
L 105.256169 62.769643 
L 103.943659 64.364836 
L 102.572609 65.940972 
L 101.148538 67.491703 
L 99.677181 69.010785 
L 98.164464 70.492102 
L 96.616476 71.929689 
L 95.039451 73.317757 
L 93.43974 74.650717 
L 91.823783 75.923202 
L 90.198088 77.130087 
L 88.569201 78.266514 
L 86.94368 79.327905 
L 85.328071 80.309988 
L 83.72888 81.208807 
L 82.152546 82.020744 
L 80.605416 82.742529 
L 79.093721 83.371256 
L 77.623546 83.904393 
L 76.200812 84.339793 
L 74.831248 84.675703 
L 73.520369 84.91077 
L 72.273452 85.044049 
L 71.09552 85.075002 
L 69.991315 85.003505 
L 68.965282 84.829845 
L 68.021555 84.554722 
L 67.163932 84.179243 
L 66.395868 83.704922 
L 65.720454 83.133666 
" clip-path="url(#pb6799aacc2)" style="fill: none; stroke: #ff7f0e; stroke-width: 1.5; stroke-linecap: square"/>
   </g>
   <g id="line2d_3">
    <path d="M 76.63 72.41 
L 31.786849 118.239638 
" clip-path="url(#pb6799aacc2)" style="fill: none; stroke: #000000; stroke-width: 1.5; stroke-linecap: square"/>
   </g>
   <g id="line2d_4">
    <path d="M 76.63 72.41 
L 121.473151 26.580362 
" clip-path="url(#pb6799aacc2)" style="fill: none; stroke: #000000; stroke-width: 1.5; stroke-linecap: square"/>
   </g>
   <g id="line2d_5">
    <path d="M 76.63 72.41 
L 122.977081 116.752499 
" clip-path="url(#pb6799aacc2)" style="fill: none; stroke-dasharray: 5.55,2.4; stroke-dashoffset: 0; stroke: #000000; stroke-width: 1.5"/>
   </g>
   <g id="line2d_6">
    <path d="M 76.63 72.41 
L 30.282919 28.067501 
" clip-path="url(#pb6799aacc2)" style="fill: none; stroke-dasharray: 5.55,2.4; stroke-dashoffset: 0; stroke: #000000; stroke-width: 1.5"/>
   </g>
   <g id="line2d_7">
    <path d="M 76.63 72.41 
L 31.168244 117.63978 
" clip-path="url(#pb6799aacc2)" style="fill: none; stroke: #808080; stroke-width: 1.5; stroke-linecap: square"/>
   </g>
   <g id="line2d_8">
    <path d="M 76.63 72.41 
L 122.091756 27.18022 
" clip-path="url(#pb6799aacc2)" style="fill: none; stroke: #808080; stroke-width: 1.5; stroke-linecap: square"/>
   </g>
   <g id="line2d_9">
    <path d="M 76.63 72.41 
L 122.370451 117.364197 
" clip-path="url(#pb6799aacc2)" style="fill: none; stroke-dasharray: 5.55,2.4; stroke-dashoffset: 0; stroke: #808080; stroke-width: 1.5"/>
   </g>
   <g id="line2d_10">
    <path d="M 76.63 72.41 
L 30.889549 27.455803 
" clip-path="url(#pb6799aacc2)" style="fill: none; stroke-dasharray: 5.55,2.4; stroke-dashoffset: 0; stroke: #808080; stroke-width: 1.5"/>
   </g>
   <g id="patch_3">
    <path d="M 12.14 136.18 
L 12.14 8.64 
" style="fill: none; stroke: #000000; stroke-width: 0.8; stroke-linejoin: miter; stroke-linecap: square"/>
   </g>
   <g id="patch_4">
    <path d="M 12.14 136.18 
L 141.12 136.18 
" style="fill: none; stroke: #000000; stroke-width: 0.8; stroke-linejoin: miter; stroke-linecap: square"/>
   </g>
  </g>
  <g id="axes_2">
   <g id="patch_5">
    <path d="M 153.26 136.18 
L 282.24 136.18 
L 282.24 8.64 
L 153.26 8.64 
z
" style="fill: #ffffff"/>
   </g>
   <g id="matplotlib.axis_3"/>
   <g id="matplotlib.axis_4"/>
   <g id="line2d_11">
    <path d="M 181.323353 95.700848 
L 180.742532 95.036138 
L 180.259131 94.279484 
L 179.875095 93.433935 
L 179.591971 92.502893 
L 179.410899 91.490109 
L 179.332609 90.39966 
L 179.357415 89.235937 
L 179.485218 88.003626 
L 179.715503 86.707689 
L 180.047342 85.353345 
L 180.4794 83.946047 
L 181.009937 82.491461 
L 181.636817 80.995445 
L 182.357515 79.464022 
L 183.169129 77.90336 
L 184.068391 76.319742 
L 185.05168 74.719545 
L 186.115038 73.109213 
L 187.254181 71.495229 
L 188.464523 69.884092 
L 189.741191 68.282291 
L 191.079044 66.696275 
L 192.472695 65.13243 
L 193.916532 63.597054 
L 195.404741 62.096328 
L 196.931329 60.636297 
L 198.49015 59.222837 
L 200.074928 57.861642 
L 201.679279 56.558193 
L 203.296745 55.317737 
L 204.920813 54.14527 
L 206.544942 53.045512 
L 208.162594 52.022893 
L 209.767253 51.081529 
L 211.35246 50.225212 
L 212.911831 49.45739 
L 214.439086 48.781153 
L 215.928077 48.199226 
L 217.372807 47.713952 
L 218.767459 47.327283 
L 220.106417 47.040778 
L 221.384291 46.855591 
L 222.595933 46.772466 
L 223.736466 46.791738 
L 224.801297 46.91333 
L 225.786137 47.136753 
L 226.687023 47.461106 
L 227.500325 47.885084 
L 228.22277 48.406979 
L 228.851448 49.02469 
L 229.383827 49.73573 
L 229.817764 50.537235 
L 230.151512 51.425978 
L 230.383727 52.39838 
L 230.513473 53.450527 
L 230.540229 54.57818 
L 230.463886 55.776801 
L 230.284752 57.041561 
L 230.003548 58.367369 
L 229.621407 59.748886 
L 229.139867 61.180549 
L 228.560867 62.656593 
L 227.886739 64.171075 
L 227.120197 65.717896 
L 226.264328 67.290828 
L 225.322578 68.883537 
L 224.298739 70.489611 
L 223.196934 72.102581 
L 222.0216 73.715953 
L 220.777468 75.323231 
L 219.469549 76.917943 
L 218.103109 78.493666 
L 216.683651 80.044057 
L 215.21689 81.562873 
L 213.708732 83.043998 
L 212.16525 84.481467 
L 210.592659 85.869493 
L 208.997291 87.202486 
L 207.385571 88.47508 
L 205.763988 89.682149 
L 204.139071 90.818834 
L 202.517364 91.880556 
L 200.905397 92.863042 
L 199.309661 93.762335 
L 197.73658 94.574814 
L 196.19249 95.297207 
L 194.683607 95.926606 
L 193.216008 96.460476 
L 191.795602 96.896667 
L 190.428108 97.233423 
L 189.119033 97.469388 
L 187.873648 97.603612 
L 186.696968 97.635554 
L 185.593731 97.565087 
L 184.568379 97.392492 
L 183.625041 97.118466 
L 182.767515 96.744112 
L 181.999255 96.270938 
L 181.323353 95.700848 
" clip-path="url(#pb237723868)" style="fill: none; stroke: #1f77b4; stroke-width: 1.5; stroke-linecap: square"/>
   </g>
   <g id="line2d_12">
    <path d="M 231.367322 62.483513 
L 232.899953 61.010461 
L 234.466256 59.58282 
L 236.059925 58.206338 
L 237.674543 56.886558 
L 239.303608 55.628795 
L 240.940561 54.438112 
L 242.57881 53.319305 
L 244.211759 52.276878 
L 245.832831 51.315029 
L 247.435501 50.437631 
L 249.013314 49.648217 
L 250.559917 48.949965 
L 252.069083 48.345688 
L 253.534734 47.837818 
L 254.950969 47.4284 
L 256.312085 47.119083 
L 257.612602 46.911113 
L 258.847283 46.805326 
L 260.011156 46.80215 
L 261.099534 46.901596 
L 262.108036 47.103264 
L 263.032599 47.406342 
L 263.869503 47.809611 
L 264.615375 48.311445 
L 265.267214 48.909824 
L 265.822394 49.602339 
L 266.27868 50.386202 
L 266.634235 51.258255 
L 266.887626 52.214988 
L 267.037834 53.252548 
L 267.084253 54.366757 
L 267.026698 55.553129 
L 266.865399 56.806887 
L 266.601006 58.122981 
L 266.234583 59.496113 
L 265.767607 60.920754 
L 265.201957 62.391166 
L 264.539912 63.90143 
L 263.784136 65.445464 
L 262.937674 67.01705 
L 262.003933 68.609861 
L 260.986673 70.217483 
L 259.889991 71.833441 
L 258.718303 73.451231 
L 257.476326 75.064336 
L 256.169062 76.666262 
L 254.801774 78.250559 
L 253.379968 79.810847 
L 251.909369 81.340843 
L 250.395899 82.834386 
L 248.845652 84.285463 
L 247.26487 85.688231 
L 245.659919 87.03704 
L 244.03726 88.326461 
L 242.403429 89.551301 
L 240.765003 90.706627 
L 239.12858 91.787789 
L 237.50075 92.790431 
L 235.888067 93.710518 
L 234.297024 94.544344 
L 232.734029 95.288552 
L 231.205375 95.940144 
L 229.717218 96.496498 
L 228.275549 96.955373 
L 226.886174 97.314922 
L 225.554687 97.573695 
L 224.286449 97.730653 
L 223.086569 97.785162 
L 221.959876 97.737003 
L 220.910908 97.58637 
L 219.943888 97.333869 
L 219.062711 96.980518 
L 218.270924 96.527739 
L 217.571717 95.977355 
L 216.967903 95.331583 
L 216.461915 94.593022 
L 216.055791 93.764647 
L 215.751164 92.849793 
L 215.549263 91.852145 
L 215.4509 90.775718 
L 215.456471 89.624848 
L 215.565953 88.404169 
L 215.778906 87.118596 
L 216.094473 85.773305 
L 216.511382 84.373714 
L 217.027955 82.925458 
L 217.642112 81.43437 
L 218.35138 79.906452 
L 219.152903 78.347857 
L 220.043453 76.764861 
L 221.019444 75.163839 
L 222.076947 73.551237 
L 223.211704 71.933549 
L 224.419144 70.317288 
L 225.694407 68.708962 
L 227.032356 67.115048 
L 228.427606 65.541964 
L 229.874536 63.996044 
L 231.367322 62.483513 
" clip-path="url(#pb237723868)" style="fill: none; stroke: #ff7f0e; stroke-width: 1.5; stroke-linecap: square"/>
   </g>
   <g id="line2d_13">
    <path d="M 217.75 72.41 
L 165.034278 35.676222 
" clip-path="url(#pb237723868)" style="fill: none; stroke: #000000; stroke-width: 1.5; stroke-linecap: square"/>
   </g>
   <g id="line2d_14">
    <path d="M 217.75 72.41 
L 270.465722 109.143778 
" clip-path="url(#pb237723868)" style="fill: none; stroke: #000000; stroke-width: 1.5; stroke-linecap: square"/>
   </g>
   <g id="line2d_15">
    <path d="M 217.75 72.41 
L 180.601477 124.537176 
" clip-path="url(#pb237723868)" style="fill: none; stroke-dasharray: 5.55,2.4; stroke-dashoffset: 0; stroke: #000000; stroke-width: 1.5"/>
   </g>
   <g id="line2d_16">
    <path d="M 217.75 72.41 
L 254.898523 20.282824 
" clip-path="url(#pb237723868)" style="fill: none; stroke-dasharray: 5.55,2.4; stroke-dashoffset: 0; stroke: #000000; stroke-width: 1.5"/>
   </g>
   <g id="line2d_17">
    <path d="M 217.75 72.41 
L 153.260182 72.258484 
" clip-path="url(#pb237723868)" style="fill: none; stroke: #808080; stroke-width: 1.5; stroke-linecap: square"/>
   </g>
   <g id="line2d_18">
    <path d="M 217.75 72.41 
L 282.239818 72.561516 
" clip-path="url(#pb237723868)" style="fill: none; stroke: #808080; stroke-width: 1.5; stroke-linecap: square"/>
   </g>
   <g id="line2d_19">
    <path d="M 217.75 72.41 
L 217.596773 136.17982 
" clip-path="url(#pb237723868)" style="fill: none; stroke-dasharray: 5.55,2.4; stroke-dashoffset: 0; stroke: #808080; stroke-width: 1.5"/>
   </g>
   <g id="line2d_20">
    <path d="M 217.75 72.41 
L 217.903227 8.64018 
" clip-path="url(#pb237723868)" style="fill: none; stroke-dasharray: 5.55,2.4; stroke-dashoffset: 0; stroke: #808080; stroke-width: 1.5"/>
   </g>
   <g id="patch_6">
    <path d="M 153.26 136.18 
L 153.26 8.64 
" style="fill: none; stroke: #000000; stroke-width: 0.8; stroke-linejoin: miter; stroke-linecap: square"/>
   </g>
   <g id="patch_7">
    <path d="M 153.26 136.18 
L 282.24 136.18 
" style="fill: none; stroke: #000000; stroke-width: 0.8; stroke-linejoin: miter; stroke-linecap: square"/>
   </g>
  </g>
  <g id="axes_3">
   <g id="patch_8">
    <path d="M 294.38 136.18 
L 423.36 136.18 
L 423.36 8.64 
L 294.38 8.64 
z
" style="fill: #ffffff"/>
   </g>
   <g id="matplotlib.axis_5"/>
   <g id="matplotlib.axis_6"/>
   <g id="line2d_21">
    <path d="M 348.017765 108.769737 
L 347.436452 108.101853 
L 346.953266 107.341668 
L 346.570153 106.492242 
L 346.288655 105.556996 
L 346.109907 104.539696 
L 346.034627 103.444438 
L 346.06312 102.275632 
L 346.195269 101.037984 
L 346.430544 99.736478 
L 346.767996 98.376356 
L 347.206267 96.963093 
L 347.743592 95.50238 
L 348.377808 94.000099 
L 349.10636 92.462299 
L 349.926316 90.895173 
L 350.834373 89.30503 
L 351.826875 87.698274 
L 352.899826 86.081375 
L 354.048904 84.460842 
L 355.269484 82.843202 
L 356.556651 81.234968 
L 357.905221 79.642616 
L 359.309764 78.072558 
L 360.764624 76.531115 
L 362.263945 75.024495 
L 363.801687 73.558764 
L 365.371659 72.139825 
L 366.96754 70.77339 
L 368.582904 69.464962 
L 370.211245 68.21981 
L 371.846008 67.042947 
L 373.480609 65.939112 
L 375.108467 64.91275 
L 376.723026 63.967994 
L 378.317786 63.108648 
L 379.886326 62.338171 
L 381.422328 61.659668 
L 382.919608 61.075869 
L 384.372138 60.589126 
L 385.774067 60.201397 
L 387.119752 59.914246 
L 388.403774 59.728828 
L 389.620962 59.645889 
L 390.766415 59.665763 
L 391.835521 59.788371 
L 392.823974 60.013219 
L 393.727796 60.339401 
L 394.543345 60.765604 
L 395.267339 61.290111 
L 395.896863 61.910812 
L 396.42938 62.625206 
L 396.862748 63.430417 
L 397.19522 64.323202 
L 397.425459 65.299967 
L 397.552537 66.356778 
L 397.575943 67.489381 
L 397.495581 68.693214 
L 397.311777 69.96343 
L 397.025269 71.294914 
L 396.637212 72.682306 
L 396.149168 74.120017 
L 395.563103 75.60226 
L 394.881376 77.123066 
L 394.106732 78.676311 
L 393.24229 80.255741 
L 392.291532 81.854995 
L 391.258285 83.467635 
L 390.146711 85.087166 
L 388.961285 86.707068 
L 387.70678 88.320818 
L 386.388248 89.921917 
L 385.010998 91.503919 
L 383.580576 93.060453 
L 382.102742 94.585252 
L 380.583446 96.072176 
L 379.028806 97.515238 
L 377.445082 98.908626 
L 375.838651 100.246731 
L 374.215981 101.524164 
L 372.583607 102.735782 
L 370.948102 103.876705 
L 369.316051 104.94234 
L 367.694026 105.928396 
L 366.088557 106.830901 
L 364.506111 107.646223 
L 362.953058 108.371078 
L 361.435653 109.002547 
L 359.960005 109.538088 
L 358.532057 109.975544 
L 357.157557 110.313153 
L 355.842042 110.549557 
L 354.590807 110.683804 
L 353.408892 110.715352 
L 352.301055 110.644075 
L 351.271757 110.47026 
L 350.325143 110.194606 
L 349.465024 109.818224 
L 348.694864 109.342629 
L 348.017765 108.769737 
" clip-path="url(#p4814dc419b)" style="fill: none; stroke: #1f77b4; stroke-width: 1.5; stroke-linecap: square"/>
   </g>
   <g id="line2d_22">
    <path d="M 322.305313 83.322311 
L 321.720081 82.654945 
L 321.232495 81.895127 
L 320.844518 81.045916 
L 320.557712 80.110732 
L 320.373232 79.09334 
L 320.29182 77.997837 
L 320.313806 76.828634 
L 320.4391 75.590439 
L 320.667197 74.288238 
L 320.99718 72.927274 
L 321.427719 71.513027 
L 321.957081 70.051193 
L 322.583134 68.547657 
L 323.303358 67.008474 
L 324.114852 65.439841 
L 325.014349 63.848075 
L 325.998226 62.239586 
L 327.062523 60.620849 
L 328.202953 58.998383 
L 329.414925 57.378721 
L 330.693557 55.768386 
L 332.033702 54.173861 
L 333.429964 52.601566 
L 334.87672 51.057834 
L 336.368144 49.548879 
L 337.898231 48.080779 
L 339.46082 46.659444 
L 341.049619 45.290598 
L 342.65823 43.979752 
L 344.280177 42.732185 
L 345.908927 41.552921 
L 347.537923 40.446708 
L 349.160606 39.418 
L 350.770441 38.470939 
L 352.360945 37.609339 
L 353.925716 36.83667 
L 355.458451 36.156042 
L 356.95298 35.570197 
L 358.403284 35.081493 
L 359.803523 34.691897 
L 361.148059 34.40298 
L 362.431478 34.215904 
L 363.648612 34.131422 
L 364.794561 34.149875 
L 365.864709 34.271189 
L 366.854748 34.494874 
L 367.760692 34.820031 
L 368.578892 35.245349 
L 369.306053 35.769117 
L 369.939248 36.389224 
L 370.475928 37.103176 
L 370.91393 37.908095 
L 371.251492 38.800742 
L 371.487253 39.777522 
L 371.620266 40.834502 
L 371.649994 41.967426 
L 371.576317 43.171731 
L 371.399532 44.442569 
L 371.120352 45.774822 
L 370.739899 47.163126 
L 370.259707 48.601891 
L 369.681708 50.085323 
L 369.008231 51.607448 
L 368.241986 53.162139 
L 367.38606 54.743135 
L 366.443898 56.344068 
L 365.419295 57.958495 
L 364.316377 59.579912 
L 363.139584 61.201792 
L 361.893654 62.817604 
L 360.583606 64.420842 
L 359.214713 66.005049 
L 357.792489 67.563848 
L 356.322659 69.09096 
L 354.811142 70.580237 
L 353.264025 72.025683 
L 351.687538 73.421476 
L 350.088027 74.761997 
L 348.471935 76.041847 
L 346.845767 77.255874 
L 345.216073 78.399188 
L 343.589415 79.467187 
L 341.972342 80.455569 
L 340.371367 81.360354 
L 338.792934 82.1779 
L 337.243401 82.904915 
L 335.729007 83.538471 
L 334.255849 84.076016 
L 332.82986 84.515387 
L 331.456781 84.854814 
L 330.142141 85.092931 
L 328.891235 85.228778 
L 327.709098 85.261809 
L 326.600492 85.19189 
L 325.569879 85.019304 
L 324.62141 84.744745 
L 323.758904 84.369319 
L 322.985834 83.894537 
L 322.305313 83.322311 
" clip-path="url(#p4814dc419b)" style="fill: none; stroke: #ff7f0e; stroke-width: 1.5; stroke-linecap: square"/>
   </g>
   <g id="line2d_23">
    <path d="M 358.87 72.41 
L 404.598945 117.375642 
" clip-path="url(#p4814dc419b)" style="fill: none; stroke: #000000; stroke-width: 1.5; stroke-linecap: square"/>
   </g>
   <g id="line2d_24">
    <path d="M 358.87 72.41 
L 313.141055 27.444358 
" clip-path="url(#p4814dc419b)" style="fill: none; stroke: #000000; stroke-width: 1.5; stroke-linecap: square"/>
   </g>
   <g id="line2d_25">
    <path d="M 358.87 72.41 
L 404.34333 27.191597 
" clip-path="url(#p4814dc419b)" style="fill: none; stroke-dasharray: 5.55,2.4; stroke-dashoffset: 0; stroke: #000000; stroke-width: 1.5"/>
   </g>
   <g id="line2d_26">
    <path d="M 358.87 72.41 
L 313.39667 117.628403 
" clip-path="url(#p4814dc419b)" style="fill: none; stroke-dasharray: 5.55,2.4; stroke-dashoffset: 0; stroke: #000000; stroke-width: 1.5"/>
   </g>
   <g id="line2d_27">
    <path d="M 358.87 72.41 
L 404.728117 117.246827 
" clip-path="url(#p4814dc419b)" style="fill: none; stroke: #808080; stroke-width: 1.5; stroke-linecap: square"/>
   </g>
   <g id="line2d_28">
    <path d="M 358.87 72.41 
L 313.011883 27.573173 
" clip-path="url(#p4814dc419b)" style="fill: none; stroke: #808080; stroke-width: 1.5; stroke-linecap: square"/>
   </g>
   <g id="line2d_29">
    <path d="M 358.87 72.41 
L 404.213061 27.063867 
" clip-path="url(#p4814dc419b)" style="fill: none; stroke-dasharray: 5.55,2.4; stroke-dashoffset: 0; stroke: #808080; stroke-width: 1.5"/>
   </g>
   <g id="line2d_30">
    <path d="M 358.87 72.41 
L 313.526939 117.756133 
" clip-path="url(#p4814dc419b)" style="fill: none; stroke-dasharray: 5.55,2.4; stroke-dashoffset: 0; stroke: #808080; stroke-width: 1.5"/>
   </g>
   <g id="patch_9">
    <path d="M 294.38 136.18 
L 294.38 8.64 
" style="fill: none; stroke: #000000; stroke-width: 0.8; stroke-linejoin: miter; stroke-linecap: square"/>
   </g>
   <g id="patch_10">
    <path d="M 294.38 136.18 
L 423.36 136.18 
" style="fill: none; stroke: #000000; stroke-width: 0.8; stroke-linejoin: miter; stroke-linecap: square"/>
   </g>
  </g>
  <g id="axes_4">
   <g id="patch_11">
    <path d="M 12.14 229.3 
L 141.12 229.3 
L 141.12 194.88 
L 12.14 194.88 
z
" style="fill: #ffffff"/>
   </g>
   <g id="matplotlib.axis_7"/>
   <g id="matplotlib.axis_8"/>
   <g id="line2d_31">
    <path d="M 26.516629 227.735455 
L 43.701534 227.622822 
L 48.556027 227.372007 
L 51.857083 226.990731 
L 54.478509 226.477035 
L 56.808666 225.795249 
L 58.847553 224.973633 
L 60.78935 223.954899 
L 62.634057 222.7426 
L 64.478765 221.269683 
L 66.420562 219.425549 
L 68.459449 217.170655 
L 70.789605 214.237154 
L 73.799391 210.049829 
L 78.848064 202.987764 
L 80.886951 200.547465 
L 82.537479 198.907132 
L 83.993826 197.771021 
L 85.255995 197.055085 
L 86.421073 196.633524 
L 87.586151 196.451857 
L 88.65414 196.499791 
L 89.819218 196.784903 
L 90.984296 197.306387 
L 92.246465 198.123979 
L 93.605723 199.273649 
L 95.15916 200.885368 
L 97.003868 203.129668 
L 99.528204 206.583021 
L 105.936135 215.517171 
L 108.266292 218.298011 
L 110.305179 220.397618 
L 112.246976 222.088559 
L 114.188773 223.483293 
L 116.13057 224.602414 
L 118.169457 225.51459 
L 120.305434 226.22613 
L 122.732681 226.792985 
L 125.548287 227.212512 
L 129.043522 227.499431 
L 134.092194 227.669701 
L 135.257273 227.687596 
L 135.257273 227.687596 
" clip-path="url(#pff5b9a09b1)" style="fill: none; stroke: #1f77b4; stroke-width: 1.5; stroke-linecap: square"/>
   </g>
   <g id="line2d_32">
    <path d="M 18.002727 227.733199 
L 30.818589 227.610029 
L 35.381812 227.353607 
L 38.585778 226.962082 
L 41.207204 226.419716 
L 43.440271 225.732727 
L 45.479158 224.872158 
L 47.420955 223.803031 
L 49.265662 222.529749 
L 51.11037 220.98319 
L 53.052167 219.049724 
L 55.091054 216.692611 
L 57.421211 213.641938 
L 60.722266 208.901623 
L 64.80004 203.110202 
L 66.838927 200.608943 
L 68.489455 198.928937 
L 69.848713 197.835846 
L 71.110881 197.088666 
L 72.275959 196.6466 
L 73.343948 196.459774 
L 74.411936 196.485874 
L 75.479925 196.724366 
L 76.645003 197.220959 
L 77.907171 198.023602 
L 79.266429 199.170596 
L 80.819867 200.794585 
L 82.664574 203.070623 
L 85.188911 206.586521 
L 91.499752 215.54979 
L 93.732818 218.265954 
L 95.771705 220.407094 
L 97.713503 222.125762 
L 99.55821 223.473657 
L 101.500007 224.613669 
L 103.441804 225.499813 
L 105.577781 226.226897 
L 107.907938 226.783478 
L 110.626454 227.201587 
L 114.024599 227.492172 
L 118.879092 227.665533 
L 119.655811 227.678984 
L 119.655811 227.678984 
" clip-path="url(#pff5b9a09b1)" style="fill: none; stroke: #ff7f0e; stroke-width: 1.5; stroke-linecap: square"/>
   </g>
   <g id="patch_12">
    <path d="M 12.14 229.3 
L 12.14 194.88 
" style="fill: none; stroke: #000000; stroke-width: 0.8; stroke-linejoin: miter; stroke-linecap: square"/>
   </g>
   <g id="patch_13">
    <path d="M 12.14 229.3 
L 141.12 229.3 
" style="fill: none; stroke: #000000; stroke-width: 0.8; stroke-linejoin: miter; stroke-linecap: square"/>
   </g>
  </g>
  <g id="axes_5">
   <g id="patch_14">
    <path d="M 12.14 275.86 
L 141.12 275.86 
L 141.12 241.44 
L 12.14 241.44 
z
" style="fill: #ffffff"/>
   </g>
   <g id="matplotlib.axis_9"/>
   <g id="matplotlib.axis_10"/>
   <g id="line2d_33">
    <path d="M 26.434253 274.295455 
L 43.744796 274.18156 
L 48.607308 273.928143 
L 51.913816 273.543143 
L 54.539573 273.024718 
L 56.873579 272.337033 
L 58.915834 271.508761 
L 60.860839 270.482347 
L 62.708593 269.26162 
L 64.556348 267.779392 
L 66.501352 265.924915 
L 68.543608 263.659251 
L 70.877613 260.714768 
L 73.892371 256.517987 
L 78.852133 249.585926 
L 80.894388 247.138378 
L 82.547642 245.491157 
L 84.006396 244.348506 
L 85.270649 243.626763 
L 86.437652 243.199891 
L 87.604655 243.013095 
L 88.674407 243.056598 
L 89.84141 243.337272 
L 91.008413 243.854824 
L 92.272666 244.668809 
L 93.63417 245.815418 
L 95.190174 247.424722 
L 97.037928 249.667614 
L 99.566434 253.121309 
L 106.0822 262.186761 
L 108.416206 264.955282 
L 110.458461 267.042084 
L 112.403466 268.720202 
L 114.348471 270.102361 
L 116.293476 271.209799 
L 118.335731 272.111121 
L 120.475236 272.813101 
L 122.906492 273.371387 
L 125.726749 273.783756 
L 129.325008 274.070387 
L 134.479271 274.234803 
L 135.257273 274.24641 
L 135.257273 274.24641 
" clip-path="url(#p5390d30768)" style="fill: none; stroke: #1f77b4; stroke-width: 1.5; stroke-linecap: square"/>
   </g>
   <g id="line2d_34">
    <path d="M 18.002727 274.293185 
L 30.742509 274.172596 
L 35.41052 273.911597 
L 38.619778 273.517686 
L 41.245535 272.971929 
L 43.48229 272.280639 
L 45.524545 271.414761 
L 47.46955 270.339221 
L 49.317305 269.058615 
L 51.165059 267.503665 
L 53.110064 265.560541 
L 55.152319 263.192993 
L 57.486325 260.131216 
L 60.792833 255.38 
L 64.780093 249.718153 
L 66.822348 247.206778 
L 68.475602 245.517587 
L 69.837106 244.416676 
L 71.101359 243.662324 
L 72.268362 243.213935 
L 73.338114 243.021718 
L 74.407867 243.042939 
L 75.47762 243.277163 
L 76.644622 243.769882 
L 77.908876 244.569315 
L 79.270379 245.714028 
L 80.826383 247.336853 
L 82.674137 249.613303 
L 85.105393 252.99158 
L 91.62116 262.233171 
L 93.857915 264.937056 
L 95.90017 267.064302 
L 97.845175 268.768678 
L 99.69293 270.103007 
L 101.637934 271.229538 
L 103.582939 272.103576 
L 105.722444 272.819309 
L 108.05645 273.365987 
L 110.876707 273.786706 
L 114.377716 274.070289 
L 119.434728 274.23481 
L 119.823729 274.241007 
L 119.823729 274.241007 
" clip-path="url(#p5390d30768)" style="fill: none; stroke: #ff7f0e; stroke-width: 1.5; stroke-linecap: square"/>
   </g>
   <g id="patch_15">
    <path d="M 12.14 275.86 
L 12.14 241.44 
" style="fill: none; stroke: #000000; stroke-width: 0.8; stroke-linejoin: miter; stroke-linecap: square"/>
   </g>
   <g id="patch_16">
    <path d="M 12.14 275.86 
L 141.12 275.86 
" style="fill: none; stroke: #000000; stroke-width: 0.8; stroke-linejoin: miter; stroke-linecap: square"/>
   </g>
  </g>
  <g id="axes_6">
   <g id="patch_17">
    <path d="M 153.26 229.3 
L 282.24 229.3 
L 282.24 194.88 
L 153.26 194.88 
z
" style="fill: #ffffff"/>
   </g>
   <g id="matplotlib.axis_11"/>
   <g id="matplotlib.axis_12"/>
   <g id="line2d_35">
    <path d="M 188.439684 227.729386 
L 197.827357 227.597364 
L 201.65906 227.33764 
L 204.341252 226.956577 
L 206.640274 226.410749 
L 208.556126 225.737262 
L 210.280392 224.912707 
L 212.004659 223.839274 
L 213.728925 222.480835 
L 215.453192 220.811088 
L 217.177458 218.819731 
L 219.09331 216.245195 
L 221.392332 212.733709 
L 228.864153 200.881529 
L 230.396834 199.058866 
L 231.73793 197.815454 
L 232.887441 197.051001 
L 233.845367 196.644539 
L 234.803293 196.457124 
L 235.761219 196.492753 
L 236.719144 196.750665 
L 237.67707 197.225365 
L 238.826581 198.066741 
L 239.976092 199.18042 
L 241.317188 200.780034 
L 243.041455 203.21584 
L 245.340477 206.88955 
L 250.513276 215.2898 
L 252.620713 218.233836 
L 254.536564 220.521205 
L 256.260831 222.241005 
L 257.985097 223.646671 
L 259.709364 224.762424 
L 261.43363 225.623242 
L 263.349482 226.32951 
L 265.456919 226.866194 
L 267.947526 227.264563 
L 271.204473 227.539187 
L 275.994102 227.689013 
L 276.377273 227.694411 
L 276.377273 227.694411 
" clip-path="url(#p6ec8572159)" style="fill: none; stroke: #1f77b4; stroke-width: 1.5; stroke-linecap: square"/>
   </g>
   <g id="line2d_36">
    <path d="M 159.122727 227.735455 
L 175.215881 227.626043 
L 179.430754 227.379711 
L 182.304532 227.001482 
L 184.603554 226.484392 
L 186.519405 225.844398 
L 188.243672 225.058459 
L 189.967938 224.031975 
L 191.692205 222.72826 
L 193.416471 221.119342 
L 195.140737 219.191946 
L 197.056589 216.686825 
L 199.164026 213.547301 
L 202.420974 208.215241 
L 205.677921 202.992026 
L 207.402188 200.597902 
L 208.934869 198.838483 
L 210.275965 197.656703 
L 211.425476 196.947651 
L 212.383402 196.587808 
L 213.341328 196.446309 
L 214.299254 196.526149 
L 215.257179 196.825638 
L 216.215105 197.338458 
L 217.364616 198.220052 
L 218.705712 199.581829 
L 220.238394 201.511274 
L 222.154245 204.342759 
L 225.219608 209.366869 
L 228.668141 214.904207 
L 230.775577 217.885951 
L 232.691429 220.217982 
L 234.415695 221.981919 
L 236.139962 223.43195 
L 237.864228 224.589642 
L 239.588495 225.488138 
L 241.504346 226.230035 
L 243.611783 226.797881 
L 246.10239 227.222955 
L 249.167753 227.507378 
L 253.574211 227.672908 
L 254.915308 227.694573 
L 254.915308 227.694573 
" clip-path="url(#p6ec8572159)" style="fill: none; stroke: #ff7f0e; stroke-width: 1.5; stroke-linecap: square"/>
   </g>
   <g id="patch_18">
    <path d="M 153.26 229.3 
L 153.26 194.88 
" style="fill: none; stroke: #000000; stroke-width: 0.8; stroke-linejoin: miter; stroke-linecap: square"/>
   </g>
   <g id="patch_19">
    <path d="M 153.26 229.3 
L 282.24 229.3 
" style="fill: none; stroke: #000000; stroke-width: 0.8; stroke-linejoin: miter; stroke-linecap: square"/>
   </g>
  </g>
  <g id="axes_7">
   <g id="patch_20">
    <path d="M 153.26 275.86 
L 282.24 275.86 
L 282.24 241.44 
L 153.26 241.44 
z
" style="fill: #ffffff"/>
   </g>
   <g id="matplotlib.axis_13"/>
   <g id="matplotlib.axis_14"/>
   <g id="line2d_37">
    <path d="M 172.777205 274.295455 
L 184.59566 274.171914 
L 189.121876 273.911941 
L 192.265082 273.520421 
L 194.779647 272.995393 
L 197.042755 272.293549 
L 199.054407 271.434468 
L 200.940331 270.386591 
L 202.826254 269.070479 
L 204.712178 267.462104 
L 206.598101 265.55147 
L 208.609753 263.19121 
L 210.99859 260.014909 
L 214.393252 255.069033 
L 218.165099 249.66507 
L 220.176751 247.16979 
L 221.811218 245.487554 
L 223.194228 244.367523 
L 224.451511 243.624703 
L 225.583065 243.198692 
L 226.714619 243.012853 
L 227.846173 243.071531 
L 228.977727 243.373352 
L 230.109282 243.911279 
L 231.366564 244.770601 
L 232.749575 246.005683 
L 234.258313 247.652283 
L 236.144237 250.055978 
L 238.78453 253.823824 
L 244.190844 261.616322 
L 246.453952 264.457295 
L 248.465604 266.647613 
L 250.351528 268.390535 
L 252.237451 269.834683 
L 254.123375 270.998496 
L 256.009298 271.911472 
L 258.02095 272.648885 
L 260.284058 273.24181 
L 262.924351 273.694607 
L 266.193286 274.013987 
L 270.719502 274.208787 
L 276.377273 274.281247 
L 276.377273 274.281247 
" clip-path="url(#p719bdaea18)" style="fill: none; stroke: #1f77b4; stroke-width: 1.5; stroke-linecap: square"/>
   </g>
   <g id="line2d_38">
    <path d="M 159.122727 274.28164 
L 167.295063 274.130994 
L 171.444094 273.846399 
L 174.461572 273.427697 
L 176.976137 272.857107 
L 179.113517 272.151982 
L 181.125169 271.253741 
L 183.011092 270.165748 
L 184.897016 268.808168 
L 186.782939 267.159559 
L 188.668863 265.213036 
L 190.806243 262.663816 
L 193.195079 259.451713 
L 197.344111 253.406032 
L 200.361589 249.205182 
L 202.247513 246.934804 
L 203.88198 245.309139 
L 205.26499 244.239121 
L 206.522273 243.541642 
L 207.653827 243.155035 
L 208.785381 243.006202 
L 209.916935 243.098576 
L 211.048489 243.430025 
L 212.180043 243.992936 
L 213.437326 244.874126 
L 214.820336 246.12587 
L 216.454803 247.931886 
L 218.466455 250.528265 
L 221.358205 254.67657 
L 226.010149 261.333296 
L 228.398986 264.336841 
L 230.410638 266.529659 
L 232.296561 268.279876 
L 234.182485 269.734823 
L 236.068408 270.911566 
L 238.08006 271.892029 
L 240.21744 272.669066 
L 242.480548 273.25224 
L 245.120841 273.698562 
L 248.389776 274.014436 
L 252.915992 274.208163 
L 255.807741 274.258062 
L 255.807741 274.258062 
" clip-path="url(#p719bdaea18)" style="fill: none; stroke: #ff7f0e; stroke-width: 1.5; stroke-linecap: square"/>
   </g>
   <g id="patch_21">
    <path d="M 153.26 275.86 
L 153.26 241.44 
" style="fill: none; stroke: #000000; stroke-width: 0.8; stroke-linejoin: miter; stroke-linecap: square"/>
   </g>
   <g id="patch_22">
    <path d="M 153.26 275.86 
L 282.24 275.86 
" style="fill: none; stroke: #000000; stroke-width: 0.8; stroke-linejoin: miter; stroke-linecap: square"/>
   </g>
  </g>
  <g id="axes_8">
   <g id="patch_23">
    <path d="M 294.38 229.3 
L 423.36 229.3 
L 423.36 194.88 
L 294.38 194.88 
z
" style="fill: #ffffff"/>
   </g>
   <g id="matplotlib.axis_15"/>
   <g id="matplotlib.axis_16"/>
   <g id="line2d_39">
    <path d="M 322.154805 227.735455 
L 339.201483 227.624629 
L 343.364044 227.372232 
L 346.139085 226.994312 
L 348.319474 226.492976 
L 350.301646 225.813211 
L 352.0856 224.964683 
L 353.671338 223.982381 
L 355.257075 222.753921 
L 356.842813 221.256131 
L 358.626768 219.235089 
L 360.410722 216.866264 
L 362.591111 213.55984 
L 365.762586 208.255471 
L 368.934061 203.052148 
L 370.718016 200.523861 
L 372.105536 198.896039 
L 373.29484 197.795786 
L 374.484143 197.006124 
L 375.475229 196.604659 
L 376.466315 196.446807 
L 377.457401 196.536304 
L 378.448486 196.871029 
L 379.439572 197.443099 
L 380.628876 198.423735 
L 381.818179 199.694349 
L 383.205699 201.48847 
L 384.989654 204.171384 
L 387.962912 209.139027 
L 391.332604 214.689819 
L 393.512993 217.857963 
L 395.296948 220.089912 
L 397.080902 221.967505 
L 398.66664 223.341319 
L 400.252377 224.45514 
L 402.036332 225.431064 
L 403.820287 226.157686 
L 405.802459 226.730457 
L 408.181065 227.174518 
L 411.154323 227.48172 
L 415.316884 227.661419 
L 417.497273 227.69879 
L 417.497273 227.69879 
" clip-path="url(#paa154e100c)" style="fill: none; stroke: #1f77b4; stroke-width: 1.5; stroke-linecap: square"/>
   </g>
   <g id="line2d_40">
    <path d="M 300.242727 227.732976 
L 311.34289 227.610402 
L 315.307234 227.348575 
L 318.082274 226.945856 
L 320.262663 226.41244 
L 322.244835 225.690706 
L 324.02879 224.792119 
L 325.614527 223.754879 
L 327.200265 222.461976 
L 328.786003 220.891701 
L 330.569957 218.783067 
L 332.353912 216.326341 
L 334.534301 212.924609 
L 338.696862 205.861317 
L 341.075468 202.090284 
L 342.661206 199.946989 
L 344.048726 198.425022 
L 345.238029 197.437302 
L 346.229115 196.86349 
L 347.220201 196.531094 
L 348.211287 196.448075 
L 349.202373 196.616429 
L 350.193459 197.03211 
L 351.184545 197.685192 
L 352.373848 198.760204 
L 353.761368 200.369883 
L 355.347106 202.590973 
L 357.527495 206.094463 
L 363.474011 215.945207 
L 365.456183 218.706717 
L 367.240137 220.827336 
L 369.024092 222.586008 
L 370.609829 223.855512 
L 372.393784 224.982373 
L 374.177739 225.832285 
L 376.159911 226.510778 
L 378.3403 227.008943 
L 380.917123 227.36276 
L 384.286816 227.592114 
L 385.277901 227.629157 
L 385.277901 227.629157 
" clip-path="url(#paa154e100c)" style="fill: none; stroke: #ff7f0e; stroke-width: 1.5; stroke-linecap: square"/>
   </g>
   <g id="patch_24">
    <path d="M 294.38 229.3 
L 294.38 194.88 
" style="fill: none; stroke: #000000; stroke-width: 0.8; stroke-linejoin: miter; stroke-linecap: square"/>
   </g>
   <g id="patch_25">
    <path d="M 294.38 229.3 
L 423.36 229.3 
" style="fill: none; stroke: #000000; stroke-width: 0.8; stroke-linejoin: miter; stroke-linecap: square"/>
   </g>
  </g>
  <g id="axes_9">
   <g id="patch_26">
    <path d="M 294.38 275.86 
L 423.36 275.86 
L 423.36 241.44 
L 294.38 241.44 
z
" style="fill: #ffffff"/>
   </g>
   <g id="matplotlib.axis_17"/>
   <g id="matplotlib.axis_18"/>
   <g id="line2d_41">
    <path d="M 322.085642 274.295455 
L 339.144686 274.184676 
L 343.310267 273.932203 
L 346.08732 273.55405 
L 348.269291 273.052313 
L 350.252901 272.371923 
L 352.03815 271.522547 
L 353.625038 270.539219 
L 355.211925 269.309449 
L 356.798813 267.810067 
L 358.584062 265.786937 
L 360.369311 263.415819 
L 362.551282 260.106592 
L 365.725057 254.799113 
L 368.898833 249.595412 
L 370.684082 247.068687 
L 372.072609 245.443078 
L 373.262774 244.345413 
L 374.45294 243.55893 
L 375.444745 243.160508 
L 376.43655 243.005994 
L 377.428355 243.099044 
L 378.42016 243.437455 
L 379.411965 244.013248 
L 380.602131 244.998269 
L 381.792297 246.273026 
L 383.180823 248.071475 
L 384.966072 250.758852 
L 387.941487 255.730538 
L 391.313624 261.280663 
L 393.495594 264.445991 
L 395.280843 266.674746 
L 397.066092 268.548729 
L 398.65298 269.91925 
L 400.239868 271.029895 
L 402.025116 272.002557 
L 403.810365 272.72636 
L 405.793975 273.296577 
L 408.174307 273.738351 
L 411.149721 274.043703 
L 415.315302 274.222107 
L 417.497273 274.259161 
L 417.497273 274.259161 
" clip-path="url(#pb4fd9c8a4d)" style="fill: none; stroke: #1f77b4; stroke-width: 1.5; stroke-linecap: square"/>
   </g>
   <g id="line2d_42">
    <path d="M 300.242727 274.292933 
L 311.152581 274.175823 
L 315.119801 273.92314 
L 317.896854 273.532553 
L 320.078825 273.013297 
L 322.062435 272.308534 
L 323.847684 271.428623 
L 325.434572 270.410408 
L 327.021459 269.138224 
L 328.608347 267.58945 
L 330.393596 265.504378 
L 332.178845 263.068425 
L 334.360816 259.684711 
L 337.931313 253.627538 
L 340.708367 249.115879 
L 342.493616 246.647319 
L 343.882143 245.093823 
L 345.072308 244.07578 
L 346.064113 243.47514 
L 347.055918 243.115185 
L 348.047723 243.004545 
L 349.039528 243.145888 
L 350.031333 243.535807 
L 351.023138 244.164964 
L 352.213304 245.214403 
L 353.601831 246.799435 
L 355.188718 249.000054 
L 357.172328 252.15737 
L 363.916601 263.24401 
L 365.900211 265.904006 
L 367.68546 267.924173 
L 369.272348 269.415978 
L 370.859236 270.634903 
L 372.644485 271.710877 
L 374.429733 272.517696 
L 376.413343 273.157903 
L 378.595314 273.624851 
L 381.372368 273.972036 
L 385.141226 274.186895 
L 385.141226 274.186895 
" clip-path="url(#pb4fd9c8a4d)" style="fill: none; stroke: #ff7f0e; stroke-width: 1.5; stroke-linecap: square"/>
   </g>
   <g id="patch_27">
    <path d="M 294.38 275.86 
L 294.38 241.44 
" style="fill: none; stroke: #000000; stroke-width: 0.8; stroke-linejoin: miter; stroke-linecap: square"/>
   </g>
   <g id="patch_28">
    <path d="M 294.38 275.86 
L 423.36 275.86 
" style="fill: none; stroke: #000000; stroke-width: 0.8; stroke-linejoin: miter; stroke-linecap: square"/>
   </g>
  </g>
 </g>
 <defs>
  <clipPath id="pb6799aacc2">
   <rect x="12.14" y="8.64" width="128.98" height="127.54"/>
  </clipPath>
  <clipPath id="pb237723868">
   <rect x="153.26" y="8.64" width="128.98" height="127.54"/>
  </clipPath>
  <clipPath id="p4814dc419b">
   <rect x="294.38" y="8.64" width="128.98" height="127.54"/>
  </clipPath>
  <clipPath id="pff5b9a09b1">
   <rect x="12.14" y="194.88" width="128.98" height="34.42"/>
  </clipPath>
  <clipPath id="p5390d30768">
   <rect x="12.14" y="241.44" width="128.98" height="34.42"/>
  </clipPath>
  <clipPath id="p6ec8572159">
   <rect x="153.26" y="194.88" width="128.98" height="34.42"/>
  </clipPath>
  <clipPath id="p719bdaea18">
   <rect x="153.26" y="241.44" width="128.98" height="34.42"/>
  </clipPath>
  <clipPath id="paa154e100c">
   <rect x="294.38" y="194.88" width="128.98" height="34.42"/>
  </clipPath>
  <clipPath id="pb4fd9c8a4d">
   <rect x="294.38" y="241.44" width="128.98" height="34.42"/>
  </clipPath>
 </defs>
</svg>
