<?xml version="1.0" encoding="utf-8" standalone="no"?>
<!DOCTYPE svg PUBLIC "-//W3C//DTD SVG 1.1//EN"
  "http://www.w3.org/Graphics/SVG/1.1/DTD/svg11.dtd">
<!-- Created with matplotlib (https://matplotlib.org/) -->
<svg height="144pt" version="1.1" viewBox="0 0 432 144" width="432pt" xmlns="http://www.w3.org/2000/svg" xmlns:xlink="http://www.w3.org/1999/xlink">
 <defs>
  <style type="text/css">
*{stroke-linecap:butt;stroke-linejoin:round;}
  </style>
 </defs>
 <g id="figure_1">
  <g id="patch_1">
   <path d="M 0 144 
L 432 144 
L 432 0 
L 0 0 
z
" style="fill:#ffffff;"/>
  </g>
  <g id="axes_1">
   <g id="patch_2">
    <path d="M 31.97 107.08 
L 140.011091 107.08 
L 140.011091 24 
L 31.97 24 
z
" style="fill:#ffffff;"/>
   </g>
   <g id="PathCollection_1">
    <defs>
     <path d="M 0 1.118034 
C 0.296506 1.118034 0.580908 1.000231 0.790569 0.790569 
C 1.000231 0.580908 1.118034 0.296506 1.118034 0 
C 1.118034 -0.296506 1.000231 -0.580908 0.790569 -0.790569 
C 0.580908 -1.000231 0.296506 -1.118034 0 -1.118034 
C -0.296506 -1.118034 -0.580908 -1.000231 -0.790569 -0.790569 
C -1.000231 -0.580908 -1.118034 -0.296506 -1.118034 0 
C -1.118034 0.296506 -1.000231 0.580908 -0.790569 0.790569 
C -0.580908 1.000231 -0.296506 1.118034 0 1.118034 
z
" id="m5c7b013f5e"/>
    </defs>
    <g clip-path="url(#pd7ae784082)">
     <use style="fill:#1f77b4;" x="69.460451" xlink:href="#m5c7b013f5e" y="45.281263"/>
     <use style="fill:#1f77b4;" x="80.765299" xlink:href="#m5c7b013f5e" y="48.812024"/>
     <use style="fill:#1f77b4;" x="85.947978" xlink:href="#m5c7b013f5e" y="36.952945"/>
     <use style="fill:#1f77b4;" x="84.063929" xlink:href="#m5c7b013f5e" y="60.840257"/>
     <use style="fill:#1f77b4;" x="74.469032" xlink:href="#m5c7b013f5e" y="69.855883"/>
     <use style="fill:#1f77b4;" x="87.690117" xlink:href="#m5c7b013f5e" y="90.884251"/>
     <use style="fill:#1f77b4;" x="88.898682" xlink:href="#m5c7b013f5e" y="76.668185"/>
     <use style="fill:#1f77b4;" x="80.997867" xlink:href="#m5c7b013f5e" y="88.099803"/>
     <use style="fill:#1f77b4;" x="86.384928" xlink:href="#m5c7b013f5e" y="59.815927"/>
     <use style="fill:#1f77b4;" x="68.726954" xlink:href="#m5c7b013f5e" y="43.62794"/>
     <use style="fill:#1f77b4;" x="75.208556" xlink:href="#m5c7b013f5e" y="37.53654"/>
     <use style="fill:#1f77b4;" x="76.583845" xlink:href="#m5c7b013f5e" y="44.117488"/>
     <use style="fill:#1f77b4;" x="88.620424" xlink:href="#m5c7b013f5e" y="79.144686"/>
     <use style="fill:#1f77b4;" x="89.304788" xlink:href="#m5c7b013f5e" y="91.614198"/>
     <use style="fill:#1f77b4;" x="85.579495" xlink:href="#m5c7b013f5e" y="68.975036"/>
     <use style="fill:#1f77b4;" x="94.530324" xlink:href="#m5c7b013f5e" y="98.944994"/>
     <use style="fill:#1f77b4;" x="61.989611" xlink:href="#m5c7b013f5e" y="59.3363"/>
     <use style="fill:#1f77b4;" x="83.353505" xlink:href="#m5c7b013f5e" y="55.430133"/>
     <use style="fill:#1f77b4;" x="84.636407" xlink:href="#m5c7b013f5e" y="53.103663"/>
     <use style="fill:#1f77b4;" x="87.737847" xlink:href="#m5c7b013f5e" y="55.96564"/>
     <use style="fill:#1f77b4;" x="84.289652" xlink:href="#m5c7b013f5e" y="50.524678"/>
     <use style="fill:#1f77b4;" x="78.870621" xlink:href="#m5c7b013f5e" y="27.864159"/>
     <use style="fill:#1f77b4;" x="82.782238" xlink:href="#m5c7b013f5e" y="73.603608"/>
     <use style="fill:#1f77b4;" x="74.330978" xlink:href="#m5c7b013f5e" y="43.73302"/>
     <use style="fill:#1f77b4;" x="86.029746" xlink:href="#m5c7b013f5e" y="54.89368"/>
     <use style="fill:#1f77b4;" x="77.671294" xlink:href="#m5c7b013f5e" y="43.725858"/>
     <use style="fill:#1f77b4;" x="84.826314" xlink:href="#m5c7b013f5e" y="76.83616"/>
     <use style="fill:#1f77b4;" x="87.995733" xlink:href="#m5c7b013f5e" y="65.81386"/>
     <use style="fill:#1f77b4;" x="77.153067" xlink:href="#m5c7b013f5e" y="85.451551"/>
     <use style="fill:#1f77b4;" x="90.825618" xlink:href="#m5c7b013f5e" y="93.724138"/>
     <use style="fill:#1f77b4;" x="82.337693" xlink:href="#m5c7b013f5e" y="58.304989"/>
     <use style="fill:#1f77b4;" x="83.572167" xlink:href="#m5c7b013f5e" y="86.031558"/>
     <use style="fill:#1f77b4;" x="74.617214" xlink:href="#m5c7b013f5e" y="91.225604"/>
     <use style="fill:#1f77b4;" x="86.117798" xlink:href="#m5c7b013f5e" y="92.535517"/>
     <use style="fill:#1f77b4;" x="86.375744" xlink:href="#m5c7b013f5e" y="103.229257"/>
     <use style="fill:#1f77b4;" x="85.75102" xlink:href="#m5c7b013f5e" y="73.97094"/>
     <use style="fill:#1f77b4;" x="89.193569" xlink:href="#m5c7b013f5e" y="63.995023"/>
     <use style="fill:#1f77b4;" x="85.775919" xlink:href="#m5c7b013f5e" y="93.768856"/>
     <use style="fill:#1f77b4;" x="76.54674" xlink:href="#m5c7b013f5e" y="31.775007"/>
     <use style="fill:#1f77b4;" x="81.685596" xlink:href="#m5c7b013f5e" y="27.850743"/>
     <use style="fill:#1f77b4;" x="78.781687" xlink:href="#m5c7b013f5e" y="31.716828"/>
     <use style="fill:#1f77b4;" x="82.179306" xlink:href="#m5c7b013f5e" y="33.785175"/>
     <use style="fill:#1f77b4;" x="71.244645" xlink:href="#m5c7b013f5e" y="36.217336"/>
     <use style="fill:#1f77b4;" x="74.921681" xlink:href="#m5c7b013f5e" y="30.31824"/>
    </g>
   </g>
   <g id="PathCollection_2">
    <defs>
     <path d="M 0 1.118034 
C 0.296506 1.118034 0.580908 1.000231 0.790569 0.790569 
C 1.000231 0.580908 1.118034 0.296506 1.118034 0 
C 1.118034 -0.296506 1.000231 -0.580908 0.790569 -0.790569 
C 0.580908 -1.000231 0.296506 -1.118034 0 -1.118034 
C -0.296506 -1.118034 -0.580908 -1.000231 -0.790569 -0.790569 
C -1.000231 -0.580908 -1.118034 -0.296506 -1.118034 0 
C -1.118034 0.296506 -1.000231 0.580908 -0.790569 0.790569 
C -0.580908 1.000231 -0.296506 1.118034 0 1.118034 
z
" id="mc05fd34061"/>
    </defs>
    <g clip-path="url(#pd7ae784082)">
     <use style="fill:#ff7f0e;" x="52.424183" xlink:href="#mc05fd34061" y="47.557926"/>
     <use style="fill:#ff7f0e;" x="66.9038" xlink:href="#mc05fd34061" y="70.330844"/>
     <use style="fill:#ff7f0e;" x="56.265775" xlink:href="#mc05fd34061" y="50.572704"/>
     <use style="fill:#ff7f0e;" x="63.435426" xlink:href="#mc05fd34061" y="48.354315"/>
     <use style="fill:#ff7f0e;" x="46.498263" xlink:href="#mc05fd34061" y="32.939157"/>
     <use style="fill:#ff7f0e;" x="76.537248" xlink:href="#mc05fd34061" y="96.573313"/>
     <use style="fill:#ff7f0e;" x="63.549343" xlink:href="#mc05fd34061" y="70.563411"/>
     <use style="fill:#ff7f0e;" x="76.900948" xlink:href="#mc05fd34061" y="82.545255"/>
     <use style="fill:#ff7f0e;" x="82.780705" xlink:href="#mc05fd34061" y="94.995461"/>
     <use style="fill:#ff7f0e;" x="53.232267" xlink:href="#mc05fd34061" y="59.578363"/>
     <use style="fill:#ff7f0e;" x="43.279625" xlink:href="#mc05fd34061" y="44.953995"/>
     <use style="fill:#ff7f0e;" x="57.685612" xlink:href="#mc05fd34061" y="43.475117"/>
     <use style="fill:#ff7f0e;" x="71.659503" xlink:href="#mc05fd34061" y="60.548833"/>
     <use style="fill:#ff7f0e;" x="66.415413" xlink:href="#mc05fd34061" y="47.506559"/>
     <use style="fill:#ff7f0e;" x="65.920428" xlink:href="#mc05fd34061" y="73.404456"/>
     <use style="fill:#ff7f0e;" x="65.295777" xlink:href="#mc05fd34061" y="71.536794"/>
     <use style="fill:#ff7f0e;" x="55.729955" xlink:href="#mc05fd34061" y="56.717402"/>
     <use style="fill:#ff7f0e;" x="72.921495" xlink:href="#mc05fd34061" y="63.683052"/>
     <use style="fill:#ff7f0e;" x="76.6718" xlink:href="#mc05fd34061" y="50.482785"/>
     <use style="fill:#ff7f0e;" x="73.381393" xlink:href="#mc05fd34061" y="63.255297"/>
     <use style="fill:#ff7f0e;" x="60.968507" xlink:href="#mc05fd34061" y="46.444786"/>
     <use style="fill:#ff7f0e;" x="49.369923" xlink:href="#mc05fd34061" y="37.188132"/>
     <use style="fill:#ff7f0e;" x="50.732903" xlink:href="#mc05fd34061" y="61.479031"/>
     <use style="fill:#ff7f0e;" x="55.949425" xlink:href="#mc05fd34061" y="59.259788"/>
     <use style="fill:#ff7f0e;" x="53.524766" xlink:href="#mc05fd34061" y="54.679979"/>
     <use style="fill:#ff7f0e;" x="66.051231" xlink:href="#mc05fd34061" y="77.02113"/>
     <use style="fill:#ff7f0e;" x="72.447227" xlink:href="#mc05fd34061" y="78.413689"/>
     <use style="fill:#ff7f0e;" x="76.311758" xlink:href="#mc05fd34061" y="85.021552"/>
     <use style="fill:#ff7f0e;" x="77.619539" xlink:href="#mc05fd34061" y="100.018258"/>
     <use style="fill:#ff7f0e;" x="70.074127" xlink:href="#mc05fd34061" y="84.300563"/>
     <use style="fill:#ff7f0e;" x="70.580335" xlink:href="#mc05fd34061" y="69.37152"/>
     <use style="fill:#ff7f0e;" x="73.68043" xlink:href="#mc05fd34061" y="85.716598"/>
     <use style="fill:#ff7f0e;" x="64.366812" xlink:href="#mc05fd34061" y="86.936634"/>
     <use style="fill:#ff7f0e;" x="77.015821" xlink:href="#mc05fd34061" y="94.402648"/>
     <use style="fill:#ff7f0e;" x="57.282208" xlink:href="#mc05fd34061" y="76.91903"/>
     <use style="fill:#ff7f0e;" x="71.842782" xlink:href="#mc05fd34061" y="83.530451"/>
     <use style="fill:#ff7f0e;" x="61.042548" xlink:href="#mc05fd34061" y="72.685514"/>
     <use style="fill:#ff7f0e;" x="57.096648" xlink:href="#mc05fd34061" y="31.302269"/>
     <use style="fill:#ff7f0e;" x="57.972157" xlink:href="#mc05fd34061" y="43.67942"/>
     <use style="fill:#ff7f0e;" x="47.151948" xlink:href="#mc05fd34061" y="46.55573"/>
     <use style="fill:#ff7f0e;" x="53.879791" xlink:href="#mc05fd34061" y="36.977528"/>
    </g>
   </g>
   <g id="matplotlib.axis_1">
    <g id="xtick_1">
     <g id="line2d_1">
      <defs>
       <path d="M 0 0 
L 0 3.5 
" id="mb7cff55188" style="stroke:#000000;stroke-width:0.8;"/>
      </defs>
      <g>
       <use style="stroke:#000000;stroke-width:0.8;" x="36.880959" xlink:href="#mb7cff55188" y="107.08"/>
      </g>
     </g>
     <g id="text_1">
      <!-- −10 -->
      <defs>
       <path d="M 10.59375 35.5 
L 73.1875 35.5 
L 73.1875 27.203125 
L 10.59375 27.203125 
z
" id="DejaVuSans-8722"/>
       <path d="M 12.40625 8.296875 
L 28.515625 8.296875 
L 28.515625 63.921875 
L 10.984375 60.40625 
L 10.984375 69.390625 
L 28.421875 72.90625 
L 38.28125 72.90625 
L 38.28125 8.296875 
L 54.390625 8.296875 
L 54.390625 0 
L 12.40625 0 
z
" id="DejaVuSans-49"/>
       <path d="M 31.78125 66.40625 
Q 24.171875 66.40625 20.328125 58.90625 
Q 16.5 51.421875 16.5 36.375 
Q 16.5 21.390625 20.328125 13.890625 
Q 24.171875 6.390625 31.78125 6.390625 
Q 39.453125 6.390625 43.28125 13.890625 
Q 47.125 21.390625 47.125 36.375 
Q 47.125 51.421875 43.28125 58.90625 
Q 39.453125 66.40625 31.78125 66.40625 
z
M 31.78125 74.21875 
Q 44.046875 74.21875 50.515625 64.515625 
Q 56.984375 54.828125 56.984375 36.375 
Q 56.984375 17.96875 50.515625 8.265625 
Q 44.046875 -1.421875 31.78125 -1.421875 
Q 19.53125 -1.421875 13.0625 8.265625 
Q 6.59375 17.96875 6.59375 36.375 
Q 6.59375 54.828125 13.0625 64.515625 
Q 19.53125 74.21875 31.78125 74.21875 
z
" id="DejaVuSans-48"/>
      </defs>
      <g transform="translate(28.439084 120.15875)scale(0.08 -0.08)">
       <use xlink:href="#DejaVuSans-8722"/>
       <use x="83.789062" xlink:href="#DejaVuSans-49"/>
       <use x="147.412109" xlink:href="#DejaVuSans-48"/>
      </g>
     </g>
    </g>
    <g id="xtick_2">
     <g id="line2d_2">
      <g>
       <use style="stroke:#000000;stroke-width:0.8;" x="88.575261" xlink:href="#mb7cff55188" y="107.08"/>
      </g>
     </g>
     <g id="text_2">
      <!-- 0 -->
      <g transform="translate(86.030261 120.15875)scale(0.08 -0.08)">
       <use xlink:href="#DejaVuSans-48"/>
      </g>
     </g>
    </g>
    <g id="xtick_3">
     <g id="line2d_3">
      <g>
       <use style="stroke:#000000;stroke-width:0.8;" x="140.269563" xlink:href="#mb7cff55188" y="107.08"/>
      </g>
     </g>
     <g id="text_3">
      <!-- 10 -->
      <g transform="translate(135.179563 120.15875)scale(0.08 -0.08)">
       <use xlink:href="#DejaVuSans-49"/>
       <use x="63.623047" xlink:href="#DejaVuSans-48"/>
      </g>
     </g>
    </g>
    <g id="text_4">
     <!-- Signal ($\Delta \mu$) -->
     <defs>
      <path d="M 53.515625 70.515625 
L 53.515625 60.890625 
Q 47.90625 63.578125 42.921875 64.890625 
Q 37.9375 66.21875 33.296875 66.21875 
Q 25.25 66.21875 20.875 63.09375 
Q 16.5 59.96875 16.5 54.203125 
Q 16.5 49.359375 19.40625 46.890625 
Q 22.3125 44.4375 30.421875 42.921875 
L 36.375 41.703125 
Q 47.40625 39.59375 52.65625 34.296875 
Q 57.90625 29 57.90625 20.125 
Q 57.90625 9.515625 50.796875 4.046875 
Q 43.703125 -1.421875 29.984375 -1.421875 
Q 24.8125 -1.421875 18.96875 -0.25 
Q 13.140625 0.921875 6.890625 3.21875 
L 6.890625 13.375 
Q 12.890625 10.015625 18.65625 8.296875 
Q 24.421875 6.59375 29.984375 6.59375 
Q 38.421875 6.59375 43.015625 9.90625 
Q 47.609375 13.234375 47.609375 19.390625 
Q 47.609375 24.75 44.3125 27.78125 
Q 41.015625 30.8125 33.5 32.328125 
L 27.484375 33.5 
Q 16.453125 35.6875 11.515625 40.375 
Q 6.59375 45.0625 6.59375 53.421875 
Q 6.59375 63.09375 13.40625 68.65625 
Q 20.21875 74.21875 32.171875 74.21875 
Q 37.3125 74.21875 42.625 73.28125 
Q 47.953125 72.359375 53.515625 70.515625 
z
" id="DejaVuSans-83"/>
      <path d="M 9.421875 54.6875 
L 18.40625 54.6875 
L 18.40625 0 
L 9.421875 0 
z
M 9.421875 75.984375 
L 18.40625 75.984375 
L 18.40625 64.59375 
L 9.421875 64.59375 
z
" id="DejaVuSans-105"/>
      <path d="M 45.40625 27.984375 
Q 45.40625 37.75 41.375 43.109375 
Q 37.359375 48.484375 30.078125 48.484375 
Q 22.859375 48.484375 18.828125 43.109375 
Q 14.796875 37.75 14.796875 27.984375 
Q 14.796875 18.265625 18.828125 12.890625 
Q 22.859375 7.515625 30.078125 7.515625 
Q 37.359375 7.515625 41.375 12.890625 
Q 45.40625 18.265625 45.40625 27.984375 
z
M 54.390625 6.78125 
Q 54.390625 -7.171875 48.1875 -13.984375 
Q 42 -20.796875 29.203125 -20.796875 
Q 24.46875 -20.796875 20.265625 -20.09375 
Q 16.0625 -19.390625 12.109375 -17.921875 
L 12.109375 -9.1875 
Q 16.0625 -11.328125 19.921875 -12.34375 
Q 23.78125 -13.375 27.78125 -13.375 
Q 36.625 -13.375 41.015625 -8.765625 
Q 45.40625 -4.15625 45.40625 5.171875 
L 45.40625 9.625 
Q 42.625 4.78125 38.28125 2.390625 
Q 33.9375 0 27.875 0 
Q 17.828125 0 11.671875 7.65625 
Q 5.515625 15.328125 5.515625 27.984375 
Q 5.515625 40.671875 11.671875 48.328125 
Q 17.828125 56 27.875 56 
Q 33.9375 56 38.28125 53.609375 
Q 42.625 51.21875 45.40625 46.390625 
L 45.40625 54.6875 
L 54.390625 54.6875 
z
" id="DejaVuSans-103"/>
      <path d="M 54.890625 33.015625 
L 54.890625 0 
L 45.90625 0 
L 45.90625 32.71875 
Q 45.90625 40.484375 42.875 44.328125 
Q 39.84375 48.1875 33.796875 48.1875 
Q 26.515625 48.1875 22.3125 43.546875 
Q 18.109375 38.921875 18.109375 30.90625 
L 18.109375 0 
L 9.078125 0 
L 9.078125 54.6875 
L 18.109375 54.6875 
L 18.109375 46.1875 
Q 21.34375 51.125 25.703125 53.5625 
Q 30.078125 56 35.796875 56 
Q 45.21875 56 50.046875 50.171875 
Q 54.890625 44.34375 54.890625 33.015625 
z
" id="DejaVuSans-110"/>
      <path d="M 34.28125 27.484375 
Q 23.390625 27.484375 19.1875 25 
Q 14.984375 22.515625 14.984375 16.5 
Q 14.984375 11.71875 18.140625 8.90625 
Q 21.296875 6.109375 26.703125 6.109375 
Q 34.1875 6.109375 38.703125 11.40625 
Q 43.21875 16.703125 43.21875 25.484375 
L 43.21875 27.484375 
z
M 52.203125 31.203125 
L 52.203125 0 
L 43.21875 0 
L 43.21875 8.296875 
Q 40.140625 3.328125 35.546875 0.953125 
Q 30.953125 -1.421875 24.3125 -1.421875 
Q 15.921875 -1.421875 10.953125 3.296875 
Q 6 8.015625 6 15.921875 
Q 6 25.140625 12.171875 29.828125 
Q 18.359375 34.515625 30.609375 34.515625 
L 43.21875 34.515625 
L 43.21875 35.40625 
Q 43.21875 41.609375 39.140625 45 
Q 35.0625 48.390625 27.6875 48.390625 
Q 23 48.390625 18.546875 47.265625 
Q 14.109375 46.140625 10.015625 43.890625 
L 10.015625 52.203125 
Q 14.9375 54.109375 19.578125 55.046875 
Q 24.21875 56 28.609375 56 
Q 40.484375 56 46.34375 49.84375 
Q 52.203125 43.703125 52.203125 31.203125 
z
" id="DejaVuSans-97"/>
      <path d="M 9.421875 75.984375 
L 18.40625 75.984375 
L 18.40625 0 
L 9.421875 0 
z
" id="DejaVuSans-108"/>
      <path id="DejaVuSans-32"/>
      <path d="M 31 75.875 
Q 24.46875 64.65625 21.28125 53.65625 
Q 18.109375 42.671875 18.109375 31.390625 
Q 18.109375 20.125 21.3125 9.0625 
Q 24.515625 -2 31 -13.1875 
L 23.1875 -13.1875 
Q 15.875 -1.703125 12.234375 9.375 
Q 8.59375 20.453125 8.59375 31.390625 
Q 8.59375 42.28125 12.203125 53.3125 
Q 15.828125 64.359375 23.1875 75.875 
z
" id="DejaVuSans-40"/>
      <path d="M 34.1875 63.1875 
L 14.15625 8.203125 
L 54.25 8.203125 
z
M 0.78125 0 
L 28.609375 72.90625 
L 39.796875 72.90625 
L 67.578125 0 
z
" id="DejaVuSans-916"/>
      <path d="M -1.3125 -20.796875 
L 13.375 54.6875 
L 22.40625 54.6875 
L 15.765625 20.65625 
Q 15.578125 19.625 15.421875 18.359375 
Q 15.28125 17.09375 15.28125 15.828125 
Q 15.28125 11.28125 18.140625 8.828125 
Q 21 6.390625 26.3125 6.390625 
Q 33.546875 6.390625 37.984375 10.484375 
Q 42.4375 14.59375 44 22.796875 
L 50.203125 54.6875 
L 59.1875 54.6875 
L 51.03125 12.640625 
Q 50.828125 11.71875 50.75 11.03125 
Q 50.6875 10.359375 50.6875 9.8125 
Q 50.6875 8.296875 51.296875 7.59375 
Q 51.90625 6.890625 53.21875 6.890625 
Q 53.71875 6.890625 54.5625 7.125 
Q 55.421875 7.375 56.984375 8.015625 
L 55.609375 0.78125 
Q 53.46875 -0.296875 51.515625 -0.859375 
Q 49.5625 -1.421875 47.703125 -1.421875 
Q 44.484375 -1.421875 42.65625 0.625 
Q 40.828125 2.6875 40.828125 6.296875 
Q 38.09375 2.390625 34.296875 0.484375 
Q 30.515625 -1.421875 25.390625 -1.421875 
Q 20.84375 -1.421875 17.453125 0.671875 
Q 14.0625 2.78125 12.984375 6.203125 
L 7.71875 -20.796875 
z
" id="DejaVuSans-Oblique-956"/>
      <path d="M 8.015625 75.875 
L 15.828125 75.875 
Q 23.140625 64.359375 26.78125 53.3125 
Q 30.421875 42.28125 30.421875 31.390625 
Q 30.421875 20.453125 26.78125 9.375 
Q 23.140625 -1.703125 15.828125 -13.1875 
L 8.015625 -13.1875 
Q 14.5 -2 17.703125 9.0625 
Q 20.90625 20.125 20.90625 31.390625 
Q 20.90625 42.671875 17.703125 53.65625 
Q 14.5 64.65625 8.015625 75.875 
z
" id="DejaVuSans-41"/>
     </defs>
     <g transform="translate(63.990546 131.9025)scale(0.08 -0.08)">
      <use transform="translate(0 0.015625)" xlink:href="#DejaVuSans-83"/>
      <use transform="translate(63.476562 0.015625)" xlink:href="#DejaVuSans-105"/>
      <use transform="translate(91.259766 0.015625)" xlink:href="#DejaVuSans-103"/>
      <use transform="translate(154.736328 0.015625)" xlink:href="#DejaVuSans-110"/>
      <use transform="translate(218.115234 0.015625)" xlink:href="#DejaVuSans-97"/>
      <use transform="translate(279.394531 0.015625)" xlink:href="#DejaVuSans-108"/>
      <use transform="translate(307.177734 0.015625)" xlink:href="#DejaVuSans-32"/>
      <use transform="translate(338.964844 0.015625)" xlink:href="#DejaVuSans-40"/>
      <use transform="translate(377.978516 0.015625)" xlink:href="#DejaVuSans-916"/>
      <use transform="translate(446.386719 0.015625)" xlink:href="#DejaVuSans-Oblique-956"/>
      <use transform="translate(510.009766 0.015625)" xlink:href="#DejaVuSans-41"/>
     </g>
    </g>
   </g>
   <g id="matplotlib.axis_2">
    <g id="ytick_1">
     <g id="line2d_4">
      <defs>
       <path d="M 0 0 
L -3.5 0 
" id="mf17abcfe05" style="stroke:#000000;stroke-width:0.8;"/>
      </defs>
      <g>
       <use style="stroke:#000000;stroke-width:0.8;" x="31.97" xlink:href="#mf17abcfe05" y="93.553509"/>
      </g>
     </g>
     <g id="text_5">
      <!-- 0 -->
      <g transform="translate(19.88 96.592884)scale(0.08 -0.08)">
       <use xlink:href="#DejaVuSans-48"/>
      </g>
     </g>
    </g>
    <g id="ytick_2">
     <g id="line2d_5">
      <g>
       <use style="stroke:#000000;stroke-width:0.8;" x="31.97" xlink:href="#mf17abcfe05" y="73.063275"/>
      </g>
     </g>
     <g id="text_6">
      <!-- 2 -->
      <defs>
       <path d="M 19.1875 8.296875 
L 53.609375 8.296875 
L 53.609375 0 
L 7.328125 0 
L 7.328125 8.296875 
Q 12.9375 14.109375 22.625 23.890625 
Q 32.328125 33.6875 34.8125 36.53125 
Q 39.546875 41.84375 41.421875 45.53125 
Q 43.3125 49.21875 43.3125 52.78125 
Q 43.3125 58.59375 39.234375 62.25 
Q 35.15625 65.921875 28.609375 65.921875 
Q 23.96875 65.921875 18.8125 64.3125 
Q 13.671875 62.703125 7.8125 59.421875 
L 7.8125 69.390625 
Q 13.765625 71.78125 18.9375 73 
Q 24.125 74.21875 28.421875 74.21875 
Q 39.75 74.21875 46.484375 68.546875 
Q 53.21875 62.890625 53.21875 53.421875 
Q 53.21875 48.921875 51.53125 44.890625 
Q 49.859375 40.875 45.40625 35.40625 
Q 44.1875 33.984375 37.640625 27.21875 
Q 31.109375 20.453125 19.1875 8.296875 
z
" id="DejaVuSans-50"/>
      </defs>
      <g transform="translate(19.88 76.10265)scale(0.08 -0.08)">
       <use xlink:href="#DejaVuSans-50"/>
      </g>
     </g>
    </g>
    <g id="ytick_3">
     <g id="line2d_6">
      <g>
       <use style="stroke:#000000;stroke-width:0.8;" x="31.97" xlink:href="#mf17abcfe05" y="52.57304"/>
      </g>
     </g>
     <g id="text_7">
      <!-- 4 -->
      <defs>
       <path d="M 37.796875 64.3125 
L 12.890625 25.390625 
L 37.796875 25.390625 
z
M 35.203125 72.90625 
L 47.609375 72.90625 
L 47.609375 25.390625 
L 58.015625 25.390625 
L 58.015625 17.1875 
L 47.609375 17.1875 
L 47.609375 0 
L 37.796875 0 
L 37.796875 17.1875 
L 4.890625 17.1875 
L 4.890625 26.703125 
z
" id="DejaVuSans-52"/>
      </defs>
      <g transform="translate(19.88 55.612415)scale(0.08 -0.08)">
       <use xlink:href="#DejaVuSans-52"/>
      </g>
     </g>
    </g>
    <g id="ytick_4">
     <g id="line2d_7">
      <g>
       <use style="stroke:#000000;stroke-width:0.8;" x="31.97" xlink:href="#mf17abcfe05" y="32.082806"/>
      </g>
     </g>
     <g id="text_8">
      <!-- 6 -->
      <defs>
       <path d="M 33.015625 40.375 
Q 26.375 40.375 22.484375 35.828125 
Q 18.609375 31.296875 18.609375 23.390625 
Q 18.609375 15.53125 22.484375 10.953125 
Q 26.375 6.390625 33.015625 6.390625 
Q 39.65625 6.390625 43.53125 10.953125 
Q 47.40625 15.53125 47.40625 23.390625 
Q 47.40625 31.296875 43.53125 35.828125 
Q 39.65625 40.375 33.015625 40.375 
z
M 52.59375 71.296875 
L 52.59375 62.3125 
Q 48.875 64.0625 45.09375 64.984375 
Q 41.3125 65.921875 37.59375 65.921875 
Q 27.828125 65.921875 22.671875 59.328125 
Q 17.53125 52.734375 16.796875 39.40625 
Q 19.671875 43.65625 24.015625 45.921875 
Q 28.375 48.1875 33.59375 48.1875 
Q 44.578125 48.1875 50.953125 41.515625 
Q 57.328125 34.859375 57.328125 23.390625 
Q 57.328125 12.15625 50.6875 5.359375 
Q 44.046875 -1.421875 33.015625 -1.421875 
Q 20.359375 -1.421875 13.671875 8.265625 
Q 6.984375 17.96875 6.984375 36.375 
Q 6.984375 53.65625 15.1875 63.9375 
Q 23.390625 74.21875 37.203125 74.21875 
Q 40.921875 74.21875 44.703125 73.484375 
Q 48.484375 72.75 52.59375 71.296875 
z
" id="DejaVuSans-54"/>
      </defs>
      <g transform="translate(19.88 35.122181)scale(0.08 -0.08)">
       <use xlink:href="#DejaVuSans-54"/>
      </g>
     </g>
    </g>
    <g id="text_9">
     <!-- Noise -->
     <defs>
      <path d="M 9.8125 72.90625 
L 23.09375 72.90625 
L 55.421875 11.921875 
L 55.421875 72.90625 
L 64.984375 72.90625 
L 64.984375 0 
L 51.703125 0 
L 19.390625 60.984375 
L 19.390625 0 
L 9.8125 0 
z
" id="DejaVuSans-78"/>
      <path d="M 30.609375 48.390625 
Q 23.390625 48.390625 19.1875 42.75 
Q 14.984375 37.109375 14.984375 27.296875 
Q 14.984375 17.484375 19.15625 11.84375 
Q 23.34375 6.203125 30.609375 6.203125 
Q 37.796875 6.203125 41.984375 11.859375 
Q 46.1875 17.53125 46.1875 27.296875 
Q 46.1875 37.015625 41.984375 42.703125 
Q 37.796875 48.390625 30.609375 48.390625 
z
M 30.609375 56 
Q 42.328125 56 49.015625 48.375 
Q 55.71875 40.765625 55.71875 27.296875 
Q 55.71875 13.875 49.015625 6.21875 
Q 42.328125 -1.421875 30.609375 -1.421875 
Q 18.84375 -1.421875 12.171875 6.21875 
Q 5.515625 13.875 5.515625 27.296875 
Q 5.515625 40.765625 12.171875 48.375 
Q 18.84375 56 30.609375 56 
z
" id="DejaVuSans-111"/>
      <path d="M 44.28125 53.078125 
L 44.28125 44.578125 
Q 40.484375 46.53125 36.375 47.5 
Q 32.28125 48.484375 27.875 48.484375 
Q 21.1875 48.484375 17.84375 46.4375 
Q 14.5 44.390625 14.5 40.28125 
Q 14.5 37.15625 16.890625 35.375 
Q 19.28125 33.59375 26.515625 31.984375 
L 29.59375 31.296875 
Q 39.15625 29.25 43.1875 25.515625 
Q 47.21875 21.78125 47.21875 15.09375 
Q 47.21875 7.46875 41.1875 3.015625 
Q 35.15625 -1.421875 24.609375 -1.421875 
Q 20.21875 -1.421875 15.453125 -0.5625 
Q 10.6875 0.296875 5.421875 2 
L 5.421875 11.28125 
Q 10.40625 8.6875 15.234375 7.390625 
Q 20.0625 6.109375 24.8125 6.109375 
Q 31.15625 6.109375 34.5625 8.28125 
Q 37.984375 10.453125 37.984375 14.40625 
Q 37.984375 18.0625 35.515625 20.015625 
Q 33.0625 21.96875 24.703125 23.78125 
L 21.578125 24.515625 
Q 13.234375 26.265625 9.515625 29.90625 
Q 5.8125 33.546875 5.8125 39.890625 
Q 5.8125 47.609375 11.28125 51.796875 
Q 16.75 56 26.8125 56 
Q 31.78125 56 36.171875 55.265625 
Q 40.578125 54.546875 44.28125 53.078125 
z
" id="DejaVuSans-115"/>
      <path d="M 56.203125 29.59375 
L 56.203125 25.203125 
L 14.890625 25.203125 
Q 15.484375 15.921875 20.484375 11.0625 
Q 25.484375 6.203125 34.421875 6.203125 
Q 39.59375 6.203125 44.453125 7.46875 
Q 49.3125 8.734375 54.109375 11.28125 
L 54.109375 2.78125 
Q 49.265625 0.734375 44.1875 -0.34375 
Q 39.109375 -1.421875 33.890625 -1.421875 
Q 20.796875 -1.421875 13.15625 6.1875 
Q 5.515625 13.8125 5.515625 26.8125 
Q 5.515625 40.234375 12.765625 48.109375 
Q 20.015625 56 32.328125 56 
Q 43.359375 56 49.78125 48.890625 
Q 56.203125 41.796875 56.203125 29.59375 
z
M 47.21875 32.234375 
Q 47.125 39.59375 43.09375 43.984375 
Q 39.0625 48.390625 32.421875 48.390625 
Q 24.90625 48.390625 20.390625 44.140625 
Q 15.875 39.890625 15.1875 32.171875 
z
" id="DejaVuSans-101"/>
     </defs>
     <g transform="translate(14.21625 76.63625)rotate(-90)scale(0.08 -0.08)">
      <use xlink:href="#DejaVuSans-78"/>
      <use x="74.804688" xlink:href="#DejaVuSans-111"/>
      <use x="135.986328" xlink:href="#DejaVuSans-105"/>
      <use x="163.769531" xlink:href="#DejaVuSans-115"/>
      <use x="215.869141" xlink:href="#DejaVuSans-101"/>
     </g>
    </g>
   </g>
   <g id="line2d_8">
    <path clip-path="url(#pd7ae784082)" d="M 86.083776 84.20197 
L 85.749113 84.407217 
L 85.398514 84.522961 
L 85.03339 84.548737 
L 84.655213 84.484439 
L 84.265505 84.330328 
L 83.865834 84.087024 
L 83.457811 83.755507 
L 83.043079 83.337111 
L 82.623306 82.833521 
L 82.200185 82.246766 
L 81.775417 81.579207 
L 81.350715 80.833532 
L 80.927787 80.012745 
L 80.508338 79.12015 
L 80.094055 78.159342 
L 79.686607 77.134188 
L 79.287635 76.048819 
L 78.898745 74.907602 
L 78.521503 73.715135 
L 78.157428 72.476218 
L 77.807986 71.19584 
L 77.474585 69.879157 
L 77.158566 68.531471 
L 76.861203 67.158208 
L 76.583692 65.764898 
L 76.327151 64.357151 
L 76.092613 62.940636 
L 75.881022 61.521057 
L 75.693231 60.104129 
L 75.529996 58.695559 
L 75.391973 57.301018 
L 75.279719 55.926121 
L 75.193686 54.576405 
L 75.13422 53.257304 
L 75.10156 51.97413 
L 75.095838 50.73205 
L 75.117078 49.536066 
L 75.165192 48.390992 
L 75.239989 47.301441 
L 75.341167 46.271798 
L 75.468317 45.306211 
L 75.620929 44.408567 
L 75.798388 43.58248 
L 75.999978 42.831278 
L 76.224889 42.157985 
L 76.472215 41.565311 
L 76.74096 41.055644 
L 77.030042 40.631036 
L 77.338296 40.293197 
L 77.664482 40.043486 
L 78.007285 39.88291 
L 78.365327 39.812114 
L 78.737164 39.831385 
L 79.121301 39.940644 
L 79.516189 40.139452 
L 79.920239 40.427007 
L 80.331824 40.802153 
L 80.749287 41.263378 
L 81.170946 41.808825 
L 81.595104 42.436298 
L 82.020053 43.143271 
L 82.444081 43.926896 
L 82.865482 44.784019 
L 83.282558 45.711187 
L 83.693631 46.704668 
L 84.097044 47.760461 
L 84.491173 48.874315 
L 84.874432 50.041745 
L 85.245277 51.25805 
L 85.602215 52.518332 
L 85.943809 53.817516 
L 86.268682 55.150372 
L 86.575528 56.511532 
L 86.86311 57.895515 
L 87.13027 59.296749 
L 87.375933 60.709591 
L 87.59911 62.128352 
L 87.798901 63.54732 
L 87.974503 64.96078 
L 88.125208 66.363042 
L 88.250409 67.748459 
L 88.349603 69.111451 
L 88.422389 70.446532 
L 88.468476 71.748325 
L 88.487676 73.011587 
L 88.479913 74.231234 
L 88.445219 75.402353 
L 88.383732 76.520228 
L 88.2957 77.580359 
L 88.181479 78.578476 
L 88.041527 79.510561 
L 87.876409 80.37286 
L 87.686789 81.161902 
L 87.473431 81.874509 
L 87.237193 82.507811 
L 86.979028 83.059259 
L 86.699974 83.526631 
L 86.401156 83.908047 
L 86.083776 84.20197 
" style="fill:none;stroke:#1f77b4;stroke-linecap:square;"/>
   </g>
   <g id="line2d_9">
    <path clip-path="url(#pd7ae784082)" d="M 67.075995 57.173779 
L 67.679087 58.297365 
L 68.26623 59.44563 
L 68.835061 60.613951 
L 69.383288 61.797622 
L 69.908704 62.991879 
L 70.409194 64.191912 
L 70.882741 65.392888 
L 71.32744 66.589973 
L 71.741499 67.778345 
L 72.123252 68.95322 
L 72.471161 70.109866 
L 72.783826 71.243627 
L 73.059986 72.349938 
L 73.298531 73.424342 
L 73.4985 74.462515 
L 73.659087 75.460275 
L 73.779646 76.413606 
L 73.859691 77.318668 
L 73.898901 78.171817 
L 73.897117 78.969618 
L 73.854346 79.708859 
L 73.770761 80.386562 
L 73.646699 80.999998 
L 73.482658 81.546699 
L 73.279299 82.024461 
L 73.037442 82.431362 
L 72.75806 82.765763 
L 72.442277 83.026318 
L 72.091367 83.211977 
L 71.706741 83.321993 
L 71.289948 83.355923 
L 70.842667 83.31363 
L 70.366698 83.195284 
L 69.863959 83.001363 
L 69.336473 82.732646 
L 68.786365 82.390216 
L 68.215849 81.975452 
L 67.627223 81.490024 
L 67.022858 80.935886 
L 66.405186 80.31527 
L 65.776695 79.630675 
L 65.139915 78.884858 
L 64.497411 78.080821 
L 63.85177 77.221802 
L 63.205591 76.31126 
L 62.561477 75.352862 
L 61.922021 74.350466 
L 61.289798 73.30811 
L 60.667353 72.22999 
L 60.057194 71.120447 
L 59.461776 69.983949 
L 58.883498 68.825073 
L 58.324688 67.648484 
L 57.787596 66.458921 
L 57.274385 65.261173 
L 56.787121 64.060064 
L 56.327766 62.860429 
L 55.898171 61.6671 
L 55.500064 60.484881 
L 55.13505 59.318533 
L 54.804597 58.172753 
L 54.510036 57.052153 
L 54.252553 55.961246 
L 54.033186 54.904426 
L 53.852818 53.885946 
L 53.712174 52.909909 
L 53.611821 51.980245 
L 53.552163 51.100696 
L 53.533441 50.274806 
L 53.55573 49.505898 
L 53.618939 48.797069 
L 53.722815 48.151174 
L 53.86694 47.570814 
L 54.050732 47.058324 
L 54.273452 46.61577 
L 54.534203 46.244932 
L 54.831935 45.947304 
L 55.16545 45.724085 
L 55.533403 45.576173 
L 55.934315 45.504164 
L 56.366569 45.508347 
L 56.828427 45.588707 
L 57.318027 45.744919 
L 57.833399 45.976355 
L 58.372468 46.282082 
L 58.933062 46.66087 
L 59.512924 47.111193 
L 60.10972 47.631238 
L 60.721047 48.21891 
L 61.344442 48.871844 
L 61.977396 49.587411 
L 62.61736 50.362729 
L 63.261757 51.194675 
L 63.907993 52.079901 
L 64.553464 53.014842 
L 65.195572 53.995733 
L 65.831732 55.018624 
L 66.459382 56.079396 
L 67.075995 57.173779 
" style="fill:none;stroke:#ff7f0e;stroke-linecap:square;"/>
   </g>
   <g id="patch_3">
    <path d="M 31.97 107.08 
L 31.97 24 
" style="fill:none;stroke:#000000;stroke-linecap:square;stroke-linejoin:miter;stroke-width:0.8;"/>
   </g>
   <g id="patch_4">
    <path d="M 31.97 107.08 
L 140.011091 107.08 
" style="fill:none;stroke:#000000;stroke-linecap:square;stroke-linejoin:miter;stroke-width:0.8;"/>
   </g>
  </g>
  <g id="axes_2">
   <g id="patch_5">
    <path d="M 171.006667 107.08 
L 279.047758 107.08 
L 279.047758 24 
L 171.006667 24 
z
" style="fill:#ffffff;"/>
   </g>
   <g id="patch_6">
    <path clip-path="url(#p5a11d45911)" d="M 175.917625 107.08 
L 175.917625 107.08 
L 181.087056 107.08 
L 181.087056 107.08 
L 186.256486 107.08 
L 186.256486 107.08 
L 191.425916 107.08 
L 191.425916 107.08 
L 196.595346 107.08 
L 196.595346 107.08 
L 201.764776 107.08 
L 201.764776 107.08 
L 206.934207 107.08 
L 206.934207 107.08 
L 212.103637 107.08 
L 212.103637 102.134762 
L 217.273067 102.134762 
L 217.273067 107.08 
L 222.442497 107.08 
L 222.442497 92.244286 
L 227.611927 92.244286 
L 227.611927 62.572857 
L 232.781358 62.572857 
L 232.781358 62.572857 
L 237.950788 62.572857 
L 237.950788 27.95619 
L 243.120218 27.95619 
L 243.120218 82.35381 
L 248.289648 82.35381 
L 248.289648 102.134762 
L 253.459078 102.134762 
L 253.459078 107.08 
L 258.628508 107.08 
L 258.628508 107.08 
L 263.797939 107.08 
L 263.797939 107.08 
L 268.967369 107.08 
L 268.967369 107.08 
L 274.136799 107.08 
L 274.136799 107.08 
L 268.967369 107.08 
L 268.967369 107.08 
L 263.797939 107.08 
L 263.797939 107.08 
L 258.628508 107.08 
L 258.628508 107.08 
L 253.459078 107.08 
L 253.459078 107.08 
L 248.289648 107.08 
L 248.289648 107.08 
L 243.120218 107.08 
L 243.120218 107.08 
L 237.950788 107.08 
L 237.950788 107.08 
L 232.781358 107.08 
L 232.781358 107.08 
L 227.611927 107.08 
L 227.611927 107.08 
L 222.442497 107.08 
L 222.442497 107.08 
L 217.273067 107.08 
L 217.273067 107.08 
L 212.103637 107.08 
L 212.103637 107.08 
L 206.934207 107.08 
L 206.934207 107.08 
L 201.764776 107.08 
L 201.764776 107.08 
L 196.595346 107.08 
L 196.595346 107.08 
L 191.425916 107.08 
L 191.425916 107.08 
L 186.256486 107.08 
L 186.256486 107.08 
L 181.087056 107.08 
L 181.087056 107.08 
z
" style="fill:#1f77b4;opacity:0.5;"/>
   </g>
   <g id="patch_7">
    <path clip-path="url(#p5a11d45911)" d="M 175.917625 107.08 
L 175.917625 107.08 
L 181.087056 107.08 
L 181.087056 107.08 
L 186.256486 107.08 
L 186.256486 107.08 
L 191.425916 107.08 
L 191.425916 107.08 
L 196.595346 107.08 
L 196.595346 92.244286 
L 201.764776 92.244286 
L 201.764776 97.189524 
L 206.934207 97.189524 
L 206.934207 62.572857 
L 212.103637 62.572857 
L 212.103637 87.299048 
L 217.273067 87.299048 
L 217.273067 67.518095 
L 222.442497 67.518095 
L 222.442497 77.408571 
L 227.611927 77.408571 
L 227.611927 67.518095 
L 232.781358 67.518095 
L 232.781358 102.134762 
L 237.950788 102.134762 
L 237.950788 107.08 
L 243.120218 107.08 
L 243.120218 107.08 
L 248.289648 107.08 
L 248.289648 107.08 
L 253.459078 107.08 
L 253.459078 107.08 
L 258.628508 107.08 
L 258.628508 107.08 
L 263.797939 107.08 
L 263.797939 107.08 
L 268.967369 107.08 
L 268.967369 107.08 
L 274.136799 107.08 
L 274.136799 107.08 
L 268.967369 107.08 
L 268.967369 107.08 
L 263.797939 107.08 
L 263.797939 107.08 
L 258.628508 107.08 
L 258.628508 107.08 
L 253.459078 107.08 
L 253.459078 107.08 
L 248.289648 107.08 
L 248.289648 107.08 
L 243.120218 107.08 
L 243.120218 107.08 
L 237.950788 107.08 
L 237.950788 107.08 
L 232.781358 107.08 
L 232.781358 107.08 
L 227.611927 107.08 
L 227.611927 107.08 
L 222.442497 107.08 
L 222.442497 107.08 
L 217.273067 107.08 
L 217.273067 107.08 
L 212.103637 107.08 
L 212.103637 107.08 
L 206.934207 107.08 
L 206.934207 107.08 
L 201.764776 107.08 
L 201.764776 107.08 
L 196.595346 107.08 
L 196.595346 107.08 
L 191.425916 107.08 
L 191.425916 107.08 
L 186.256486 107.08 
L 186.256486 107.08 
L 181.087056 107.08 
L 181.087056 107.08 
z
" style="fill:#ff7f0e;opacity:0.5;"/>
   </g>
   <g id="matplotlib.axis_3">
    <g id="xtick_4">
     <g id="line2d_10">
      <g>
       <use style="stroke:#000000;stroke-width:0.8;" x="175.917625" xlink:href="#mb7cff55188" y="107.08"/>
      </g>
     </g>
     <g id="text_10">
      <!-- −10 -->
      <g transform="translate(167.47575 120.15875)scale(0.08 -0.08)">
       <use xlink:href="#DejaVuSans-8722"/>
       <use x="83.789062" xlink:href="#DejaVuSans-49"/>
       <use x="147.412109" xlink:href="#DejaVuSans-48"/>
      </g>
     </g>
    </g>
    <g id="xtick_5">
     <g id="line2d_11">
      <g>
       <use style="stroke:#000000;stroke-width:0.8;" x="227.611927" xlink:href="#mb7cff55188" y="107.08"/>
      </g>
     </g>
     <g id="text_11">
      <!-- 0 -->
      <g transform="translate(225.066927 120.15875)scale(0.08 -0.08)">
       <use xlink:href="#DejaVuSans-48"/>
      </g>
     </g>
    </g>
    <g id="xtick_6">
     <g id="line2d_12">
      <g>
       <use style="stroke:#000000;stroke-width:0.8;" x="279.306229" xlink:href="#mb7cff55188" y="107.08"/>
      </g>
     </g>
     <g id="text_12">
      <!-- 10 -->
      <g transform="translate(274.216229 120.15875)scale(0.08 -0.08)">
       <use xlink:href="#DejaVuSans-49"/>
       <use x="63.623047" xlink:href="#DejaVuSans-48"/>
      </g>
     </g>
    </g>
   </g>
   <g id="matplotlib.axis_4">
    <g id="ytick_5">
     <g id="line2d_13">
      <g>
       <use style="stroke:#000000;stroke-width:0.8;" x="171.006667" xlink:href="#mf17abcfe05" y="107.08"/>
      </g>
     </g>
     <g id="text_13">
      <!-- 0 -->
      <g transform="translate(158.916667 110.119375)scale(0.08 -0.08)">
       <use xlink:href="#DejaVuSans-48"/>
      </g>
     </g>
    </g>
    <g id="ytick_6">
     <g id="line2d_14">
      <g>
       <use style="stroke:#000000;stroke-width:0.8;" x="171.006667" xlink:href="#mf17abcfe05" y="82.35381"/>
      </g>
     </g>
     <g id="text_14">
      <!-- 5 -->
      <defs>
       <path d="M 10.796875 72.90625 
L 49.515625 72.90625 
L 49.515625 64.59375 
L 19.828125 64.59375 
L 19.828125 46.734375 
Q 21.96875 47.46875 24.109375 47.828125 
Q 26.265625 48.1875 28.421875 48.1875 
Q 40.625 48.1875 47.75 41.5 
Q 54.890625 34.8125 54.890625 23.390625 
Q 54.890625 11.625 47.5625 5.09375 
Q 40.234375 -1.421875 26.90625 -1.421875 
Q 22.3125 -1.421875 17.546875 -0.640625 
Q 12.796875 0.140625 7.71875 1.703125 
L 7.71875 11.625 
Q 12.109375 9.234375 16.796875 8.0625 
Q 21.484375 6.890625 26.703125 6.890625 
Q 35.15625 6.890625 40.078125 11.328125 
Q 45.015625 15.765625 45.015625 23.390625 
Q 45.015625 31 40.078125 35.4375 
Q 35.15625 39.890625 26.703125 39.890625 
Q 22.75 39.890625 18.8125 39.015625 
Q 14.890625 38.140625 10.796875 36.28125 
z
" id="DejaVuSans-53"/>
      </defs>
      <g transform="translate(158.916667 85.393185)scale(0.08 -0.08)">
       <use xlink:href="#DejaVuSans-53"/>
      </g>
     </g>
    </g>
    <g id="ytick_7">
     <g id="line2d_15">
      <g>
       <use style="stroke:#000000;stroke-width:0.8;" x="171.006667" xlink:href="#mf17abcfe05" y="57.627619"/>
      </g>
     </g>
     <g id="text_15">
      <!-- 10 -->
      <g transform="translate(153.826667 60.666994)scale(0.08 -0.08)">
       <use xlink:href="#DejaVuSans-49"/>
       <use x="63.623047" xlink:href="#DejaVuSans-48"/>
      </g>
     </g>
    </g>
    <g id="ytick_8">
     <g id="line2d_16">
      <g>
       <use style="stroke:#000000;stroke-width:0.8;" x="171.006667" xlink:href="#mf17abcfe05" y="32.901429"/>
      </g>
     </g>
     <g id="text_16">
      <!-- 15 -->
      <g transform="translate(153.826667 35.940804)scale(0.08 -0.08)">
       <use xlink:href="#DejaVuSans-49"/>
       <use x="63.623047" xlink:href="#DejaVuSans-53"/>
      </g>
     </g>
    </g>
   </g>
   <g id="patch_8">
    <path d="M 171.006667 107.08 
L 171.006667 24 
" style="fill:none;stroke:#000000;stroke-linecap:square;stroke-linejoin:miter;stroke-width:0.8;"/>
   </g>
   <g id="patch_9">
    <path d="M 171.006667 107.08 
L 279.047758 107.08 
" style="fill:none;stroke:#000000;stroke-linecap:square;stroke-linejoin:miter;stroke-width:0.8;"/>
   </g>
   <g id="text_17">
    <!-- $\Delta \mu$ projection -->
    <defs>
     <path d="M 18.109375 8.203125 
L 18.109375 -20.796875 
L 9.078125 -20.796875 
L 9.078125 54.6875 
L 18.109375 54.6875 
L 18.109375 46.390625 
Q 20.953125 51.265625 25.265625 53.625 
Q 29.59375 56 35.59375 56 
Q 45.5625 56 51.78125 48.09375 
Q 58.015625 40.1875 58.015625 27.296875 
Q 58.015625 14.40625 51.78125 6.484375 
Q 45.5625 -1.421875 35.59375 -1.421875 
Q 29.59375 -1.421875 25.265625 0.953125 
Q 20.953125 3.328125 18.109375 8.203125 
z
M 48.6875 27.296875 
Q 48.6875 37.203125 44.609375 42.84375 
Q 40.53125 48.484375 33.40625 48.484375 
Q 26.265625 48.484375 22.1875 42.84375 
Q 18.109375 37.203125 18.109375 27.296875 
Q 18.109375 17.390625 22.1875 11.75 
Q 26.265625 6.109375 33.40625 6.109375 
Q 40.53125 6.109375 44.609375 11.75 
Q 48.6875 17.390625 48.6875 27.296875 
z
" id="DejaVuSans-112"/>
     <path d="M 41.109375 46.296875 
Q 39.59375 47.171875 37.8125 47.578125 
Q 36.03125 48 33.890625 48 
Q 26.265625 48 22.1875 43.046875 
Q 18.109375 38.09375 18.109375 28.8125 
L 18.109375 0 
L 9.078125 0 
L 9.078125 54.6875 
L 18.109375 54.6875 
L 18.109375 46.1875 
Q 20.953125 51.171875 25.484375 53.578125 
Q 30.03125 56 36.53125 56 
Q 37.453125 56 38.578125 55.875 
Q 39.703125 55.765625 41.0625 55.515625 
z
" id="DejaVuSans-114"/>
     <path d="M 9.421875 54.6875 
L 18.40625 54.6875 
L 18.40625 -0.984375 
Q 18.40625 -11.421875 14.421875 -16.109375 
Q 10.453125 -20.796875 1.609375 -20.796875 
L -1.8125 -20.796875 
L -1.8125 -13.1875 
L 0.59375 -13.1875 
Q 5.71875 -13.1875 7.5625 -10.8125 
Q 9.421875 -8.453125 9.421875 -0.984375 
z
M 9.421875 75.984375 
L 18.40625 75.984375 
L 18.40625 64.59375 
L 9.421875 64.59375 
z
" id="DejaVuSans-106"/>
     <path d="M 48.78125 52.59375 
L 48.78125 44.1875 
Q 44.96875 46.296875 41.140625 47.34375 
Q 37.3125 48.390625 33.40625 48.390625 
Q 24.65625 48.390625 19.8125 42.84375 
Q 14.984375 37.3125 14.984375 27.296875 
Q 14.984375 17.28125 19.8125 11.734375 
Q 24.65625 6.203125 33.40625 6.203125 
Q 37.3125 6.203125 41.140625 7.25 
Q 44.96875 8.296875 48.78125 10.40625 
L 48.78125 2.09375 
Q 45.015625 0.34375 40.984375 -0.53125 
Q 36.96875 -1.421875 32.421875 -1.421875 
Q 20.0625 -1.421875 12.78125 6.34375 
Q 5.515625 14.109375 5.515625 27.296875 
Q 5.515625 40.671875 12.859375 48.328125 
Q 20.21875 56 33.015625 56 
Q 37.15625 56 41.109375 55.140625 
Q 45.0625 54.296875 48.78125 52.59375 
z
" id="DejaVuSans-99"/>
     <path d="M 18.3125 70.21875 
L 18.3125 54.6875 
L 36.8125 54.6875 
L 36.8125 47.703125 
L 18.3125 47.703125 
L 18.3125 18.015625 
Q 18.3125 11.328125 20.140625 9.421875 
Q 21.96875 7.515625 27.59375 7.515625 
L 36.8125 7.515625 
L 36.8125 0 
L 27.59375 0 
Q 17.1875 0 13.234375 3.875 
Q 9.28125 7.765625 9.28125 18.015625 
L 9.28125 47.703125 
L 2.6875 47.703125 
L 2.6875 54.6875 
L 9.28125 54.6875 
L 9.28125 70.21875 
z
" id="DejaVuSans-116"/>
    </defs>
    <g transform="translate(193.059212 18)scale(0.096 -0.096)">
     <use transform="translate(0 0.015625)" xlink:href="#DejaVuSans-916"/>
     <use transform="translate(68.408203 0.015625)" xlink:href="#DejaVuSans-Oblique-956"/>
     <use transform="translate(132.03125 0.015625)" xlink:href="#DejaVuSans-32"/>
     <use transform="translate(163.818359 0.015625)" xlink:href="#DejaVuSans-112"/>
     <use transform="translate(227.294922 0.015625)" xlink:href="#DejaVuSans-114"/>
     <use transform="translate(268.408203 0.015625)" xlink:href="#DejaVuSans-111"/>
     <use transform="translate(329.589844 0.015625)" xlink:href="#DejaVuSans-106"/>
     <use transform="translate(357.373047 0.015625)" xlink:href="#DejaVuSans-101"/>
     <use transform="translate(418.896484 0.015625)" xlink:href="#DejaVuSans-99"/>
     <use transform="translate(473.876953 0.015625)" xlink:href="#DejaVuSans-116"/>
     <use transform="translate(513.085938 0.015625)" xlink:href="#DejaVuSans-105"/>
     <use transform="translate(540.869141 0.015625)" xlink:href="#DejaVuSans-111"/>
     <use transform="translate(602.050781 0.015625)" xlink:href="#DejaVuSans-110"/>
    </g>
   </g>
  </g>
  <g id="axes_3">
   <g id="patch_10">
    <path d="M 310.043333 107.08 
L 418.084424 107.08 
L 418.084424 24 
L 310.043333 24 
z
" style="fill:#ffffff;"/>
   </g>
   <g id="patch_11">
    <path clip-path="url(#p2fb8b17f0f)" d="M 314.954292 107.08 
L 314.954292 107.08 
L 320.123722 107.08 
L 320.123722 107.08 
L 325.293152 107.08 
L 325.293152 107.08 
L 330.462583 107.08 
L 330.462583 107.08 
L 335.632013 107.08 
L 335.632013 107.08 
L 340.801443 107.08 
L 340.801443 107.08 
L 345.970873 107.08 
L 345.970873 107.08 
L 351.140303 107.08 
L 351.140303 97.189524 
L 356.309734 97.189524 
L 356.309734 97.189524 
L 361.479164 97.189524 
L 361.479164 67.518095 
L 366.648594 67.518095 
L 366.648594 27.95619 
L 371.818024 27.95619 
L 371.818024 42.791905 
L 376.987454 42.791905 
L 376.987454 92.244286 
L 382.156885 92.244286 
L 382.156885 107.08 
L 387.326315 107.08 
L 387.326315 107.08 
L 392.495745 107.08 
L 392.495745 107.08 
L 397.665175 107.08 
L 397.665175 107.08 
L 402.834605 107.08 
L 402.834605 107.08 
L 408.004036 107.08 
L 408.004036 107.08 
L 413.173466 107.08 
L 413.173466 107.08 
L 408.004036 107.08 
L 408.004036 107.08 
L 402.834605 107.08 
L 402.834605 107.08 
L 397.665175 107.08 
L 397.665175 107.08 
L 392.495745 107.08 
L 392.495745 107.08 
L 387.326315 107.08 
L 387.326315 107.08 
L 382.156885 107.08 
L 382.156885 107.08 
L 376.987454 107.08 
L 376.987454 107.08 
L 371.818024 107.08 
L 371.818024 107.08 
L 366.648594 107.08 
L 366.648594 107.08 
L 361.479164 107.08 
L 361.479164 107.08 
L 356.309734 107.08 
L 356.309734 107.08 
L 351.140303 107.08 
L 351.140303 107.08 
L 345.970873 107.08 
L 345.970873 107.08 
L 340.801443 107.08 
L 340.801443 107.08 
L 335.632013 107.08 
L 335.632013 107.08 
L 330.462583 107.08 
L 330.462583 107.08 
L 325.293152 107.08 
L 325.293152 107.08 
L 320.123722 107.08 
L 320.123722 107.08 
z
" style="fill:#1f77b4;opacity:0.5;"/>
   </g>
   <g id="patch_12">
    <path clip-path="url(#p2fb8b17f0f)" d="M 314.954292 107.08 
L 314.954292 107.08 
L 320.123722 107.08 
L 320.123722 107.08 
L 325.293152 107.08 
L 325.293152 107.08 
L 330.462583 107.08 
L 330.462583 107.08 
L 335.632013 107.08 
L 335.632013 107.08 
L 340.801443 107.08 
L 340.801443 82.35381 
L 345.970873 82.35381 
L 345.970873 62.572857 
L 351.140303 62.572857 
L 351.140303 37.846667 
L 356.309734 37.846667 
L 356.309734 52.682381 
L 361.479164 52.682381 
L 361.479164 102.134762 
L 366.648594 102.134762 
L 366.648594 102.134762 
L 371.818024 102.134762 
L 371.818024 107.08 
L 376.987454 107.08 
L 376.987454 107.08 
L 382.156885 107.08 
L 382.156885 107.08 
L 387.326315 107.08 
L 387.326315 107.08 
L 392.495745 107.08 
L 392.495745 107.08 
L 397.665175 107.08 
L 397.665175 107.08 
L 402.834605 107.08 
L 402.834605 107.08 
L 408.004036 107.08 
L 408.004036 107.08 
L 413.173466 107.08 
L 413.173466 107.08 
L 408.004036 107.08 
L 408.004036 107.08 
L 402.834605 107.08 
L 402.834605 107.08 
L 397.665175 107.08 
L 397.665175 107.08 
L 392.495745 107.08 
L 392.495745 107.08 
L 387.326315 107.08 
L 387.326315 107.08 
L 382.156885 107.08 
L 382.156885 107.08 
L 376.987454 107.08 
L 376.987454 107.08 
L 371.818024 107.08 
L 371.818024 107.08 
L 366.648594 107.08 
L 366.648594 107.08 
L 361.479164 107.08 
L 361.479164 107.08 
L 356.309734 107.08 
L 356.309734 107.08 
L 351.140303 107.08 
L 351.140303 107.08 
L 345.970873 107.08 
L 345.970873 107.08 
L 340.801443 107.08 
L 340.801443 107.08 
L 335.632013 107.08 
L 335.632013 107.08 
L 330.462583 107.08 
L 330.462583 107.08 
L 325.293152 107.08 
L 325.293152 107.08 
L 320.123722 107.08 
L 320.123722 107.08 
z
" style="fill:#ff7f0e;opacity:0.5;"/>
   </g>
   <g id="matplotlib.axis_5">
    <g id="xtick_7">
     <g id="line2d_17">
      <g>
       <use style="stroke:#000000;stroke-width:0.8;" x="314.954292" xlink:href="#mb7cff55188" y="107.08"/>
      </g>
     </g>
     <g id="text_18">
      <!-- −10 -->
      <g transform="translate(306.512417 120.15875)scale(0.08 -0.08)">
       <use xlink:href="#DejaVuSans-8722"/>
       <use x="83.789062" xlink:href="#DejaVuSans-49"/>
       <use x="147.412109" xlink:href="#DejaVuSans-48"/>
      </g>
     </g>
    </g>
    <g id="xtick_8">
     <g id="line2d_18">
      <g>
       <use style="stroke:#000000;stroke-width:0.8;" x="366.648594" xlink:href="#mb7cff55188" y="107.08"/>
      </g>
     </g>
     <g id="text_19">
      <!-- 0 -->
      <g transform="translate(364.103594 120.15875)scale(0.08 -0.08)">
       <use xlink:href="#DejaVuSans-48"/>
      </g>
     </g>
    </g>
    <g id="xtick_9">
     <g id="line2d_19">
      <g>
       <use style="stroke:#000000;stroke-width:0.8;" x="418.342896" xlink:href="#mb7cff55188" y="107.08"/>
      </g>
     </g>
     <g id="text_20">
      <!-- 10 -->
      <g transform="translate(413.252896 120.15875)scale(0.08 -0.08)">
       <use xlink:href="#DejaVuSans-49"/>
       <use x="63.623047" xlink:href="#DejaVuSans-48"/>
      </g>
     </g>
    </g>
   </g>
   <g id="matplotlib.axis_6">
    <g id="ytick_9">
     <g id="line2d_20">
      <g>
       <use style="stroke:#000000;stroke-width:0.8;" x="310.043333" xlink:href="#mf17abcfe05" y="107.08"/>
      </g>
     </g>
     <g id="text_21">
      <!-- 0 -->
      <g transform="translate(297.953333 110.119375)scale(0.08 -0.08)">
       <use xlink:href="#DejaVuSans-48"/>
      </g>
     </g>
    </g>
    <g id="ytick_10">
     <g id="line2d_21">
      <g>
       <use style="stroke:#000000;stroke-width:0.8;" x="310.043333" xlink:href="#mf17abcfe05" y="82.35381"/>
      </g>
     </g>
     <g id="text_22">
      <!-- 5 -->
      <g transform="translate(297.953333 85.393185)scale(0.08 -0.08)">
       <use xlink:href="#DejaVuSans-53"/>
      </g>
     </g>
    </g>
    <g id="ytick_11">
     <g id="line2d_22">
      <g>
       <use style="stroke:#000000;stroke-width:0.8;" x="310.043333" xlink:href="#mf17abcfe05" y="57.627619"/>
      </g>
     </g>
     <g id="text_23">
      <!-- 10 -->
      <g transform="translate(292.863333 60.666994)scale(0.08 -0.08)">
       <use xlink:href="#DejaVuSans-49"/>
       <use x="63.623047" xlink:href="#DejaVuSans-48"/>
      </g>
     </g>
    </g>
    <g id="ytick_12">
     <g id="line2d_23">
      <g>
       <use style="stroke:#000000;stroke-width:0.8;" x="310.043333" xlink:href="#mf17abcfe05" y="32.901429"/>
      </g>
     </g>
     <g id="text_24">
      <!-- 15 -->
      <g transform="translate(292.863333 35.940804)scale(0.08 -0.08)">
       <use xlink:href="#DejaVuSans-49"/>
       <use x="63.623047" xlink:href="#DejaVuSans-53"/>
      </g>
     </g>
    </g>
   </g>
   <g id="patch_13">
    <path d="M 310.043333 107.08 
L 310.043333 24 
" style="fill:none;stroke:#000000;stroke-linecap:square;stroke-linejoin:miter;stroke-width:0.8;"/>
   </g>
   <g id="patch_14">
    <path d="M 310.043333 107.08 
L 418.084424 107.08 
" style="fill:none;stroke:#000000;stroke-linecap:square;stroke-linejoin:miter;stroke-width:0.8;"/>
   </g>
   <g id="text_25">
    <!-- $w_{opt}$ projection -->
    <defs>
     <path d="M 8.5 54.6875 
L 17.390625 54.6875 
L 19.671875 10.6875 
L 40.09375 54.6875 
L 50.484375 54.6875 
L 53.515625 10.6875 
L 72.90625 54.6875 
L 81.890625 54.6875 
L 56.890625 0 
L 46.390625 0 
L 43.703125 45.3125 
L 22.796875 0 
L 12.203125 0 
z
" id="DejaVuSans-Oblique-119"/>
     <path d="M 25.390625 -1.421875 
Q 15.765625 -1.421875 10.171875 4.515625 
Q 4.59375 10.453125 4.59375 20.703125 
Q 4.59375 26.65625 6.515625 32.828125 
Q 8.453125 39.015625 11.53125 43.21875 
Q 16.359375 49.75 22.3125 52.875 
Q 28.265625 56 35.796875 56 
Q 45.125 56 50.859375 50.1875 
Q 56.59375 44.390625 56.59375 35.015625 
Q 56.59375 28.515625 54.6875 22.0625 
Q 52.78125 15.625 49.703125 11.375 
Q 44.921875 4.828125 38.96875 1.703125 
Q 33.015625 -1.421875 25.390625 -1.421875 
z
M 13.921875 21 
Q 13.921875 13.578125 17.015625 9.890625 
Q 20.125 6.203125 26.421875 6.203125 
Q 35.453125 6.203125 41.375 14.078125 
Q 47.3125 21.96875 47.3125 34.078125 
Q 47.3125 41.15625 44.140625 44.765625 
Q 40.96875 48.390625 34.8125 48.390625 
Q 29.734375 48.390625 25.78125 46.015625 
Q 21.828125 43.65625 18.703125 38.8125 
Q 16.40625 35.203125 15.15625 30.5625 
Q 13.921875 25.921875 13.921875 21 
z
" id="DejaVuSans-Oblique-111"/>
     <path d="M 49.609375 33.6875 
Q 49.609375 40.875 46.484375 44.671875 
Q 43.359375 48.484375 37.5 48.484375 
Q 33.5 48.484375 29.859375 46.4375 
Q 26.21875 44.390625 23.390625 40.484375 
Q 20.609375 36.625 18.9375 31.15625 
Q 17.28125 25.6875 17.28125 20.3125 
Q 17.28125 13.484375 20.40625 9.796875 
Q 23.53125 6.109375 29.296875 6.109375 
Q 33.546875 6.109375 37.1875 8.109375 
Q 40.828125 10.109375 43.40625 13.921875 
Q 46.1875 17.921875 47.890625 23.34375 
Q 49.609375 28.765625 49.609375 33.6875 
z
M 21.78125 46.390625 
Q 25.390625 51.125 30.296875 53.5625 
Q 35.203125 56 41.21875 56 
Q 49.609375 56 54.25 50.5 
Q 58.890625 45.015625 58.890625 35.109375 
Q 58.890625 27 56 19.65625 
Q 53.125 12.3125 47.703125 6.5 
Q 44.09375 2.640625 39.546875 0.609375 
Q 35.015625 -1.421875 29.984375 -1.421875 
Q 24.171875 -1.421875 20.21875 1 
Q 16.265625 3.421875 14.3125 8.203125 
L 8.6875 -20.796875 
L -0.296875 -20.796875 
L 14.40625 54.6875 
L 23.390625 54.6875 
z
" id="DejaVuSans-Oblique-112"/>
     <path d="M 42.28125 54.6875 
L 40.921875 47.703125 
L 23 47.703125 
L 17.1875 18.015625 
Q 16.890625 16.359375 16.75 15.234375 
Q 16.609375 14.109375 16.609375 13.484375 
Q 16.609375 10.359375 18.484375 8.9375 
Q 20.359375 7.515625 24.515625 7.515625 
L 33.59375 7.515625 
L 32.078125 0 
L 23.484375 0 
Q 15.484375 0 11.546875 3.125 
Q 7.625 6.25 7.625 12.59375 
Q 7.625 13.71875 7.765625 15.0625 
Q 7.90625 16.40625 8.203125 18.015625 
L 14.015625 47.703125 
L 6.390625 47.703125 
L 7.8125 54.6875 
L 15.28125 54.6875 
L 18.3125 70.21875 
L 27.296875 70.21875 
L 24.3125 54.6875 
z
" id="DejaVuSans-Oblique-116"/>
    </defs>
    <g transform="translate(328.879879 18)scale(0.096 -0.096)">
     <use transform="translate(0 0.015625)" xlink:href="#DejaVuSans-Oblique-119"/>
     <use transform="translate(81.787109 -16.390625)scale(0.7)" xlink:href="#DejaVuSans-Oblique-111"/>
     <use transform="translate(124.614258 -16.390625)scale(0.7)" xlink:href="#DejaVuSans-Oblique-112"/>
     <use transform="translate(169.047852 -16.390625)scale(0.7)" xlink:href="#DejaVuSans-Oblique-116"/>
     <use transform="translate(199.228516 0.015625)" xlink:href="#DejaVuSans-32"/>
     <use transform="translate(231.015625 0.015625)" xlink:href="#DejaVuSans-112"/>
     <use transform="translate(294.492188 0.015625)" xlink:href="#DejaVuSans-114"/>
     <use transform="translate(335.605469 0.015625)" xlink:href="#DejaVuSans-111"/>
     <use transform="translate(396.787109 0.015625)" xlink:href="#DejaVuSans-106"/>
     <use transform="translate(424.570312 0.015625)" xlink:href="#DejaVuSans-101"/>
     <use transform="translate(486.09375 0.015625)" xlink:href="#DejaVuSans-99"/>
     <use transform="translate(541.074219 0.015625)" xlink:href="#DejaVuSans-116"/>
     <use transform="translate(580.283203 0.015625)" xlink:href="#DejaVuSans-105"/>
     <use transform="translate(608.066406 0.015625)" xlink:href="#DejaVuSans-111"/>
     <use transform="translate(669.248047 0.015625)" xlink:href="#DejaVuSans-110"/>
    </g>
   </g>
  </g>
 </g>
 <defs>
  <clipPath id="pd7ae784082">
   <rect height="83.08" width="108.041091" x="31.97" y="24"/>
  </clipPath>
  <clipPath id="p5a11d45911">
   <rect height="83.08" width="108.041091" x="171.006667" y="24"/>
  </clipPath>
  <clipPath id="p2fb8b17f0f">
   <rect height="83.08" width="108.041091" x="310.043333" y="24"/>
  </clipPath>
 </defs>
</svg>
