<?xml version="1.0" encoding="utf-8" standalone="no"?>
<!DOCTYPE svg PUBLIC "-//W3C//DTD SVG 1.1//EN"
  "http://www.w3.org/Graphics/SVG/1.1/DTD/svg11.dtd">
<!-- Created with matplotlib (https://matplotlib.org/) -->
<svg height="144pt" version="1.1" viewBox="0 0 432 144" width="432pt" xmlns="http://www.w3.org/2000/svg" xmlns:xlink="http://www.w3.org/1999/xlink">
 <defs>
  <style type="text/css">
*{stroke-linecap:butt;stroke-linejoin:round;}
  </style>
 </defs>
 <g id="figure_1">
  <g id="patch_1">
   <path d="M 0 144 
L 432 144 
L 432 0 
L 0 0 
z
" style="fill:#ffffff;"/>
  </g>
  <g id="axes_1">
   <g id="patch_2">
    <path d="M 40.515 102.36 
L 145.717758 102.36 
L 145.717758 24.64 
L 40.515 24.64 
z
" style="fill:#ffffff;"/>
   </g>
   <g id="PathCollection_1">
    <defs>
     <path d="M 0 1.118034 
C 0.296506 1.118034 0.580908 1.000231 0.790569 0.790569 
C 1.000231 0.580908 1.118034 0.296506 1.118034 0 
C 1.118034 -0.296506 1.000231 -0.580908 0.790569 -0.790569 
C 0.580908 -1.000231 0.296506 -1.118034 0 -1.118034 
C -0.296506 -1.118034 -0.580908 -1.000231 -0.790569 -0.790569 
C -1.000231 -0.580908 -1.118034 -0.296506 -1.118034 0 
C -1.118034 0.296506 -1.000231 0.580908 -0.790569 0.790569 
C -0.580908 1.000231 -0.296506 1.118034 0 1.118034 
z
" id="ma1cf616be7"/>
    </defs>
    <g clip-path="url(#p3159b42bf3)">
     <use style="fill:#1f77b4;" x="129.039918" xlink:href="#ma1cf616be7" y="50.531348"/>
     <use style="fill:#1f77b4;" x="123.137981" xlink:href="#ma1cf616be7" y="55.806736"/>
     <use style="fill:#1f77b4;" x="122.000615" xlink:href="#ma1cf616be7" y="41.62645"/>
     <use style="fill:#1f77b4;" x="122.909666" xlink:href="#ma1cf616be7" y="65.605033"/>
     <use style="fill:#1f77b4;" x="116.822751" xlink:href="#ma1cf616be7" y="70.368488"/>
     <use style="fill:#1f77b4;" x="107.846837" xlink:href="#ma1cf616be7" y="87.938297"/>
     <use style="fill:#1f77b4;" x="114.996761" xlink:href="#ma1cf616be7" y="83.23125"/>
     <use style="fill:#1f77b4;" x="106.056279" xlink:href="#ma1cf616be7" y="85.058411"/>
     <use style="fill:#1f77b4;" x="121.112071" xlink:href="#ma1cf616be7" y="64.350934"/>
     <use style="fill:#1f77b4;" x="132.103161" xlink:href="#ma1cf616be7" y="55.57271"/>
     <use style="fill:#1f77b4;" x="131.214194" xlink:href="#ma1cf616be7" y="40.576901"/>
     <use style="fill:#1f77b4;" x="132.202052" xlink:href="#ma1cf616be7" y="51.835549"/>
     <use style="fill:#1f77b4;" x="111.518424" xlink:href="#ma1cf616be7" y="85.200323"/>
     <use style="fill:#1f77b4;" x="101.910359" xlink:href="#ma1cf616be7" y="90.071187"/>
     <use style="fill:#1f77b4;" x="120.095535" xlink:href="#ma1cf616be7" y="85.151532"/>
     <use style="fill:#1f77b4;" x="96.80104" xlink:href="#ma1cf616be7" y="94.805275"/>
     <use style="fill:#1f77b4;" x="130.792818" xlink:href="#ma1cf616be7" y="59.104741"/>
     <use style="fill:#1f77b4;" x="125.209853" xlink:href="#ma1cf616be7" y="63.629965"/>
     <use style="fill:#1f77b4;" x="126.354223" xlink:href="#ma1cf616be7" y="77.639683"/>
     <use style="fill:#1f77b4;" x="123.064615" xlink:href="#ma1cf616be7" y="67.768463"/>
     <use style="fill:#1f77b4;" x="134.608835" xlink:href="#ma1cf616be7" y="40.258543"/>
     <use style="fill:#1f77b4;" x="121.186364" xlink:href="#ma1cf616be7" y="59.153257"/>
     <use style="fill:#1f77b4;" x="133.909088" xlink:href="#ma1cf616be7" y="39.656323"/>
     <use style="fill:#1f77b4;" x="117.43777" xlink:href="#ma1cf616be7" y="76.158619"/>
     <use style="fill:#1f77b4;" x="132.611692" xlink:href="#ma1cf616be7" y="51.726244"/>
     <use style="fill:#1f77b4;" x="126.113275" xlink:href="#ma1cf616be7" y="69.83814"/>
     <use style="fill:#1f77b4;" x="130.214366" xlink:href="#ma1cf616be7" y="51.220548"/>
     <use style="fill:#1f77b4;" x="114.794627" xlink:href="#ma1cf616be7" y="80.715171"/>
     <use style="fill:#1f77b4;" x="120.69552" xlink:href="#ma1cf616be7" y="75.137807"/>
     <use style="fill:#1f77b4;" x="106.611559" xlink:href="#ma1cf616be7" y="74.223526"/>
     <use style="fill:#1f77b4;" x="104.044201" xlink:href="#ma1cf616be7" y="93.39644"/>
     <use style="fill:#1f77b4;" x="124.947399" xlink:href="#ma1cf616be7" y="61.507291"/>
     <use style="fill:#1f77b4;" x="107.415692" xlink:href="#ma1cf616be7" y="85.489924"/>
     <use style="fill:#1f77b4;" x="107.334596" xlink:href="#ma1cf616be7" y="88.058074"/>
     <use style="fill:#1f77b4;" x="100.845808" xlink:href="#ma1cf616be7" y="86.956885"/>
     <use style="fill:#1f77b4;" x="100.7743" xlink:href="#ma1cf616be7" y="98.707858"/>
     <use style="fill:#1f77b4;" x="117.237076" xlink:href="#ma1cf616be7" y="86.043253"/>
     <use style="fill:#1f77b4;" x="121.371242" xlink:href="#ma1cf616be7" y="70.954933"/>
     <use style="fill:#1f77b4;" x="101.220436" xlink:href="#ma1cf616be7" y="92.362411"/>
     <use style="fill:#1f77b4;" x="130.816254" xlink:href="#ma1cf616be7" y="40.285355"/>
     <use style="fill:#1f77b4;" x="132.635346" xlink:href="#ma1cf616be7" y="34.163578"/>
     <use style="fill:#1f77b4;" x="136.124149" xlink:href="#ma1cf616be7" y="51.555811"/>
     <use style="fill:#1f77b4;" x="131.422099" xlink:href="#ma1cf616be7" y="46.918676"/>
     <use style="fill:#1f77b4;" x="129.580296" xlink:href="#ma1cf616be7" y="32.747432"/>
     <use style="fill:#1f77b4;" x="129.003565" xlink:href="#ma1cf616be7" y="34.572395"/>
     <use style="fill:#1f77b4;" x="128.685759" xlink:href="#ma1cf616be7" y="28.292142"/>
    </g>
   </g>
   <g id="PathCollection_2">
    <defs>
     <path d="M 0 1.118034 
C 0.296506 1.118034 0.580908 1.000231 0.790569 0.790569 
C 1.000231 0.580908 1.118034 0.296506 1.118034 0 
C 1.118034 -0.296506 1.000231 -0.580908 0.790569 -0.790569 
C 0.580908 -1.000231 0.296506 -1.118034 0 -1.118034 
C -0.296506 -1.118034 -0.580908 -1.000231 -0.790569 -0.790569 
C -1.000231 -0.580908 -1.118034 -0.296506 -1.118034 0 
C -1.118034 0.296506 -1.000231 0.580908 -0.790569 0.790569 
C -0.580908 1.000231 -0.296506 1.118034 0 1.118034 
z
" id="m8266007d64"/>
    </defs>
    <g clip-path="url(#p3159b42bf3)">
     <use style="fill:#ff7f0e;" x="76.828186" xlink:href="#m8266007d64" y="55.247791"/>
     <use style="fill:#ff7f0e;" x="80.12447" xlink:href="#m8266007d64" y="72.702394"/>
     <use style="fill:#ff7f0e;" x="81.987387" xlink:href="#m8266007d64" y="60.373709"/>
     <use style="fill:#ff7f0e;" x="80.146265" xlink:href="#m8266007d64" y="49.626258"/>
     <use style="fill:#ff7f0e;" x="87.148089" xlink:href="#m8266007d64" y="74.929248"/>
     <use style="fill:#ff7f0e;" x="89.396925" xlink:href="#m8266007d64" y="91.939985"/>
     <use style="fill:#ff7f0e;" x="89.135809" xlink:href="#m8266007d64" y="86.635545"/>
     <use style="fill:#ff7f0e;" x="90.257091" xlink:href="#m8266007d64" y="88.064272"/>
     <use style="fill:#ff7f0e;" x="80.405021" xlink:href="#m8266007d64" y="39.150753"/>
     <use style="fill:#ff7f0e;" x="80.506505" xlink:href="#m8266007d64" y="44.683348"/>
     <use style="fill:#ff7f0e;" x="80.881753" xlink:href="#m8266007d64" y="64.380949"/>
     <use style="fill:#ff7f0e;" x="83.391941" xlink:href="#m8266007d64" y="73.398176"/>
     <use style="fill:#ff7f0e;" x="89.517313" xlink:href="#m8266007d64" y="80.111715"/>
     <use style="fill:#ff7f0e;" x="84.289663" xlink:href="#m8266007d64" y="62.531196"/>
     <use style="fill:#ff7f0e;" x="90.04965" xlink:href="#m8266007d64" y="82.187088"/>
     <use style="fill:#ff7f0e;" x="80.401173" xlink:href="#m8266007d64" y="70.436205"/>
     <use style="fill:#ff7f0e;" x="80.048154" xlink:href="#m8266007d64" y="66.589029"/>
     <use style="fill:#ff7f0e;" x="77.354905" xlink:href="#m8266007d64" y="63.853306"/>
     <use style="fill:#ff7f0e;" x="84.176739" xlink:href="#m8266007d64" y="56.515089"/>
     <use style="fill:#ff7f0e;" x="79.897662" xlink:href="#m8266007d64" y="61.556461"/>
     <use style="fill:#ff7f0e;" x="78.028655" xlink:href="#m8266007d64" y="63.629277"/>
     <use style="fill:#ff7f0e;" x="87.943343" xlink:href="#m8266007d64" y="83.134773"/>
     <use style="fill:#ff7f0e;" x="75.327489" xlink:href="#m8266007d64" y="57.055526"/>
     <use style="fill:#ff7f0e;" x="80.399904" xlink:href="#m8266007d64" y="57.198224"/>
     <use style="fill:#ff7f0e;" x="78.435084" xlink:href="#m8266007d64" y="58.760554"/>
     <use style="fill:#ff7f0e;" x="79.310591" xlink:href="#m8266007d64" y="58.353064"/>
     <use style="fill:#ff7f0e;" x="83.663311" xlink:href="#m8266007d64" y="71.441649"/>
     <use style="fill:#ff7f0e;" x="92.471861" xlink:href="#m8266007d64" y="83.714126"/>
     <use style="fill:#ff7f0e;" x="89.462609" xlink:href="#m8266007d64" y="76.661672"/>
     <use style="fill:#ff7f0e;" x="92.337821" xlink:href="#m8266007d64" y="96.837388"/>
     <use style="fill:#ff7f0e;" x="91.035915" xlink:href="#m8266007d64" y="84.921962"/>
     <use style="fill:#ff7f0e;" x="92.333234" xlink:href="#m8266007d64" y="93.275479"/>
     <use style="fill:#ff7f0e;" x="97.405731" xlink:href="#m8266007d64" y="79.077877"/>
     <use style="fill:#ff7f0e;" x="80.845485" xlink:href="#m8266007d64" y="80.364192"/>
     <use style="fill:#ff7f0e;" x="89.346801" xlink:href="#m8266007d64" y="91.374583"/>
     <use style="fill:#ff7f0e;" x="77.002763" xlink:href="#m8266007d64" y="52.750444"/>
     <use style="fill:#ff7f0e;" x="81.961066" xlink:href="#m8266007d64" y="76.725644"/>
     <use style="fill:#ff7f0e;" x="86.161992" xlink:href="#m8266007d64" y="83.417498"/>
     <use style="fill:#ff7f0e;" x="78.873299" xlink:href="#m8266007d64" y="45.606755"/>
     <use style="fill:#ff7f0e;" x="80.04256" xlink:href="#m8266007d64" y="50.74804"/>
     <use style="fill:#ff7f0e;" x="82.968193" xlink:href="#m8266007d64" y="50.705137"/>
     <use style="fill:#ff7f0e;" x="80.093538" xlink:href="#m8266007d64" y="42.065128"/>
     <use style="fill:#ff7f0e;" x="83.111348" xlink:href="#m8266007d64" y="55.262351"/>
     <use style="fill:#ff7f0e;" x="79.331158" xlink:href="#m8266007d64" y="56.817645"/>
    </g>
   </g>
   <g id="matplotlib.axis_1">
    <g id="xtick_1">
     <g id="line2d_1">
      <defs>
       <path d="M 0 0 
L 0 3.5 
" id="ma2405a7539" style="stroke:#000000;stroke-width:0.8;"/>
      </defs>
      <g>
       <use style="stroke:#000000;stroke-width:0.8;" x="45.296944" xlink:href="#ma2405a7539" y="102.36"/>
      </g>
     </g>
     <g id="text_1">
      <!-- −10 -->
      <defs>
       <path d="M 10.59375 35.5 
L 73.1875 35.5 
L 73.1875 27.203125 
L 10.59375 27.203125 
z
" id="DejaVuSans-8722"/>
       <path d="M 12.40625 8.296875 
L 28.515625 8.296875 
L 28.515625 63.921875 
L 10.984375 60.40625 
L 10.984375 69.390625 
L 28.421875 72.90625 
L 38.28125 72.90625 
L 38.28125 8.296875 
L 54.390625 8.296875 
L 54.390625 0 
L 12.40625 0 
z
" id="DejaVuSans-49"/>
       <path d="M 31.78125 66.40625 
Q 24.171875 66.40625 20.328125 58.90625 
Q 16.5 51.421875 16.5 36.375 
Q 16.5 21.390625 20.328125 13.890625 
Q 24.171875 6.390625 31.78125 6.390625 
Q 39.453125 6.390625 43.28125 13.890625 
Q 47.125 21.390625 47.125 36.375 
Q 47.125 51.421875 43.28125 58.90625 
Q 39.453125 66.40625 31.78125 66.40625 
z
M 31.78125 74.21875 
Q 44.046875 74.21875 50.515625 64.515625 
Q 56.984375 54.828125 56.984375 36.375 
Q 56.984375 17.96875 50.515625 8.265625 
Q 44.046875 -1.421875 31.78125 -1.421875 
Q 19.53125 -1.421875 13.0625 8.265625 
Q 6.59375 17.96875 6.59375 36.375 
Q 6.59375 54.828125 13.0625 64.515625 
Q 19.53125 74.21875 31.78125 74.21875 
z
" id="DejaVuSans-48"/>
      </defs>
      <g transform="translate(36.855069 115.43875)scale(0.08 -0.08)">
       <use xlink:href="#DejaVuSans-8722"/>
       <use x="83.789062" xlink:href="#DejaVuSans-49"/>
       <use x="147.412109" xlink:href="#DejaVuSans-48"/>
      </g>
     </g>
    </g>
    <g id="xtick_2">
     <g id="line2d_2">
      <g>
       <use style="stroke:#000000;stroke-width:0.8;" x="95.633191" xlink:href="#ma2405a7539" y="102.36"/>
      </g>
     </g>
     <g id="text_2">
      <!-- 0 -->
      <g transform="translate(93.088191 115.43875)scale(0.08 -0.08)">
       <use xlink:href="#DejaVuSans-48"/>
      </g>
     </g>
    </g>
    <g id="xtick_3">
     <g id="line2d_3">
      <g>
       <use style="stroke:#000000;stroke-width:0.8;" x="145.969439" xlink:href="#ma2405a7539" y="102.36"/>
      </g>
     </g>
     <g id="text_3">
      <!-- 10 -->
      <g transform="translate(140.879439 115.43875)scale(0.08 -0.08)">
       <use xlink:href="#DejaVuSans-49"/>
       <use x="63.623047" xlink:href="#DejaVuSans-48"/>
      </g>
     </g>
    </g>
    <g id="text_4">
     <!-- Signal ($\Delta \mu$) -->
     <defs>
      <path d="M 53.515625 70.515625 
L 53.515625 60.890625 
Q 47.90625 63.578125 42.921875 64.890625 
Q 37.9375 66.21875 33.296875 66.21875 
Q 25.25 66.21875 20.875 63.09375 
Q 16.5 59.96875 16.5 54.203125 
Q 16.5 49.359375 19.40625 46.890625 
Q 22.3125 44.4375 30.421875 42.921875 
L 36.375 41.703125 
Q 47.40625 39.59375 52.65625 34.296875 
Q 57.90625 29 57.90625 20.125 
Q 57.90625 9.515625 50.796875 4.046875 
Q 43.703125 -1.421875 29.984375 -1.421875 
Q 24.8125 -1.421875 18.96875 -0.25 
Q 13.140625 0.921875 6.890625 3.21875 
L 6.890625 13.375 
Q 12.890625 10.015625 18.65625 8.296875 
Q 24.421875 6.59375 29.984375 6.59375 
Q 38.421875 6.59375 43.015625 9.90625 
Q 47.609375 13.234375 47.609375 19.390625 
Q 47.609375 24.75 44.3125 27.78125 
Q 41.015625 30.8125 33.5 32.328125 
L 27.484375 33.5 
Q 16.453125 35.6875 11.515625 40.375 
Q 6.59375 45.0625 6.59375 53.421875 
Q 6.59375 63.09375 13.40625 68.65625 
Q 20.21875 74.21875 32.171875 74.21875 
Q 37.3125 74.21875 42.625 73.28125 
Q 47.953125 72.359375 53.515625 70.515625 
z
" id="DejaVuSans-83"/>
      <path d="M 9.421875 54.6875 
L 18.40625 54.6875 
L 18.40625 0 
L 9.421875 0 
z
M 9.421875 75.984375 
L 18.40625 75.984375 
L 18.40625 64.59375 
L 9.421875 64.59375 
z
" id="DejaVuSans-105"/>
      <path d="M 45.40625 27.984375 
Q 45.40625 37.75 41.375 43.109375 
Q 37.359375 48.484375 30.078125 48.484375 
Q 22.859375 48.484375 18.828125 43.109375 
Q 14.796875 37.75 14.796875 27.984375 
Q 14.796875 18.265625 18.828125 12.890625 
Q 22.859375 7.515625 30.078125 7.515625 
Q 37.359375 7.515625 41.375 12.890625 
Q 45.40625 18.265625 45.40625 27.984375 
z
M 54.390625 6.78125 
Q 54.390625 -7.171875 48.1875 -13.984375 
Q 42 -20.796875 29.203125 -20.796875 
Q 24.46875 -20.796875 20.265625 -20.09375 
Q 16.0625 -19.390625 12.109375 -17.921875 
L 12.109375 -9.1875 
Q 16.0625 -11.328125 19.921875 -12.34375 
Q 23.78125 -13.375 27.78125 -13.375 
Q 36.625 -13.375 41.015625 -8.765625 
Q 45.40625 -4.15625 45.40625 5.171875 
L 45.40625 9.625 
Q 42.625 4.78125 38.28125 2.390625 
Q 33.9375 0 27.875 0 
Q 17.828125 0 11.671875 7.65625 
Q 5.515625 15.328125 5.515625 27.984375 
Q 5.515625 40.671875 11.671875 48.328125 
Q 17.828125 56 27.875 56 
Q 33.9375 56 38.28125 53.609375 
Q 42.625 51.21875 45.40625 46.390625 
L 45.40625 54.6875 
L 54.390625 54.6875 
z
" id="DejaVuSans-103"/>
      <path d="M 54.890625 33.015625 
L 54.890625 0 
L 45.90625 0 
L 45.90625 32.71875 
Q 45.90625 40.484375 42.875 44.328125 
Q 39.84375 48.1875 33.796875 48.1875 
Q 26.515625 48.1875 22.3125 43.546875 
Q 18.109375 38.921875 18.109375 30.90625 
L 18.109375 0 
L 9.078125 0 
L 9.078125 54.6875 
L 18.109375 54.6875 
L 18.109375 46.1875 
Q 21.34375 51.125 25.703125 53.5625 
Q 30.078125 56 35.796875 56 
Q 45.21875 56 50.046875 50.171875 
Q 54.890625 44.34375 54.890625 33.015625 
z
" id="DejaVuSans-110"/>
      <path d="M 34.28125 27.484375 
Q 23.390625 27.484375 19.1875 25 
Q 14.984375 22.515625 14.984375 16.5 
Q 14.984375 11.71875 18.140625 8.90625 
Q 21.296875 6.109375 26.703125 6.109375 
Q 34.1875 6.109375 38.703125 11.40625 
Q 43.21875 16.703125 43.21875 25.484375 
L 43.21875 27.484375 
z
M 52.203125 31.203125 
L 52.203125 0 
L 43.21875 0 
L 43.21875 8.296875 
Q 40.140625 3.328125 35.546875 0.953125 
Q 30.953125 -1.421875 24.3125 -1.421875 
Q 15.921875 -1.421875 10.953125 3.296875 
Q 6 8.015625 6 15.921875 
Q 6 25.140625 12.171875 29.828125 
Q 18.359375 34.515625 30.609375 34.515625 
L 43.21875 34.515625 
L 43.21875 35.40625 
Q 43.21875 41.609375 39.140625 45 
Q 35.0625 48.390625 27.6875 48.390625 
Q 23 48.390625 18.546875 47.265625 
Q 14.109375 46.140625 10.015625 43.890625 
L 10.015625 52.203125 
Q 14.9375 54.109375 19.578125 55.046875 
Q 24.21875 56 28.609375 56 
Q 40.484375 56 46.34375 49.84375 
Q 52.203125 43.703125 52.203125 31.203125 
z
" id="DejaVuSans-97"/>
      <path d="M 9.421875 75.984375 
L 18.40625 75.984375 
L 18.40625 0 
L 9.421875 0 
z
" id="DejaVuSans-108"/>
      <path id="DejaVuSans-32"/>
      <path d="M 31 75.875 
Q 24.46875 64.65625 21.28125 53.65625 
Q 18.109375 42.671875 18.109375 31.390625 
Q 18.109375 20.125 21.3125 9.0625 
Q 24.515625 -2 31 -13.1875 
L 23.1875 -13.1875 
Q 15.875 -1.703125 12.234375 9.375 
Q 8.59375 20.453125 8.59375 31.390625 
Q 8.59375 42.28125 12.203125 53.3125 
Q 15.828125 64.359375 23.1875 75.875 
z
" id="DejaVuSans-40"/>
      <path d="M 34.1875 63.1875 
L 14.15625 8.203125 
L 54.25 8.203125 
z
M 0.78125 0 
L 28.609375 72.90625 
L 39.796875 72.90625 
L 67.578125 0 
z
" id="DejaVuSans-916"/>
      <path d="M -1.3125 -20.796875 
L 13.375 54.6875 
L 22.40625 54.6875 
L 15.765625 20.65625 
Q 15.578125 19.625 15.421875 18.359375 
Q 15.28125 17.09375 15.28125 15.828125 
Q 15.28125 11.28125 18.140625 8.828125 
Q 21 6.390625 26.3125 6.390625 
Q 33.546875 6.390625 37.984375 10.484375 
Q 42.4375 14.59375 44 22.796875 
L 50.203125 54.6875 
L 59.1875 54.6875 
L 51.03125 12.640625 
Q 50.828125 11.71875 50.75 11.03125 
Q 50.6875 10.359375 50.6875 9.8125 
Q 50.6875 8.296875 51.296875 7.59375 
Q 51.90625 6.890625 53.21875 6.890625 
Q 53.71875 6.890625 54.5625 7.125 
Q 55.421875 7.375 56.984375 8.015625 
L 55.609375 0.78125 
Q 53.46875 -0.296875 51.515625 -0.859375 
Q 49.5625 -1.421875 47.703125 -1.421875 
Q 44.484375 -1.421875 42.65625 0.625 
Q 40.828125 2.6875 40.828125 6.296875 
Q 38.09375 2.390625 34.296875 0.484375 
Q 30.515625 -1.421875 25.390625 -1.421875 
Q 20.84375 -1.421875 17.453125 0.671875 
Q 14.0625 2.78125 12.984375 6.203125 
L 7.71875 -20.796875 
z
" id="DejaVuSans-Oblique-956"/>
      <path d="M 8.015625 75.875 
L 15.828125 75.875 
Q 23.140625 64.359375 26.78125 53.3125 
Q 30.421875 42.28125 30.421875 31.390625 
Q 30.421875 20.453125 26.78125 9.375 
Q 23.140625 -1.703125 15.828125 -13.1875 
L 8.015625 -13.1875 
Q 14.5 -2 17.703125 9.0625 
Q 20.90625 20.125 20.90625 31.390625 
Q 20.90625 42.671875 17.703125 53.65625 
Q 14.5 64.65625 8.015625 75.875 
z
" id="DejaVuSans-41"/>
     </defs>
     <g transform="translate(71.116379 127.1825)scale(0.08 -0.08)">
      <use transform="translate(0 0.015625)" xlink:href="#DejaVuSans-83"/>
      <use transform="translate(63.476562 0.015625)" xlink:href="#DejaVuSans-105"/>
      <use transform="translate(91.259766 0.015625)" xlink:href="#DejaVuSans-103"/>
      <use transform="translate(154.736328 0.015625)" xlink:href="#DejaVuSans-110"/>
      <use transform="translate(218.115234 0.015625)" xlink:href="#DejaVuSans-97"/>
      <use transform="translate(279.394531 0.015625)" xlink:href="#DejaVuSans-108"/>
      <use transform="translate(307.177734 0.015625)" xlink:href="#DejaVuSans-32"/>
      <use transform="translate(338.964844 0.015625)" xlink:href="#DejaVuSans-40"/>
      <use transform="translate(377.978516 0.015625)" xlink:href="#DejaVuSans-916"/>
      <use transform="translate(446.386719 0.015625)" xlink:href="#DejaVuSans-Oblique-956"/>
      <use transform="translate(510.009766 0.015625)" xlink:href="#DejaVuSans-41"/>
     </g>
    </g>
   </g>
   <g id="matplotlib.axis_2">
    <g id="ytick_1">
     <g id="line2d_4">
      <defs>
       <path d="M 0 0 
L -3.5 0 
" id="mf7da1228a4" style="stroke:#000000;stroke-width:0.8;"/>
      </defs>
      <g>
       <use style="stroke:#000000;stroke-width:0.8;" x="40.515" xlink:href="#mf7da1228a4" y="102.061439"/>
      </g>
     </g>
     <g id="text_5">
      <!-- −2 -->
      <defs>
       <path d="M 19.1875 8.296875 
L 53.609375 8.296875 
L 53.609375 0 
L 7.328125 0 
L 7.328125 8.296875 
Q 12.9375 14.109375 22.625 23.890625 
Q 32.328125 33.6875 34.8125 36.53125 
Q 39.546875 41.84375 41.421875 45.53125 
Q 43.3125 49.21875 43.3125 52.78125 
Q 43.3125 58.59375 39.234375 62.25 
Q 35.15625 65.921875 28.609375 65.921875 
Q 23.96875 65.921875 18.8125 64.3125 
Q 13.671875 62.703125 7.8125 59.421875 
L 7.8125 69.390625 
Q 13.765625 71.78125 18.9375 73 
Q 24.125 74.21875 28.421875 74.21875 
Q 39.75 74.21875 46.484375 68.546875 
Q 53.21875 62.890625 53.21875 53.421875 
Q 53.21875 48.921875 51.53125 44.890625 
Q 49.859375 40.875 45.40625 35.40625 
Q 44.1875 33.984375 37.640625 27.21875 
Q 31.109375 20.453125 19.1875 8.296875 
z
" id="DejaVuSans-50"/>
      </defs>
      <g transform="translate(21.72125 105.100814)scale(0.08 -0.08)">
       <use xlink:href="#DejaVuSans-8722"/>
       <use x="83.789062" xlink:href="#DejaVuSans-50"/>
      </g>
     </g>
    </g>
    <g id="ytick_2">
     <g id="line2d_5">
      <g>
       <use style="stroke:#000000;stroke-width:0.8;" x="40.515" xlink:href="#mf7da1228a4" y="78.837166"/>
      </g>
     </g>
     <g id="text_6">
      <!-- 0 -->
      <g transform="translate(28.425 81.876541)scale(0.08 -0.08)">
       <use xlink:href="#DejaVuSans-48"/>
      </g>
     </g>
    </g>
    <g id="ytick_3">
     <g id="line2d_6">
      <g>
       <use style="stroke:#000000;stroke-width:0.8;" x="40.515" xlink:href="#mf7da1228a4" y="55.612893"/>
      </g>
     </g>
     <g id="text_7">
      <!-- 2 -->
      <g transform="translate(28.425 58.652268)scale(0.08 -0.08)">
       <use xlink:href="#DejaVuSans-50"/>
      </g>
     </g>
    </g>
    <g id="ytick_4">
     <g id="line2d_7">
      <g>
       <use style="stroke:#000000;stroke-width:0.8;" x="40.515" xlink:href="#mf7da1228a4" y="32.38862"/>
      </g>
     </g>
     <g id="text_8">
      <!-- 4 -->
      <defs>
       <path d="M 37.796875 64.3125 
L 12.890625 25.390625 
L 37.796875 25.390625 
z
M 35.203125 72.90625 
L 47.609375 72.90625 
L 47.609375 25.390625 
L 58.015625 25.390625 
L 58.015625 17.1875 
L 47.609375 17.1875 
L 47.609375 0 
L 37.796875 0 
L 37.796875 17.1875 
L 4.890625 17.1875 
L 4.890625 26.703125 
z
" id="DejaVuSans-52"/>
      </defs>
      <g transform="translate(28.425 35.427995)scale(0.08 -0.08)">
       <use xlink:href="#DejaVuSans-52"/>
      </g>
     </g>
    </g>
    <g id="text_9">
     <!-- Noise -->
     <defs>
      <path d="M 9.8125 72.90625 
L 23.09375 72.90625 
L 55.421875 11.921875 
L 55.421875 72.90625 
L 64.984375 72.90625 
L 64.984375 0 
L 51.703125 0 
L 19.390625 60.984375 
L 19.390625 0 
L 9.8125 0 
z
" id="DejaVuSans-78"/>
      <path d="M 30.609375 48.390625 
Q 23.390625 48.390625 19.1875 42.75 
Q 14.984375 37.109375 14.984375 27.296875 
Q 14.984375 17.484375 19.15625 11.84375 
Q 23.34375 6.203125 30.609375 6.203125 
Q 37.796875 6.203125 41.984375 11.859375 
Q 46.1875 17.53125 46.1875 27.296875 
Q 46.1875 37.015625 41.984375 42.703125 
Q 37.796875 48.390625 30.609375 48.390625 
z
M 30.609375 56 
Q 42.328125 56 49.015625 48.375 
Q 55.71875 40.765625 55.71875 27.296875 
Q 55.71875 13.875 49.015625 6.21875 
Q 42.328125 -1.421875 30.609375 -1.421875 
Q 18.84375 -1.421875 12.171875 6.21875 
Q 5.515625 13.875 5.515625 27.296875 
Q 5.515625 40.765625 12.171875 48.375 
Q 18.84375 56 30.609375 56 
z
" id="DejaVuSans-111"/>
      <path d="M 44.28125 53.078125 
L 44.28125 44.578125 
Q 40.484375 46.53125 36.375 47.5 
Q 32.28125 48.484375 27.875 48.484375 
Q 21.1875 48.484375 17.84375 46.4375 
Q 14.5 44.390625 14.5 40.28125 
Q 14.5 37.15625 16.890625 35.375 
Q 19.28125 33.59375 26.515625 31.984375 
L 29.59375 31.296875 
Q 39.15625 29.25 43.1875 25.515625 
Q 47.21875 21.78125 47.21875 15.09375 
Q 47.21875 7.46875 41.1875 3.015625 
Q 35.15625 -1.421875 24.609375 -1.421875 
Q 20.21875 -1.421875 15.453125 -0.5625 
Q 10.6875 0.296875 5.421875 2 
L 5.421875 11.28125 
Q 10.40625 8.6875 15.234375 7.390625 
Q 20.0625 6.109375 24.8125 6.109375 
Q 31.15625 6.109375 34.5625 8.28125 
Q 37.984375 10.453125 37.984375 14.40625 
Q 37.984375 18.0625 35.515625 20.015625 
Q 33.0625 21.96875 24.703125 23.78125 
L 21.578125 24.515625 
Q 13.234375 26.265625 9.515625 29.90625 
Q 5.8125 33.546875 5.8125 39.890625 
Q 5.8125 47.609375 11.28125 51.796875 
Q 16.75 56 26.8125 56 
Q 31.78125 56 36.171875 55.265625 
Q 40.578125 54.546875 44.28125 53.078125 
z
" id="DejaVuSans-115"/>
      <path d="M 56.203125 29.59375 
L 56.203125 25.203125 
L 14.890625 25.203125 
Q 15.484375 15.921875 20.484375 11.0625 
Q 25.484375 6.203125 34.421875 6.203125 
Q 39.59375 6.203125 44.453125 7.46875 
Q 49.3125 8.734375 54.109375 11.28125 
L 54.109375 2.78125 
Q 49.265625 0.734375 44.1875 -0.34375 
Q 39.109375 -1.421875 33.890625 -1.421875 
Q 20.796875 -1.421875 13.15625 6.1875 
Q 5.515625 13.8125 5.515625 26.8125 
Q 5.515625 40.234375 12.765625 48.109375 
Q 20.015625 56 32.328125 56 
Q 43.359375 56 49.78125 48.890625 
Q 56.203125 41.796875 56.203125 29.59375 
z
M 47.21875 32.234375 
Q 47.125 39.59375 43.09375 43.984375 
Q 39.0625 48.390625 32.421875 48.390625 
Q 24.90625 48.390625 20.390625 44.140625 
Q 15.875 39.890625 15.1875 32.171875 
z
" id="DejaVuSans-101"/>
     </defs>
     <g transform="translate(16.0575 74.59625)rotate(-90)scale(0.08 -0.08)">
      <use xlink:href="#DejaVuSans-78"/>
      <use x="74.804688" xlink:href="#DejaVuSans-111"/>
      <use x="135.986328" xlink:href="#DejaVuSans-105"/>
      <use x="163.769531" xlink:href="#DejaVuSans-115"/>
      <use x="215.869141" xlink:href="#DejaVuSans-101"/>
     </g>
    </g>
   </g>
   <g id="line2d_8">
    <path clip-path="url(#p3159b42bf3)" d="M 118.259996 59.25579 
L 118.956631 58.079915 
L 119.65894 56.935055 
L 120.364095 55.825818 
L 121.069258 54.756671 
L 121.771589 53.73192 
L 122.468259 52.75569 
L 123.156464 51.831913 
L 123.833432 50.964308 
L 124.496437 50.156369 
L 125.142811 49.411349 
L 125.769949 48.732248 
L 126.375327 48.1218 
L 126.956507 47.582464 
L 127.511148 47.116411 
L 128.037019 46.725519 
L 128.532 46.41136 
L 128.994099 46.175199 
L 129.421456 46.017989 
L 129.812349 45.940362 
L 130.165204 45.94263 
L 130.478601 46.024784 
L 130.751277 46.186494 
L 130.982136 46.427108 
L 131.170246 46.745658 
L 131.314851 47.140861 
L 131.415368 47.611124 
L 131.471393 48.154556 
L 131.4827 48.768968 
L 131.449243 49.451885 
L 131.371158 50.200558 
L 131.248758 51.011972 
L 131.082537 51.88286 
L 130.873163 52.809715 
L 130.62148 53.788805 
L 130.328502 54.816187 
L 129.995408 55.887725 
L 129.623539 56.999105 
L 129.214393 58.145849 
L 128.769616 59.323342 
L 128.291001 60.526842 
L 127.780475 61.751503 
L 127.240092 62.992394 
L 126.672029 64.244517 
L 126.078574 65.502831 
L 125.462116 66.76227 
L 124.825137 68.017762 
L 124.170202 69.264251 
L 123.499948 70.496718 
L 122.817075 71.710202 
L 122.124331 72.899814 
L 121.424507 74.060766 
L 120.72042 75.188382 
L 120.014906 76.278123 
L 119.310805 77.325599 
L 118.610952 78.326594 
L 117.918166 79.277076 
L 117.235235 80.173218 
L 116.564911 81.011412 
L 115.909892 81.788283 
L 115.272816 82.500702 
L 114.656247 83.145801 
L 114.062669 83.720982 
L 113.494473 84.22393 
L 112.953944 84.652619 
L 112.443261 85.005322 
L 111.96448 85.28062 
L 111.519528 85.477405 
L 111.110197 85.594883 
L 110.738136 85.632581 
L 110.404842 85.590349 
L 110.111658 85.468355 
L 109.859764 85.267092 
L 109.650174 84.987369 
L 109.483732 84.630313 
L 109.36111 84.197362 
L 109.282799 83.690259 
L 109.249116 83.111046 
L 109.260197 82.462054 
L 109.315996 81.745899 
L 109.416289 80.965462 
L 109.560672 80.123888 
L 109.748564 79.224564 
L 109.979208 78.271111 
L 110.251676 77.267369 
L 110.56487 76.217381 
L 110.917529 75.125372 
L 111.308233 73.995741 
L 111.73541 72.833037 
L 112.197338 71.641941 
L 112.692158 70.427249 
L 113.217877 69.193852 
L 113.772379 67.946718 
L 114.353431 66.690867 
L 114.958692 65.431356 
L 115.585727 64.173257 
L 116.232009 62.921637 
L 116.894937 61.681534 
L 117.571841 60.457943 
L 118.259996 59.25579 
" style="fill:none;stroke:#1f77b4;stroke-linecap:square;"/>
   </g>
   <g id="line2d_9">
    <path clip-path="url(#p3159b42bf3)" d="M 88.55439 82.914569 
L 88.403023 83.12987 
L 88.232815 83.284506 
L 88.044449 83.377854 
L 87.838685 83.409537 
L 87.616351 83.37943 
L 87.378342 83.287652 
L 87.125617 83.134573 
L 86.859193 82.920811 
L 86.580144 82.647224 
L 86.289592 82.314916 
L 85.988707 81.925224 
L 85.678702 81.479717 
L 85.360824 80.98019 
L 85.036354 80.428653 
L 84.706598 79.827327 
L 84.372884 79.178635 
L 84.036555 78.485187 
L 83.698966 77.749776 
L 83.361476 76.975364 
L 83.025444 76.165069 
L 82.692224 75.322153 
L 82.363157 74.45001 
L 82.039567 73.552153 
L 81.722759 72.632197 
L 81.414007 71.693846 
L 81.114555 70.740878 
L 80.825609 69.777131 
L 80.548333 68.806485 
L 80.283841 67.832849 
L 80.033201 66.860144 
L 79.79742 65.892286 
L 79.577449 64.933172 
L 79.374173 63.986664 
L 79.188411 63.056574 
L 79.02091 62.146646 
L 78.872345 61.260546 
L 78.743315 60.40184 
L 78.634338 59.573986 
L 78.545854 58.780318 
L 78.478219 58.024032 
L 78.431705 57.308173 
L 78.4065 56.635624 
L 78.402705 56.009092 
L 78.420335 55.431101 
L 78.45932 54.903977 
L 78.519502 54.429844 
L 78.60064 54.01061 
L 78.702405 53.647964 
L 78.824389 53.343366 
L 78.966101 53.098042 
L 79.126969 52.91298 
L 79.306346 52.788926 
L 79.503511 52.726379 
L 79.717667 52.72559 
L 79.947955 52.786563 
L 80.193445 52.909053 
L 80.453151 53.092566 
L 80.726025 53.336364 
L 81.010969 53.639464 
L 81.306836 54.000646 
L 81.612435 54.418455 
L 81.926535 54.891211 
L 82.24787 55.417008 
L 82.575148 55.993729 
L 82.907051 56.619053 
L 83.242241 57.290461 
L 83.57937 58.00525 
L 83.917079 58.760542 
L 84.254009 59.553294 
L 84.588804 60.380317 
L 84.920115 61.238278 
L 85.246607 62.123723 
L 85.566967 63.033088 
L 85.879905 63.96271 
L 86.18416 64.908846 
L 86.478507 65.867686 
L 86.761761 66.835369 
L 87.032782 67.808 
L 87.290477 68.781661 
L 87.53381 69.752431 
L 87.761801 70.716403 
L 87.973531 71.669693 
L 88.168148 72.608465 
L 88.344869 73.528937 
L 88.502981 74.427404 
L 88.641849 75.300246 
L 88.760912 76.143951 
L 88.859692 76.95512 
L 88.937791 77.730487 
L 88.994894 78.46693 
L 89.030772 79.161484 
L 89.045279 79.811352 
L 89.038358 80.413917 
L 89.010036 80.966753 
L 88.960428 81.467634 
L 88.889732 81.914542 
L 88.798235 82.305679 
L 88.686304 82.639469 
L 88.55439 82.914569 
" style="fill:none;stroke:#ff7f0e;stroke-linecap:square;"/>
   </g>
   <g id="patch_3">
    <path d="M 40.515 102.36 
L 40.515 24.64 
" style="fill:none;stroke:#000000;stroke-linecap:square;stroke-linejoin:miter;stroke-width:0.8;"/>
   </g>
   <g id="patch_4">
    <path d="M 40.515 102.36 
L 145.717758 102.36 
" style="fill:none;stroke:#000000;stroke-linecap:square;stroke-linejoin:miter;stroke-width:0.8;"/>
   </g>
  </g>
  <g id="axes_2">
   <g id="patch_5">
    <path d="M 176.718333 102.36 
L 281.921091 102.36 
L 281.921091 24.64 
L 176.718333 24.64 
z
" style="fill:#ffffff;"/>
   </g>
   <g id="patch_6">
    <path clip-path="url(#p4baa185066)" d="M 181.500277 102.36 
L 181.500277 102.36 
L 186.533902 102.36 
L 186.533902 102.36 
L 191.567526 102.36 
L 191.567526 102.36 
L 196.601151 102.36 
L 196.601151 102.36 
L 201.634776 102.36 
L 201.634776 102.36 
L 206.668401 102.36 
L 206.668401 102.36 
L 211.702026 102.36 
L 211.702026 102.36 
L 216.73565 102.36 
L 216.73565 102.36 
L 221.769275 102.36 
L 221.769275 98.659048 
L 226.8029 98.659048 
L 226.8029 87.55619 
L 231.836525 87.55619 
L 231.836525 83.855238 
L 236.870149 83.855238 
L 236.870149 94.958095 
L 241.903774 94.958095 
L 241.903774 83.855238 
L 246.937399 83.855238 
L 246.937399 80.154286 
L 251.971024 80.154286 
L 251.971024 76.453333 
L 257.004648 76.453333 
L 257.004648 54.247619 
L 262.038273 54.247619 
L 262.038273 91.257143 
L 267.071898 91.257143 
L 267.071898 102.36 
L 272.105523 102.36 
L 272.105523 102.36 
L 277.139148 102.36 
L 277.139148 102.36 
L 272.105523 102.36 
L 272.105523 102.36 
L 267.071898 102.36 
L 267.071898 102.36 
L 262.038273 102.36 
L 262.038273 102.36 
L 257.004648 102.36 
L 257.004648 102.36 
L 251.971024 102.36 
L 251.971024 102.36 
L 246.937399 102.36 
L 246.937399 102.36 
L 241.903774 102.36 
L 241.903774 102.36 
L 236.870149 102.36 
L 236.870149 102.36 
L 231.836525 102.36 
L 231.836525 102.36 
L 226.8029 102.36 
L 226.8029 102.36 
L 221.769275 102.36 
L 221.769275 102.36 
L 216.73565 102.36 
L 216.73565 102.36 
L 211.702026 102.36 
L 211.702026 102.36 
L 206.668401 102.36 
L 206.668401 102.36 
L 201.634776 102.36 
L 201.634776 102.36 
L 196.601151 102.36 
L 196.601151 102.36 
L 191.567526 102.36 
L 191.567526 102.36 
L 186.533902 102.36 
L 186.533902 102.36 
z
" style="fill:#1f77b4;opacity:0.5;"/>
   </g>
   <g id="patch_7">
    <path clip-path="url(#p4baa185066)" d="M 181.500277 102.36 
L 181.500277 102.36 
L 186.533902 102.36 
L 186.533902 102.36 
L 191.567526 102.36 
L 191.567526 102.36 
L 196.601151 102.36 
L 196.601151 102.36 
L 201.634776 102.36 
L 201.634776 91.257143 
L 206.668401 91.257143 
L 206.668401 28.340952 
L 211.702026 28.340952 
L 211.702026 72.752381 
L 216.73565 72.752381 
L 216.73565 61.649524 
L 221.769275 61.649524 
L 221.769275 94.958095 
L 226.8029 94.958095 
L 226.8029 102.36 
L 231.836525 102.36 
L 231.836525 102.36 
L 236.870149 102.36 
L 236.870149 102.36 
L 241.903774 102.36 
L 241.903774 102.36 
L 246.937399 102.36 
L 246.937399 102.36 
L 251.971024 102.36 
L 251.971024 102.36 
L 257.004648 102.36 
L 257.004648 102.36 
L 262.038273 102.36 
L 262.038273 102.36 
L 267.071898 102.36 
L 267.071898 102.36 
L 272.105523 102.36 
L 272.105523 102.36 
L 277.139148 102.36 
L 277.139148 102.36 
L 272.105523 102.36 
L 272.105523 102.36 
L 267.071898 102.36 
L 267.071898 102.36 
L 262.038273 102.36 
L 262.038273 102.36 
L 257.004648 102.36 
L 257.004648 102.36 
L 251.971024 102.36 
L 251.971024 102.36 
L 246.937399 102.36 
L 246.937399 102.36 
L 241.903774 102.36 
L 241.903774 102.36 
L 236.870149 102.36 
L 236.870149 102.36 
L 231.836525 102.36 
L 231.836525 102.36 
L 226.8029 102.36 
L 226.8029 102.36 
L 221.769275 102.36 
L 221.769275 102.36 
L 216.73565 102.36 
L 216.73565 102.36 
L 211.702026 102.36 
L 211.702026 102.36 
L 206.668401 102.36 
L 206.668401 102.36 
L 201.634776 102.36 
L 201.634776 102.36 
L 196.601151 102.36 
L 196.601151 102.36 
L 191.567526 102.36 
L 191.567526 102.36 
L 186.533902 102.36 
L 186.533902 102.36 
z
" style="fill:#ff7f0e;opacity:0.5;"/>
   </g>
   <g id="matplotlib.axis_3">
    <g id="xtick_4">
     <g id="line2d_10">
      <g>
       <use style="stroke:#000000;stroke-width:0.8;" x="181.500277" xlink:href="#ma2405a7539" y="102.36"/>
      </g>
     </g>
     <g id="text_10">
      <!-- −10 -->
      <g transform="translate(173.058402 115.43875)scale(0.08 -0.08)">
       <use xlink:href="#DejaVuSans-8722"/>
       <use x="83.789062" xlink:href="#DejaVuSans-49"/>
       <use x="147.412109" xlink:href="#DejaVuSans-48"/>
      </g>
     </g>
    </g>
    <g id="xtick_5">
     <g id="line2d_11">
      <g>
       <use style="stroke:#000000;stroke-width:0.8;" x="231.836525" xlink:href="#ma2405a7539" y="102.36"/>
      </g>
     </g>
     <g id="text_11">
      <!-- 0 -->
      <g transform="translate(229.291525 115.43875)scale(0.08 -0.08)">
       <use xlink:href="#DejaVuSans-48"/>
      </g>
     </g>
    </g>
    <g id="xtick_6">
     <g id="line2d_12">
      <g>
       <use style="stroke:#000000;stroke-width:0.8;" x="282.172772" xlink:href="#ma2405a7539" y="102.36"/>
      </g>
     </g>
     <g id="text_12">
      <!-- 10 -->
      <g transform="translate(277.082772 115.43875)scale(0.08 -0.08)">
       <use xlink:href="#DejaVuSans-49"/>
       <use x="63.623047" xlink:href="#DejaVuSans-48"/>
      </g>
     </g>
    </g>
   </g>
   <g id="matplotlib.axis_4">
    <g id="ytick_5">
     <g id="line2d_13">
      <g>
       <use style="stroke:#000000;stroke-width:0.8;" x="176.718333" xlink:href="#mf7da1228a4" y="102.36"/>
      </g>
     </g>
     <g id="text_13">
      <!-- 0 -->
      <g transform="translate(164.628333 105.399375)scale(0.08 -0.08)">
       <use xlink:href="#DejaVuSans-48"/>
      </g>
     </g>
    </g>
    <g id="ytick_6">
     <g id="line2d_14">
      <g>
       <use style="stroke:#000000;stroke-width:0.8;" x="176.718333" xlink:href="#mf7da1228a4" y="65.350476"/>
      </g>
     </g>
     <g id="text_14">
      <!-- 10 -->
      <g transform="translate(159.538333 68.389851)scale(0.08 -0.08)">
       <use xlink:href="#DejaVuSans-49"/>
       <use x="63.623047" xlink:href="#DejaVuSans-48"/>
      </g>
     </g>
    </g>
    <g id="ytick_7">
     <g id="line2d_15">
      <g>
       <use style="stroke:#000000;stroke-width:0.8;" x="176.718333" xlink:href="#mf7da1228a4" y="28.340952"/>
      </g>
     </g>
     <g id="text_15">
      <!-- 20 -->
      <g transform="translate(159.538333 31.380327)scale(0.08 -0.08)">
       <use xlink:href="#DejaVuSans-50"/>
       <use x="63.623047" xlink:href="#DejaVuSans-48"/>
      </g>
     </g>
    </g>
   </g>
   <g id="patch_8">
    <path d="M 176.718333 102.36 
L 176.718333 24.64 
" style="fill:none;stroke:#000000;stroke-linecap:square;stroke-linejoin:miter;stroke-width:0.8;"/>
   </g>
   <g id="patch_9">
    <path d="M 176.718333 102.36 
L 281.921091 102.36 
" style="fill:none;stroke:#000000;stroke-linecap:square;stroke-linejoin:miter;stroke-width:0.8;"/>
   </g>
   <g id="text_16">
    <!-- $\Delta \mu$ projection -->
    <defs>
     <path d="M 18.109375 8.203125 
L 18.109375 -20.796875 
L 9.078125 -20.796875 
L 9.078125 54.6875 
L 18.109375 54.6875 
L 18.109375 46.390625 
Q 20.953125 51.265625 25.265625 53.625 
Q 29.59375 56 35.59375 56 
Q 45.5625 56 51.78125 48.09375 
Q 58.015625 40.1875 58.015625 27.296875 
Q 58.015625 14.40625 51.78125 6.484375 
Q 45.5625 -1.421875 35.59375 -1.421875 
Q 29.59375 -1.421875 25.265625 0.953125 
Q 20.953125 3.328125 18.109375 8.203125 
z
M 48.6875 27.296875 
Q 48.6875 37.203125 44.609375 42.84375 
Q 40.53125 48.484375 33.40625 48.484375 
Q 26.265625 48.484375 22.1875 42.84375 
Q 18.109375 37.203125 18.109375 27.296875 
Q 18.109375 17.390625 22.1875 11.75 
Q 26.265625 6.109375 33.40625 6.109375 
Q 40.53125 6.109375 44.609375 11.75 
Q 48.6875 17.390625 48.6875 27.296875 
z
" id="DejaVuSans-112"/>
     <path d="M 41.109375 46.296875 
Q 39.59375 47.171875 37.8125 47.578125 
Q 36.03125 48 33.890625 48 
Q 26.265625 48 22.1875 43.046875 
Q 18.109375 38.09375 18.109375 28.8125 
L 18.109375 0 
L 9.078125 0 
L 9.078125 54.6875 
L 18.109375 54.6875 
L 18.109375 46.1875 
Q 20.953125 51.171875 25.484375 53.578125 
Q 30.03125 56 36.53125 56 
Q 37.453125 56 38.578125 55.875 
Q 39.703125 55.765625 41.0625 55.515625 
z
" id="DejaVuSans-114"/>
     <path d="M 9.421875 54.6875 
L 18.40625 54.6875 
L 18.40625 -0.984375 
Q 18.40625 -11.421875 14.421875 -16.109375 
Q 10.453125 -20.796875 1.609375 -20.796875 
L -1.8125 -20.796875 
L -1.8125 -13.1875 
L 0.59375 -13.1875 
Q 5.71875 -13.1875 7.5625 -10.8125 
Q 9.421875 -8.453125 9.421875 -0.984375 
z
M 9.421875 75.984375 
L 18.40625 75.984375 
L 18.40625 64.59375 
L 9.421875 64.59375 
z
" id="DejaVuSans-106"/>
     <path d="M 48.78125 52.59375 
L 48.78125 44.1875 
Q 44.96875 46.296875 41.140625 47.34375 
Q 37.3125 48.390625 33.40625 48.390625 
Q 24.65625 48.390625 19.8125 42.84375 
Q 14.984375 37.3125 14.984375 27.296875 
Q 14.984375 17.28125 19.8125 11.734375 
Q 24.65625 6.203125 33.40625 6.203125 
Q 37.3125 6.203125 41.140625 7.25 
Q 44.96875 8.296875 48.78125 10.40625 
L 48.78125 2.09375 
Q 45.015625 0.34375 40.984375 -0.53125 
Q 36.96875 -1.421875 32.421875 -1.421875 
Q 20.0625 -1.421875 12.78125 6.34375 
Q 5.515625 14.109375 5.515625 27.296875 
Q 5.515625 40.671875 12.859375 48.328125 
Q 20.21875 56 33.015625 56 
Q 37.15625 56 41.109375 55.140625 
Q 45.0625 54.296875 48.78125 52.59375 
z
" id="DejaVuSans-99"/>
     <path d="M 18.3125 70.21875 
L 18.3125 54.6875 
L 36.8125 54.6875 
L 36.8125 47.703125 
L 18.3125 47.703125 
L 18.3125 18.015625 
Q 18.3125 11.328125 20.140625 9.421875 
Q 21.96875 7.515625 27.59375 7.515625 
L 36.8125 7.515625 
L 36.8125 0 
L 27.59375 0 
Q 17.1875 0 13.234375 3.875 
Q 9.28125 7.765625 9.28125 18.015625 
L 9.28125 47.703125 
L 2.6875 47.703125 
L 2.6875 54.6875 
L 9.28125 54.6875 
L 9.28125 70.21875 
z
" id="DejaVuSans-116"/>
    </defs>
    <g transform="translate(197.351712 18.64)scale(0.096 -0.096)">
     <use transform="translate(0 0.015625)" xlink:href="#DejaVuSans-916"/>
     <use transform="translate(68.408203 0.015625)" xlink:href="#DejaVuSans-Oblique-956"/>
     <use transform="translate(132.03125 0.015625)" xlink:href="#DejaVuSans-32"/>
     <use transform="translate(163.818359 0.015625)" xlink:href="#DejaVuSans-112"/>
     <use transform="translate(227.294922 0.015625)" xlink:href="#DejaVuSans-114"/>
     <use transform="translate(268.408203 0.015625)" xlink:href="#DejaVuSans-111"/>
     <use transform="translate(329.589844 0.015625)" xlink:href="#DejaVuSans-106"/>
     <use transform="translate(357.373047 0.015625)" xlink:href="#DejaVuSans-101"/>
     <use transform="translate(418.896484 0.015625)" xlink:href="#DejaVuSans-99"/>
     <use transform="translate(473.876953 0.015625)" xlink:href="#DejaVuSans-116"/>
     <use transform="translate(513.085938 0.015625)" xlink:href="#DejaVuSans-105"/>
     <use transform="translate(540.869141 0.015625)" xlink:href="#DejaVuSans-111"/>
     <use transform="translate(602.050781 0.015625)" xlink:href="#DejaVuSans-110"/>
    </g>
   </g>
  </g>
  <g id="axes_3">
   <g id="patch_10">
    <path d="M 312.921667 102.36 
L 418.124424 102.36 
L 418.124424 24.64 
L 312.921667 24.64 
z
" style="fill:#ffffff;"/>
   </g>
   <g id="patch_11">
    <path clip-path="url(#p87c342a9f5)" d="M 317.70361 102.36 
L 317.70361 102.36 
L 322.737235 102.36 
L 322.737235 102.36 
L 327.77086 102.36 
L 327.77086 102.36 
L 332.804485 102.36 
L 332.804485 102.36 
L 337.838109 102.36 
L 337.838109 102.36 
L 342.871734 102.36 
L 342.871734 102.36 
L 347.905359 102.36 
L 347.905359 102.36 
L 352.938984 102.36 
L 352.938984 102.36 
L 357.972608 102.36 
L 357.972608 102.36 
L 363.006233 102.36 
L 363.006233 102.36 
L 368.039858 102.36 
L 368.039858 98.464261 
L 373.073483 98.464261 
L 373.073483 78.985564 
L 378.107107 78.985564 
L 378.107107 86.777043 
L 383.140732 86.777043 
L 383.140732 86.777043 
L 388.174357 86.777043 
L 388.174357 59.506867 
L 393.207982 59.506867 
L 393.207982 59.506867 
L 398.241607 59.506867 
L 398.241607 71.194085 
L 403.275231 71.194085 
L 403.275231 98.464261 
L 408.308856 98.464261 
L 408.308856 102.36 
L 413.342481 102.36 
L 413.342481 102.36 
L 408.308856 102.36 
L 408.308856 102.36 
L 403.275231 102.36 
L 403.275231 102.36 
L 398.241607 102.36 
L 398.241607 102.36 
L 393.207982 102.36 
L 393.207982 102.36 
L 388.174357 102.36 
L 388.174357 102.36 
L 383.140732 102.36 
L 383.140732 102.36 
L 378.107107 102.36 
L 378.107107 102.36 
L 373.073483 102.36 
L 373.073483 102.36 
L 368.039858 102.36 
L 368.039858 102.36 
L 363.006233 102.36 
L 363.006233 102.36 
L 357.972608 102.36 
L 357.972608 102.36 
L 352.938984 102.36 
L 352.938984 102.36 
L 347.905359 102.36 
L 347.905359 102.36 
L 342.871734 102.36 
L 342.871734 102.36 
L 337.838109 102.36 
L 337.838109 102.36 
L 332.804485 102.36 
L 332.804485 102.36 
L 327.77086 102.36 
L 327.77086 102.36 
L 322.737235 102.36 
L 322.737235 102.36 
z
" style="fill:#1f77b4;opacity:0.5;"/>
   </g>
   <g id="patch_12">
    <path clip-path="url(#p87c342a9f5)" d="M 317.70361 102.36 
L 317.70361 102.36 
L 322.737235 102.36 
L 322.737235 102.36 
L 327.77086 102.36 
L 327.77086 102.36 
L 332.804485 102.36 
L 332.804485 102.36 
L 337.838109 102.36 
L 337.838109 102.36 
L 342.871734 102.36 
L 342.871734 90.672782 
L 347.905359 90.672782 
L 347.905359 28.340952 
L 352.938984 28.340952 
L 352.938984 75.089825 
L 357.972608 75.089825 
L 357.972608 78.985564 
L 363.006233 78.985564 
L 363.006233 71.194085 
L 368.039858 71.194085 
L 368.039858 98.464261 
L 373.073483 98.464261 
L 373.073483 102.36 
L 378.107107 102.36 
L 378.107107 102.36 
L 383.140732 102.36 
L 383.140732 102.36 
L 388.174357 102.36 
L 388.174357 102.36 
L 393.207982 102.36 
L 393.207982 102.36 
L 398.241607 102.36 
L 398.241607 102.36 
L 403.275231 102.36 
L 403.275231 102.36 
L 408.308856 102.36 
L 408.308856 102.36 
L 413.342481 102.36 
L 413.342481 102.36 
L 408.308856 102.36 
L 408.308856 102.36 
L 403.275231 102.36 
L 403.275231 102.36 
L 398.241607 102.36 
L 398.241607 102.36 
L 393.207982 102.36 
L 393.207982 102.36 
L 388.174357 102.36 
L 388.174357 102.36 
L 383.140732 102.36 
L 383.140732 102.36 
L 378.107107 102.36 
L 378.107107 102.36 
L 373.073483 102.36 
L 373.073483 102.36 
L 368.039858 102.36 
L 368.039858 102.36 
L 363.006233 102.36 
L 363.006233 102.36 
L 357.972608 102.36 
L 357.972608 102.36 
L 352.938984 102.36 
L 352.938984 102.36 
L 347.905359 102.36 
L 347.905359 102.36 
L 342.871734 102.36 
L 342.871734 102.36 
L 337.838109 102.36 
L 337.838109 102.36 
L 332.804485 102.36 
L 332.804485 102.36 
L 327.77086 102.36 
L 327.77086 102.36 
L 322.737235 102.36 
L 322.737235 102.36 
z
" style="fill:#ff7f0e;opacity:0.5;"/>
   </g>
   <g id="matplotlib.axis_5">
    <g id="xtick_7">
     <g id="line2d_16">
      <g>
       <use style="stroke:#000000;stroke-width:0.8;" x="317.70361" xlink:href="#ma2405a7539" y="102.36"/>
      </g>
     </g>
     <g id="text_17">
      <!-- −10 -->
      <g transform="translate(309.261735 115.43875)scale(0.08 -0.08)">
       <use xlink:href="#DejaVuSans-8722"/>
       <use x="83.789062" xlink:href="#DejaVuSans-49"/>
       <use x="147.412109" xlink:href="#DejaVuSans-48"/>
      </g>
     </g>
    </g>
    <g id="xtick_8">
     <g id="line2d_17">
      <g>
       <use style="stroke:#000000;stroke-width:0.8;" x="368.039858" xlink:href="#ma2405a7539" y="102.36"/>
      </g>
     </g>
     <g id="text_18">
      <!-- 0 -->
      <g transform="translate(365.494858 115.43875)scale(0.08 -0.08)">
       <use xlink:href="#DejaVuSans-48"/>
      </g>
     </g>
    </g>
    <g id="xtick_9">
     <g id="line2d_18">
      <g>
       <use style="stroke:#000000;stroke-width:0.8;" x="418.376106" xlink:href="#ma2405a7539" y="102.36"/>
      </g>
     </g>
     <g id="text_19">
      <!-- 10 -->
      <g transform="translate(413.286106 115.43875)scale(0.08 -0.08)">
       <use xlink:href="#DejaVuSans-49"/>
       <use x="63.623047" xlink:href="#DejaVuSans-48"/>
      </g>
     </g>
    </g>
   </g>
   <g id="matplotlib.axis_6">
    <g id="ytick_8">
     <g id="line2d_19">
      <g>
       <use style="stroke:#000000;stroke-width:0.8;" x="312.921667" xlink:href="#mf7da1228a4" y="102.36"/>
      </g>
     </g>
     <g id="text_20">
      <!-- 0 -->
      <g transform="translate(300.831667 105.399375)scale(0.08 -0.08)">
       <use xlink:href="#DejaVuSans-48"/>
      </g>
     </g>
    </g>
    <g id="ytick_9">
     <g id="line2d_20">
      <g>
       <use style="stroke:#000000;stroke-width:0.8;" x="312.921667" xlink:href="#mf7da1228a4" y="82.881303"/>
      </g>
     </g>
     <g id="text_21">
      <!-- 5 -->
      <defs>
       <path d="M 10.796875 72.90625 
L 49.515625 72.90625 
L 49.515625 64.59375 
L 19.828125 64.59375 
L 19.828125 46.734375 
Q 21.96875 47.46875 24.109375 47.828125 
Q 26.265625 48.1875 28.421875 48.1875 
Q 40.625 48.1875 47.75 41.5 
Q 54.890625 34.8125 54.890625 23.390625 
Q 54.890625 11.625 47.5625 5.09375 
Q 40.234375 -1.421875 26.90625 -1.421875 
Q 22.3125 -1.421875 17.546875 -0.640625 
Q 12.796875 0.140625 7.71875 1.703125 
L 7.71875 11.625 
Q 12.109375 9.234375 16.796875 8.0625 
Q 21.484375 6.890625 26.703125 6.890625 
Q 35.15625 6.890625 40.078125 11.328125 
Q 45.015625 15.765625 45.015625 23.390625 
Q 45.015625 31 40.078125 35.4375 
Q 35.15625 39.890625 26.703125 39.890625 
Q 22.75 39.890625 18.8125 39.015625 
Q 14.890625 38.140625 10.796875 36.28125 
z
" id="DejaVuSans-53"/>
      </defs>
      <g transform="translate(300.831667 85.920678)scale(0.08 -0.08)">
       <use xlink:href="#DejaVuSans-53"/>
      </g>
     </g>
    </g>
    <g id="ytick_10">
     <g id="line2d_21">
      <g>
       <use style="stroke:#000000;stroke-width:0.8;" x="312.921667" xlink:href="#mf7da1228a4" y="63.402607"/>
      </g>
     </g>
     <g id="text_22">
      <!-- 10 -->
      <g transform="translate(295.741667 66.441982)scale(0.08 -0.08)">
       <use xlink:href="#DejaVuSans-49"/>
       <use x="63.623047" xlink:href="#DejaVuSans-48"/>
      </g>
     </g>
    </g>
    <g id="ytick_11">
     <g id="line2d_22">
      <g>
       <use style="stroke:#000000;stroke-width:0.8;" x="312.921667" xlink:href="#mf7da1228a4" y="43.92391"/>
      </g>
     </g>
     <g id="text_23">
      <!-- 15 -->
      <g transform="translate(295.741667 46.963285)scale(0.08 -0.08)">
       <use xlink:href="#DejaVuSans-49"/>
       <use x="63.623047" xlink:href="#DejaVuSans-53"/>
      </g>
     </g>
    </g>
    <g id="ytick_12">
     <g id="line2d_23">
      <g>
       <use style="stroke:#000000;stroke-width:0.8;" x="312.921667" xlink:href="#mf7da1228a4" y="24.445213"/>
      </g>
     </g>
     <g id="text_24">
      <!-- 20 -->
      <g transform="translate(295.741667 27.484588)scale(0.08 -0.08)">
       <use xlink:href="#DejaVuSans-50"/>
       <use x="63.623047" xlink:href="#DejaVuSans-48"/>
      </g>
     </g>
    </g>
   </g>
   <g id="patch_13">
    <path d="M 312.921667 102.36 
L 312.921667 24.64 
" style="fill:none;stroke:#000000;stroke-linecap:square;stroke-linejoin:miter;stroke-width:0.8;"/>
   </g>
   <g id="patch_14">
    <path d="M 312.921667 102.36 
L 418.124424 102.36 
" style="fill:none;stroke:#000000;stroke-linecap:square;stroke-linejoin:miter;stroke-width:0.8;"/>
   </g>
   <g id="text_25">
    <!-- $w_{opt}$ projection -->
    <defs>
     <path d="M 8.5 54.6875 
L 17.390625 54.6875 
L 19.671875 10.6875 
L 40.09375 54.6875 
L 50.484375 54.6875 
L 53.515625 10.6875 
L 72.90625 54.6875 
L 81.890625 54.6875 
L 56.890625 0 
L 46.390625 0 
L 43.703125 45.3125 
L 22.796875 0 
L 12.203125 0 
z
" id="DejaVuSans-Oblique-119"/>
     <path d="M 25.390625 -1.421875 
Q 15.765625 -1.421875 10.171875 4.515625 
Q 4.59375 10.453125 4.59375 20.703125 
Q 4.59375 26.65625 6.515625 32.828125 
Q 8.453125 39.015625 11.53125 43.21875 
Q 16.359375 49.75 22.3125 52.875 
Q 28.265625 56 35.796875 56 
Q 45.125 56 50.859375 50.1875 
Q 56.59375 44.390625 56.59375 35.015625 
Q 56.59375 28.515625 54.6875 22.0625 
Q 52.78125 15.625 49.703125 11.375 
Q 44.921875 4.828125 38.96875 1.703125 
Q 33.015625 -1.421875 25.390625 -1.421875 
z
M 13.921875 21 
Q 13.921875 13.578125 17.015625 9.890625 
Q 20.125 6.203125 26.421875 6.203125 
Q 35.453125 6.203125 41.375 14.078125 
Q 47.3125 21.96875 47.3125 34.078125 
Q 47.3125 41.15625 44.140625 44.765625 
Q 40.96875 48.390625 34.8125 48.390625 
Q 29.734375 48.390625 25.78125 46.015625 
Q 21.828125 43.65625 18.703125 38.8125 
Q 16.40625 35.203125 15.15625 30.5625 
Q 13.921875 25.921875 13.921875 21 
z
" id="DejaVuSans-Oblique-111"/>
     <path d="M 49.609375 33.6875 
Q 49.609375 40.875 46.484375 44.671875 
Q 43.359375 48.484375 37.5 48.484375 
Q 33.5 48.484375 29.859375 46.4375 
Q 26.21875 44.390625 23.390625 40.484375 
Q 20.609375 36.625 18.9375 31.15625 
Q 17.28125 25.6875 17.28125 20.3125 
Q 17.28125 13.484375 20.40625 9.796875 
Q 23.53125 6.109375 29.296875 6.109375 
Q 33.546875 6.109375 37.1875 8.109375 
Q 40.828125 10.109375 43.40625 13.921875 
Q 46.1875 17.921875 47.890625 23.34375 
Q 49.609375 28.765625 49.609375 33.6875 
z
M 21.78125 46.390625 
Q 25.390625 51.125 30.296875 53.5625 
Q 35.203125 56 41.21875 56 
Q 49.609375 56 54.25 50.5 
Q 58.890625 45.015625 58.890625 35.109375 
Q 58.890625 27 56 19.65625 
Q 53.125 12.3125 47.703125 6.5 
Q 44.09375 2.640625 39.546875 0.609375 
Q 35.015625 -1.421875 29.984375 -1.421875 
Q 24.171875 -1.421875 20.21875 1 
Q 16.265625 3.421875 14.3125 8.203125 
L 8.6875 -20.796875 
L -0.296875 -20.796875 
L 14.40625 54.6875 
L 23.390625 54.6875 
z
" id="DejaVuSans-Oblique-112"/>
     <path d="M 42.28125 54.6875 
L 40.921875 47.703125 
L 23 47.703125 
L 17.1875 18.015625 
Q 16.890625 16.359375 16.75 15.234375 
Q 16.609375 14.109375 16.609375 13.484375 
Q 16.609375 10.359375 18.484375 8.9375 
Q 20.359375 7.515625 24.515625 7.515625 
L 33.59375 7.515625 
L 32.078125 0 
L 23.484375 0 
Q 15.484375 0 11.546875 3.125 
Q 7.625 6.25 7.625 12.59375 
Q 7.625 13.71875 7.765625 15.0625 
Q 7.90625 16.40625 8.203125 18.015625 
L 14.015625 47.703125 
L 6.390625 47.703125 
L 7.8125 54.6875 
L 15.28125 54.6875 
L 18.3125 70.21875 
L 27.296875 70.21875 
L 24.3125 54.6875 
z
" id="DejaVuSans-Oblique-116"/>
    </defs>
    <g transform="translate(330.339046 18.64)scale(0.096 -0.096)">
     <use transform="translate(0 0.015625)" xlink:href="#DejaVuSans-Oblique-119"/>
     <use transform="translate(81.787109 -16.390625)scale(0.7)" xlink:href="#DejaVuSans-Oblique-111"/>
     <use transform="translate(124.614258 -16.390625)scale(0.7)" xlink:href="#DejaVuSans-Oblique-112"/>
     <use transform="translate(169.047852 -16.390625)scale(0.7)" xlink:href="#DejaVuSans-Oblique-116"/>
     <use transform="translate(199.228516 0.015625)" xlink:href="#DejaVuSans-32"/>
     <use transform="translate(231.015625 0.015625)" xlink:href="#DejaVuSans-112"/>
     <use transform="translate(294.492188 0.015625)" xlink:href="#DejaVuSans-114"/>
     <use transform="translate(335.605469 0.015625)" xlink:href="#DejaVuSans-111"/>
     <use transform="translate(396.787109 0.015625)" xlink:href="#DejaVuSans-106"/>
     <use transform="translate(424.570312 0.015625)" xlink:href="#DejaVuSans-101"/>
     <use transform="translate(486.09375 0.015625)" xlink:href="#DejaVuSans-99"/>
     <use transform="translate(541.074219 0.015625)" xlink:href="#DejaVuSans-116"/>
     <use transform="translate(580.283203 0.015625)" xlink:href="#DejaVuSans-105"/>
     <use transform="translate(608.066406 0.015625)" xlink:href="#DejaVuSans-111"/>
     <use transform="translate(669.248047 0.015625)" xlink:href="#DejaVuSans-110"/>
    </g>
   </g>
  </g>
 </g>
 <defs>
  <clipPath id="p3159b42bf3">
   <rect height="77.72" width="105.202758" x="40.515" y="24.64"/>
  </clipPath>
  <clipPath id="p4baa185066">
   <rect height="77.72" width="105.202758" x="176.718333" y="24.64"/>
  </clipPath>
  <clipPath id="p87c342a9f5">
   <rect height="77.72" width="105.202758" x="312.921667" y="24.64"/>
  </clipPath>
 </defs>
</svg>
