<?xml version="1.0" encoding="utf-8" standalone="no"?>
<!DOCTYPE svg PUBLIC "-//W3C//DTD SVG 1.1//EN"
  "http://www.w3.org/Graphics/SVG/1.1/DTD/svg11.dtd">
<!-- Created with matplotlib (https://matplotlib.org/) -->
<svg height="216pt" version="1.1" viewBox="0 0 288 216" width="288pt" xmlns="http://www.w3.org/2000/svg" xmlns:xlink="http://www.w3.org/1999/xlink">
 <metadata>
  <rdf:RDF xmlns:cc="http://creativecommons.org/ns#" xmlns:dc="http://purl.org/dc/elements/1.1/" xmlns:rdf="http://www.w3.org/1999/02/22-rdf-syntax-ns#">
   <cc:Work>
    <dc:type rdf:resource="http://purl.org/dc/dcmitype/StillImage"/>
    <dc:date>2021-03-18T22:11:01.012496</dc:date>
    <dc:format>image/svg+xml</dc:format>
    <dc:creator>
     <cc:Agent>
      <dc:title>Matplotlib v3.3.2, https://matplotlib.org/</dc:title>
     </cc:Agent>
    </dc:creator>
   </cc:Work>
  </rdf:RDF>
 </metadata>
 <defs>
  <style type="text/css">*{stroke-linecap:butt;stroke-linejoin:round;}</style>
 </defs>
 <g id="figure_1">
  <g id="patch_1">
   <path d="M 0 216 
L 288 216 
L 288 0 
L 0 0 
z
" style="fill:#ffffff;"/>
  </g>
  <g id="axes_1">
   <g id="patch_2">
    <path d="M 34.706 179.8 
L 279.36 179.8 
L 279.36 8.64 
L 34.706 8.64 
z
" style="fill:#ffffff;"/>
   </g>
   <g id="PolyCollection_1">
    <defs>
     <path d="M 45.826636 -126.910339 
L 45.826636 -103.960789 
L 58.182899 -149.271061 
L 70.539162 -138.474582 
L 82.895424 -159.292981 
L 95.251687 -152.380072 
L 107.607949 -159.486697 
L 119.964212 -154.236843 
L 132.320475 -155.746454 
L 144.676737 -158.890349 
L 157.033 -161.094941 
L 169.389263 -167.402633 
L 181.745525 -52.277558 
L 194.101788 -36.2 
L 206.458051 -36.2 
L 218.814313 -36.2 
L 231.170576 -36.2 
L 243.526838 -36.2 
L 255.883101 -36.2 
L 268.239364 -36.2 
L 268.239364 -36.2 
L 268.239364 -36.2 
L 255.883101 -36.2 
L 243.526838 -36.2 
L 231.170576 -36.2 
L 218.814313 -36.2 
L 206.458051 -36.2 
L 194.101788 -36.2 
L 181.745525 -62.775119 
L 169.389263 -175.656581 
L 157.033 -169.420219 
L 144.676737 -166.778455 
L 132.320475 -163.636719 
L 119.964212 -162.863953 
L 107.607949 -171.092841 
L 95.251687 -164.118345 
L 82.895424 -173.304079 
L 70.539162 -153.240496 
L 58.182899 -171.320687 
L 45.826636 -126.910339 
z
" id="m955fc89940"/>
    </defs>
    <g clip-path="url(#pb653d68a7e)">
     <use style="fill:#4169e1;fill-opacity:0.5;" x="0" xlink:href="#m955fc89940" y="216"/>
    </g>
   </g>
   <g id="PolyCollection_2">
    <defs>
     <path d="M 45.826636 -116.878371 
L 45.826636 -96.491321 
L 58.182899 -113.763309 
L 70.539162 -108.124498 
L 82.895424 -117.998992 
L 95.251687 -120.02059 
L 107.607949 -125.024765 
L 119.964212 -118.226547 
L 132.320475 -122.02324 
L 144.676737 -121.147973 
L 157.033 -127.734129 
L 169.389263 -128.574831 
L 181.745525 -47.909974 
L 194.101788 -36.2 
L 206.458051 -36.2 
L 218.814313 -36.2 
L 231.170576 -36.2 
L 243.526838 -36.2 
L 255.883101 -36.2 
L 268.239364 -36.2 
L 268.239364 -36.2 
L 268.239364 -36.2 
L 255.883101 -36.2 
L 243.526838 -36.2 
L 231.170576 -36.2 
L 218.814313 -36.2 
L 206.458051 -36.2 
L 194.101788 -36.2 
L 181.745525 -55.832456 
L 169.389263 -135.726565 
L 157.033 -135.649299 
L 144.676737 -128.776959 
L 132.320475 -129.431969 
L 119.964212 -126.651302 
L 107.607949 -134.705211 
L 95.251687 -132.572973 
L 82.895424 -130.966497 
L 70.539162 -121.672649 
L 58.182899 -130.521611 
L 45.826636 -116.878371 
z
" id="mb7832217db"/>
    </defs>
    <g clip-path="url(#pb653d68a7e)">
     <use style="fill:#ffa500;fill-opacity:0.5;" x="0" xlink:href="#mb7832217db" y="216"/>
    </g>
   </g>
   <g id="PolyCollection_3">
    <defs>
     <path d="M 45.826636 -158.790154 
L 45.826636 -128.402998 
L 58.182899 -166.586505 
L 70.539162 -140.132967 
L 82.895424 -158.438563 
L 95.251687 -154.607433 
L 107.607949 -154.156211 
L 119.964212 -150.666762 
L 132.320475 -152.382286 
L 144.676737 -157.905027 
L 157.033 -156.470692 
L 169.389263 -158.573628 
L 181.745525 -51.744834 
L 194.101788 -36.2 
L 206.458051 -36.2 
L 218.814313 -36.2 
L 231.170576 -36.2 
L 243.526838 -36.2 
L 255.883101 -36.2 
L 268.239364 -36.2 
L 268.239364 -36.2 
L 268.239364 -36.2 
L 255.883101 -36.2 
L 243.526838 -36.2 
L 231.170576 -36.2 
L 218.814313 -36.2 
L 206.458051 -36.2 
L 194.101788 -36.2 
L 181.745525 -62.011711 
L 169.389263 -166.436574 
L 157.033 -165.502597 
L 144.676737 -167.051997 
L 132.320475 -160.755951 
L 119.964212 -160.138141 
L 107.607949 -165.676861 
L 95.251687 -168.202201 
L 82.895424 -173.459004 
L 70.539162 -156.747697 
L 58.182899 -199.209524 
L 45.826636 -158.790154 
z
" id="md8a058a17b"/>
    </defs>
    <g clip-path="url(#pb653d68a7e)">
     <use style="fill-opacity:0.5;" x="0" xlink:href="#md8a058a17b" y="216"/>
    </g>
   </g>
   <g id="matplotlib.axis_1">
    <g id="xtick_1">
     <g id="line2d_1">
      <defs>
       <path d="M 0 0 
L 0 3.5 
" id="m6289c0a0c9" style="stroke:#000000;stroke-width:0.8;"/>
      </defs>
      <g>
       <use style="stroke:#000000;stroke-width:0.8;" x="82.895424" xlink:href="#m6289c0a0c9" y="179.8"/>
      </g>
     </g>
     <g id="text_1">
      <!-- 20 -->
      <g transform="translate(77.805424 192.87875)scale(0.08 -0.08)">
       <defs>
        <path d="M 19.1875 8.296875 
L 53.609375 8.296875 
L 53.609375 0 
L 7.328125 0 
L 7.328125 8.296875 
Q 12.9375 14.109375 22.625 23.890625 
Q 32.328125 33.6875 34.8125 36.53125 
Q 39.546875 41.84375 41.421875 45.53125 
Q 43.3125 49.21875 43.3125 52.78125 
Q 43.3125 58.59375 39.234375 62.25 
Q 35.15625 65.921875 28.609375 65.921875 
Q 23.96875 65.921875 18.8125 64.3125 
Q 13.671875 62.703125 7.8125 59.421875 
L 7.8125 69.390625 
Q 13.765625 71.78125 18.9375 73 
Q 24.125 74.21875 28.421875 74.21875 
Q 39.75 74.21875 46.484375 68.546875 
Q 53.21875 62.890625 53.21875 53.421875 
Q 53.21875 48.921875 51.53125 44.890625 
Q 49.859375 40.875 45.40625 35.40625 
Q 44.1875 33.984375 37.640625 27.21875 
Q 31.109375 20.453125 19.1875 8.296875 
z
" id="DejaVuSans-50"/>
        <path d="M 31.78125 66.40625 
Q 24.171875 66.40625 20.328125 58.90625 
Q 16.5 51.421875 16.5 36.375 
Q 16.5 21.390625 20.328125 13.890625 
Q 24.171875 6.390625 31.78125 6.390625 
Q 39.453125 6.390625 43.28125 13.890625 
Q 47.125 21.390625 47.125 36.375 
Q 47.125 51.421875 43.28125 58.90625 
Q 39.453125 66.40625 31.78125 66.40625 
z
M 31.78125 74.21875 
Q 44.046875 74.21875 50.515625 64.515625 
Q 56.984375 54.828125 56.984375 36.375 
Q 56.984375 17.96875 50.515625 8.265625 
Q 44.046875 -1.421875 31.78125 -1.421875 
Q 19.53125 -1.421875 13.0625 8.265625 
Q 6.59375 17.96875 6.59375 36.375 
Q 6.59375 54.828125 13.0625 64.515625 
Q 19.53125 74.21875 31.78125 74.21875 
z
" id="DejaVuSans-48"/>
       </defs>
       <use xlink:href="#DejaVuSans-50"/>
       <use x="63.623047" xlink:href="#DejaVuSans-48"/>
      </g>
     </g>
    </g>
    <g id="xtick_2">
     <g id="line2d_2">
      <g>
       <use style="stroke:#000000;stroke-width:0.8;" x="132.320475" xlink:href="#m6289c0a0c9" y="179.8"/>
      </g>
     </g>
     <g id="text_2">
      <!-- 40 -->
      <g transform="translate(127.230475 192.87875)scale(0.08 -0.08)">
       <defs>
        <path d="M 37.796875 64.3125 
L 12.890625 25.390625 
L 37.796875 25.390625 
z
M 35.203125 72.90625 
L 47.609375 72.90625 
L 47.609375 25.390625 
L 58.015625 25.390625 
L 58.015625 17.1875 
L 47.609375 17.1875 
L 47.609375 0 
L 37.796875 0 
L 37.796875 17.1875 
L 4.890625 17.1875 
L 4.890625 26.703125 
z
" id="DejaVuSans-52"/>
       </defs>
       <use xlink:href="#DejaVuSans-52"/>
       <use x="63.623047" xlink:href="#DejaVuSans-48"/>
      </g>
     </g>
    </g>
    <g id="xtick_3">
     <g id="line2d_3">
      <g>
       <use style="stroke:#000000;stroke-width:0.8;" x="181.745525" xlink:href="#m6289c0a0c9" y="179.8"/>
      </g>
     </g>
     <g id="text_3">
      <!-- 60 -->
      <g transform="translate(176.655525 192.87875)scale(0.08 -0.08)">
       <defs>
        <path d="M 33.015625 40.375 
Q 26.375 40.375 22.484375 35.828125 
Q 18.609375 31.296875 18.609375 23.390625 
Q 18.609375 15.53125 22.484375 10.953125 
Q 26.375 6.390625 33.015625 6.390625 
Q 39.65625 6.390625 43.53125 10.953125 
Q 47.40625 15.53125 47.40625 23.390625 
Q 47.40625 31.296875 43.53125 35.828125 
Q 39.65625 40.375 33.015625 40.375 
z
M 52.59375 71.296875 
L 52.59375 62.3125 
Q 48.875 64.0625 45.09375 64.984375 
Q 41.3125 65.921875 37.59375 65.921875 
Q 27.828125 65.921875 22.671875 59.328125 
Q 17.53125 52.734375 16.796875 39.40625 
Q 19.671875 43.65625 24.015625 45.921875 
Q 28.375 48.1875 33.59375 48.1875 
Q 44.578125 48.1875 50.953125 41.515625 
Q 57.328125 34.859375 57.328125 23.390625 
Q 57.328125 12.15625 50.6875 5.359375 
Q 44.046875 -1.421875 33.015625 -1.421875 
Q 20.359375 -1.421875 13.671875 8.265625 
Q 6.984375 17.96875 6.984375 36.375 
Q 6.984375 53.65625 15.1875 63.9375 
Q 23.390625 74.21875 37.203125 74.21875 
Q 40.921875 74.21875 44.703125 73.484375 
Q 48.484375 72.75 52.59375 71.296875 
z
" id="DejaVuSans-54"/>
       </defs>
       <use xlink:href="#DejaVuSans-54"/>
       <use x="63.623047" xlink:href="#DejaVuSans-48"/>
      </g>
     </g>
    </g>
    <g id="xtick_4">
     <g id="line2d_4">
      <g>
       <use style="stroke:#000000;stroke-width:0.8;" x="231.170576" xlink:href="#m6289c0a0c9" y="179.8"/>
      </g>
     </g>
     <g id="text_4">
      <!-- 80 -->
      <g transform="translate(226.080576 192.87875)scale(0.08 -0.08)">
       <defs>
        <path d="M 31.78125 34.625 
Q 24.75 34.625 20.71875 30.859375 
Q 16.703125 27.09375 16.703125 20.515625 
Q 16.703125 13.921875 20.71875 10.15625 
Q 24.75 6.390625 31.78125 6.390625 
Q 38.8125 6.390625 42.859375 10.171875 
Q 46.921875 13.96875 46.921875 20.515625 
Q 46.921875 27.09375 42.890625 30.859375 
Q 38.875 34.625 31.78125 34.625 
z
M 21.921875 38.8125 
Q 15.578125 40.375 12.03125 44.71875 
Q 8.5 49.078125 8.5 55.328125 
Q 8.5 64.0625 14.71875 69.140625 
Q 20.953125 74.21875 31.78125 74.21875 
Q 42.671875 74.21875 48.875 69.140625 
Q 55.078125 64.0625 55.078125 55.328125 
Q 55.078125 49.078125 51.53125 44.71875 
Q 48 40.375 41.703125 38.8125 
Q 48.828125 37.15625 52.796875 32.3125 
Q 56.78125 27.484375 56.78125 20.515625 
Q 56.78125 9.90625 50.3125 4.234375 
Q 43.84375 -1.421875 31.78125 -1.421875 
Q 19.734375 -1.421875 13.25 4.234375 
Q 6.78125 9.90625 6.78125 20.515625 
Q 6.78125 27.484375 10.78125 32.3125 
Q 14.796875 37.15625 21.921875 38.8125 
z
M 18.3125 54.390625 
Q 18.3125 48.734375 21.84375 45.5625 
Q 25.390625 42.390625 31.78125 42.390625 
Q 38.140625 42.390625 41.71875 45.5625 
Q 45.3125 48.734375 45.3125 54.390625 
Q 45.3125 60.0625 41.71875 63.234375 
Q 38.140625 66.40625 31.78125 66.40625 
Q 25.390625 66.40625 21.84375 63.234375 
Q 18.3125 60.0625 18.3125 54.390625 
z
" id="DejaVuSans-56"/>
       </defs>
       <use xlink:href="#DejaVuSans-56"/>
       <use x="63.623047" xlink:href="#DejaVuSans-48"/>
      </g>
     </g>
    </g>
    <g id="text_5">
     <!-- Trials ($k$) -->
     <g transform="translate(139.473 204.62125)scale(0.08 -0.08)">
      <defs>
       <path d="M -0.296875 72.90625 
L 61.375 72.90625 
L 61.375 64.59375 
L 35.5 64.59375 
L 35.5 0 
L 25.59375 0 
L 25.59375 64.59375 
L -0.296875 64.59375 
z
" id="DejaVuSans-84"/>
       <path d="M 41.109375 46.296875 
Q 39.59375 47.171875 37.8125 47.578125 
Q 36.03125 48 33.890625 48 
Q 26.265625 48 22.1875 43.046875 
Q 18.109375 38.09375 18.109375 28.8125 
L 18.109375 0 
L 9.078125 0 
L 9.078125 54.6875 
L 18.109375 54.6875 
L 18.109375 46.1875 
Q 20.953125 51.171875 25.484375 53.578125 
Q 30.03125 56 36.53125 56 
Q 37.453125 56 38.578125 55.875 
Q 39.703125 55.765625 41.0625 55.515625 
z
" id="DejaVuSans-114"/>
       <path d="M 9.421875 54.6875 
L 18.40625 54.6875 
L 18.40625 0 
L 9.421875 0 
z
M 9.421875 75.984375 
L 18.40625 75.984375 
L 18.40625 64.59375 
L 9.421875 64.59375 
z
" id="DejaVuSans-105"/>
       <path d="M 34.28125 27.484375 
Q 23.390625 27.484375 19.1875 25 
Q 14.984375 22.515625 14.984375 16.5 
Q 14.984375 11.71875 18.140625 8.90625 
Q 21.296875 6.109375 26.703125 6.109375 
Q 34.1875 6.109375 38.703125 11.40625 
Q 43.21875 16.703125 43.21875 25.484375 
L 43.21875 27.484375 
z
M 52.203125 31.203125 
L 52.203125 0 
L 43.21875 0 
L 43.21875 8.296875 
Q 40.140625 3.328125 35.546875 0.953125 
Q 30.953125 -1.421875 24.3125 -1.421875 
Q 15.921875 -1.421875 10.953125 3.296875 
Q 6 8.015625 6 15.921875 
Q 6 25.140625 12.171875 29.828125 
Q 18.359375 34.515625 30.609375 34.515625 
L 43.21875 34.515625 
L 43.21875 35.40625 
Q 43.21875 41.609375 39.140625 45 
Q 35.0625 48.390625 27.6875 48.390625 
Q 23 48.390625 18.546875 47.265625 
Q 14.109375 46.140625 10.015625 43.890625 
L 10.015625 52.203125 
Q 14.9375 54.109375 19.578125 55.046875 
Q 24.21875 56 28.609375 56 
Q 40.484375 56 46.34375 49.84375 
Q 52.203125 43.703125 52.203125 31.203125 
z
" id="DejaVuSans-97"/>
       <path d="M 9.421875 75.984375 
L 18.40625 75.984375 
L 18.40625 0 
L 9.421875 0 
z
" id="DejaVuSans-108"/>
       <path d="M 44.28125 53.078125 
L 44.28125 44.578125 
Q 40.484375 46.53125 36.375 47.5 
Q 32.28125 48.484375 27.875 48.484375 
Q 21.1875 48.484375 17.84375 46.4375 
Q 14.5 44.390625 14.5 40.28125 
Q 14.5 37.15625 16.890625 35.375 
Q 19.28125 33.59375 26.515625 31.984375 
L 29.59375 31.296875 
Q 39.15625 29.25 43.1875 25.515625 
Q 47.21875 21.78125 47.21875 15.09375 
Q 47.21875 7.46875 41.1875 3.015625 
Q 35.15625 -1.421875 24.609375 -1.421875 
Q 20.21875 -1.421875 15.453125 -0.5625 
Q 10.6875 0.296875 5.421875 2 
L 5.421875 11.28125 
Q 10.40625 8.6875 15.234375 7.390625 
Q 20.0625 6.109375 24.8125 6.109375 
Q 31.15625 6.109375 34.5625 8.28125 
Q 37.984375 10.453125 37.984375 14.40625 
Q 37.984375 18.0625 35.515625 20.015625 
Q 33.0625 21.96875 24.703125 23.78125 
L 21.578125 24.515625 
Q 13.234375 26.265625 9.515625 29.90625 
Q 5.8125 33.546875 5.8125 39.890625 
Q 5.8125 47.609375 11.28125 51.796875 
Q 16.75 56 26.8125 56 
Q 31.78125 56 36.171875 55.265625 
Q 40.578125 54.546875 44.28125 53.078125 
z
" id="DejaVuSans-115"/>
       <path id="DejaVuSans-32"/>
       <path d="M 31 75.875 
Q 24.46875 64.65625 21.28125 53.65625 
Q 18.109375 42.671875 18.109375 31.390625 
Q 18.109375 20.125 21.3125 9.0625 
Q 24.515625 -2 31 -13.1875 
L 23.1875 -13.1875 
Q 15.875 -1.703125 12.234375 9.375 
Q 8.59375 20.453125 8.59375 31.390625 
Q 8.59375 42.28125 12.203125 53.3125 
Q 15.828125 64.359375 23.1875 75.875 
z
" id="DejaVuSans-40"/>
       <path d="M 18.3125 75.984375 
L 27.296875 75.984375 
L 18.703125 31.6875 
L 49.515625 54.6875 
L 61.1875 54.6875 
L 26.8125 28.515625 
L 51.90625 0 
L 41.015625 0 
L 17.671875 26.703125 
L 12.5 0 
L 3.515625 0 
z
" id="DejaVuSans-Oblique-107"/>
       <path d="M 8.015625 75.875 
L 15.828125 75.875 
Q 23.140625 64.359375 26.78125 53.3125 
Q 30.421875 42.28125 30.421875 31.390625 
Q 30.421875 20.453125 26.78125 9.375 
Q 23.140625 -1.703125 15.828125 -13.1875 
L 8.015625 -13.1875 
Q 14.5 -2 17.703125 9.0625 
Q 20.90625 20.125 20.90625 31.390625 
Q 20.90625 42.671875 17.703125 53.65625 
Q 14.5 64.65625 8.015625 75.875 
z
" id="DejaVuSans-41"/>
      </defs>
      <use transform="translate(0 0.015625)" xlink:href="#DejaVuSans-84"/>
      <use transform="translate(61.083984 0.015625)" xlink:href="#DejaVuSans-114"/>
      <use transform="translate(102.197266 0.015625)" xlink:href="#DejaVuSans-105"/>
      <use transform="translate(129.980469 0.015625)" xlink:href="#DejaVuSans-97"/>
      <use transform="translate(191.259766 0.015625)" xlink:href="#DejaVuSans-108"/>
      <use transform="translate(219.042969 0.015625)" xlink:href="#DejaVuSans-115"/>
      <use transform="translate(271.142578 0.015625)" xlink:href="#DejaVuSans-32"/>
      <use transform="translate(302.929688 0.015625)" xlink:href="#DejaVuSans-40"/>
      <use transform="translate(341.943359 0.015625)" xlink:href="#DejaVuSans-Oblique-107"/>
      <use transform="translate(399.853516 0.015625)" xlink:href="#DejaVuSans-41"/>
     </g>
    </g>
   </g>
   <g id="matplotlib.axis_2">
    <g id="ytick_1">
     <g id="line2d_5">
      <defs>
       <path d="M 0 0 
L -3.5 0 
" id="m4539f5079a" style="stroke:#000000;stroke-width:0.8;"/>
      </defs>
      <g>
       <use style="stroke:#000000;stroke-width:0.8;" x="34.706" xlink:href="#m4539f5079a" y="179.8"/>
      </g>
     </g>
     <g id="text_6">
      <!-- 0 -->
      <g transform="translate(22.616 182.839375)scale(0.08 -0.08)">
       <use xlink:href="#DejaVuSans-48"/>
      </g>
     </g>
    </g>
    <g id="ytick_2">
     <g id="line2d_6">
      <g>
       <use style="stroke:#000000;stroke-width:0.8;" x="34.706" xlink:href="#m4539f5079a" y="144.074218"/>
      </g>
     </g>
     <g id="text_7">
      <!-- 2 -->
      <g transform="translate(22.616 147.113593)scale(0.08 -0.08)">
       <use xlink:href="#DejaVuSans-50"/>
      </g>
     </g>
    </g>
    <g id="ytick_3">
     <g id="line2d_7">
      <g>
       <use style="stroke:#000000;stroke-width:0.8;" x="34.706" xlink:href="#m4539f5079a" y="108.348436"/>
      </g>
     </g>
     <g id="text_8">
      <!-- 4 -->
      <g transform="translate(22.616 111.387811)scale(0.08 -0.08)">
       <use xlink:href="#DejaVuSans-52"/>
      </g>
     </g>
    </g>
    <g id="ytick_4">
     <g id="line2d_8">
      <g>
       <use style="stroke:#000000;stroke-width:0.8;" x="34.706" xlink:href="#m4539f5079a" y="72.622654"/>
      </g>
     </g>
     <g id="text_9">
      <!-- 6 -->
      <g transform="translate(22.616 75.662029)scale(0.08 -0.08)">
       <use xlink:href="#DejaVuSans-54"/>
      </g>
     </g>
    </g>
    <g id="ytick_5">
     <g id="line2d_9">
      <g>
       <use style="stroke:#000000;stroke-width:0.8;" x="34.706" xlink:href="#m4539f5079a" y="36.896872"/>
      </g>
     </g>
     <g id="text_10">
      <!-- 8 -->
      <g transform="translate(22.616 39.936247)scale(0.08 -0.08)">
       <use xlink:href="#DejaVuSans-56"/>
      </g>
     </g>
    </g>
    <g id="text_11">
     <!-- $d'^2$ -->
     <g transform="translate(16.95225 99.9)rotate(-90)scale(0.08 -0.08)">
      <defs>
       <path d="M 41.796875 8.203125 
Q 38.1875 3.46875 33.25 1.015625 
Q 28.328125 -1.421875 22.3125 -1.421875 
Q 14.109375 -1.421875 9.34375 4.171875 
Q 4.59375 9.765625 4.59375 19.484375 
Q 4.59375 27.59375 7.46875 34.9375 
Q 10.359375 42.28125 15.828125 48.09375 
Q 19.4375 51.953125 23.96875 53.96875 
Q 28.515625 56 33.5 56 
Q 38.765625 56 42.796875 53.453125 
Q 46.828125 50.921875 49.03125 46.1875 
L 54.890625 75.984375 
L 63.921875 75.984375 
L 49.125 0 
L 40.09375 0 
z
M 13.921875 21.09375 
Q 13.921875 14.015625 17.109375 10.0625 
Q 20.3125 6.109375 25.984375 6.109375 
Q 30.171875 6.109375 33.765625 8.125 
Q 37.359375 10.15625 40.09375 14.109375 
Q 42.96875 18.21875 44.625 23.578125 
Q 46.296875 28.953125 46.296875 34.1875 
Q 46.296875 40.96875 43.09375 44.765625 
Q 39.890625 48.578125 34.28125 48.578125 
Q 30.03125 48.578125 26.359375 46.578125 
Q 22.703125 44.578125 20.125 40.828125 
Q 17.28125 36.765625 15.59375 31.390625 
Q 13.921875 26.03125 13.921875 21.09375 
z
" id="DejaVuSans-Oblique-100"/>
       <path d="M 3.515625 5.421875 
Q 2.875 5.609375 2.875 6.390625 
L 15.09375 51.8125 
Q 15.671875 53.65625 17.078125 54.78125 
Q 18.5 55.90625 20.3125 55.90625 
Q 22.65625 55.90625 24.4375 54.359375 
Q 26.21875 52.828125 26.21875 50.484375 
Q 26.21875 49.46875 25.6875 48.1875 
L 7.625 4.984375 
Q 7.28125 4.296875 6.6875 4.296875 
Q 6.15625 4.296875 5 4.78125 
Q 3.859375 5.28125 3.515625 5.421875 
z
" id="Cmsy10-48"/>
      </defs>
      <use transform="translate(0 0.765625)" xlink:href="#DejaVuSans-Oblique-100"/>
      <use transform="translate(70.924271 39.046875)scale(0.7)" xlink:href="#Cmsy10-48"/>
      <use transform="translate(93.858841 39.046875)scale(0.7)" xlink:href="#DejaVuSans-50"/>
     </g>
    </g>
   </g>
   <g id="line2d_10">
    <path clip-path="url(#pb653d68a7e)" d="M 45.826636 100.564436 
L 58.182899 55.704126 
L 70.539162 70.142461 
L 82.895424 49.70147 
L 95.251687 57.750791 
L 107.607949 50.710231 
L 119.964212 57.449602 
L 132.320475 56.308413 
L 144.676737 53.165598 
L 157.033 50.74242 
L 169.389263 44.470393 
L 181.745525 158.473662 
L 194.101788 179.8 
L 206.458051 179.8 
L 218.814313 179.8 
L 231.170576 179.8 
L 243.526838 179.8 
L 255.883101 179.8 
L 268.239364 179.8 
" style="fill:none;stroke:#4169e1;stroke-linecap:square;stroke-width:1.5;"/>
    <defs>
     <path d="M 0 1.5 
C 0.397805 1.5 0.77937 1.341951 1.06066 1.06066 
C 1.341951 0.77937 1.5 0.397805 1.5 0 
C 1.5 -0.397805 1.341951 -0.77937 1.06066 -1.06066 
C 0.77937 -1.341951 0.397805 -1.5 0 -1.5 
C -0.397805 -1.5 -0.77937 -1.341951 -1.06066 -1.06066 
C -1.341951 -0.77937 -1.5 -0.397805 -1.5 0 
C -1.5 0.397805 -1.341951 0.77937 -1.06066 1.06066 
C -0.77937 1.341951 -0.397805 1.5 0 1.5 
z
" id="m63b97adb18" style="stroke:#4169e1;"/>
    </defs>
    <g clip-path="url(#pb653d68a7e)">
     <use style="fill:#4169e1;stroke:#4169e1;" x="45.826636" xlink:href="#m63b97adb18" y="100.564436"/>
     <use style="fill:#4169e1;stroke:#4169e1;" x="58.182899" xlink:href="#m63b97adb18" y="55.704126"/>
     <use style="fill:#4169e1;stroke:#4169e1;" x="70.539162" xlink:href="#m63b97adb18" y="70.142461"/>
     <use style="fill:#4169e1;stroke:#4169e1;" x="82.895424" xlink:href="#m63b97adb18" y="49.70147"/>
     <use style="fill:#4169e1;stroke:#4169e1;" x="95.251687" xlink:href="#m63b97adb18" y="57.750791"/>
     <use style="fill:#4169e1;stroke:#4169e1;" x="107.607949" xlink:href="#m63b97adb18" y="50.710231"/>
     <use style="fill:#4169e1;stroke:#4169e1;" x="119.964212" xlink:href="#m63b97adb18" y="57.449602"/>
     <use style="fill:#4169e1;stroke:#4169e1;" x="132.320475" xlink:href="#m63b97adb18" y="56.308413"/>
     <use style="fill:#4169e1;stroke:#4169e1;" x="144.676737" xlink:href="#m63b97adb18" y="53.165598"/>
     <use style="fill:#4169e1;stroke:#4169e1;" x="157.033" xlink:href="#m63b97adb18" y="50.74242"/>
     <use style="fill:#4169e1;stroke:#4169e1;" x="169.389263" xlink:href="#m63b97adb18" y="44.470393"/>
     <use style="fill:#4169e1;stroke:#4169e1;" x="181.745525" xlink:href="#m63b97adb18" y="158.473662"/>
     <use style="fill:#4169e1;stroke:#4169e1;" x="194.101788" xlink:href="#m63b97adb18" y="179.8"/>
     <use style="fill:#4169e1;stroke:#4169e1;" x="206.458051" xlink:href="#m63b97adb18" y="179.8"/>
     <use style="fill:#4169e1;stroke:#4169e1;" x="218.814313" xlink:href="#m63b97adb18" y="179.8"/>
     <use style="fill:#4169e1;stroke:#4169e1;" x="231.170576" xlink:href="#m63b97adb18" y="179.8"/>
     <use style="fill:#4169e1;stroke:#4169e1;" x="243.526838" xlink:href="#m63b97adb18" y="179.8"/>
     <use style="fill:#4169e1;stroke:#4169e1;" x="255.883101" xlink:href="#m63b97adb18" y="179.8"/>
     <use style="fill:#4169e1;stroke:#4169e1;" x="268.239364" xlink:href="#m63b97adb18" y="179.8"/>
    </g>
   </g>
   <g id="line2d_11">
    <path clip-path="url(#pb653d68a7e)" d="M 45.826636 109.315154 
L 58.182899 93.85754 
L 70.539162 101.101427 
L 82.895424 91.517256 
L 95.251687 89.703219 
L 107.607949 86.135012 
L 119.964212 93.561075 
L 132.320475 90.272395 
L 144.676737 91.037534 
L 157.033 84.308286 
L 169.389263 83.849302 
L 181.745525 164.128785 
L 194.101788 179.8 
L 206.458051 179.8 
L 218.814313 179.8 
L 231.170576 179.8 
L 243.526838 179.8 
L 255.883101 179.8 
L 268.239364 179.8 
" style="fill:none;stroke:#ffa500;stroke-linecap:square;stroke-width:1.5;"/>
    <defs>
     <path d="M 0 1.5 
C 0.397805 1.5 0.77937 1.341951 1.06066 1.06066 
C 1.341951 0.77937 1.5 0.397805 1.5 0 
C 1.5 -0.397805 1.341951 -0.77937 1.06066 -1.06066 
C 0.77937 -1.341951 0.397805 -1.5 0 -1.5 
C -0.397805 -1.5 -0.77937 -1.341951 -1.06066 -1.06066 
C -1.341951 -0.77937 -1.5 -0.397805 -1.5 0 
C -1.5 0.397805 -1.341951 0.77937 -1.06066 1.06066 
C -0.77937 1.341951 -0.397805 1.5 0 1.5 
z
" id="m22d2c58127" style="stroke:#ffa500;"/>
    </defs>
    <g clip-path="url(#pb653d68a7e)">
     <use style="fill:#ffa500;stroke:#ffa500;" x="45.826636" xlink:href="#m22d2c58127" y="109.315154"/>
     <use style="fill:#ffa500;stroke:#ffa500;" x="58.182899" xlink:href="#m22d2c58127" y="93.85754"/>
     <use style="fill:#ffa500;stroke:#ffa500;" x="70.539162" xlink:href="#m22d2c58127" y="101.101427"/>
     <use style="fill:#ffa500;stroke:#ffa500;" x="82.895424" xlink:href="#m22d2c58127" y="91.517256"/>
     <use style="fill:#ffa500;stroke:#ffa500;" x="95.251687" xlink:href="#m22d2c58127" y="89.703219"/>
     <use style="fill:#ffa500;stroke:#ffa500;" x="107.607949" xlink:href="#m22d2c58127" y="86.135012"/>
     <use style="fill:#ffa500;stroke:#ffa500;" x="119.964212" xlink:href="#m22d2c58127" y="93.561075"/>
     <use style="fill:#ffa500;stroke:#ffa500;" x="132.320475" xlink:href="#m22d2c58127" y="90.272395"/>
     <use style="fill:#ffa500;stroke:#ffa500;" x="144.676737" xlink:href="#m22d2c58127" y="91.037534"/>
     <use style="fill:#ffa500;stroke:#ffa500;" x="157.033" xlink:href="#m22d2c58127" y="84.308286"/>
     <use style="fill:#ffa500;stroke:#ffa500;" x="169.389263" xlink:href="#m22d2c58127" y="83.849302"/>
     <use style="fill:#ffa500;stroke:#ffa500;" x="181.745525" xlink:href="#m22d2c58127" y="164.128785"/>
     <use style="fill:#ffa500;stroke:#ffa500;" x="194.101788" xlink:href="#m22d2c58127" y="179.8"/>
     <use style="fill:#ffa500;stroke:#ffa500;" x="206.458051" xlink:href="#m22d2c58127" y="179.8"/>
     <use style="fill:#ffa500;stroke:#ffa500;" x="218.814313" xlink:href="#m22d2c58127" y="179.8"/>
     <use style="fill:#ffa500;stroke:#ffa500;" x="231.170576" xlink:href="#m22d2c58127" y="179.8"/>
     <use style="fill:#ffa500;stroke:#ffa500;" x="243.526838" xlink:href="#m22d2c58127" y="179.8"/>
     <use style="fill:#ffa500;stroke:#ffa500;" x="255.883101" xlink:href="#m22d2c58127" y="179.8"/>
     <use style="fill:#ffa500;stroke:#ffa500;" x="268.239364" xlink:href="#m22d2c58127" y="179.8"/>
    </g>
   </g>
   <g id="line2d_12">
    <path clip-path="url(#pb653d68a7e)" d="M 45.826636 72.403424 
L 58.182899 33.101986 
L 70.539162 67.559668 
L 82.895424 50.051217 
L 95.251687 54.595183 
L 107.607949 56.083464 
L 119.964212 60.597549 
L 132.320475 59.430881 
L 144.676737 53.521488 
L 157.033 55.013355 
L 169.389263 53.494899 
L 181.745525 159.121728 
L 194.101788 179.8 
L 206.458051 179.8 
L 218.814313 179.8 
L 231.170576 179.8 
L 243.526838 179.8 
L 255.883101 179.8 
L 268.239364 179.8 
" style="fill:none;stroke:#000000;stroke-linecap:square;stroke-width:1.5;"/>
    <defs>
     <path d="M 0 1.5 
C 0.397805 1.5 0.77937 1.341951 1.06066 1.06066 
C 1.341951 0.77937 1.5 0.397805 1.5 0 
C 1.5 -0.397805 1.341951 -0.77937 1.06066 -1.06066 
C 0.77937 -1.341951 0.397805 -1.5 0 -1.5 
C -0.397805 -1.5 -0.77937 -1.341951 -1.06066 -1.06066 
C -1.341951 -0.77937 -1.5 -0.397805 -1.5 0 
C -1.5 0.397805 -1.341951 0.77937 -1.06066 1.06066 
C -0.77937 1.341951 -0.397805 1.5 0 1.5 
z
" id="mae1852e359" style="stroke:#000000;"/>
    </defs>
    <g clip-path="url(#pb653d68a7e)">
     <use style="stroke:#000000;" x="45.826636" xlink:href="#mae1852e359" y="72.403424"/>
     <use style="stroke:#000000;" x="58.182899" xlink:href="#mae1852e359" y="33.101986"/>
     <use style="stroke:#000000;" x="70.539162" xlink:href="#mae1852e359" y="67.559668"/>
     <use style="stroke:#000000;" x="82.895424" xlink:href="#mae1852e359" y="50.051217"/>
     <use style="stroke:#000000;" x="95.251687" xlink:href="#mae1852e359" y="54.595183"/>
     <use style="stroke:#000000;" x="107.607949" xlink:href="#mae1852e359" y="56.083464"/>
     <use style="stroke:#000000;" x="119.964212" xlink:href="#mae1852e359" y="60.597549"/>
     <use style="stroke:#000000;" x="132.320475" xlink:href="#mae1852e359" y="59.430881"/>
     <use style="stroke:#000000;" x="144.676737" xlink:href="#mae1852e359" y="53.521488"/>
     <use style="stroke:#000000;" x="157.033" xlink:href="#mae1852e359" y="55.013355"/>
     <use style="stroke:#000000;" x="169.389263" xlink:href="#mae1852e359" y="53.494899"/>
     <use style="stroke:#000000;" x="181.745525" xlink:href="#mae1852e359" y="159.121728"/>
     <use style="stroke:#000000;" x="194.101788" xlink:href="#mae1852e359" y="179.8"/>
     <use style="stroke:#000000;" x="206.458051" xlink:href="#mae1852e359" y="179.8"/>
     <use style="stroke:#000000;" x="218.814313" xlink:href="#mae1852e359" y="179.8"/>
     <use style="stroke:#000000;" x="231.170576" xlink:href="#mae1852e359" y="179.8"/>
     <use style="stroke:#000000;" x="243.526838" xlink:href="#mae1852e359" y="179.8"/>
     <use style="stroke:#000000;" x="255.883101" xlink:href="#mae1852e359" y="179.8"/>
     <use style="stroke:#000000;" x="268.239364" xlink:href="#mae1852e359" y="179.8"/>
    </g>
   </g>
   <g id="patch_3">
    <path d="M 34.706 179.8 
L 34.706 8.64 
" style="fill:none;stroke:#000000;stroke-linecap:square;stroke-linejoin:miter;stroke-width:0.8;"/>
   </g>
   <g id="patch_4">
    <path d="M 34.706 179.8 
L 279.36 179.8 
" style="fill:none;stroke:#000000;stroke-linecap:square;stroke-linejoin:miter;stroke-width:0.8;"/>
   </g>
   <g id="legend_1">
    <g id="line2d_13">
     <path d="M 225.76 19.11875 
L 241.76 19.11875 
" style="fill:none;stroke:#4169e1;stroke-linecap:square;stroke-width:1.5;"/>
    </g>
    <g id="line2d_14">
     <g>
      <use style="fill:#4169e1;stroke:#4169e1;" x="233.76" xlink:href="#m63b97adb18" y="19.11875"/>
     </g>
    </g>
    <g id="text_12">
     <!-- $dDR$ -->
     <g transform="translate(248.16 21.91875)scale(0.08 -0.08)">
      <defs>
       <path d="M 16.890625 72.90625 
L 38.09375 72.90625 
Q 54.984375 72.90625 63.59375 65.75 
Q 72.21875 58.59375 72.21875 44.484375 
Q 72.21875 35.15625 68.9375 26.53125 
Q 65.671875 17.921875 59.90625 12.015625 
Q 54.109375 5.953125 45.171875 2.96875 
Q 36.234375 0 24.03125 0 
L 2.6875 0 
z
M 25.203125 64.796875 
L 14.203125 8.109375 
L 27.09375 8.109375 
Q 43.65625 8.109375 52.734375 17.625 
Q 61.8125 27.15625 61.8125 44.484375 
Q 61.8125 54.984375 55.953125 59.890625 
Q 50.09375 64.796875 37.59375 64.796875 
z
" id="DejaVuSans-Oblique-68"/>
       <path d="M 25.203125 64.796875 
L 20.21875 38.921875 
L 32.90625 38.921875 
Q 40.375 38.921875 44.984375 43.046875 
Q 49.609375 47.171875 49.609375 53.8125 
Q 49.609375 59.125 46.5 61.953125 
Q 43.40625 64.796875 37.59375 64.796875 
z
M 43.3125 35.015625 
Q 46.4375 34.28125 48.515625 31.390625 
Q 50.59375 28.515625 53.328125 19.921875 
L 59.515625 0 
L 49.125 0 
L 43.40625 18.703125 
Q 41.21875 25.921875 38.328125 28.359375 
Q 35.453125 30.8125 29.5 30.8125 
L 18.609375 30.8125 
L 12.59375 0 
L 2.6875 0 
L 16.890625 72.90625 
L 39.109375 72.90625 
Q 49.21875 72.90625 54.609375 68.328125 
Q 60.015625 63.765625 60.015625 55.171875 
Q 60.015625 47.5625 55.421875 41.984375 
Q 50.828125 36.421875 43.3125 35.015625 
z
" id="DejaVuSans-Oblique-82"/>
      </defs>
      <use transform="translate(0 0.015625)" xlink:href="#DejaVuSans-Oblique-100"/>
      <use transform="translate(63.476562 0.015625)" xlink:href="#DejaVuSans-Oblique-68"/>
      <use transform="translate(140.478516 0.015625)" xlink:href="#DejaVuSans-Oblique-82"/>
     </g>
    </g>
    <g id="line2d_15">
     <path d="M 225.76 30.86125 
L 241.76 30.86125 
" style="fill:none;stroke:#ffa500;stroke-linecap:square;stroke-width:1.5;"/>
    </g>
    <g id="line2d_16">
     <g>
      <use style="fill:#ffa500;stroke:#ffa500;" x="233.76" xlink:href="#m22d2c58127" y="30.86125"/>
     </g>
    </g>
    <g id="text_13">
     <!-- $stPCA$ -->
     <g transform="translate(248.16 33.66125)scale(0.08 -0.08)">
      <defs>
       <path d="M 50 53.078125 
L 48.296875 44.578125 
Q 44.734375 46.53125 40.765625 47.5 
Q 36.8125 48.484375 32.625 48.484375 
Q 25.53125 48.484375 21.453125 46.0625 
Q 17.390625 43.65625 17.390625 39.5 
Q 17.390625 34.671875 26.859375 32.078125 
Q 27.59375 31.890625 27.9375 31.78125 
L 30.8125 30.90625 
Q 39.796875 28.421875 42.796875 25.6875 
Q 45.796875 22.953125 45.796875 18.21875 
Q 45.796875 9.515625 38.890625 4.046875 
Q 31.984375 -1.421875 20.796875 -1.421875 
Q 16.453125 -1.421875 11.671875 -0.578125 
Q 6.890625 0.25 1.125 2 
L 2.875 11.28125 
Q 7.8125 8.734375 12.59375 7.421875 
Q 17.390625 6.109375 21.78125 6.109375 
Q 28.375 6.109375 32.5 8.9375 
Q 36.625 11.765625 36.625 16.109375 
Q 36.625 20.796875 25.78125 23.6875 
L 24.859375 23.921875 
L 21.78125 24.703125 
Q 14.9375 26.515625 11.765625 29.46875 
Q 8.59375 32.421875 8.59375 37.015625 
Q 8.59375 45.75 15.15625 50.875 
Q 21.734375 56 33.015625 56 
Q 37.453125 56 41.671875 55.265625 
Q 45.90625 54.546875 50 53.078125 
z
" id="DejaVuSans-Oblique-115"/>
       <path d="M 42.28125 54.6875 
L 40.921875 47.703125 
L 23 47.703125 
L 17.1875 18.015625 
Q 16.890625 16.359375 16.75 15.234375 
Q 16.609375 14.109375 16.609375 13.484375 
Q 16.609375 10.359375 18.484375 8.9375 
Q 20.359375 7.515625 24.515625 7.515625 
L 33.59375 7.515625 
L 32.078125 0 
L 23.484375 0 
Q 15.484375 0 11.546875 3.125 
Q 7.625 6.25 7.625 12.59375 
Q 7.625 13.71875 7.765625 15.0625 
Q 7.90625 16.40625 8.203125 18.015625 
L 14.015625 47.703125 
L 6.390625 47.703125 
L 7.8125 54.6875 
L 15.28125 54.6875 
L 18.3125 70.21875 
L 27.296875 70.21875 
L 24.3125 54.6875 
z
" id="DejaVuSans-Oblique-116"/>
       <path d="M 16.890625 72.90625 
L 39.703125 72.90625 
Q 49.65625 72.90625 54.875 68.265625 
Q 60.109375 63.625 60.109375 54.6875 
Q 60.109375 42.671875 52.390625 35.984375 
Q 44.671875 29.296875 30.71875 29.296875 
L 18.3125 29.296875 
L 12.59375 0 
L 2.6875 0 
z
M 25.203125 64.796875 
L 19.921875 37.40625 
L 32.328125 37.40625 
Q 40.71875 37.40625 45.203125 41.703125 
Q 49.703125 46 49.703125 54 
Q 49.703125 59.125 46.65625 61.953125 
Q 43.609375 64.796875 38.09375 64.796875 
z
" id="DejaVuSans-Oblique-80"/>
       <path d="M 69.484375 67.28125 
L 67.484375 56.890625 
Q 62.796875 61.625 57.546875 63.921875 
Q 52.296875 66.21875 46.1875 66.21875 
Q 37.84375 66.21875 31.515625 62.203125 
Q 25.203125 58.203125 20.609375 50 
Q 17.671875 44.734375 16.125 38.84375 
Q 14.59375 32.953125 14.59375 27 
Q 14.59375 17.046875 19.75 11.8125 
Q 24.90625 6.59375 34.71875 6.59375 
Q 41.5 6.59375 47.75 8.765625 
Q 54 10.9375 59.90625 15.28125 
L 57.625 3.609375 
Q 51.8125 1.125 45.875 -0.140625 
Q 39.9375 -1.421875 33.984375 -1.421875 
Q 19.96875 -1.421875 12.078125 6.1875 
Q 4.203125 13.8125 4.203125 27.390625 
Q 4.203125 36.078125 7.203125 44.46875 
Q 10.203125 52.875 15.828125 59.8125 
Q 21.78125 67.1875 29.421875 70.703125 
Q 37.0625 74.21875 47.21875 74.21875 
Q 53.46875 74.21875 59.0625 72.484375 
Q 64.65625 70.75 69.484375 67.28125 
z
" id="DejaVuSans-Oblique-67"/>
       <path d="M 36.8125 72.90625 
L 48 72.90625 
L 61.53125 0 
L 51.21875 0 
L 48.1875 18.703125 
L 15.375 18.703125 
L 5.078125 0 
L -5.328125 0 
z
M 40.375 63.1875 
L 19.921875 26.90625 
L 46.6875 26.90625 
z
" id="DejaVuSans-Oblique-65"/>
      </defs>
      <use transform="translate(0 0.78125)" xlink:href="#DejaVuSans-Oblique-115"/>
      <use transform="translate(52.099609 0.78125)" xlink:href="#DejaVuSans-Oblique-116"/>
      <use transform="translate(91.308594 0.78125)" xlink:href="#DejaVuSans-Oblique-80"/>
      <use transform="translate(151.611328 0.78125)" xlink:href="#DejaVuSans-Oblique-67"/>
      <use transform="translate(221.435547 0.78125)" xlink:href="#DejaVuSans-Oblique-65"/>
     </g>
    </g>
    <g id="line2d_17">
     <path d="M 225.76 42.60375 
L 241.76 42.60375 
" style="fill:none;stroke:#000000;stroke-linecap:square;stroke-width:1.5;"/>
    </g>
    <g id="line2d_18">
     <g>
      <use style="stroke:#000000;" x="233.76" xlink:href="#mae1852e359" y="42.60375"/>
     </g>
    </g>
    <g id="text_14">
     <!-- $taPCA$ -->
     <g transform="translate(248.16 45.40375)scale(0.08 -0.08)">
      <defs>
       <path d="M 53.71875 31.203125 
L 47.609375 0 
L 38.625 0 
L 40.28125 8.296875 
Q 36.328125 3.421875 31.265625 1 
Q 26.21875 -1.421875 20.015625 -1.421875 
Q 13.03125 -1.421875 8.5625 2.84375 
Q 4.109375 7.125 4.109375 13.8125 
Q 4.109375 23.390625 11.75 28.953125 
Q 19.390625 34.515625 32.8125 34.515625 
L 45.3125 34.515625 
L 45.796875 36.921875 
Q 45.90625 37.3125 45.953125 37.765625 
Q 46 38.234375 46 39.203125 
Q 46 43.5625 42.453125 45.96875 
Q 38.921875 48.390625 32.515625 48.390625 
Q 28.125 48.390625 23.5 47.265625 
Q 18.890625 46.140625 14.015625 43.890625 
L 15.578125 52.203125 
Q 20.65625 54.109375 25.515625 55.046875 
Q 30.375 56 34.90625 56 
Q 44.578125 56 49.625 51.796875 
Q 54.6875 47.609375 54.6875 39.59375 
Q 54.6875 37.984375 54.4375 35.8125 
Q 54.203125 33.640625 53.71875 31.203125 
z
M 44 27.484375 
L 35.015625 27.484375 
Q 23.96875 27.484375 18.671875 24.53125 
Q 13.375 21.578125 13.375 15.375 
Q 13.375 11.078125 16.078125 8.640625 
Q 18.796875 6.203125 23.578125 6.203125 
Q 30.90625 6.203125 36.375 11.453125 
Q 41.84375 16.703125 43.609375 25.484375 
z
" id="DejaVuSans-Oblique-97"/>
      </defs>
      <use transform="translate(0 0.78125)" xlink:href="#DejaVuSans-Oblique-116"/>
      <use transform="translate(39.208984 0.78125)" xlink:href="#DejaVuSans-Oblique-97"/>
      <use transform="translate(100.488281 0.78125)" xlink:href="#DejaVuSans-Oblique-80"/>
      <use transform="translate(160.791016 0.78125)" xlink:href="#DejaVuSans-Oblique-67"/>
      <use transform="translate(230.615234 0.78125)" xlink:href="#DejaVuSans-Oblique-65"/>
     </g>
    </g>
   </g>
  </g>
 </g>
 <defs>
  <clipPath id="pb653d68a7e">
   <rect height="171.16" width="244.654" x="34.706" y="8.64"/>
  </clipPath>
 </defs>
</svg>
