<?xml version="1.0" encoding="utf-8" standalone="no"?>
<!DOCTYPE svg PUBLIC "-//W3C//DTD SVG 1.1//EN"
  "http://www.w3.org/Graphics/SVG/1.1/DTD/svg11.dtd">
<!-- Created with matplotlib (https://matplotlib.org/) -->
<svg height="144pt" version="1.1" viewBox="0 0 432 144" width="432pt" xmlns="http://www.w3.org/2000/svg" xmlns:xlink="http://www.w3.org/1999/xlink">
 <defs>
  <style type="text/css">
*{stroke-linecap:butt;stroke-linejoin:round;}
  </style>
 </defs>
 <g id="figure_1">
  <g id="patch_1">
   <path d="M 0 144 
L 432 144 
L 432 0 
L 0 0 
z
" style="fill:#ffffff;"/>
  </g>
  <g id="axes_1">
   <g id="patch_2">
    <path d="M 38.63 107.08 
L 144.391091 107.08 
L 144.391091 24 
L 38.63 24 
z
" style="fill:#ffffff;"/>
   </g>
   <g id="PathCollection_1">
    <defs>
     <path d="M 0 1.118034 
C 0.296506 1.118034 0.580908 1.000231 0.790569 0.790569 
C 1.000231 0.580908 1.118034 0.296506 1.118034 0 
C 1.118034 -0.296506 1.000231 -0.580908 0.790569 -0.790569 
C 0.580908 -1.000231 0.296506 -1.118034 0 -1.118034 
C -0.296506 -1.118034 -0.580908 -1.000231 -0.790569 -0.790569 
C -1.000231 -0.580908 -1.118034 -0.296506 -1.118034 0 
C -1.118034 0.296506 -1.000231 0.580908 -0.790569 0.790569 
C -0.580908 1.000231 -0.296506 1.118034 0 1.118034 
z
" id="m5fbbecf6a8"/>
    </defs>
    <g clip-path="url(#p8129839420)">
     <use style="fill:#1f77b4;" x="127.624739" xlink:href="#m5fbbecf6a8" y="51.663166"/>
     <use style="fill:#1f77b4;" x="121.691478" xlink:href="#m5fbbecf6a8" y="57.307984"/>
     <use style="fill:#1f77b4;" x="120.548077" xlink:href="#m5fbbecf6a8" y="42.134667"/>
     <use style="fill:#1f77b4;" x="121.461952" xlink:href="#m5fbbecf6a8" y="67.792446"/>
     <use style="fill:#1f77b4;" x="115.342732" xlink:href="#m5fbbecf6a8" y="72.889482"/>
     <use style="fill:#1f77b4;" x="106.319181" xlink:href="#m5fbbecf6a8" y="91.689687"/>
     <use style="fill:#1f77b4;" x="113.507052" xlink:href="#m5fbbecf6a8" y="86.65301"/>
     <use style="fill:#1f77b4;" x="104.519121" xlink:href="#m5fbbecf6a8" y="88.608125"/>
     <use style="fill:#1f77b4;" x="119.654816" xlink:href="#m5fbbecf6a8" y="66.450525"/>
     <use style="fill:#1f77b4;" x="130.704239" xlink:href="#m5fbbecf6a8" y="57.05757"/>
     <use style="fill:#1f77b4;" x="129.810553" xlink:href="#m5fbbecf6a8" y="41.011619"/>
     <use style="fill:#1f77b4;" x="130.803655" xlink:href="#m5fbbecf6a8" y="53.058699"/>
     <use style="fill:#1f77b4;" x="110.010254" xlink:href="#m5fbbecf6a8" y="88.759975"/>
     <use style="fill:#1f77b4;" x="100.351197" xlink:href="#m5fbbecf6a8" y="93.97194"/>
     <use style="fill:#1f77b4;" x="118.632886" xlink:href="#m5fbbecf6a8" y="88.707767"/>
     <use style="fill:#1f77b4;" x="95.214761" xlink:href="#m5fbbecf6a8" y="99.037552"/>
     <use style="fill:#1f77b4;" x="129.386941" xlink:href="#m5fbbecf6a8" y="60.836946"/>
     <use style="fill:#1f77b4;" x="123.774346" xlink:href="#m5fbbecf6a8" y="65.679067"/>
     <use style="fill:#1f77b4;" x="124.92479" xlink:href="#m5fbbecf6a8" y="80.669871"/>
     <use style="fill:#1f77b4;" x="121.617723" xlink:href="#m5fbbecf6a8" y="70.107379"/>
     <use style="fill:#1f77b4;" x="133.223211" xlink:href="#m5fbbecf6a8" y="40.670968"/>
     <use style="fill:#1f77b4;" x="119.729504" xlink:href="#m5fbbecf6a8" y="60.888859"/>
     <use style="fill:#1f77b4;" x="132.51975" xlink:href="#m5fbbecf6a8" y="40.026574"/>
     <use style="fill:#1f77b4;" x="115.961015" xlink:href="#m5fbbecf6a8" y="79.085089"/>
     <use style="fill:#1f77b4;" x="131.215468" xlink:href="#m5fbbecf6a8" y="52.94174"/>
     <use style="fill:#1f77b4;" x="124.682563" xlink:href="#m5fbbecf6a8" y="72.321994"/>
     <use style="fill:#1f77b4;" x="128.80542" xlink:href="#m5fbbecf6a8" y="52.400631"/>
     <use style="fill:#1f77b4;" x="113.303845" xlink:href="#m5fbbecf6a8" y="83.960732"/>
     <use style="fill:#1f77b4;" x="119.236055" xlink:href="#m5fbbecf6a8" y="77.992791"/>
     <use style="fill:#1f77b4;" x="105.077348" xlink:href="#m5fbbecf6a8" y="77.014483"/>
     <use style="fill:#1f77b4;" x="102.496364" xlink:href="#m5fbbecf6a8" y="97.530058"/>
     <use style="fill:#1f77b4;" x="123.5105" xlink:href="#m5fbbecf6a8" y="63.407744"/>
     <use style="fill:#1f77b4;" x="105.885749" xlink:href="#m5fbbecf6a8" y="89.069857"/>
     <use style="fill:#1f77b4;" x="105.804221" xlink:href="#m5fbbecf6a8" y="91.817851"/>
     <use style="fill:#1f77b4;" x="99.280996" xlink:href="#m5fbbecf6a8" y="90.639547"/>
     <use style="fill:#1f77b4;" x="99.209109" xlink:href="#m5fbbecf6a8" y="103.213429"/>
     <use style="fill:#1f77b4;" x="115.759257" xlink:href="#m5fbbecf6a8" y="89.661934"/>
     <use style="fill:#1f77b4;" x="119.915363" xlink:href="#m5fbbecf6a8" y="73.516994"/>
     <use style="fill:#1f77b4;" x="99.657613" xlink:href="#m5fbbecf6a8" y="96.423617"/>
     <use style="fill:#1f77b4;" x="129.410502" xlink:href="#m5fbbecf6a8" y="40.699657"/>
     <use style="fill:#1f77b4;" x="131.239249" xlink:href="#m5fbbecf6a8" y="34.149178"/>
     <use style="fill:#1f77b4;" x="134.746567" xlink:href="#m5fbbecf6a8" y="52.759371"/>
     <use style="fill:#1f77b4;" x="130.019563" xlink:href="#m5fbbecf6a8" y="47.797503"/>
     <use style="fill:#1f77b4;" x="128.167984" xlink:href="#m5fbbecf6a8" y="32.633861"/>
     <use style="fill:#1f77b4;" x="127.588193" xlink:href="#m5fbbecf6a8" y="34.586624"/>
     <use style="fill:#1f77b4;" x="127.2687" xlink:href="#m5fbbecf6a8" y="27.866571"/>
    </g>
   </g>
   <g id="PathCollection_2">
    <defs>
     <path d="M 0 1.118034 
C 0.296506 1.118034 0.580908 1.000231 0.790569 0.790569 
C 1.000231 0.580908 1.118034 0.296506 1.118034 0 
C 1.118034 -0.296506 1.000231 -0.580908 0.790569 -0.790569 
C 0.580908 -1.000231 0.296506 -1.118034 0 -1.118034 
C -0.296506 -1.118034 -0.580908 -1.000231 -0.790569 -0.790569 
C -1.000231 -0.580908 -1.118034 -0.296506 -1.118034 0 
C -1.118034 0.296506 -1.000231 0.580908 -0.790569 0.790569 
C -0.580908 1.000231 -0.296506 1.118034 0 1.118034 
z
" id="m3e81ed7143"/>
    </defs>
    <g clip-path="url(#p8129839420)">
     <use style="fill:#ff7f0e;" x="75.135908" xlink:href="#m3e81ed7143" y="56.709897"/>
     <use style="fill:#ff7f0e;" x="78.449686" xlink:href="#m3e81ed7143" y="75.386828"/>
     <use style="fill:#ff7f0e;" x="80.32249" xlink:href="#m3e81ed7143" y="62.194778"/>
     <use style="fill:#ff7f0e;" x="78.471596" xlink:href="#m3e81ed7143" y="50.694694"/>
     <use style="fill:#ff7f0e;" x="85.510581" xlink:href="#m3e81ed7143" y="77.769627"/>
     <use style="fill:#ff7f0e;" x="87.771352" xlink:href="#m3e81ed7143" y="95.971608"/>
     <use style="fill:#ff7f0e;" x="87.50885" xlink:href="#m3e81ed7143" y="90.295704"/>
     <use style="fill:#ff7f0e;" x="88.636083" xlink:href="#m3e81ed7143" y="91.824483"/>
     <use style="fill:#ff7f0e;" x="78.731726" xlink:href="#m3e81ed7143" y="39.4856"/>
     <use style="fill:#ff7f0e;" x="78.833749" xlink:href="#m3e81ed7143" y="45.405637"/>
     <use style="fill:#ff7f0e;" x="79.210988" xlink:href="#m3e81ed7143" y="66.482641"/>
     <use style="fill:#ff7f0e;" x="81.734498" xlink:href="#m3e81ed7143" y="76.131335"/>
     <use style="fill:#ff7f0e;" x="87.892379" xlink:href="#m3e81ed7143" y="83.315017"/>
     <use style="fill:#ff7f0e;" x="82.636984" xlink:href="#m3e81ed7143" y="64.503352"/>
     <use style="fill:#ff7f0e;" x="88.427541" xlink:href="#m3e81ed7143" y="85.535726"/>
     <use style="fill:#ff7f0e;" x="78.727858" xlink:href="#m3e81ed7143" y="72.96194"/>
     <use style="fill:#ff7f0e;" x="78.372965" xlink:href="#m3e81ed7143" y="68.845351"/>
     <use style="fill:#ff7f0e;" x="75.665422" xlink:href="#m3e81ed7143" y="65.918048"/>
     <use style="fill:#ff7f0e;" x="82.523462" xlink:href="#m3e81ed7143" y="58.065943"/>
     <use style="fill:#ff7f0e;" x="78.221675" xlink:href="#m3e81ed7143" y="63.460357"/>
     <use style="fill:#ff7f0e;" x="76.342748" xlink:href="#m3e81ed7143" y="65.67833"/>
     <use style="fill:#ff7f0e;" x="86.310056" xlink:href="#m3e81ed7143" y="86.549776"/>
     <use style="fill:#ff7f0e;" x="73.627246" xlink:href="#m3e81ed7143" y="58.644226"/>
     <use style="fill:#ff7f0e;" x="78.726582" xlink:href="#m3e81ed7143" y="58.796917"/>
     <use style="fill:#ff7f0e;" x="76.751334" xlink:href="#m3e81ed7143" y="60.468655"/>
     <use style="fill:#ff7f0e;" x="77.631487" xlink:href="#m3e81ed7143" y="60.03263"/>
     <use style="fill:#ff7f0e;" x="82.007308" xlink:href="#m3e81ed7143" y="74.037794"/>
     <use style="fill:#ff7f0e;" x="90.862607" xlink:href="#m3e81ed7143" y="87.169701"/>
     <use style="fill:#ff7f0e;" x="87.837384" xlink:href="#m3e81ed7143" y="79.623371"/>
     <use style="fill:#ff7f0e;" x="90.727856" xlink:href="#m3e81ed7143" y="101.211972"/>
     <use style="fill:#ff7f0e;" x="89.41904" xlink:href="#m3e81ed7143" y="88.46212"/>
     <use style="fill:#ff7f0e;" x="90.723245" xlink:href="#m3e81ed7143" y="97.400626"/>
     <use style="fill:#ff7f0e;" x="95.822662" xlink:href="#m3e81ed7143" y="82.20878"/>
     <use style="fill:#ff7f0e;" x="79.174528" xlink:href="#m3e81ed7143" y="83.585174"/>
     <use style="fill:#ff7f0e;" x="87.720962" xlink:href="#m3e81ed7143" y="95.366612"/>
     <use style="fill:#ff7f0e;" x="75.311411" xlink:href="#m3e81ed7143" y="54.037663"/>
     <use style="fill:#ff7f0e;" x="80.296029" xlink:href="#m3e81ed7143" y="79.691823"/>
     <use style="fill:#ff7f0e;" x="84.51925" xlink:href="#m3e81ed7143" y="86.8523"/>
     <use style="fill:#ff7f0e;" x="77.191875" xlink:href="#m3e81ed7143" y="46.393709"/>
     <use style="fill:#ff7f0e;" x="78.367341" xlink:href="#m3e81ed7143" y="51.895033"/>
     <use style="fill:#ff7f0e;" x="81.308502" xlink:href="#m3e81ed7143" y="51.849125"/>
     <use style="fill:#ff7f0e;" x="78.41859" xlink:href="#m3e81ed7143" y="42.604066"/>
     <use style="fill:#ff7f0e;" x="81.452416" xlink:href="#m3e81ed7143" y="56.725477"/>
     <use style="fill:#ff7f0e;" x="77.652164" xlink:href="#m3e81ed7143" y="58.389686"/>
    </g>
   </g>
   <g id="matplotlib.axis_1">
    <g id="xtick_1">
     <g id="line2d_1">
      <defs>
       <path d="M 0 0 
L 0 3.5 
" id="m34edf9478c" style="stroke:#000000;stroke-width:0.8;"/>
      </defs>
      <g>
       <use style="stroke:#000000;stroke-width:0.8;" x="43.437322" xlink:href="#m34edf9478c" y="107.08"/>
      </g>
     </g>
     <g id="text_1">
      <!-- −10 -->
      <defs>
       <path d="M 10.59375 35.5 
L 73.1875 35.5 
L 73.1875 27.203125 
L 10.59375 27.203125 
z
" id="DejaVuSans-8722"/>
       <path d="M 12.40625 8.296875 
L 28.515625 8.296875 
L 28.515625 63.921875 
L 10.984375 60.40625 
L 10.984375 69.390625 
L 28.421875 72.90625 
L 38.28125 72.90625 
L 38.28125 8.296875 
L 54.390625 8.296875 
L 54.390625 0 
L 12.40625 0 
z
" id="DejaVuSans-49"/>
       <path d="M 31.78125 66.40625 
Q 24.171875 66.40625 20.328125 58.90625 
Q 16.5 51.421875 16.5 36.375 
Q 16.5 21.390625 20.328125 13.890625 
Q 24.171875 6.390625 31.78125 6.390625 
Q 39.453125 6.390625 43.28125 13.890625 
Q 47.125 21.390625 47.125 36.375 
Q 47.125 51.421875 43.28125 58.90625 
Q 39.453125 66.40625 31.78125 66.40625 
z
M 31.78125 74.21875 
Q 44.046875 74.21875 50.515625 64.515625 
Q 56.984375 54.828125 56.984375 36.375 
Q 56.984375 17.96875 50.515625 8.265625 
Q 44.046875 -1.421875 31.78125 -1.421875 
Q 19.53125 -1.421875 13.0625 8.265625 
Q 6.59375 17.96875 6.59375 36.375 
Q 6.59375 54.828125 13.0625 64.515625 
Q 19.53125 74.21875 31.78125 74.21875 
z
" id="DejaVuSans-48"/>
      </defs>
      <g transform="translate(34.995447 120.15875)scale(0.08 -0.08)">
       <use xlink:href="#DejaVuSans-8722"/>
       <use x="83.789062" xlink:href="#DejaVuSans-49"/>
       <use x="147.412109" xlink:href="#DejaVuSans-48"/>
      </g>
     </g>
    </g>
    <g id="xtick_2">
     <g id="line2d_2">
      <g>
       <use style="stroke:#000000;stroke-width:0.8;" x="94.040715" xlink:href="#m34edf9478c" y="107.08"/>
      </g>
     </g>
     <g id="text_2">
      <!-- 0 -->
      <g transform="translate(91.495715 120.15875)scale(0.08 -0.08)">
       <use xlink:href="#DejaVuSans-48"/>
      </g>
     </g>
    </g>
    <g id="xtick_3">
     <g id="line2d_3">
      <g>
       <use style="stroke:#000000;stroke-width:0.8;" x="144.644108" xlink:href="#m34edf9478c" y="107.08"/>
      </g>
     </g>
     <g id="text_3">
      <!-- 10 -->
      <g transform="translate(139.554108 120.15875)scale(0.08 -0.08)">
       <use xlink:href="#DejaVuSans-49"/>
       <use x="63.623047" xlink:href="#DejaVuSans-48"/>
      </g>
     </g>
    </g>
    <g id="text_4">
     <!-- Signal ($\Delta \mu$) -->
     <defs>
      <path d="M 53.515625 70.515625 
L 53.515625 60.890625 
Q 47.90625 63.578125 42.921875 64.890625 
Q 37.9375 66.21875 33.296875 66.21875 
Q 25.25 66.21875 20.875 63.09375 
Q 16.5 59.96875 16.5 54.203125 
Q 16.5 49.359375 19.40625 46.890625 
Q 22.3125 44.4375 30.421875 42.921875 
L 36.375 41.703125 
Q 47.40625 39.59375 52.65625 34.296875 
Q 57.90625 29 57.90625 20.125 
Q 57.90625 9.515625 50.796875 4.046875 
Q 43.703125 -1.421875 29.984375 -1.421875 
Q 24.8125 -1.421875 18.96875 -0.25 
Q 13.140625 0.921875 6.890625 3.21875 
L 6.890625 13.375 
Q 12.890625 10.015625 18.65625 8.296875 
Q 24.421875 6.59375 29.984375 6.59375 
Q 38.421875 6.59375 43.015625 9.90625 
Q 47.609375 13.234375 47.609375 19.390625 
Q 47.609375 24.75 44.3125 27.78125 
Q 41.015625 30.8125 33.5 32.328125 
L 27.484375 33.5 
Q 16.453125 35.6875 11.515625 40.375 
Q 6.59375 45.0625 6.59375 53.421875 
Q 6.59375 63.09375 13.40625 68.65625 
Q 20.21875 74.21875 32.171875 74.21875 
Q 37.3125 74.21875 42.625 73.28125 
Q 47.953125 72.359375 53.515625 70.515625 
z
" id="DejaVuSans-83"/>
      <path d="M 9.421875 54.6875 
L 18.40625 54.6875 
L 18.40625 0 
L 9.421875 0 
z
M 9.421875 75.984375 
L 18.40625 75.984375 
L 18.40625 64.59375 
L 9.421875 64.59375 
z
" id="DejaVuSans-105"/>
      <path d="M 45.40625 27.984375 
Q 45.40625 37.75 41.375 43.109375 
Q 37.359375 48.484375 30.078125 48.484375 
Q 22.859375 48.484375 18.828125 43.109375 
Q 14.796875 37.75 14.796875 27.984375 
Q 14.796875 18.265625 18.828125 12.890625 
Q 22.859375 7.515625 30.078125 7.515625 
Q 37.359375 7.515625 41.375 12.890625 
Q 45.40625 18.265625 45.40625 27.984375 
z
M 54.390625 6.78125 
Q 54.390625 -7.171875 48.1875 -13.984375 
Q 42 -20.796875 29.203125 -20.796875 
Q 24.46875 -20.796875 20.265625 -20.09375 
Q 16.0625 -19.390625 12.109375 -17.921875 
L 12.109375 -9.1875 
Q 16.0625 -11.328125 19.921875 -12.34375 
Q 23.78125 -13.375 27.78125 -13.375 
Q 36.625 -13.375 41.015625 -8.765625 
Q 45.40625 -4.15625 45.40625 5.171875 
L 45.40625 9.625 
Q 42.625 4.78125 38.28125 2.390625 
Q 33.9375 0 27.875 0 
Q 17.828125 0 11.671875 7.65625 
Q 5.515625 15.328125 5.515625 27.984375 
Q 5.515625 40.671875 11.671875 48.328125 
Q 17.828125 56 27.875 56 
Q 33.9375 56 38.28125 53.609375 
Q 42.625 51.21875 45.40625 46.390625 
L 45.40625 54.6875 
L 54.390625 54.6875 
z
" id="DejaVuSans-103"/>
      <path d="M 54.890625 33.015625 
L 54.890625 0 
L 45.90625 0 
L 45.90625 32.71875 
Q 45.90625 40.484375 42.875 44.328125 
Q 39.84375 48.1875 33.796875 48.1875 
Q 26.515625 48.1875 22.3125 43.546875 
Q 18.109375 38.921875 18.109375 30.90625 
L 18.109375 0 
L 9.078125 0 
L 9.078125 54.6875 
L 18.109375 54.6875 
L 18.109375 46.1875 
Q 21.34375 51.125 25.703125 53.5625 
Q 30.078125 56 35.796875 56 
Q 45.21875 56 50.046875 50.171875 
Q 54.890625 44.34375 54.890625 33.015625 
z
" id="DejaVuSans-110"/>
      <path d="M 34.28125 27.484375 
Q 23.390625 27.484375 19.1875 25 
Q 14.984375 22.515625 14.984375 16.5 
Q 14.984375 11.71875 18.140625 8.90625 
Q 21.296875 6.109375 26.703125 6.109375 
Q 34.1875 6.109375 38.703125 11.40625 
Q 43.21875 16.703125 43.21875 25.484375 
L 43.21875 27.484375 
z
M 52.203125 31.203125 
L 52.203125 0 
L 43.21875 0 
L 43.21875 8.296875 
Q 40.140625 3.328125 35.546875 0.953125 
Q 30.953125 -1.421875 24.3125 -1.421875 
Q 15.921875 -1.421875 10.953125 3.296875 
Q 6 8.015625 6 15.921875 
Q 6 25.140625 12.171875 29.828125 
Q 18.359375 34.515625 30.609375 34.515625 
L 43.21875 34.515625 
L 43.21875 35.40625 
Q 43.21875 41.609375 39.140625 45 
Q 35.0625 48.390625 27.6875 48.390625 
Q 23 48.390625 18.546875 47.265625 
Q 14.109375 46.140625 10.015625 43.890625 
L 10.015625 52.203125 
Q 14.9375 54.109375 19.578125 55.046875 
Q 24.21875 56 28.609375 56 
Q 40.484375 56 46.34375 49.84375 
Q 52.203125 43.703125 52.203125 31.203125 
z
" id="DejaVuSans-97"/>
      <path d="M 9.421875 75.984375 
L 18.40625 75.984375 
L 18.40625 0 
L 9.421875 0 
z
" id="DejaVuSans-108"/>
      <path id="DejaVuSans-32"/>
      <path d="M 31 75.875 
Q 24.46875 64.65625 21.28125 53.65625 
Q 18.109375 42.671875 18.109375 31.390625 
Q 18.109375 20.125 21.3125 9.0625 
Q 24.515625 -2 31 -13.1875 
L 23.1875 -13.1875 
Q 15.875 -1.703125 12.234375 9.375 
Q 8.59375 20.453125 8.59375 31.390625 
Q 8.59375 42.28125 12.203125 53.3125 
Q 15.828125 64.359375 23.1875 75.875 
z
" id="DejaVuSans-40"/>
      <path d="M 34.1875 63.1875 
L 14.15625 8.203125 
L 54.25 8.203125 
z
M 0.78125 0 
L 28.609375 72.90625 
L 39.796875 72.90625 
L 67.578125 0 
z
" id="DejaVuSans-916"/>
      <path d="M -1.3125 -20.796875 
L 13.375 54.6875 
L 22.40625 54.6875 
L 15.765625 20.65625 
Q 15.578125 19.625 15.421875 18.359375 
Q 15.28125 17.09375 15.28125 15.828125 
Q 15.28125 11.28125 18.140625 8.828125 
Q 21 6.390625 26.3125 6.390625 
Q 33.546875 6.390625 37.984375 10.484375 
Q 42.4375 14.59375 44 22.796875 
L 50.203125 54.6875 
L 59.1875 54.6875 
L 51.03125 12.640625 
Q 50.828125 11.71875 50.75 11.03125 
Q 50.6875 10.359375 50.6875 9.8125 
Q 50.6875 8.296875 51.296875 7.59375 
Q 51.90625 6.890625 53.21875 6.890625 
Q 53.71875 6.890625 54.5625 7.125 
Q 55.421875 7.375 56.984375 8.015625 
L 55.609375 0.78125 
Q 53.46875 -0.296875 51.515625 -0.859375 
Q 49.5625 -1.421875 47.703125 -1.421875 
Q 44.484375 -1.421875 42.65625 0.625 
Q 40.828125 2.6875 40.828125 6.296875 
Q 38.09375 2.390625 34.296875 0.484375 
Q 30.515625 -1.421875 25.390625 -1.421875 
Q 20.84375 -1.421875 17.453125 0.671875 
Q 14.0625 2.78125 12.984375 6.203125 
L 7.71875 -20.796875 
z
" id="DejaVuSans-Oblique-956"/>
      <path d="M 8.015625 75.875 
L 15.828125 75.875 
Q 23.140625 64.359375 26.78125 53.3125 
Q 30.421875 42.28125 30.421875 31.390625 
Q 30.421875 20.453125 26.78125 9.375 
Q 23.140625 -1.703125 15.828125 -13.1875 
L 8.015625 -13.1875 
Q 14.5 -2 17.703125 9.0625 
Q 20.90625 20.125 20.90625 31.390625 
Q 20.90625 42.671875 17.703125 53.65625 
Q 14.5 64.65625 8.015625 75.875 
z
" id="DejaVuSans-41"/>
     </defs>
     <g transform="translate(69.510546 131.9025)scale(0.08 -0.08)">
      <use transform="translate(0 0.015625)" xlink:href="#DejaVuSans-83"/>
      <use transform="translate(63.476562 0.015625)" xlink:href="#DejaVuSans-105"/>
      <use transform="translate(91.259766 0.015625)" xlink:href="#DejaVuSans-103"/>
      <use transform="translate(154.736328 0.015625)" xlink:href="#DejaVuSans-110"/>
      <use transform="translate(218.115234 0.015625)" xlink:href="#DejaVuSans-97"/>
      <use transform="translate(279.394531 0.015625)" xlink:href="#DejaVuSans-108"/>
      <use transform="translate(307.177734 0.015625)" xlink:href="#DejaVuSans-32"/>
      <use transform="translate(338.964844 0.015625)" xlink:href="#DejaVuSans-40"/>
      <use transform="translate(377.978516 0.015625)" xlink:href="#DejaVuSans-916"/>
      <use transform="translate(446.386719 0.015625)" xlink:href="#DejaVuSans-Oblique-956"/>
      <use transform="translate(510.009766 0.015625)" xlink:href="#DejaVuSans-41"/>
     </g>
    </g>
   </g>
   <g id="matplotlib.axis_2">
    <g id="ytick_1">
     <g id="line2d_4">
      <defs>
       <path d="M 0 0 
L -3.5 0 
" id="ma8842c8474" style="stroke:#000000;stroke-width:0.8;"/>
      </defs>
      <g>
       <use style="stroke:#000000;stroke-width:0.8;" x="38.63" xlink:href="#ma8842c8474" y="106.801858"/>
      </g>
     </g>
     <g id="text_5">
      <!-- −2 -->
      <defs>
       <path d="M 19.1875 8.296875 
L 53.609375 8.296875 
L 53.609375 0 
L 7.328125 0 
L 7.328125 8.296875 
Q 12.9375 14.109375 22.625 23.890625 
Q 32.328125 33.6875 34.8125 36.53125 
Q 39.546875 41.84375 41.421875 45.53125 
Q 43.3125 49.21875 43.3125 52.78125 
Q 43.3125 58.59375 39.234375 62.25 
Q 35.15625 65.921875 28.609375 65.921875 
Q 23.96875 65.921875 18.8125 64.3125 
Q 13.671875 62.703125 7.8125 59.421875 
L 7.8125 69.390625 
Q 13.765625 71.78125 18.9375 73 
Q 24.125 74.21875 28.421875 74.21875 
Q 39.75 74.21875 46.484375 68.546875 
Q 53.21875 62.890625 53.21875 53.421875 
Q 53.21875 48.921875 51.53125 44.890625 
Q 49.859375 40.875 45.40625 35.40625 
Q 44.1875 33.984375 37.640625 27.21875 
Q 31.109375 20.453125 19.1875 8.296875 
z
" id="DejaVuSans-50"/>
      </defs>
      <g transform="translate(19.83625 109.841233)scale(0.08 -0.08)">
       <use xlink:href="#DejaVuSans-8722"/>
       <use x="83.789062" xlink:href="#DejaVuSans-50"/>
      </g>
     </g>
    </g>
    <g id="ytick_2">
     <g id="line2d_5">
      <g>
       <use style="stroke:#000000;stroke-width:0.8;" x="38.63" xlink:href="#ma8842c8474" y="81.951212"/>
      </g>
     </g>
     <g id="text_6">
      <!-- 0 -->
      <g transform="translate(26.54 84.990587)scale(0.08 -0.08)">
       <use xlink:href="#DejaVuSans-48"/>
      </g>
     </g>
    </g>
    <g id="ytick_3">
     <g id="line2d_6">
      <g>
       <use style="stroke:#000000;stroke-width:0.8;" x="38.63" xlink:href="#ma8842c8474" y="57.100567"/>
      </g>
     </g>
     <g id="text_7">
      <!-- 2 -->
      <g transform="translate(26.54 60.139942)scale(0.08 -0.08)">
       <use xlink:href="#DejaVuSans-50"/>
      </g>
     </g>
    </g>
    <g id="ytick_4">
     <g id="line2d_7">
      <g>
       <use style="stroke:#000000;stroke-width:0.8;" x="38.63" xlink:href="#ma8842c8474" y="32.249921"/>
      </g>
     </g>
     <g id="text_8">
      <!-- 4 -->
      <defs>
       <path d="M 37.796875 64.3125 
L 12.890625 25.390625 
L 37.796875 25.390625 
z
M 35.203125 72.90625 
L 47.609375 72.90625 
L 47.609375 25.390625 
L 58.015625 25.390625 
L 58.015625 17.1875 
L 47.609375 17.1875 
L 47.609375 0 
L 37.796875 0 
L 37.796875 17.1875 
L 4.890625 17.1875 
L 4.890625 26.703125 
z
" id="DejaVuSans-52"/>
      </defs>
      <g transform="translate(26.54 35.289296)scale(0.08 -0.08)">
       <use xlink:href="#DejaVuSans-52"/>
      </g>
     </g>
    </g>
    <g id="text_9">
     <!-- Noise -->
     <defs>
      <path d="M 9.8125 72.90625 
L 23.09375 72.90625 
L 55.421875 11.921875 
L 55.421875 72.90625 
L 64.984375 72.90625 
L 64.984375 0 
L 51.703125 0 
L 19.390625 60.984375 
L 19.390625 0 
L 9.8125 0 
z
" id="DejaVuSans-78"/>
      <path d="M 30.609375 48.390625 
Q 23.390625 48.390625 19.1875 42.75 
Q 14.984375 37.109375 14.984375 27.296875 
Q 14.984375 17.484375 19.15625 11.84375 
Q 23.34375 6.203125 30.609375 6.203125 
Q 37.796875 6.203125 41.984375 11.859375 
Q 46.1875 17.53125 46.1875 27.296875 
Q 46.1875 37.015625 41.984375 42.703125 
Q 37.796875 48.390625 30.609375 48.390625 
z
M 30.609375 56 
Q 42.328125 56 49.015625 48.375 
Q 55.71875 40.765625 55.71875 27.296875 
Q 55.71875 13.875 49.015625 6.21875 
Q 42.328125 -1.421875 30.609375 -1.421875 
Q 18.84375 -1.421875 12.171875 6.21875 
Q 5.515625 13.875 5.515625 27.296875 
Q 5.515625 40.765625 12.171875 48.375 
Q 18.84375 56 30.609375 56 
z
" id="DejaVuSans-111"/>
      <path d="M 44.28125 53.078125 
L 44.28125 44.578125 
Q 40.484375 46.53125 36.375 47.5 
Q 32.28125 48.484375 27.875 48.484375 
Q 21.1875 48.484375 17.84375 46.4375 
Q 14.5 44.390625 14.5 40.28125 
Q 14.5 37.15625 16.890625 35.375 
Q 19.28125 33.59375 26.515625 31.984375 
L 29.59375 31.296875 
Q 39.15625 29.25 43.1875 25.515625 
Q 47.21875 21.78125 47.21875 15.09375 
Q 47.21875 7.46875 41.1875 3.015625 
Q 35.15625 -1.421875 24.609375 -1.421875 
Q 20.21875 -1.421875 15.453125 -0.5625 
Q 10.6875 0.296875 5.421875 2 
L 5.421875 11.28125 
Q 10.40625 8.6875 15.234375 7.390625 
Q 20.0625 6.109375 24.8125 6.109375 
Q 31.15625 6.109375 34.5625 8.28125 
Q 37.984375 10.453125 37.984375 14.40625 
Q 37.984375 18.0625 35.515625 20.015625 
Q 33.0625 21.96875 24.703125 23.78125 
L 21.578125 24.515625 
Q 13.234375 26.265625 9.515625 29.90625 
Q 5.8125 33.546875 5.8125 39.890625 
Q 5.8125 47.609375 11.28125 51.796875 
Q 16.75 56 26.8125 56 
Q 31.78125 56 36.171875 55.265625 
Q 40.578125 54.546875 44.28125 53.078125 
z
" id="DejaVuSans-115"/>
      <path d="M 56.203125 29.59375 
L 56.203125 25.203125 
L 14.890625 25.203125 
Q 15.484375 15.921875 20.484375 11.0625 
Q 25.484375 6.203125 34.421875 6.203125 
Q 39.59375 6.203125 44.453125 7.46875 
Q 49.3125 8.734375 54.109375 11.28125 
L 54.109375 2.78125 
Q 49.265625 0.734375 44.1875 -0.34375 
Q 39.109375 -1.421875 33.890625 -1.421875 
Q 20.796875 -1.421875 13.15625 6.1875 
Q 5.515625 13.8125 5.515625 26.8125 
Q 5.515625 40.234375 12.765625 48.109375 
Q 20.015625 56 32.328125 56 
Q 43.359375 56 49.78125 48.890625 
Q 56.203125 41.796875 56.203125 29.59375 
z
M 47.21875 32.234375 
Q 47.125 39.59375 43.09375 43.984375 
Q 39.0625 48.390625 32.421875 48.390625 
Q 24.90625 48.390625 20.390625 44.140625 
Q 15.875 39.890625 15.1875 32.171875 
z
" id="DejaVuSans-101"/>
     </defs>
     <g transform="translate(14.1725 76.63625)rotate(-90)scale(0.08 -0.08)">
      <use xlink:href="#DejaVuSans-78"/>
      <use x="74.804688" xlink:href="#DejaVuSans-111"/>
      <use x="135.986328" xlink:href="#DejaVuSans-105"/>
      <use x="163.769531" xlink:href="#DejaVuSans-115"/>
      <use x="215.869141" xlink:href="#DejaVuSans-101"/>
     </g>
    </g>
   </g>
   <g id="line2d_8">
    <path clip-path="url(#p8129839420)" d="M 116.787605 60.998572 
L 117.487937 59.740352 
L 118.193973 58.515318 
L 118.902871 57.328403 
L 119.611777 56.184385 
L 120.317835 55.087871 
L 121.018202 54.043277 
L 121.71006 53.054809 
L 122.390621 52.126446 
L 123.057145 51.261928 
L 123.706948 50.464735 
L 124.337415 49.738077 
L 124.946006 49.08488 
L 125.53027 48.507775 
L 126.087855 48.009085 
L 126.616517 47.590818 
L 127.114125 47.254659 
L 127.578677 47.001961 
L 128.008301 46.833742 
L 128.401269 46.750678 
L 128.755997 46.753105 
L 129.071057 46.841012 
L 129.34518 47.014047 
L 129.577264 47.271511 
L 129.766372 47.612368 
L 129.911745 48.035246 
L 130.012796 48.538442 
L 130.069118 49.11993 
L 130.080485 49.777368 
L 130.04685 50.50811 
L 129.968351 51.309211 
L 129.845301 52.177448 
L 129.678198 53.109323 
L 129.467713 54.101085 
L 129.214695 55.14874 
L 128.920161 56.248069 
L 128.585299 57.394646 
L 128.211457 58.583853 
L 127.800139 59.810904 
L 127.353002 61.070855 
L 126.871847 62.358635 
L 126.358611 63.669058 
L 125.815361 64.996847 
L 125.244283 66.336655 
L 124.647678 67.683088 
L 124.027948 69.030724 
L 123.387588 70.374136 
L 122.729178 71.707916 
L 122.055367 73.026692 
L 121.368869 74.325154 
L 120.672449 75.598074 
L 119.968911 76.840326 
L 119.261088 78.046908 
L 118.551829 79.212962 
L 117.843991 80.333792 
L 117.140424 81.404885 
L 116.443961 82.421928 
L 115.757406 83.380826 
L 115.083524 84.277718 
L 114.425029 85.108993 
L 113.784571 85.871302 
L 113.164731 86.561577 
L 112.568003 87.177038 
L 111.99679 87.715206 
L 111.453393 88.173915 
L 110.94 88.551318 
L 110.458677 88.845895 
L 110.011364 89.05646 
L 109.599861 89.182165 
L 109.225825 89.222504 
L 108.890762 89.177314 
L 108.596022 89.046777 
L 108.342791 88.831419 
L 108.132089 88.532108 
L 107.964764 88.150048 
L 107.841491 87.686777 
L 107.762764 87.144162 
L 107.728903 86.524387 
L 107.740042 85.829948 
L 107.796137 85.063641 
L 107.896963 84.228551 
L 108.042112 83.328042 
L 108.231001 82.365739 
L 108.46287 81.345517 
L 108.736783 80.271485 
L 109.051639 79.147966 
L 109.40617 77.979485 
L 109.798948 76.770748 
L 110.228392 75.52662 
L 110.692771 74.252113 
L 111.190217 72.952357 
L 111.718727 71.632587 
L 112.276172 70.298117 
L 112.860307 68.95432 
L 113.468781 67.606607 
L 114.099143 66.260405 
L 114.748855 64.921135 
L 115.415301 63.594189 
L 116.095798 62.28491 
L 116.787605 60.998572 
" style="fill:none;stroke:#1f77b4;stroke-linecap:square;"/>
   </g>
   <g id="line2d_9">
    <path clip-path="url(#p8129839420)" d="M 86.924345 86.314152 
L 86.772175 86.54453 
L 86.601063 86.709995 
L 86.411698 86.80988 
L 86.204842 86.843782 
L 85.981328 86.811566 
L 85.742056 86.713361 
L 85.48799 86.549563 
L 85.220152 86.32083 
L 84.939621 86.028085 
L 84.647527 85.672506 
L 84.345046 85.255524 
L 84.033395 84.778819 
L 83.713831 84.24431 
L 83.387638 83.654149 
L 83.056132 83.010714 
L 82.720647 82.316594 
L 82.382533 81.574585 
L 82.043152 80.787674 
L 81.703871 79.959031 
L 81.366056 79.091991 
L 81.031067 78.190046 
L 80.700254 77.256829 
L 80.374947 76.296095 
L 80.056457 75.311715 
L 79.746067 74.307652 
L 79.445026 73.287949 
L 79.154546 72.256712 
L 78.875798 71.218093 
L 78.609903 70.176274 
L 78.357932 69.135451 
L 78.120901 68.099815 
L 77.899762 67.073535 
L 77.695407 66.060744 
L 77.508659 65.065521 
L 77.340269 64.091872 
L 77.190916 63.143719 
L 77.0612 62.224879 
L 76.951645 61.339051 
L 76.862692 60.489804 
L 76.794698 59.680556 
L 76.747937 58.914566 
L 76.722598 58.194918 
L 76.718783 57.524511 
L 76.736507 56.906044 
L 76.775699 56.342006 
L 76.8362 55.83467 
L 76.917768 55.386077 
L 77.020074 54.998036 
L 77.142705 54.672107 
L 77.285169 54.409603 
L 77.446891 54.211582 
L 77.62722 54.07884 
L 77.825431 54.011913 
L 78.040724 54.011069 
L 78.272234 54.076312 
L 78.519027 54.20738 
L 78.780111 54.403744 
L 79.054433 54.664614 
L 79.34089 54.98894 
L 79.638327 55.375415 
L 79.945548 55.822484 
L 80.261314 56.328346 
L 80.584356 56.890964 
L 80.91337 57.508072 
L 81.247034 58.177187 
L 81.584004 58.895613 
L 81.922921 59.660458 
L 82.262423 60.468642 
L 82.601142 61.316911 
L 82.937713 62.201848 
L 83.270782 63.119892 
L 83.599007 64.067344 
L 83.921068 65.040391 
L 84.235666 66.035113 
L 84.541536 67.047506 
L 84.837445 68.073492 
L 85.122202 69.108942 
L 85.394661 70.149685 
L 85.653724 71.19153 
L 85.898349 72.230283 
L 86.127549 73.26176 
L 86.340403 74.281809 
L 86.536054 75.286322 
L 86.713712 76.271254 
L 86.872664 77.232639 
L 87.012268 78.166606 
L 87.131964 79.069394 
L 87.231268 79.937368 
L 87.309781 80.767034 
L 87.367187 81.55505 
L 87.403255 82.298242 
L 87.41784 82.99362 
L 87.410882 83.638382 
L 87.38241 84.229932 
L 87.332538 84.765889 
L 87.261467 85.244094 
L 87.169484 85.662622 
L 87.056959 86.019787 
L 86.924345 86.314152 
" style="fill:none;stroke:#ff7f0e;stroke-linecap:square;"/>
   </g>
   <g id="patch_3">
    <path d="M 38.63 107.08 
L 38.63 24 
" style="fill:none;stroke:#000000;stroke-linecap:square;stroke-linejoin:miter;stroke-width:0.8;"/>
   </g>
   <g id="patch_4">
    <path d="M 38.63 107.08 
L 144.391091 107.08 
" style="fill:none;stroke:#000000;stroke-linecap:square;stroke-linejoin:miter;stroke-width:0.8;"/>
   </g>
  </g>
  <g id="axes_2">
   <g id="patch_5">
    <path d="M 175.476667 107.08 
L 281.237758 107.08 
L 281.237758 24 
L 175.476667 24 
z
" style="fill:#ffffff;"/>
   </g>
   <g id="patch_6">
    <path clip-path="url(#pe4ad782024)" d="M 180.283989 107.08 
L 180.283989 107.08 
L 185.344328 107.08 
L 185.344328 107.08 
L 190.404668 107.08 
L 190.404668 107.08 
L 195.465007 107.08 
L 195.465007 107.08 
L 200.525346 107.08 
L 200.525346 107.08 
L 205.585685 107.08 
L 205.585685 107.08 
L 210.646025 107.08 
L 210.646025 107.08 
L 215.706364 107.08 
L 215.706364 107.08 
L 220.766703 107.08 
L 220.766703 103.12381 
L 225.827043 103.12381 
L 225.827043 91.255238 
L 230.887382 91.255238 
L 230.887382 87.299048 
L 235.947721 87.299048 
L 235.947721 99.167619 
L 241.00806 99.167619 
L 241.00806 87.299048 
L 246.0684 87.299048 
L 246.0684 83.342857 
L 251.128739 83.342857 
L 251.128739 79.386667 
L 256.189078 79.386667 
L 256.189078 55.649524 
L 261.249418 55.649524 
L 261.249418 95.211429 
L 266.309757 95.211429 
L 266.309757 107.08 
L 271.370096 107.08 
L 271.370096 107.08 
L 276.430435 107.08 
L 276.430435 107.08 
L 271.370096 107.08 
L 271.370096 107.08 
L 266.309757 107.08 
L 266.309757 107.08 
L 261.249418 107.08 
L 261.249418 107.08 
L 256.189078 107.08 
L 256.189078 107.08 
L 251.128739 107.08 
L 251.128739 107.08 
L 246.0684 107.08 
L 246.0684 107.08 
L 241.00806 107.08 
L 241.00806 107.08 
L 235.947721 107.08 
L 235.947721 107.08 
L 230.887382 107.08 
L 230.887382 107.08 
L 225.827043 107.08 
L 225.827043 107.08 
L 220.766703 107.08 
L 220.766703 107.08 
L 215.706364 107.08 
L 215.706364 107.08 
L 210.646025 107.08 
L 210.646025 107.08 
L 205.585685 107.08 
L 205.585685 107.08 
L 200.525346 107.08 
L 200.525346 107.08 
L 195.465007 107.08 
L 195.465007 107.08 
L 190.404668 107.08 
L 190.404668 107.08 
L 185.344328 107.08 
L 185.344328 107.08 
z
" style="fill:#1f77b4;opacity:0.5;"/>
   </g>
   <g id="patch_7">
    <path clip-path="url(#pe4ad782024)" d="M 180.283989 107.08 
L 180.283989 107.08 
L 185.344328 107.08 
L 185.344328 107.08 
L 190.404668 107.08 
L 190.404668 107.08 
L 195.465007 107.08 
L 195.465007 107.08 
L 200.525346 107.08 
L 200.525346 95.211429 
L 205.585685 95.211429 
L 205.585685 27.95619 
L 210.646025 27.95619 
L 210.646025 75.430476 
L 215.706364 75.430476 
L 215.706364 63.561905 
L 220.766703 63.561905 
L 220.766703 99.167619 
L 225.827043 99.167619 
L 225.827043 107.08 
L 230.887382 107.08 
L 230.887382 107.08 
L 235.947721 107.08 
L 235.947721 107.08 
L 241.00806 107.08 
L 241.00806 107.08 
L 246.0684 107.08 
L 246.0684 107.08 
L 251.128739 107.08 
L 251.128739 107.08 
L 256.189078 107.08 
L 256.189078 107.08 
L 261.249418 107.08 
L 261.249418 107.08 
L 266.309757 107.08 
L 266.309757 107.08 
L 271.370096 107.08 
L 271.370096 107.08 
L 276.430435 107.08 
L 276.430435 107.08 
L 271.370096 107.08 
L 271.370096 107.08 
L 266.309757 107.08 
L 266.309757 107.08 
L 261.249418 107.08 
L 261.249418 107.08 
L 256.189078 107.08 
L 256.189078 107.08 
L 251.128739 107.08 
L 251.128739 107.08 
L 246.0684 107.08 
L 246.0684 107.08 
L 241.00806 107.08 
L 241.00806 107.08 
L 235.947721 107.08 
L 235.947721 107.08 
L 230.887382 107.08 
L 230.887382 107.08 
L 225.827043 107.08 
L 225.827043 107.08 
L 220.766703 107.08 
L 220.766703 107.08 
L 215.706364 107.08 
L 215.706364 107.08 
L 210.646025 107.08 
L 210.646025 107.08 
L 205.585685 107.08 
L 205.585685 107.08 
L 200.525346 107.08 
L 200.525346 107.08 
L 195.465007 107.08 
L 195.465007 107.08 
L 190.404668 107.08 
L 190.404668 107.08 
L 185.344328 107.08 
L 185.344328 107.08 
z
" style="fill:#ff7f0e;opacity:0.5;"/>
   </g>
   <g id="matplotlib.axis_3">
    <g id="xtick_4">
     <g id="line2d_10">
      <g>
       <use style="stroke:#000000;stroke-width:0.8;" x="180.283989" xlink:href="#m34edf9478c" y="107.08"/>
      </g>
     </g>
     <g id="text_10">
      <!-- −10 -->
      <g transform="translate(171.842114 120.15875)scale(0.08 -0.08)">
       <use xlink:href="#DejaVuSans-8722"/>
       <use x="83.789062" xlink:href="#DejaVuSans-49"/>
       <use x="147.412109" xlink:href="#DejaVuSans-48"/>
      </g>
     </g>
    </g>
    <g id="xtick_5">
     <g id="line2d_11">
      <g>
       <use style="stroke:#000000;stroke-width:0.8;" x="230.887382" xlink:href="#m34edf9478c" y="107.08"/>
      </g>
     </g>
     <g id="text_11">
      <!-- 0 -->
      <g transform="translate(228.342382 120.15875)scale(0.08 -0.08)">
       <use xlink:href="#DejaVuSans-48"/>
      </g>
     </g>
    </g>
    <g id="xtick_6">
     <g id="line2d_12">
      <g>
       <use style="stroke:#000000;stroke-width:0.8;" x="281.490775" xlink:href="#m34edf9478c" y="107.08"/>
      </g>
     </g>
     <g id="text_12">
      <!-- 10 -->
      <g transform="translate(276.400775 120.15875)scale(0.08 -0.08)">
       <use xlink:href="#DejaVuSans-49"/>
       <use x="63.623047" xlink:href="#DejaVuSans-48"/>
      </g>
     </g>
    </g>
   </g>
   <g id="matplotlib.axis_4">
    <g id="ytick_5">
     <g id="line2d_13">
      <g>
       <use style="stroke:#000000;stroke-width:0.8;" x="175.476667" xlink:href="#ma8842c8474" y="107.08"/>
      </g>
     </g>
     <g id="text_13">
      <!-- 0 -->
      <g transform="translate(163.386667 110.119375)scale(0.08 -0.08)">
       <use xlink:href="#DejaVuSans-48"/>
      </g>
     </g>
    </g>
    <g id="ytick_6">
     <g id="line2d_14">
      <g>
       <use style="stroke:#000000;stroke-width:0.8;" x="175.476667" xlink:href="#ma8842c8474" y="87.299048"/>
      </g>
     </g>
     <g id="text_14">
      <!-- 5 -->
      <defs>
       <path d="M 10.796875 72.90625 
L 49.515625 72.90625 
L 49.515625 64.59375 
L 19.828125 64.59375 
L 19.828125 46.734375 
Q 21.96875 47.46875 24.109375 47.828125 
Q 26.265625 48.1875 28.421875 48.1875 
Q 40.625 48.1875 47.75 41.5 
Q 54.890625 34.8125 54.890625 23.390625 
Q 54.890625 11.625 47.5625 5.09375 
Q 40.234375 -1.421875 26.90625 -1.421875 
Q 22.3125 -1.421875 17.546875 -0.640625 
Q 12.796875 0.140625 7.71875 1.703125 
L 7.71875 11.625 
Q 12.109375 9.234375 16.796875 8.0625 
Q 21.484375 6.890625 26.703125 6.890625 
Q 35.15625 6.890625 40.078125 11.328125 
Q 45.015625 15.765625 45.015625 23.390625 
Q 45.015625 31 40.078125 35.4375 
Q 35.15625 39.890625 26.703125 39.890625 
Q 22.75 39.890625 18.8125 39.015625 
Q 14.890625 38.140625 10.796875 36.28125 
z
" id="DejaVuSans-53"/>
      </defs>
      <g transform="translate(163.386667 90.338423)scale(0.08 -0.08)">
       <use xlink:href="#DejaVuSans-53"/>
      </g>
     </g>
    </g>
    <g id="ytick_7">
     <g id="line2d_15">
      <g>
       <use style="stroke:#000000;stroke-width:0.8;" x="175.476667" xlink:href="#ma8842c8474" y="67.518095"/>
      </g>
     </g>
     <g id="text_15">
      <!-- 10 -->
      <g transform="translate(158.296667 70.55747)scale(0.08 -0.08)">
       <use xlink:href="#DejaVuSans-49"/>
       <use x="63.623047" xlink:href="#DejaVuSans-48"/>
      </g>
     </g>
    </g>
    <g id="ytick_8">
     <g id="line2d_16">
      <g>
       <use style="stroke:#000000;stroke-width:0.8;" x="175.476667" xlink:href="#ma8842c8474" y="47.737143"/>
      </g>
     </g>
     <g id="text_16">
      <!-- 15 -->
      <g transform="translate(158.296667 50.776518)scale(0.08 -0.08)">
       <use xlink:href="#DejaVuSans-49"/>
       <use x="63.623047" xlink:href="#DejaVuSans-53"/>
      </g>
     </g>
    </g>
    <g id="ytick_9">
     <g id="line2d_17">
      <g>
       <use style="stroke:#000000;stroke-width:0.8;" x="175.476667" xlink:href="#ma8842c8474" y="27.95619"/>
      </g>
     </g>
     <g id="text_17">
      <!-- 20 -->
      <g transform="translate(158.296667 30.995565)scale(0.08 -0.08)">
       <use xlink:href="#DejaVuSans-50"/>
       <use x="63.623047" xlink:href="#DejaVuSans-48"/>
      </g>
     </g>
    </g>
   </g>
   <g id="patch_8">
    <path d="M 175.476667 107.08 
L 175.476667 24 
" style="fill:none;stroke:#000000;stroke-linecap:square;stroke-linejoin:miter;stroke-width:0.8;"/>
   </g>
   <g id="patch_9">
    <path d="M 175.476667 107.08 
L 281.237758 107.08 
" style="fill:none;stroke:#000000;stroke-linecap:square;stroke-linejoin:miter;stroke-width:0.8;"/>
   </g>
   <g id="text_18">
    <!-- $\Delta \mu$ projection -->
    <defs>
     <path d="M 18.109375 8.203125 
L 18.109375 -20.796875 
L 9.078125 -20.796875 
L 9.078125 54.6875 
L 18.109375 54.6875 
L 18.109375 46.390625 
Q 20.953125 51.265625 25.265625 53.625 
Q 29.59375 56 35.59375 56 
Q 45.5625 56 51.78125 48.09375 
Q 58.015625 40.1875 58.015625 27.296875 
Q 58.015625 14.40625 51.78125 6.484375 
Q 45.5625 -1.421875 35.59375 -1.421875 
Q 29.59375 -1.421875 25.265625 0.953125 
Q 20.953125 3.328125 18.109375 8.203125 
z
M 48.6875 27.296875 
Q 48.6875 37.203125 44.609375 42.84375 
Q 40.53125 48.484375 33.40625 48.484375 
Q 26.265625 48.484375 22.1875 42.84375 
Q 18.109375 37.203125 18.109375 27.296875 
Q 18.109375 17.390625 22.1875 11.75 
Q 26.265625 6.109375 33.40625 6.109375 
Q 40.53125 6.109375 44.609375 11.75 
Q 48.6875 17.390625 48.6875 27.296875 
z
" id="DejaVuSans-112"/>
     <path d="M 41.109375 46.296875 
Q 39.59375 47.171875 37.8125 47.578125 
Q 36.03125 48 33.890625 48 
Q 26.265625 48 22.1875 43.046875 
Q 18.109375 38.09375 18.109375 28.8125 
L 18.109375 0 
L 9.078125 0 
L 9.078125 54.6875 
L 18.109375 54.6875 
L 18.109375 46.1875 
Q 20.953125 51.171875 25.484375 53.578125 
Q 30.03125 56 36.53125 56 
Q 37.453125 56 38.578125 55.875 
Q 39.703125 55.765625 41.0625 55.515625 
z
" id="DejaVuSans-114"/>
     <path d="M 9.421875 54.6875 
L 18.40625 54.6875 
L 18.40625 -0.984375 
Q 18.40625 -11.421875 14.421875 -16.109375 
Q 10.453125 -20.796875 1.609375 -20.796875 
L -1.8125 -20.796875 
L -1.8125 -13.1875 
L 0.59375 -13.1875 
Q 5.71875 -13.1875 7.5625 -10.8125 
Q 9.421875 -8.453125 9.421875 -0.984375 
z
M 9.421875 75.984375 
L 18.40625 75.984375 
L 18.40625 64.59375 
L 9.421875 64.59375 
z
" id="DejaVuSans-106"/>
     <path d="M 48.78125 52.59375 
L 48.78125 44.1875 
Q 44.96875 46.296875 41.140625 47.34375 
Q 37.3125 48.390625 33.40625 48.390625 
Q 24.65625 48.390625 19.8125 42.84375 
Q 14.984375 37.3125 14.984375 27.296875 
Q 14.984375 17.28125 19.8125 11.734375 
Q 24.65625 6.203125 33.40625 6.203125 
Q 37.3125 6.203125 41.140625 7.25 
Q 44.96875 8.296875 48.78125 10.40625 
L 48.78125 2.09375 
Q 45.015625 0.34375 40.984375 -0.53125 
Q 36.96875 -1.421875 32.421875 -1.421875 
Q 20.0625 -1.421875 12.78125 6.34375 
Q 5.515625 14.109375 5.515625 27.296875 
Q 5.515625 40.671875 12.859375 48.328125 
Q 20.21875 56 33.015625 56 
Q 37.15625 56 41.109375 55.140625 
Q 45.0625 54.296875 48.78125 52.59375 
z
" id="DejaVuSans-99"/>
     <path d="M 18.3125 70.21875 
L 18.3125 54.6875 
L 36.8125 54.6875 
L 36.8125 47.703125 
L 18.3125 47.703125 
L 18.3125 18.015625 
Q 18.3125 11.328125 20.140625 9.421875 
Q 21.96875 7.515625 27.59375 7.515625 
L 36.8125 7.515625 
L 36.8125 0 
L 27.59375 0 
Q 17.1875 0 13.234375 3.875 
Q 9.28125 7.765625 9.28125 18.015625 
L 9.28125 47.703125 
L 2.6875 47.703125 
L 2.6875 54.6875 
L 9.28125 54.6875 
L 9.28125 70.21875 
z
" id="DejaVuSans-116"/>
    </defs>
    <g transform="translate(196.389212 18)scale(0.096 -0.096)">
     <use transform="translate(0 0.015625)" xlink:href="#DejaVuSans-916"/>
     <use transform="translate(68.408203 0.015625)" xlink:href="#DejaVuSans-Oblique-956"/>
     <use transform="translate(132.03125 0.015625)" xlink:href="#DejaVuSans-32"/>
     <use transform="translate(163.818359 0.015625)" xlink:href="#DejaVuSans-112"/>
     <use transform="translate(227.294922 0.015625)" xlink:href="#DejaVuSans-114"/>
     <use transform="translate(268.408203 0.015625)" xlink:href="#DejaVuSans-111"/>
     <use transform="translate(329.589844 0.015625)" xlink:href="#DejaVuSans-106"/>
     <use transform="translate(357.373047 0.015625)" xlink:href="#DejaVuSans-101"/>
     <use transform="translate(418.896484 0.015625)" xlink:href="#DejaVuSans-99"/>
     <use transform="translate(473.876953 0.015625)" xlink:href="#DejaVuSans-116"/>
     <use transform="translate(513.085938 0.015625)" xlink:href="#DejaVuSans-105"/>
     <use transform="translate(540.869141 0.015625)" xlink:href="#DejaVuSans-111"/>
     <use transform="translate(602.050781 0.015625)" xlink:href="#DejaVuSans-110"/>
    </g>
   </g>
  </g>
  <g id="axes_3">
   <g id="patch_10">
    <path d="M 312.323333 107.08 
L 418.084424 107.08 
L 418.084424 24 
L 312.323333 24 
z
" style="fill:#ffffff;"/>
   </g>
   <g id="patch_11">
    <path clip-path="url(#pbd3fb717b3)" d="M 317.130656 107.08 
L 317.130656 107.08 
L 322.190995 107.08 
L 322.190995 107.08 
L 327.251334 107.08 
L 327.251334 107.08 
L 332.311674 107.08 
L 332.311674 107.08 
L 337.372013 107.08 
L 337.372013 107.08 
L 342.432352 107.08 
L 342.432352 107.08 
L 347.492691 107.08 
L 347.492691 107.08 
L 352.553031 107.08 
L 352.553031 107.08 
L 357.61337 107.08 
L 357.61337 107.08 
L 362.673709 107.08 
L 362.673709 107.08 
L 367.734049 107.08 
L 367.734049 102.915589 
L 372.794388 102.915589 
L 372.794388 82.093534 
L 377.854727 82.093534 
L 377.854727 90.422356 
L 382.915066 90.422356 
L 382.915066 90.422356 
L 387.975406 90.422356 
L 387.975406 61.271479 
L 393.035745 61.271479 
L 393.035745 61.271479 
L 398.096084 61.271479 
L 398.096084 73.764712 
L 403.156424 73.764712 
L 403.156424 102.915589 
L 408.216763 102.915589 
L 408.216763 107.08 
L 413.277102 107.08 
L 413.277102 107.08 
L 408.216763 107.08 
L 408.216763 107.08 
L 403.156424 107.08 
L 403.156424 107.08 
L 398.096084 107.08 
L 398.096084 107.08 
L 393.035745 107.08 
L 393.035745 107.08 
L 387.975406 107.08 
L 387.975406 107.08 
L 382.915066 107.08 
L 382.915066 107.08 
L 377.854727 107.08 
L 377.854727 107.08 
L 372.794388 107.08 
L 372.794388 107.08 
L 367.734049 107.08 
L 367.734049 107.08 
L 362.673709 107.08 
L 362.673709 107.08 
L 357.61337 107.08 
L 357.61337 107.08 
L 352.553031 107.08 
L 352.553031 107.08 
L 347.492691 107.08 
L 347.492691 107.08 
L 342.432352 107.08 
L 342.432352 107.08 
L 337.372013 107.08 
L 337.372013 107.08 
L 332.311674 107.08 
L 332.311674 107.08 
L 327.251334 107.08 
L 327.251334 107.08 
L 322.190995 107.08 
L 322.190995 107.08 
z
" style="fill:#1f77b4;opacity:0.5;"/>
   </g>
   <g id="patch_12">
    <path clip-path="url(#pbd3fb717b3)" d="M 317.130656 107.08 
L 317.130656 107.08 
L 322.190995 107.08 
L 322.190995 107.08 
L 327.251334 107.08 
L 327.251334 107.08 
L 332.311674 107.08 
L 332.311674 107.08 
L 337.372013 107.08 
L 337.372013 107.08 
L 342.432352 107.08 
L 342.432352 94.586767 
L 347.492691 94.586767 
L 347.492691 27.95619 
L 352.553031 27.95619 
L 352.553031 77.929123 
L 357.61337 77.929123 
L 357.61337 82.093534 
L 362.673709 82.093534 
L 362.673709 73.764712 
L 367.734049 73.764712 
L 367.734049 102.915589 
L 372.794388 102.915589 
L 372.794388 107.08 
L 377.854727 107.08 
L 377.854727 107.08 
L 382.915066 107.08 
L 382.915066 107.08 
L 387.975406 107.08 
L 387.975406 107.08 
L 393.035745 107.08 
L 393.035745 107.08 
L 398.096084 107.08 
L 398.096084 107.08 
L 403.156424 107.08 
L 403.156424 107.08 
L 408.216763 107.08 
L 408.216763 107.08 
L 413.277102 107.08 
L 413.277102 107.08 
L 408.216763 107.08 
L 408.216763 107.08 
L 403.156424 107.08 
L 403.156424 107.08 
L 398.096084 107.08 
L 398.096084 107.08 
L 393.035745 107.08 
L 393.035745 107.08 
L 387.975406 107.08 
L 387.975406 107.08 
L 382.915066 107.08 
L 382.915066 107.08 
L 377.854727 107.08 
L 377.854727 107.08 
L 372.794388 107.08 
L 372.794388 107.08 
L 367.734049 107.08 
L 367.734049 107.08 
L 362.673709 107.08 
L 362.673709 107.08 
L 357.61337 107.08 
L 357.61337 107.08 
L 352.553031 107.08 
L 352.553031 107.08 
L 347.492691 107.08 
L 347.492691 107.08 
L 342.432352 107.08 
L 342.432352 107.08 
L 337.372013 107.08 
L 337.372013 107.08 
L 332.311674 107.08 
L 332.311674 107.08 
L 327.251334 107.08 
L 327.251334 107.08 
L 322.190995 107.08 
L 322.190995 107.08 
z
" style="fill:#ff7f0e;opacity:0.5;"/>
   </g>
   <g id="matplotlib.axis_5">
    <g id="xtick_7">
     <g id="line2d_18">
      <g>
       <use style="stroke:#000000;stroke-width:0.8;" x="317.130656" xlink:href="#m34edf9478c" y="107.08"/>
      </g>
     </g>
     <g id="text_19">
      <!-- −10 -->
      <g transform="translate(308.688781 120.15875)scale(0.08 -0.08)">
       <use xlink:href="#DejaVuSans-8722"/>
       <use x="83.789062" xlink:href="#DejaVuSans-49"/>
       <use x="147.412109" xlink:href="#DejaVuSans-48"/>
      </g>
     </g>
    </g>
    <g id="xtick_8">
     <g id="line2d_19">
      <g>
       <use style="stroke:#000000;stroke-width:0.8;" x="367.734049" xlink:href="#m34edf9478c" y="107.08"/>
      </g>
     </g>
     <g id="text_20">
      <!-- 0 -->
      <g transform="translate(365.189049 120.15875)scale(0.08 -0.08)">
       <use xlink:href="#DejaVuSans-48"/>
      </g>
     </g>
    </g>
    <g id="xtick_9">
     <g id="line2d_20">
      <g>
       <use style="stroke:#000000;stroke-width:0.8;" x="418.337441" xlink:href="#m34edf9478c" y="107.08"/>
      </g>
     </g>
     <g id="text_21">
      <!-- 10 -->
      <g transform="translate(413.247441 120.15875)scale(0.08 -0.08)">
       <use xlink:href="#DejaVuSans-49"/>
       <use x="63.623047" xlink:href="#DejaVuSans-48"/>
      </g>
     </g>
    </g>
   </g>
   <g id="matplotlib.axis_6">
    <g id="ytick_10">
     <g id="line2d_21">
      <g>
       <use style="stroke:#000000;stroke-width:0.8;" x="312.323333" xlink:href="#ma8842c8474" y="107.08"/>
      </g>
     </g>
     <g id="text_22">
      <!-- 0 -->
      <g transform="translate(300.233333 110.119375)scale(0.08 -0.08)">
       <use xlink:href="#DejaVuSans-48"/>
      </g>
     </g>
    </g>
    <g id="ytick_11">
     <g id="line2d_22">
      <g>
       <use style="stroke:#000000;stroke-width:0.8;" x="312.323333" xlink:href="#ma8842c8474" y="86.257945"/>
      </g>
     </g>
     <g id="text_23">
      <!-- 5 -->
      <g transform="translate(300.233333 89.29732)scale(0.08 -0.08)">
       <use xlink:href="#DejaVuSans-53"/>
      </g>
     </g>
    </g>
    <g id="ytick_12">
     <g id="line2d_23">
      <g>
       <use style="stroke:#000000;stroke-width:0.8;" x="312.323333" xlink:href="#ma8842c8474" y="65.43589"/>
      </g>
     </g>
     <g id="text_24">
      <!-- 10 -->
      <g transform="translate(295.143333 68.475265)scale(0.08 -0.08)">
       <use xlink:href="#DejaVuSans-49"/>
       <use x="63.623047" xlink:href="#DejaVuSans-48"/>
      </g>
     </g>
    </g>
    <g id="ytick_13">
     <g id="line2d_24">
      <g>
       <use style="stroke:#000000;stroke-width:0.8;" x="312.323333" xlink:href="#ma8842c8474" y="44.613835"/>
      </g>
     </g>
     <g id="text_25">
      <!-- 15 -->
      <g transform="translate(295.143333 47.65321)scale(0.08 -0.08)">
       <use xlink:href="#DejaVuSans-49"/>
       <use x="63.623047" xlink:href="#DejaVuSans-53"/>
      </g>
     </g>
    </g>
    <g id="ytick_14">
     <g id="line2d_25">
      <g>
       <use style="stroke:#000000;stroke-width:0.8;" x="312.323333" xlink:href="#ma8842c8474" y="23.791779"/>
      </g>
     </g>
     <g id="text_26">
      <!-- 20 -->
      <g transform="translate(295.143333 26.831154)scale(0.08 -0.08)">
       <use xlink:href="#DejaVuSans-50"/>
       <use x="63.623047" xlink:href="#DejaVuSans-48"/>
      </g>
     </g>
    </g>
   </g>
   <g id="patch_13">
    <path d="M 312.323333 107.08 
L 312.323333 24 
" style="fill:none;stroke:#000000;stroke-linecap:square;stroke-linejoin:miter;stroke-width:0.8;"/>
   </g>
   <g id="patch_14">
    <path d="M 312.323333 107.08 
L 418.084424 107.08 
" style="fill:none;stroke:#000000;stroke-linecap:square;stroke-linejoin:miter;stroke-width:0.8;"/>
   </g>
   <g id="text_27">
    <!-- $w_{opt}$ projection -->
    <defs>
     <path d="M 8.5 54.6875 
L 17.390625 54.6875 
L 19.671875 10.6875 
L 40.09375 54.6875 
L 50.484375 54.6875 
L 53.515625 10.6875 
L 72.90625 54.6875 
L 81.890625 54.6875 
L 56.890625 0 
L 46.390625 0 
L 43.703125 45.3125 
L 22.796875 0 
L 12.203125 0 
z
" id="DejaVuSans-Oblique-119"/>
     <path d="M 25.390625 -1.421875 
Q 15.765625 -1.421875 10.171875 4.515625 
Q 4.59375 10.453125 4.59375 20.703125 
Q 4.59375 26.65625 6.515625 32.828125 
Q 8.453125 39.015625 11.53125 43.21875 
Q 16.359375 49.75 22.3125 52.875 
Q 28.265625 56 35.796875 56 
Q 45.125 56 50.859375 50.1875 
Q 56.59375 44.390625 56.59375 35.015625 
Q 56.59375 28.515625 54.6875 22.0625 
Q 52.78125 15.625 49.703125 11.375 
Q 44.921875 4.828125 38.96875 1.703125 
Q 33.015625 -1.421875 25.390625 -1.421875 
z
M 13.921875 21 
Q 13.921875 13.578125 17.015625 9.890625 
Q 20.125 6.203125 26.421875 6.203125 
Q 35.453125 6.203125 41.375 14.078125 
Q 47.3125 21.96875 47.3125 34.078125 
Q 47.3125 41.15625 44.140625 44.765625 
Q 40.96875 48.390625 34.8125 48.390625 
Q 29.734375 48.390625 25.78125 46.015625 
Q 21.828125 43.65625 18.703125 38.8125 
Q 16.40625 35.203125 15.15625 30.5625 
Q 13.921875 25.921875 13.921875 21 
z
" id="DejaVuSans-Oblique-111"/>
     <path d="M 49.609375 33.6875 
Q 49.609375 40.875 46.484375 44.671875 
Q 43.359375 48.484375 37.5 48.484375 
Q 33.5 48.484375 29.859375 46.4375 
Q 26.21875 44.390625 23.390625 40.484375 
Q 20.609375 36.625 18.9375 31.15625 
Q 17.28125 25.6875 17.28125 20.3125 
Q 17.28125 13.484375 20.40625 9.796875 
Q 23.53125 6.109375 29.296875 6.109375 
Q 33.546875 6.109375 37.1875 8.109375 
Q 40.828125 10.109375 43.40625 13.921875 
Q 46.1875 17.921875 47.890625 23.34375 
Q 49.609375 28.765625 49.609375 33.6875 
z
M 21.78125 46.390625 
Q 25.390625 51.125 30.296875 53.5625 
Q 35.203125 56 41.21875 56 
Q 49.609375 56 54.25 50.5 
Q 58.890625 45.015625 58.890625 35.109375 
Q 58.890625 27 56 19.65625 
Q 53.125 12.3125 47.703125 6.5 
Q 44.09375 2.640625 39.546875 0.609375 
Q 35.015625 -1.421875 29.984375 -1.421875 
Q 24.171875 -1.421875 20.21875 1 
Q 16.265625 3.421875 14.3125 8.203125 
L 8.6875 -20.796875 
L -0.296875 -20.796875 
L 14.40625 54.6875 
L 23.390625 54.6875 
z
" id="DejaVuSans-Oblique-112"/>
     <path d="M 42.28125 54.6875 
L 40.921875 47.703125 
L 23 47.703125 
L 17.1875 18.015625 
Q 16.890625 16.359375 16.75 15.234375 
Q 16.609375 14.109375 16.609375 13.484375 
Q 16.609375 10.359375 18.484375 8.9375 
Q 20.359375 7.515625 24.515625 7.515625 
L 33.59375 7.515625 
L 32.078125 0 
L 23.484375 0 
Q 15.484375 0 11.546875 3.125 
Q 7.625 6.25 7.625 12.59375 
Q 7.625 13.71875 7.765625 15.0625 
Q 7.90625 16.40625 8.203125 18.015625 
L 14.015625 47.703125 
L 6.390625 47.703125 
L 7.8125 54.6875 
L 15.28125 54.6875 
L 18.3125 70.21875 
L 27.296875 70.21875 
L 24.3125 54.6875 
z
" id="DejaVuSans-Oblique-116"/>
    </defs>
    <g transform="translate(330.019879 18)scale(0.096 -0.096)">
     <use transform="translate(0 0.015625)" xlink:href="#DejaVuSans-Oblique-119"/>
     <use transform="translate(81.787109 -16.390625)scale(0.7)" xlink:href="#DejaVuSans-Oblique-111"/>
     <use transform="translate(124.614258 -16.390625)scale(0.7)" xlink:href="#DejaVuSans-Oblique-112"/>
     <use transform="translate(169.047852 -16.390625)scale(0.7)" xlink:href="#DejaVuSans-Oblique-116"/>
     <use transform="translate(199.228516 0.015625)" xlink:href="#DejaVuSans-32"/>
     <use transform="translate(231.015625 0.015625)" xlink:href="#DejaVuSans-112"/>
     <use transform="translate(294.492188 0.015625)" xlink:href="#DejaVuSans-114"/>
     <use transform="translate(335.605469 0.015625)" xlink:href="#DejaVuSans-111"/>
     <use transform="translate(396.787109 0.015625)" xlink:href="#DejaVuSans-106"/>
     <use transform="translate(424.570312 0.015625)" xlink:href="#DejaVuSans-101"/>
     <use transform="translate(486.09375 0.015625)" xlink:href="#DejaVuSans-99"/>
     <use transform="translate(541.074219 0.015625)" xlink:href="#DejaVuSans-116"/>
     <use transform="translate(580.283203 0.015625)" xlink:href="#DejaVuSans-105"/>
     <use transform="translate(608.066406 0.015625)" xlink:href="#DejaVuSans-111"/>
     <use transform="translate(669.248047 0.015625)" xlink:href="#DejaVuSans-110"/>
    </g>
   </g>
  </g>
 </g>
 <defs>
  <clipPath id="p8129839420">
   <rect height="83.08" width="105.761091" x="38.63" y="24"/>
  </clipPath>
  <clipPath id="pe4ad782024">
   <rect height="83.08" width="105.761091" x="175.476667" y="24"/>
  </clipPath>
  <clipPath id="pbd3fb717b3">
   <rect height="83.08" width="105.761091" x="312.323333" y="24"/>
  </clipPath>
 </defs>
</svg>
