<?xml version="1.0" encoding="utf-8" standalone="no"?>
<!DOCTYPE svg PUBLIC "-//W3C//DTD SVG 1.1//EN"
  "http://www.w3.org/Graphics/SVG/1.1/DTD/svg11.dtd">
<!-- Created with matplotlib (https://matplotlib.org/) -->
<svg height="144pt" version="1.1" viewBox="0 0 432 144" width="432pt" xmlns="http://www.w3.org/2000/svg" xmlns:xlink="http://www.w3.org/1999/xlink">
 <defs>
  <style type="text/css">
*{stroke-linecap:butt;stroke-linejoin:round;}
  </style>
 </defs>
 <g id="figure_1">
  <g id="patch_1">
   <path d="M 0 144 
L 432 144 
L 432 0 
L 0 0 
z
" style="fill:#ffffff;"/>
  </g>
  <g id="axes_1">
   <g id="patch_2">
    <path d="M 33.765 102.36 
L 141.217758 102.36 
L 141.217758 24.64 
L 33.765 24.64 
z
" style="fill:#ffffff;"/>
   </g>
   <g id="PathCollection_1">
    <defs>
     <path d="M 0 1.118034 
C 0.296506 1.118034 0.580908 1.000231 0.790569 0.790569 
C 1.000231 0.580908 1.118034 0.296506 1.118034 0 
C 1.118034 -0.296506 1.000231 -0.580908 0.790569 -0.790569 
C 0.580908 -1.000231 0.296506 -1.118034 0 -1.118034 
C -0.296506 -1.118034 -0.580908 -1.000231 -0.790569 -0.790569 
C -1.000231 -0.580908 -1.118034 -0.296506 -1.118034 0 
C -1.118034 0.296506 -1.000231 0.580908 -0.790569 0.790569 
C -0.580908 1.000231 -0.296506 1.118034 0 1.118034 
z
" id="m5e395373d8"/>
    </defs>
    <g clip-path="url(#p9a7605e388)">
     <use style="fill:#1f77b4;" x="71.051299" xlink:href="#m5e395373d8" y="44.563812"/>
     <use style="fill:#1f77b4;" x="82.294586" xlink:href="#m5e395373d8" y="47.864075"/>
     <use style="fill:#1f77b4;" x="87.449043" xlink:href="#m5e395373d8" y="36.77919"/>
     <use style="fill:#1f77b4;" x="85.575254" xlink:href="#m5e395373d8" y="59.10707"/>
     <use style="fill:#1f77b4;" x="76.032606" xlink:href="#m5e395373d8" y="67.53413"/>
     <use style="fill:#1f77b4;" x="89.181695" xlink:href="#m5e395373d8" y="87.189705"/>
     <use style="fill:#1f77b4;" x="90.383679" xlink:href="#m5e395373d8" y="73.901705"/>
     <use style="fill:#1f77b4;" x="82.525887" xlink:href="#m5e395373d8" y="84.587034"/>
     <use style="fill:#1f77b4;" x="87.883614" xlink:href="#m5e395373d8" y="58.149611"/>
     <use style="fill:#1f77b4;" x="70.321796" xlink:href="#m5e395373d8" y="43.018422"/>
     <use style="fill:#1f77b4;" x="76.768103" xlink:href="#m5e395373d8" y="37.324686"/>
     <use style="fill:#1f77b4;" x="78.135902" xlink:href="#m5e395373d8" y="43.476011"/>
     <use style="fill:#1f77b4;" x="90.106936" xlink:href="#m5e395373d8" y="76.216533"/>
     <use style="fill:#1f77b4;" x="90.787574" xlink:href="#m5e395373d8" y="87.871999"/>
     <use style="fill:#1f77b4;" x="87.082567" xlink:href="#m5e395373d8" y="66.710787"/>
     <use style="fill:#1f77b4;" x="95.984655" xlink:href="#m5e395373d8" y="94.724219"/>
     <use style="fill:#1f77b4;" x="63.62114" xlink:href="#m5e395373d8" y="57.701296"/>
     <use style="fill:#1f77b4;" x="84.868698" xlink:href="#m5e395373d8" y="54.050134"/>
     <use style="fill:#1f77b4;" x="86.144614" xlink:href="#m5e395373d8" y="51.875543"/>
     <use style="fill:#1f77b4;" x="89.229166" xlink:href="#m5e395373d8" y="54.550682"/>
     <use style="fill:#1f77b4;" x="85.799747" xlink:href="#m5e395373d8" y="49.464921"/>
     <use style="fill:#1f77b4;" x="80.410226" xlink:href="#m5e395373d8" y="28.283746"/>
     <use style="fill:#1f77b4;" x="84.300542" xlink:href="#m5e395373d8" y="71.037193"/>
     <use style="fill:#1f77b4;" x="75.895303" xlink:href="#m5e395373d8" y="43.116643"/>
     <use style="fill:#1f77b4;" x="87.530366" xlink:href="#m5e395373d8" y="53.548703"/>
     <use style="fill:#1f77b4;" x="79.217429" xlink:href="#m5e395373d8" y="43.109948"/>
     <use style="fill:#1f77b4;" x="86.333488" xlink:href="#m5e395373d8" y="74.058714"/>
     <use style="fill:#1f77b4;" x="89.485647" xlink:href="#m5e395373d8" y="63.755981"/>
     <use style="fill:#1f77b4;" x="78.702025" xlink:href="#m5e395373d8" y="82.111668"/>
     <use style="fill:#1f77b4;" x="92.300122" xlink:href="#m5e395373d8" y="89.844196"/>
     <use style="fill:#1f77b4;" x="83.858418" xlink:href="#m5e395373d8" y="56.737311"/>
     <use style="fill:#1f77b4;" x="85.086169" xlink:href="#m5e395373d8" y="82.65381"/>
     <use style="fill:#1f77b4;" x="76.17998" xlink:href="#m5e395373d8" y="87.508773"/>
     <use style="fill:#1f77b4;" x="87.617939" xlink:href="#m5e395373d8" y="88.733172"/>
     <use style="fill:#1f77b4;" x="87.87448" xlink:href="#m5e395373d8" y="98.728794"/>
     <use style="fill:#1f77b4;" x="87.253158" xlink:href="#m5e395373d8" y="71.380544"/>
     <use style="fill:#1f77b4;" x="90.67696" xlink:href="#m5e395373d8" y="62.055884"/>
     <use style="fill:#1f77b4;" x="87.277921" xlink:href="#m5e395373d8" y="89.885995"/>
     <use style="fill:#1f77b4;" x="78.098999" xlink:href="#m5e395373d8" y="31.939283"/>
     <use style="fill:#1f77b4;" x="83.209872" xlink:href="#m5e395373d8" y="28.271206"/>
     <use style="fill:#1f77b4;" x="80.321776" xlink:href="#m5e395373d8" y="31.884902"/>
     <use style="fill:#1f77b4;" x="83.700893" xlink:href="#m5e395373d8" y="33.818221"/>
     <use style="fill:#1f77b4;" x="72.825777" xlink:href="#m5e395373d8" y="36.091604"/>
     <use style="fill:#1f77b4;" x="76.482789" xlink:href="#m5e395373d8" y="30.577618"/>
    </g>
   </g>
   <g id="PathCollection_2">
    <defs>
     <path d="M 0 1.118034 
C 0.296506 1.118034 0.580908 1.000231 0.790569 0.790569 
C 1.000231 0.580908 1.118034 0.296506 1.118034 0 
C 1.118034 -0.296506 1.000231 -0.580908 0.790569 -0.790569 
C 0.580908 -1.000231 0.296506 -1.118034 0 -1.118034 
C -0.296506 -1.118034 -0.580908 -1.000231 -0.790569 -0.790569 
C -1.000231 -0.580908 -1.118034 -0.296506 -1.118034 0 
C -1.118034 0.296506 -1.000231 0.580908 -0.790569 0.790569 
C -0.580908 1.000231 -0.296506 1.118034 0 1.118034 
z
" id="m0081873e5b"/>
    </defs>
    <g clip-path="url(#p9a7605e388)">
     <use style="fill:#ff7f0e;" x="54.107801" xlink:href="#m0081873e5b" y="46.691848"/>
     <use style="fill:#ff7f0e;" x="68.50857" xlink:href="#m0081873e5b" y="67.978084"/>
     <use style="fill:#ff7f0e;" x="57.928473" xlink:href="#m0081873e5b" y="49.509813"/>
     <use style="fill:#ff7f0e;" x="65.059083" xlink:href="#m0081873e5b" y="47.436246"/>
     <use style="fill:#ff7f0e;" x="48.21415" xlink:href="#m0081873e5b" y="33.027434"/>
     <use style="fill:#ff7f0e;" x="78.089559" xlink:href="#m0081873e5b" y="92.507369"/>
     <use style="fill:#ff7f0e;" x="65.172379" xlink:href="#m0081873e5b" y="68.195468"/>
     <use style="fill:#ff7f0e;" x="78.451278" xlink:href="#m0081873e5b" y="79.395103"/>
     <use style="fill:#ff7f0e;" x="84.299017" xlink:href="#m0081873e5b" y="91.032523"/>
     <use style="fill:#ff7f0e;" x="54.911484" xlink:href="#m0081873e5b" y="57.927556"/>
     <use style="fill:#ff7f0e;" x="45.013039" xlink:href="#m0081873e5b" y="44.257908"/>
     <use style="fill:#ff7f0e;" x="59.340579" xlink:href="#m0081873e5b" y="42.875577"/>
     <use style="fill:#ff7f0e;" x="73.238375" xlink:href="#m0081873e5b" y="58.834671"/>
     <use style="fill:#ff7f0e;" x="68.022842" xlink:href="#m0081873e5b" y="46.643834"/>
     <use style="fill:#ff7f0e;" x="67.530552" xlink:href="#m0081873e5b" y="70.851041"/>
     <use style="fill:#ff7f0e;" x="66.909303" xlink:href="#m0081873e5b" y="69.105306"/>
     <use style="fill:#ff7f0e;" x="57.395571" xlink:href="#m0081873e5b" y="55.253366"/>
     <use style="fill:#ff7f0e;" x="74.493495" xlink:href="#m0081873e5b" y="61.764279"/>
     <use style="fill:#ff7f0e;" x="78.223378" xlink:href="#m0081873e5b" y="49.425764"/>
     <use style="fill:#ff7f0e;" x="74.950889" xlink:href="#m0081873e5b" y="61.364449"/>
     <use style="fill:#ff7f0e;" x="62.605597" xlink:href="#m0081873e5b" y="45.651376"/>
     <use style="fill:#ff7f0e;" x="51.070172" xlink:href="#m0081873e5b" y="36.999023"/>
     <use style="fill:#ff7f0e;" x="52.42573" xlink:href="#m0081873e5b" y="59.704143"/>
     <use style="fill:#ff7f0e;" x="57.613847" xlink:href="#m0081873e5b" y="57.629778"/>
     <use style="fill:#ff7f0e;" x="55.20239" xlink:href="#m0081873e5b" y="53.348952"/>
     <use style="fill:#ff7f0e;" x="67.660643" xlink:href="#m0081873e5b" y="74.231609"/>
     <use style="fill:#ff7f0e;" x="74.02181" xlink:href="#m0081873e5b" y="75.533257"/>
     <use style="fill:#ff7f0e;" x="77.865297" xlink:href="#m0081873e5b" y="81.709741"/>
     <use style="fill:#ff7f0e;" x="79.165956" xlink:href="#m0081873e5b" y="95.727418"/>
     <use style="fill:#ff7f0e;" x="71.661633" xlink:href="#m0081873e5b" y="81.035819"/>
     <use style="fill:#ff7f0e;" x="72.165084" xlink:href="#m0081873e5b" y="67.081388"/>
     <use style="fill:#ff7f0e;" x="75.248297" xlink:href="#m0081873e5b" y="82.359411"/>
     <use style="fill:#ff7f0e;" x="65.985397" xlink:href="#m0081873e5b" y="83.4998"/>
     <use style="fill:#ff7f0e;" x="78.565526" xlink:href="#m0081873e5b" y="90.478411"/>
     <use style="fill:#ff7f0e;" x="58.939371" xlink:href="#m0081873e5b" y="74.136174"/>
     <use style="fill:#ff7f0e;" x="73.420656" xlink:href="#m0081873e5b" y="80.315982"/>
     <use style="fill:#ff7f0e;" x="62.679235" xlink:href="#m0081873e5b" y="70.179034"/>
     <use style="fill:#ff7f0e;" x="58.754822" xlink:href="#m0081873e5b" y="31.497407"/>
     <use style="fill:#ff7f0e;" x="59.625564" xlink:href="#m0081873e5b" y="43.066541"/>
     <use style="fill:#ff7f0e;" x="48.864276" xlink:href="#m0081873e5b" y="45.755077"/>
     <use style="fill:#ff7f0e;" x="55.555482" xlink:href="#m0081873e5b" y="36.802168"/>
    </g>
   </g>
   <g id="matplotlib.axis_1">
    <g id="xtick_1">
     <g id="line2d_1">
      <defs>
       <path d="M 0 0 
L 0 3.5 
" id="m19bef32e24" style="stroke:#000000;stroke-width:0.8;"/>
      </defs>
      <g>
       <use style="stroke:#000000;stroke-width:0.8;" x="38.649216" xlink:href="#m19bef32e24" y="102.36"/>
      </g>
     </g>
     <g id="text_1">
      <!-- −10 -->
      <defs>
       <path d="M 10.59375 35.5 
L 73.1875 35.5 
L 73.1875 27.203125 
L 10.59375 27.203125 
z
" id="DejaVuSans-8722"/>
       <path d="M 12.40625 8.296875 
L 28.515625 8.296875 
L 28.515625 63.921875 
L 10.984375 60.40625 
L 10.984375 69.390625 
L 28.421875 72.90625 
L 38.28125 72.90625 
L 38.28125 8.296875 
L 54.390625 8.296875 
L 54.390625 0 
L 12.40625 0 
z
" id="DejaVuSans-49"/>
       <path d="M 31.78125 66.40625 
Q 24.171875 66.40625 20.328125 58.90625 
Q 16.5 51.421875 16.5 36.375 
Q 16.5 21.390625 20.328125 13.890625 
Q 24.171875 6.390625 31.78125 6.390625 
Q 39.453125 6.390625 43.28125 13.890625 
Q 47.125 21.390625 47.125 36.375 
Q 47.125 51.421875 43.28125 58.90625 
Q 39.453125 66.40625 31.78125 66.40625 
z
M 31.78125 74.21875 
Q 44.046875 74.21875 50.515625 64.515625 
Q 56.984375 54.828125 56.984375 36.375 
Q 56.984375 17.96875 50.515625 8.265625 
Q 44.046875 -1.421875 31.78125 -1.421875 
Q 19.53125 -1.421875 13.0625 8.265625 
Q 6.59375 17.96875 6.59375 36.375 
Q 6.59375 54.828125 13.0625 64.515625 
Q 19.53125 74.21875 31.78125 74.21875 
z
" id="DejaVuSans-48"/>
      </defs>
      <g transform="translate(30.207341 115.43875)scale(0.08 -0.08)">
       <use xlink:href="#DejaVuSans-8722"/>
       <use x="83.789062" xlink:href="#DejaVuSans-49"/>
       <use x="147.412109" xlink:href="#DejaVuSans-48"/>
      </g>
     </g>
    </g>
    <g id="xtick_2">
     <g id="line2d_2">
      <g>
       <use style="stroke:#000000;stroke-width:0.8;" x="90.062019" xlink:href="#m19bef32e24" y="102.36"/>
      </g>
     </g>
     <g id="text_2">
      <!-- 0 -->
      <g transform="translate(87.517019 115.43875)scale(0.08 -0.08)">
       <use xlink:href="#DejaVuSans-48"/>
      </g>
     </g>
    </g>
    <g id="xtick_3">
     <g id="line2d_3">
      <g>
       <use style="stroke:#000000;stroke-width:0.8;" x="141.474822" xlink:href="#m19bef32e24" y="102.36"/>
      </g>
     </g>
     <g id="text_3">
      <!-- 10 -->
      <g transform="translate(136.384822 115.43875)scale(0.08 -0.08)">
       <use xlink:href="#DejaVuSans-49"/>
       <use x="63.623047" xlink:href="#DejaVuSans-48"/>
      </g>
     </g>
    </g>
    <g id="text_4">
     <!-- Signal ($\Delta \mu$) -->
     <defs>
      <path d="M 53.515625 70.515625 
L 53.515625 60.890625 
Q 47.90625 63.578125 42.921875 64.890625 
Q 37.9375 66.21875 33.296875 66.21875 
Q 25.25 66.21875 20.875 63.09375 
Q 16.5 59.96875 16.5 54.203125 
Q 16.5 49.359375 19.40625 46.890625 
Q 22.3125 44.4375 30.421875 42.921875 
L 36.375 41.703125 
Q 47.40625 39.59375 52.65625 34.296875 
Q 57.90625 29 57.90625 20.125 
Q 57.90625 9.515625 50.796875 4.046875 
Q 43.703125 -1.421875 29.984375 -1.421875 
Q 24.8125 -1.421875 18.96875 -0.25 
Q 13.140625 0.921875 6.890625 3.21875 
L 6.890625 13.375 
Q 12.890625 10.015625 18.65625 8.296875 
Q 24.421875 6.59375 29.984375 6.59375 
Q 38.421875 6.59375 43.015625 9.90625 
Q 47.609375 13.234375 47.609375 19.390625 
Q 47.609375 24.75 44.3125 27.78125 
Q 41.015625 30.8125 33.5 32.328125 
L 27.484375 33.5 
Q 16.453125 35.6875 11.515625 40.375 
Q 6.59375 45.0625 6.59375 53.421875 
Q 6.59375 63.09375 13.40625 68.65625 
Q 20.21875 74.21875 32.171875 74.21875 
Q 37.3125 74.21875 42.625 73.28125 
Q 47.953125 72.359375 53.515625 70.515625 
z
" id="DejaVuSans-83"/>
      <path d="M 9.421875 54.6875 
L 18.40625 54.6875 
L 18.40625 0 
L 9.421875 0 
z
M 9.421875 75.984375 
L 18.40625 75.984375 
L 18.40625 64.59375 
L 9.421875 64.59375 
z
" id="DejaVuSans-105"/>
      <path d="M 45.40625 27.984375 
Q 45.40625 37.75 41.375 43.109375 
Q 37.359375 48.484375 30.078125 48.484375 
Q 22.859375 48.484375 18.828125 43.109375 
Q 14.796875 37.75 14.796875 27.984375 
Q 14.796875 18.265625 18.828125 12.890625 
Q 22.859375 7.515625 30.078125 7.515625 
Q 37.359375 7.515625 41.375 12.890625 
Q 45.40625 18.265625 45.40625 27.984375 
z
M 54.390625 6.78125 
Q 54.390625 -7.171875 48.1875 -13.984375 
Q 42 -20.796875 29.203125 -20.796875 
Q 24.46875 -20.796875 20.265625 -20.09375 
Q 16.0625 -19.390625 12.109375 -17.921875 
L 12.109375 -9.1875 
Q 16.0625 -11.328125 19.921875 -12.34375 
Q 23.78125 -13.375 27.78125 -13.375 
Q 36.625 -13.375 41.015625 -8.765625 
Q 45.40625 -4.15625 45.40625 5.171875 
L 45.40625 9.625 
Q 42.625 4.78125 38.28125 2.390625 
Q 33.9375 0 27.875 0 
Q 17.828125 0 11.671875 7.65625 
Q 5.515625 15.328125 5.515625 27.984375 
Q 5.515625 40.671875 11.671875 48.328125 
Q 17.828125 56 27.875 56 
Q 33.9375 56 38.28125 53.609375 
Q 42.625 51.21875 45.40625 46.390625 
L 45.40625 54.6875 
L 54.390625 54.6875 
z
" id="DejaVuSans-103"/>
      <path d="M 54.890625 33.015625 
L 54.890625 0 
L 45.90625 0 
L 45.90625 32.71875 
Q 45.90625 40.484375 42.875 44.328125 
Q 39.84375 48.1875 33.796875 48.1875 
Q 26.515625 48.1875 22.3125 43.546875 
Q 18.109375 38.921875 18.109375 30.90625 
L 18.109375 0 
L 9.078125 0 
L 9.078125 54.6875 
L 18.109375 54.6875 
L 18.109375 46.1875 
Q 21.34375 51.125 25.703125 53.5625 
Q 30.078125 56 35.796875 56 
Q 45.21875 56 50.046875 50.171875 
Q 54.890625 44.34375 54.890625 33.015625 
z
" id="DejaVuSans-110"/>
      <path d="M 34.28125 27.484375 
Q 23.390625 27.484375 19.1875 25 
Q 14.984375 22.515625 14.984375 16.5 
Q 14.984375 11.71875 18.140625 8.90625 
Q 21.296875 6.109375 26.703125 6.109375 
Q 34.1875 6.109375 38.703125 11.40625 
Q 43.21875 16.703125 43.21875 25.484375 
L 43.21875 27.484375 
z
M 52.203125 31.203125 
L 52.203125 0 
L 43.21875 0 
L 43.21875 8.296875 
Q 40.140625 3.328125 35.546875 0.953125 
Q 30.953125 -1.421875 24.3125 -1.421875 
Q 15.921875 -1.421875 10.953125 3.296875 
Q 6 8.015625 6 15.921875 
Q 6 25.140625 12.171875 29.828125 
Q 18.359375 34.515625 30.609375 34.515625 
L 43.21875 34.515625 
L 43.21875 35.40625 
Q 43.21875 41.609375 39.140625 45 
Q 35.0625 48.390625 27.6875 48.390625 
Q 23 48.390625 18.546875 47.265625 
Q 14.109375 46.140625 10.015625 43.890625 
L 10.015625 52.203125 
Q 14.9375 54.109375 19.578125 55.046875 
Q 24.21875 56 28.609375 56 
Q 40.484375 56 46.34375 49.84375 
Q 52.203125 43.703125 52.203125 31.203125 
z
" id="DejaVuSans-97"/>
      <path d="M 9.421875 75.984375 
L 18.40625 75.984375 
L 18.40625 0 
L 9.421875 0 
z
" id="DejaVuSans-108"/>
      <path id="DejaVuSans-32"/>
      <path d="M 31 75.875 
Q 24.46875 64.65625 21.28125 53.65625 
Q 18.109375 42.671875 18.109375 31.390625 
Q 18.109375 20.125 21.3125 9.0625 
Q 24.515625 -2 31 -13.1875 
L 23.1875 -13.1875 
Q 15.875 -1.703125 12.234375 9.375 
Q 8.59375 20.453125 8.59375 31.390625 
Q 8.59375 42.28125 12.203125 53.3125 
Q 15.828125 64.359375 23.1875 75.875 
z
" id="DejaVuSans-40"/>
      <path d="M 34.1875 63.1875 
L 14.15625 8.203125 
L 54.25 8.203125 
z
M 0.78125 0 
L 28.609375 72.90625 
L 39.796875 72.90625 
L 67.578125 0 
z
" id="DejaVuSans-916"/>
      <path d="M -1.3125 -20.796875 
L 13.375 54.6875 
L 22.40625 54.6875 
L 15.765625 20.65625 
Q 15.578125 19.625 15.421875 18.359375 
Q 15.28125 17.09375 15.28125 15.828125 
Q 15.28125 11.28125 18.140625 8.828125 
Q 21 6.390625 26.3125 6.390625 
Q 33.546875 6.390625 37.984375 10.484375 
Q 42.4375 14.59375 44 22.796875 
L 50.203125 54.6875 
L 59.1875 54.6875 
L 51.03125 12.640625 
Q 50.828125 11.71875 50.75 11.03125 
Q 50.6875 10.359375 50.6875 9.8125 
Q 50.6875 8.296875 51.296875 7.59375 
Q 51.90625 6.890625 53.21875 6.890625 
Q 53.71875 6.890625 54.5625 7.125 
Q 55.421875 7.375 56.984375 8.015625 
L 55.609375 0.78125 
Q 53.46875 -0.296875 51.515625 -0.859375 
Q 49.5625 -1.421875 47.703125 -1.421875 
Q 44.484375 -1.421875 42.65625 0.625 
Q 40.828125 2.6875 40.828125 6.296875 
Q 38.09375 2.390625 34.296875 0.484375 
Q 30.515625 -1.421875 25.390625 -1.421875 
Q 20.84375 -1.421875 17.453125 0.671875 
Q 14.0625 2.78125 12.984375 6.203125 
L 7.71875 -20.796875 
z
" id="DejaVuSans-Oblique-956"/>
      <path d="M 8.015625 75.875 
L 15.828125 75.875 
Q 23.140625 64.359375 26.78125 53.3125 
Q 30.421875 42.28125 30.421875 31.390625 
Q 30.421875 20.453125 26.78125 9.375 
Q 23.140625 -1.703125 15.828125 -13.1875 
L 8.015625 -13.1875 
Q 14.5 -2 17.703125 9.0625 
Q 20.90625 20.125 20.90625 31.390625 
Q 20.90625 42.671875 17.703125 53.65625 
Q 14.5 64.65625 8.015625 75.875 
z
" id="DejaVuSans-41"/>
     </defs>
     <g transform="translate(65.491379 127.1825)scale(0.08 -0.08)">
      <use transform="translate(0 0.015625)" xlink:href="#DejaVuSans-83"/>
      <use transform="translate(63.476562 0.015625)" xlink:href="#DejaVuSans-105"/>
      <use transform="translate(91.259766 0.015625)" xlink:href="#DejaVuSans-103"/>
      <use transform="translate(154.736328 0.015625)" xlink:href="#DejaVuSans-110"/>
      <use transform="translate(218.115234 0.015625)" xlink:href="#DejaVuSans-97"/>
      <use transform="translate(279.394531 0.015625)" xlink:href="#DejaVuSans-108"/>
      <use transform="translate(307.177734 0.015625)" xlink:href="#DejaVuSans-32"/>
      <use transform="translate(338.964844 0.015625)" xlink:href="#DejaVuSans-40"/>
      <use transform="translate(377.978516 0.015625)" xlink:href="#DejaVuSans-916"/>
      <use transform="translate(446.386719 0.015625)" xlink:href="#DejaVuSans-Oblique-956"/>
      <use transform="translate(510.009766 0.015625)" xlink:href="#DejaVuSans-41"/>
     </g>
    </g>
   </g>
   <g id="matplotlib.axis_2">
    <g id="ytick_1">
     <g id="line2d_4">
      <defs>
       <path d="M 0 0 
L -3.5 0 
" id="mf1b4d58824" style="stroke:#000000;stroke-width:0.8;"/>
      </defs>
      <g>
       <use style="stroke:#000000;stroke-width:0.8;" x="33.765" xlink:href="#mf1b4d58824" y="89.684707"/>
      </g>
     </g>
     <g id="text_5">
      <!-- 0.0 -->
      <defs>
       <path d="M 10.6875 12.40625 
L 21 12.40625 
L 21 0 
L 10.6875 0 
z
" id="DejaVuSans-46"/>
      </defs>
      <g transform="translate(14.0425 92.724082)scale(0.08 -0.08)">
       <use xlink:href="#DejaVuSans-48"/>
       <use x="63.623047" xlink:href="#DejaVuSans-46"/>
       <use x="95.410156" xlink:href="#DejaVuSans-48"/>
      </g>
     </g>
    </g>
    <g id="ytick_2">
     <g id="line2d_5">
      <g>
       <use style="stroke:#000000;stroke-width:0.8;" x="33.765" xlink:href="#mf1b4d58824" y="65.74399"/>
      </g>
     </g>
     <g id="text_6">
      <!-- 2.5 -->
      <defs>
       <path d="M 19.1875 8.296875 
L 53.609375 8.296875 
L 53.609375 0 
L 7.328125 0 
L 7.328125 8.296875 
Q 12.9375 14.109375 22.625 23.890625 
Q 32.328125 33.6875 34.8125 36.53125 
Q 39.546875 41.84375 41.421875 45.53125 
Q 43.3125 49.21875 43.3125 52.78125 
Q 43.3125 58.59375 39.234375 62.25 
Q 35.15625 65.921875 28.609375 65.921875 
Q 23.96875 65.921875 18.8125 64.3125 
Q 13.671875 62.703125 7.8125 59.421875 
L 7.8125 69.390625 
Q 13.765625 71.78125 18.9375 73 
Q 24.125 74.21875 28.421875 74.21875 
Q 39.75 74.21875 46.484375 68.546875 
Q 53.21875 62.890625 53.21875 53.421875 
Q 53.21875 48.921875 51.53125 44.890625 
Q 49.859375 40.875 45.40625 35.40625 
Q 44.1875 33.984375 37.640625 27.21875 
Q 31.109375 20.453125 19.1875 8.296875 
z
" id="DejaVuSans-50"/>
       <path d="M 10.796875 72.90625 
L 49.515625 72.90625 
L 49.515625 64.59375 
L 19.828125 64.59375 
L 19.828125 46.734375 
Q 21.96875 47.46875 24.109375 47.828125 
Q 26.265625 48.1875 28.421875 48.1875 
Q 40.625 48.1875 47.75 41.5 
Q 54.890625 34.8125 54.890625 23.390625 
Q 54.890625 11.625 47.5625 5.09375 
Q 40.234375 -1.421875 26.90625 -1.421875 
Q 22.3125 -1.421875 17.546875 -0.640625 
Q 12.796875 0.140625 7.71875 1.703125 
L 7.71875 11.625 
Q 12.109375 9.234375 16.796875 8.0625 
Q 21.484375 6.890625 26.703125 6.890625 
Q 35.15625 6.890625 40.078125 11.328125 
Q 45.015625 15.765625 45.015625 23.390625 
Q 45.015625 31 40.078125 35.4375 
Q 35.15625 39.890625 26.703125 39.890625 
Q 22.75 39.890625 18.8125 39.015625 
Q 14.890625 38.140625 10.796875 36.28125 
z
" id="DejaVuSans-53"/>
      </defs>
      <g transform="translate(14.0425 68.783365)scale(0.08 -0.08)">
       <use xlink:href="#DejaVuSans-50"/>
       <use x="63.623047" xlink:href="#DejaVuSans-46"/>
       <use x="95.410156" xlink:href="#DejaVuSans-53"/>
      </g>
     </g>
    </g>
    <g id="ytick_3">
     <g id="line2d_6">
      <g>
       <use style="stroke:#000000;stroke-width:0.8;" x="33.765" xlink:href="#mf1b4d58824" y="41.803274"/>
      </g>
     </g>
     <g id="text_7">
      <!-- 5.0 -->
      <g transform="translate(14.0425 44.842649)scale(0.08 -0.08)">
       <use xlink:href="#DejaVuSans-53"/>
       <use x="63.623047" xlink:href="#DejaVuSans-46"/>
       <use x="95.410156" xlink:href="#DejaVuSans-48"/>
      </g>
     </g>
    </g>
    <g id="text_8">
     <!-- Noise -->
     <defs>
      <path d="M 9.8125 72.90625 
L 23.09375 72.90625 
L 55.421875 11.921875 
L 55.421875 72.90625 
L 64.984375 72.90625 
L 64.984375 0 
L 51.703125 0 
L 19.390625 60.984375 
L 19.390625 0 
L 9.8125 0 
z
" id="DejaVuSans-78"/>
      <path d="M 30.609375 48.390625 
Q 23.390625 48.390625 19.1875 42.75 
Q 14.984375 37.109375 14.984375 27.296875 
Q 14.984375 17.484375 19.15625 11.84375 
Q 23.34375 6.203125 30.609375 6.203125 
Q 37.796875 6.203125 41.984375 11.859375 
Q 46.1875 17.53125 46.1875 27.296875 
Q 46.1875 37.015625 41.984375 42.703125 
Q 37.796875 48.390625 30.609375 48.390625 
z
M 30.609375 56 
Q 42.328125 56 49.015625 48.375 
Q 55.71875 40.765625 55.71875 27.296875 
Q 55.71875 13.875 49.015625 6.21875 
Q 42.328125 -1.421875 30.609375 -1.421875 
Q 18.84375 -1.421875 12.171875 6.21875 
Q 5.515625 13.875 5.515625 27.296875 
Q 5.515625 40.765625 12.171875 48.375 
Q 18.84375 56 30.609375 56 
z
" id="DejaVuSans-111"/>
      <path d="M 44.28125 53.078125 
L 44.28125 44.578125 
Q 40.484375 46.53125 36.375 47.5 
Q 32.28125 48.484375 27.875 48.484375 
Q 21.1875 48.484375 17.84375 46.4375 
Q 14.5 44.390625 14.5 40.28125 
Q 14.5 37.15625 16.890625 35.375 
Q 19.28125 33.59375 26.515625 31.984375 
L 29.59375 31.296875 
Q 39.15625 29.25 43.1875 25.515625 
Q 47.21875 21.78125 47.21875 15.09375 
Q 47.21875 7.46875 41.1875 3.015625 
Q 35.15625 -1.421875 24.609375 -1.421875 
Q 20.21875 -1.421875 15.453125 -0.5625 
Q 10.6875 0.296875 5.421875 2 
L 5.421875 11.28125 
Q 10.40625 8.6875 15.234375 7.390625 
Q 20.0625 6.109375 24.8125 6.109375 
Q 31.15625 6.109375 34.5625 8.28125 
Q 37.984375 10.453125 37.984375 14.40625 
Q 37.984375 18.0625 35.515625 20.015625 
Q 33.0625 21.96875 24.703125 23.78125 
L 21.578125 24.515625 
Q 13.234375 26.265625 9.515625 29.90625 
Q 5.8125 33.546875 5.8125 39.890625 
Q 5.8125 47.609375 11.28125 51.796875 
Q 16.75 56 26.8125 56 
Q 31.78125 56 36.171875 55.265625 
Q 40.578125 54.546875 44.28125 53.078125 
z
" id="DejaVuSans-115"/>
      <path d="M 56.203125 29.59375 
L 56.203125 25.203125 
L 14.890625 25.203125 
Q 15.484375 15.921875 20.484375 11.0625 
Q 25.484375 6.203125 34.421875 6.203125 
Q 39.59375 6.203125 44.453125 7.46875 
Q 49.3125 8.734375 54.109375 11.28125 
L 54.109375 2.78125 
Q 49.265625 0.734375 44.1875 -0.34375 
Q 39.109375 -1.421875 33.890625 -1.421875 
Q 20.796875 -1.421875 13.15625 6.1875 
Q 5.515625 13.8125 5.515625 26.8125 
Q 5.515625 40.234375 12.765625 48.109375 
Q 20.015625 56 32.328125 56 
Q 43.359375 56 49.78125 48.890625 
Q 56.203125 41.796875 56.203125 29.59375 
z
M 47.21875 32.234375 
Q 47.125 39.59375 43.09375 43.984375 
Q 39.0625 48.390625 32.421875 48.390625 
Q 24.90625 48.390625 20.390625 44.140625 
Q 15.875 39.890625 15.1875 32.171875 
z
" id="DejaVuSans-101"/>
     </defs>
     <g transform="translate(8.37875 74.59625)rotate(-90)scale(0.08 -0.08)">
      <use xlink:href="#DejaVuSans-78"/>
      <use x="74.804688" xlink:href="#DejaVuSans-111"/>
      <use x="135.986328" xlink:href="#DejaVuSans-105"/>
      <use x="163.769531" xlink:href="#DejaVuSans-115"/>
      <use x="215.869141" xlink:href="#DejaVuSans-101"/>
     </g>
    </g>
   </g>
   <g id="line2d_7">
    <path clip-path="url(#p9a7605e388)" d="M 87.584102 80.943663 
L 87.251261 81.135511 
L 86.902571 81.243699 
L 86.539436 81.267791 
L 86.163318 81.207692 
L 85.775732 81.063642 
L 85.378238 80.836221 
L 84.972436 80.526346 
L 84.559962 80.135264 
L 84.142476 79.66455 
L 83.721658 79.1161 
L 83.299204 78.492121 
L 82.876814 77.795126 
L 82.45619 77.027922 
L 82.039024 76.193599 
L 81.626997 75.295515 
L 81.221768 74.337286 
L 80.824968 73.322773 
L 80.438196 72.256058 
L 80.063008 71.141438 
L 79.700916 69.983401 
L 79.353378 68.78661 
L 79.021792 67.555884 
L 78.707494 66.296179 
L 78.41175 65.012566 
L 78.13575 63.710216 
L 77.880606 62.394371 
L 77.647345 61.07033 
L 77.436907 59.743425 
L 77.250138 58.418999 
L 77.087792 57.102384 
L 76.950521 55.798882 
L 76.838878 54.513743 
L 76.753313 53.25214 
L 76.694171 52.019154 
L 76.661689 50.819749 
L 76.655998 49.658756 
L 76.677122 48.540849 
L 76.724975 47.470529 
L 76.799364 46.452106 
L 76.899991 45.489682 
L 77.026449 44.587131 
L 77.17823 43.748088 
L 77.354722 42.97593 
L 77.555215 42.273769 
L 77.778901 41.64443 
L 78.02488 41.090448 
L 78.292162 40.614054 
L 78.579669 40.217165 
L 78.886245 39.901381 
L 79.210654 39.667972 
L 79.551591 39.517879 
L 79.907683 39.451705 
L 80.277496 39.469718 
L 80.65954 39.571844 
L 81.052278 39.757673 
L 81.454128 40.026456 
L 81.863472 40.377111 
L 82.278661 40.808226 
L 82.698024 41.318065 
L 83.119872 41.904575 
L 83.542507 42.565394 
L 83.964227 43.297862 
L 84.383333 44.099029 
L 84.798138 44.965669 
L 85.206972 45.894293 
L 85.608188 46.881161 
L 86.000171 47.922299 
L 86.381343 49.013516 
L 86.750169 50.150417 
L 87.105163 51.328424 
L 87.444896 52.542794 
L 87.768001 53.788637 
L 88.073176 55.060936 
L 88.359192 56.354569 
L 88.624897 57.664326 
L 88.869223 58.984934 
L 89.091184 60.311074 
L 89.289887 61.637408 
L 89.464533 62.958593 
L 89.614417 64.269311 
L 89.738937 65.564284 
L 89.83759 66.838297 
L 89.90998 68.086219 
L 89.955815 69.303027 
L 89.974911 70.483821 
L 89.967191 71.623845 
L 89.932685 72.71851 
L 89.871533 73.763407 
L 89.783981 74.754329 
L 89.670382 75.687287 
L 89.531192 76.558523 
L 89.366973 77.364529 
L 89.178385 78.102059 
L 88.966189 78.768145 
L 88.731238 79.360103 
L 88.474478 79.875551 
L 88.196944 80.312412 
L 87.899753 80.668928 
L 87.584102 80.943663 
" style="fill:none;stroke:#1f77b4;stroke-linecap:square;"/>
   </g>
   <g id="line2d_8">
    <path clip-path="url(#p9a7605e388)" d="M 68.679827 55.67995 
L 69.279635 56.730185 
L 69.863581 57.803488 
L 70.429314 58.895537 
L 70.974555 60.001936 
L 71.49711 61.118228 
L 71.994874 62.239919 
L 72.465843 63.362492 
L 72.908121 64.481427 
L 73.319925 65.592219 
L 73.699599 66.690395 
L 74.045614 67.771532 
L 74.356576 68.831278 
L 74.631232 69.865365 
L 74.868478 70.86963 
L 75.067358 71.840027 
L 75.227071 72.772651 
L 75.346973 73.663746 
L 75.426583 74.509723 
L 75.465579 75.307176 
L 75.463805 76.052894 
L 75.421267 76.743875 
L 75.338137 77.377335 
L 75.21475 77.950725 
L 75.051602 78.461735 
L 74.849351 78.908308 
L 74.608811 79.288645 
L 74.33095 79.601216 
L 74.016887 79.844761 
L 73.667887 80.0183 
L 73.285356 80.121133 
L 72.870833 80.152848 
L 72.425987 80.113316 
L 71.95261 80.002696 
L 71.452609 79.821435 
L 70.927995 79.57026 
L 70.380883 79.250186 
L 69.813474 78.862498 
L 69.228053 78.40876 
L 68.626979 77.890798 
L 68.01267 77.310698 
L 67.387602 76.670795 
L 66.75429 75.973667 
L 66.115284 75.22212 
L 65.473159 74.41918 
L 64.830499 73.568081 
L 64.189892 72.67225 
L 63.553918 71.735294 
L 62.925138 70.760985 
L 62.306083 69.753248 
L 61.699246 68.716139 
L 61.107071 67.653835 
L 60.531942 66.570614 
L 59.976174 65.470836 
L 59.442007 64.358931 
L 58.931591 63.239376 
L 58.44698 62.116678 
L 57.990127 60.995359 
L 57.562871 59.879934 
L 57.166932 58.774894 
L 56.803905 57.684689 
L 56.475252 56.613708 
L 56.182295 55.566264 
L 55.926215 54.546575 
L 55.708042 53.558747 
L 55.528656 52.606757 
L 55.388778 51.694438 
L 55.288971 50.825465 
L 55.229638 50.003336 
L 55.211018 49.231361 
L 55.233185 48.51265 
L 55.296051 47.850096 
L 55.399361 47.246367 
L 55.542701 46.703894 
L 55.725492 46.224861 
L 55.946999 45.811198 
L 56.206331 45.464569 
L 56.502442 45.186372 
L 56.83414 44.977725 
L 57.20009 44.839469 
L 57.598818 44.772161 
L 58.028719 44.776071 
L 58.488061 44.851185 
L 58.974995 44.997199 
L 59.487561 45.213526 
L 60.023694 45.499295 
L 60.581236 45.853354 
L 61.15794 46.274278 
L 61.751487 46.760373 
L 62.359484 47.309681 
L 62.979485 47.91999 
L 63.608992 48.588842 
L 64.245471 49.313545 
L 64.886359 50.091179 
L 65.529076 50.918615 
L 66.171032 51.79252 
L 66.809644 52.709376 
L 67.44234 53.665489 
L 68.066572 54.657012 
L 68.679827 55.67995 
" style="fill:none;stroke:#ff7f0e;stroke-linecap:square;"/>
   </g>
   <g id="patch_3">
    <path d="M 33.765 102.36 
L 33.765 24.64 
" style="fill:none;stroke:#000000;stroke-linecap:square;stroke-linejoin:miter;stroke-width:0.8;"/>
   </g>
   <g id="patch_4">
    <path d="M 33.765 102.36 
L 141.217758 102.36 
" style="fill:none;stroke:#000000;stroke-linecap:square;stroke-linejoin:miter;stroke-width:0.8;"/>
   </g>
  </g>
  <g id="axes_2">
   <g id="patch_5">
    <path d="M 172.218333 102.36 
L 279.671091 102.36 
L 279.671091 24.64 
L 172.218333 24.64 
z
" style="fill:#ffffff;"/>
   </g>
   <g id="patch_6">
    <path clip-path="url(#p2988385f2a)" d="M 177.10255 102.36 
L 177.10255 102.36 
L 182.24383 102.36 
L 182.24383 102.36 
L 187.38511 102.36 
L 187.38511 102.36 
L 192.52639 102.36 
L 192.52639 102.36 
L 197.667671 102.36 
L 197.667671 102.36 
L 202.808951 102.36 
L 202.808951 102.36 
L 207.950231 102.36 
L 207.950231 102.36 
L 213.091512 102.36 
L 213.091512 97.73381 
L 218.232792 97.73381 
L 218.232792 102.36 
L 223.374072 102.36 
L 223.374072 88.481429 
L 228.515352 88.481429 
L 228.515352 60.724286 
L 233.656633 60.724286 
L 233.656633 60.724286 
L 238.797913 60.724286 
L 238.797913 28.340952 
L 243.939193 28.340952 
L 243.939193 79.229048 
L 249.080473 79.229048 
L 249.080473 97.73381 
L 254.221754 97.73381 
L 254.221754 102.36 
L 259.363034 102.36 
L 259.363034 102.36 
L 264.504314 102.36 
L 264.504314 102.36 
L 269.645595 102.36 
L 269.645595 102.36 
L 274.786875 102.36 
L 274.786875 102.36 
L 269.645595 102.36 
L 269.645595 102.36 
L 264.504314 102.36 
L 264.504314 102.36 
L 259.363034 102.36 
L 259.363034 102.36 
L 254.221754 102.36 
L 254.221754 102.36 
L 249.080473 102.36 
L 249.080473 102.36 
L 243.939193 102.36 
L 243.939193 102.36 
L 238.797913 102.36 
L 238.797913 102.36 
L 233.656633 102.36 
L 233.656633 102.36 
L 228.515352 102.36 
L 228.515352 102.36 
L 223.374072 102.36 
L 223.374072 102.36 
L 218.232792 102.36 
L 218.232792 102.36 
L 213.091512 102.36 
L 213.091512 102.36 
L 207.950231 102.36 
L 207.950231 102.36 
L 202.808951 102.36 
L 202.808951 102.36 
L 197.667671 102.36 
L 197.667671 102.36 
L 192.52639 102.36 
L 192.52639 102.36 
L 187.38511 102.36 
L 187.38511 102.36 
L 182.24383 102.36 
L 182.24383 102.36 
z
" style="fill:#1f77b4;opacity:0.5;"/>
   </g>
   <g id="patch_7">
    <path clip-path="url(#p2988385f2a)" d="M 177.10255 102.36 
L 177.10255 102.36 
L 182.24383 102.36 
L 182.24383 102.36 
L 187.38511 102.36 
L 187.38511 102.36 
L 192.52639 102.36 
L 192.52639 102.36 
L 197.667671 102.36 
L 197.667671 88.481429 
L 202.808951 88.481429 
L 202.808951 93.107619 
L 207.950231 93.107619 
L 207.950231 60.724286 
L 213.091512 60.724286 
L 213.091512 83.855238 
L 218.232792 83.855238 
L 218.232792 65.350476 
L 223.374072 65.350476 
L 223.374072 74.602857 
L 228.515352 74.602857 
L 228.515352 65.350476 
L 233.656633 65.350476 
L 233.656633 97.73381 
L 238.797913 97.73381 
L 238.797913 102.36 
L 243.939193 102.36 
L 243.939193 102.36 
L 249.080473 102.36 
L 249.080473 102.36 
L 254.221754 102.36 
L 254.221754 102.36 
L 259.363034 102.36 
L 259.363034 102.36 
L 264.504314 102.36 
L 264.504314 102.36 
L 269.645595 102.36 
L 269.645595 102.36 
L 274.786875 102.36 
L 274.786875 102.36 
L 269.645595 102.36 
L 269.645595 102.36 
L 264.504314 102.36 
L 264.504314 102.36 
L 259.363034 102.36 
L 259.363034 102.36 
L 254.221754 102.36 
L 254.221754 102.36 
L 249.080473 102.36 
L 249.080473 102.36 
L 243.939193 102.36 
L 243.939193 102.36 
L 238.797913 102.36 
L 238.797913 102.36 
L 233.656633 102.36 
L 233.656633 102.36 
L 228.515352 102.36 
L 228.515352 102.36 
L 223.374072 102.36 
L 223.374072 102.36 
L 218.232792 102.36 
L 218.232792 102.36 
L 213.091512 102.36 
L 213.091512 102.36 
L 207.950231 102.36 
L 207.950231 102.36 
L 202.808951 102.36 
L 202.808951 102.36 
L 197.667671 102.36 
L 197.667671 102.36 
L 192.52639 102.36 
L 192.52639 102.36 
L 187.38511 102.36 
L 187.38511 102.36 
L 182.24383 102.36 
L 182.24383 102.36 
z
" style="fill:#ff7f0e;opacity:0.5;"/>
   </g>
   <g id="matplotlib.axis_3">
    <g id="xtick_4">
     <g id="line2d_9">
      <g>
       <use style="stroke:#000000;stroke-width:0.8;" x="177.10255" xlink:href="#m19bef32e24" y="102.36"/>
      </g>
     </g>
     <g id="text_9">
      <!-- −10 -->
      <g transform="translate(168.660675 115.43875)scale(0.08 -0.08)">
       <use xlink:href="#DejaVuSans-8722"/>
       <use x="83.789062" xlink:href="#DejaVuSans-49"/>
       <use x="147.412109" xlink:href="#DejaVuSans-48"/>
      </g>
     </g>
    </g>
    <g id="xtick_5">
     <g id="line2d_10">
      <g>
       <use style="stroke:#000000;stroke-width:0.8;" x="228.515352" xlink:href="#m19bef32e24" y="102.36"/>
      </g>
     </g>
     <g id="text_10">
      <!-- 0 -->
      <g transform="translate(225.970352 115.43875)scale(0.08 -0.08)">
       <use xlink:href="#DejaVuSans-48"/>
      </g>
     </g>
    </g>
    <g id="xtick_6">
     <g id="line2d_11">
      <g>
       <use style="stroke:#000000;stroke-width:0.8;" x="279.928155" xlink:href="#m19bef32e24" y="102.36"/>
      </g>
     </g>
     <g id="text_11">
      <!-- 10 -->
      <g transform="translate(274.838155 115.43875)scale(0.08 -0.08)">
       <use xlink:href="#DejaVuSans-49"/>
       <use x="63.623047" xlink:href="#DejaVuSans-48"/>
      </g>
     </g>
    </g>
   </g>
   <g id="matplotlib.axis_4">
    <g id="ytick_4">
     <g id="line2d_12">
      <g>
       <use style="stroke:#000000;stroke-width:0.8;" x="172.218333" xlink:href="#mf1b4d58824" y="102.36"/>
      </g>
     </g>
     <g id="text_12">
      <!-- 0 -->
      <g transform="translate(160.128333 105.399375)scale(0.08 -0.08)">
       <use xlink:href="#DejaVuSans-48"/>
      </g>
     </g>
    </g>
    <g id="ytick_5">
     <g id="line2d_13">
      <g>
       <use style="stroke:#000000;stroke-width:0.8;" x="172.218333" xlink:href="#mf1b4d58824" y="79.229048"/>
      </g>
     </g>
     <g id="text_13">
      <!-- 5 -->
      <g transform="translate(160.128333 82.268423)scale(0.08 -0.08)">
       <use xlink:href="#DejaVuSans-53"/>
      </g>
     </g>
    </g>
    <g id="ytick_6">
     <g id="line2d_14">
      <g>
       <use style="stroke:#000000;stroke-width:0.8;" x="172.218333" xlink:href="#mf1b4d58824" y="56.098095"/>
      </g>
     </g>
     <g id="text_14">
      <!-- 10 -->
      <g transform="translate(155.038333 59.13747)scale(0.08 -0.08)">
       <use xlink:href="#DejaVuSans-49"/>
       <use x="63.623047" xlink:href="#DejaVuSans-48"/>
      </g>
     </g>
    </g>
    <g id="ytick_7">
     <g id="line2d_15">
      <g>
       <use style="stroke:#000000;stroke-width:0.8;" x="172.218333" xlink:href="#mf1b4d58824" y="32.967143"/>
      </g>
     </g>
     <g id="text_15">
      <!-- 15 -->
      <g transform="translate(155.038333 36.006518)scale(0.08 -0.08)">
       <use xlink:href="#DejaVuSans-49"/>
       <use x="63.623047" xlink:href="#DejaVuSans-53"/>
      </g>
     </g>
    </g>
   </g>
   <g id="patch_8">
    <path d="M 172.218333 102.36 
L 172.218333 24.64 
" style="fill:none;stroke:#000000;stroke-linecap:square;stroke-linejoin:miter;stroke-width:0.8;"/>
   </g>
   <g id="patch_9">
    <path d="M 172.218333 102.36 
L 279.671091 102.36 
" style="fill:none;stroke:#000000;stroke-linecap:square;stroke-linejoin:miter;stroke-width:0.8;"/>
   </g>
   <g id="text_16">
    <!-- $\Delta \mu$ projection -->
    <defs>
     <path d="M 18.109375 8.203125 
L 18.109375 -20.796875 
L 9.078125 -20.796875 
L 9.078125 54.6875 
L 18.109375 54.6875 
L 18.109375 46.390625 
Q 20.953125 51.265625 25.265625 53.625 
Q 29.59375 56 35.59375 56 
Q 45.5625 56 51.78125 48.09375 
Q 58.015625 40.1875 58.015625 27.296875 
Q 58.015625 14.40625 51.78125 6.484375 
Q 45.5625 -1.421875 35.59375 -1.421875 
Q 29.59375 -1.421875 25.265625 0.953125 
Q 20.953125 3.328125 18.109375 8.203125 
z
M 48.6875 27.296875 
Q 48.6875 37.203125 44.609375 42.84375 
Q 40.53125 48.484375 33.40625 48.484375 
Q 26.265625 48.484375 22.1875 42.84375 
Q 18.109375 37.203125 18.109375 27.296875 
Q 18.109375 17.390625 22.1875 11.75 
Q 26.265625 6.109375 33.40625 6.109375 
Q 40.53125 6.109375 44.609375 11.75 
Q 48.6875 17.390625 48.6875 27.296875 
z
" id="DejaVuSans-112"/>
     <path d="M 41.109375 46.296875 
Q 39.59375 47.171875 37.8125 47.578125 
Q 36.03125 48 33.890625 48 
Q 26.265625 48 22.1875 43.046875 
Q 18.109375 38.09375 18.109375 28.8125 
L 18.109375 0 
L 9.078125 0 
L 9.078125 54.6875 
L 18.109375 54.6875 
L 18.109375 46.1875 
Q 20.953125 51.171875 25.484375 53.578125 
Q 30.03125 56 36.53125 56 
Q 37.453125 56 38.578125 55.875 
Q 39.703125 55.765625 41.0625 55.515625 
z
" id="DejaVuSans-114"/>
     <path d="M 9.421875 54.6875 
L 18.40625 54.6875 
L 18.40625 -0.984375 
Q 18.40625 -11.421875 14.421875 -16.109375 
Q 10.453125 -20.796875 1.609375 -20.796875 
L -1.8125 -20.796875 
L -1.8125 -13.1875 
L 0.59375 -13.1875 
Q 5.71875 -13.1875 7.5625 -10.8125 
Q 9.421875 -8.453125 9.421875 -0.984375 
z
M 9.421875 75.984375 
L 18.40625 75.984375 
L 18.40625 64.59375 
L 9.421875 64.59375 
z
" id="DejaVuSans-106"/>
     <path d="M 48.78125 52.59375 
L 48.78125 44.1875 
Q 44.96875 46.296875 41.140625 47.34375 
Q 37.3125 48.390625 33.40625 48.390625 
Q 24.65625 48.390625 19.8125 42.84375 
Q 14.984375 37.3125 14.984375 27.296875 
Q 14.984375 17.28125 19.8125 11.734375 
Q 24.65625 6.203125 33.40625 6.203125 
Q 37.3125 6.203125 41.140625 7.25 
Q 44.96875 8.296875 48.78125 10.40625 
L 48.78125 2.09375 
Q 45.015625 0.34375 40.984375 -0.53125 
Q 36.96875 -1.421875 32.421875 -1.421875 
Q 20.0625 -1.421875 12.78125 6.34375 
Q 5.515625 14.109375 5.515625 27.296875 
Q 5.515625 40.671875 12.859375 48.328125 
Q 20.21875 56 33.015625 56 
Q 37.15625 56 41.109375 55.140625 
Q 45.0625 54.296875 48.78125 52.59375 
z
" id="DejaVuSans-99"/>
     <path d="M 18.3125 70.21875 
L 18.3125 54.6875 
L 36.8125 54.6875 
L 36.8125 47.703125 
L 18.3125 47.703125 
L 18.3125 18.015625 
Q 18.3125 11.328125 20.140625 9.421875 
Q 21.96875 7.515625 27.59375 7.515625 
L 36.8125 7.515625 
L 36.8125 0 
L 27.59375 0 
Q 17.1875 0 13.234375 3.875 
Q 9.28125 7.765625 9.28125 18.015625 
L 9.28125 47.703125 
L 2.6875 47.703125 
L 2.6875 54.6875 
L 9.28125 54.6875 
L 9.28125 70.21875 
z
" id="DejaVuSans-116"/>
    </defs>
    <g transform="translate(193.976712 18.64)scale(0.096 -0.096)">
     <use transform="translate(0 0.015625)" xlink:href="#DejaVuSans-916"/>
     <use transform="translate(68.408203 0.015625)" xlink:href="#DejaVuSans-Oblique-956"/>
     <use transform="translate(132.03125 0.015625)" xlink:href="#DejaVuSans-32"/>
     <use transform="translate(163.818359 0.015625)" xlink:href="#DejaVuSans-112"/>
     <use transform="translate(227.294922 0.015625)" xlink:href="#DejaVuSans-114"/>
     <use transform="translate(268.408203 0.015625)" xlink:href="#DejaVuSans-111"/>
     <use transform="translate(329.589844 0.015625)" xlink:href="#DejaVuSans-106"/>
     <use transform="translate(357.373047 0.015625)" xlink:href="#DejaVuSans-101"/>
     <use transform="translate(418.896484 0.015625)" xlink:href="#DejaVuSans-99"/>
     <use transform="translate(473.876953 0.015625)" xlink:href="#DejaVuSans-116"/>
     <use transform="translate(513.085938 0.015625)" xlink:href="#DejaVuSans-105"/>
     <use transform="translate(540.869141 0.015625)" xlink:href="#DejaVuSans-111"/>
     <use transform="translate(602.050781 0.015625)" xlink:href="#DejaVuSans-110"/>
    </g>
   </g>
  </g>
  <g id="axes_3">
   <g id="patch_10">
    <path d="M 310.671667 102.36 
L 418.124424 102.36 
L 418.124424 24.64 
L 310.671667 24.64 
z
" style="fill:#ffffff;"/>
   </g>
   <g id="patch_11">
    <path clip-path="url(#p8dd8f126b0)" d="M 315.555883 102.36 
L 315.555883 102.36 
L 320.697163 102.36 
L 320.697163 102.36 
L 325.838443 102.36 
L 325.838443 102.36 
L 330.979724 102.36 
L 330.979724 102.36 
L 336.121004 102.36 
L 336.121004 102.36 
L 341.262284 102.36 
L 341.262284 102.36 
L 346.403565 102.36 
L 346.403565 102.36 
L 351.544845 102.36 
L 351.544845 93.107619 
L 356.686125 93.107619 
L 356.686125 93.107619 
L 361.827405 93.107619 
L 361.827405 65.350476 
L 366.968686 65.350476 
L 366.968686 28.340952 
L 372.109966 28.340952 
L 372.109966 42.219524 
L 377.251246 42.219524 
L 377.251246 88.481429 
L 382.392527 88.481429 
L 382.392527 102.36 
L 387.533807 102.36 
L 387.533807 102.36 
L 392.675087 102.36 
L 392.675087 102.36 
L 397.816367 102.36 
L 397.816367 102.36 
L 402.957648 102.36 
L 402.957648 102.36 
L 408.098928 102.36 
L 408.098928 102.36 
L 413.240208 102.36 
L 413.240208 102.36 
L 408.098928 102.36 
L 408.098928 102.36 
L 402.957648 102.36 
L 402.957648 102.36 
L 397.816367 102.36 
L 397.816367 102.36 
L 392.675087 102.36 
L 392.675087 102.36 
L 387.533807 102.36 
L 387.533807 102.36 
L 382.392527 102.36 
L 382.392527 102.36 
L 377.251246 102.36 
L 377.251246 102.36 
L 372.109966 102.36 
L 372.109966 102.36 
L 366.968686 102.36 
L 366.968686 102.36 
L 361.827405 102.36 
L 361.827405 102.36 
L 356.686125 102.36 
L 356.686125 102.36 
L 351.544845 102.36 
L 351.544845 102.36 
L 346.403565 102.36 
L 346.403565 102.36 
L 341.262284 102.36 
L 341.262284 102.36 
L 336.121004 102.36 
L 336.121004 102.36 
L 330.979724 102.36 
L 330.979724 102.36 
L 325.838443 102.36 
L 325.838443 102.36 
L 320.697163 102.36 
L 320.697163 102.36 
z
" style="fill:#1f77b4;opacity:0.5;"/>
   </g>
   <g id="patch_12">
    <path clip-path="url(#p8dd8f126b0)" d="M 315.555883 102.36 
L 315.555883 102.36 
L 320.697163 102.36 
L 320.697163 102.36 
L 325.838443 102.36 
L 325.838443 102.36 
L 330.979724 102.36 
L 330.979724 102.36 
L 336.121004 102.36 
L 336.121004 102.36 
L 341.262284 102.36 
L 341.262284 79.229048 
L 346.403565 79.229048 
L 346.403565 60.724286 
L 351.544845 60.724286 
L 351.544845 37.593333 
L 356.686125 37.593333 
L 356.686125 51.471905 
L 361.827405 51.471905 
L 361.827405 97.73381 
L 366.968686 97.73381 
L 366.968686 97.73381 
L 372.109966 97.73381 
L 372.109966 102.36 
L 377.251246 102.36 
L 377.251246 102.36 
L 382.392527 102.36 
L 382.392527 102.36 
L 387.533807 102.36 
L 387.533807 102.36 
L 392.675087 102.36 
L 392.675087 102.36 
L 397.816367 102.36 
L 397.816367 102.36 
L 402.957648 102.36 
L 402.957648 102.36 
L 408.098928 102.36 
L 408.098928 102.36 
L 413.240208 102.36 
L 413.240208 102.36 
L 408.098928 102.36 
L 408.098928 102.36 
L 402.957648 102.36 
L 402.957648 102.36 
L 397.816367 102.36 
L 397.816367 102.36 
L 392.675087 102.36 
L 392.675087 102.36 
L 387.533807 102.36 
L 387.533807 102.36 
L 382.392527 102.36 
L 382.392527 102.36 
L 377.251246 102.36 
L 377.251246 102.36 
L 372.109966 102.36 
L 372.109966 102.36 
L 366.968686 102.36 
L 366.968686 102.36 
L 361.827405 102.36 
L 361.827405 102.36 
L 356.686125 102.36 
L 356.686125 102.36 
L 351.544845 102.36 
L 351.544845 102.36 
L 346.403565 102.36 
L 346.403565 102.36 
L 341.262284 102.36 
L 341.262284 102.36 
L 336.121004 102.36 
L 336.121004 102.36 
L 330.979724 102.36 
L 330.979724 102.36 
L 325.838443 102.36 
L 325.838443 102.36 
L 320.697163 102.36 
L 320.697163 102.36 
z
" style="fill:#ff7f0e;opacity:0.5;"/>
   </g>
   <g id="matplotlib.axis_5">
    <g id="xtick_7">
     <g id="line2d_16">
      <g>
       <use style="stroke:#000000;stroke-width:0.8;" x="315.555883" xlink:href="#m19bef32e24" y="102.36"/>
      </g>
     </g>
     <g id="text_17">
      <!-- −10 -->
      <g transform="translate(307.114008 115.43875)scale(0.08 -0.08)">
       <use xlink:href="#DejaVuSans-8722"/>
       <use x="83.789062" xlink:href="#DejaVuSans-49"/>
       <use x="147.412109" xlink:href="#DejaVuSans-48"/>
      </g>
     </g>
    </g>
    <g id="xtick_8">
     <g id="line2d_17">
      <g>
       <use style="stroke:#000000;stroke-width:0.8;" x="366.968686" xlink:href="#m19bef32e24" y="102.36"/>
      </g>
     </g>
     <g id="text_18">
      <!-- 0 -->
      <g transform="translate(364.423686 115.43875)scale(0.08 -0.08)">
       <use xlink:href="#DejaVuSans-48"/>
      </g>
     </g>
    </g>
    <g id="xtick_9">
     <g id="line2d_18">
      <g>
       <use style="stroke:#000000;stroke-width:0.8;" x="418.381488" xlink:href="#m19bef32e24" y="102.36"/>
      </g>
     </g>
     <g id="text_19">
      <!-- 10 -->
      <g transform="translate(413.291488 115.43875)scale(0.08 -0.08)">
       <use xlink:href="#DejaVuSans-49"/>
       <use x="63.623047" xlink:href="#DejaVuSans-48"/>
      </g>
     </g>
    </g>
   </g>
   <g id="matplotlib.axis_6">
    <g id="ytick_8">
     <g id="line2d_19">
      <g>
       <use style="stroke:#000000;stroke-width:0.8;" x="310.671667" xlink:href="#mf1b4d58824" y="102.36"/>
      </g>
     </g>
     <g id="text_20">
      <!-- 0 -->
      <g transform="translate(298.581667 105.399375)scale(0.08 -0.08)">
       <use xlink:href="#DejaVuSans-48"/>
      </g>
     </g>
    </g>
    <g id="ytick_9">
     <g id="line2d_20">
      <g>
       <use style="stroke:#000000;stroke-width:0.8;" x="310.671667" xlink:href="#mf1b4d58824" y="79.229048"/>
      </g>
     </g>
     <g id="text_21">
      <!-- 5 -->
      <g transform="translate(298.581667 82.268423)scale(0.08 -0.08)">
       <use xlink:href="#DejaVuSans-53"/>
      </g>
     </g>
    </g>
    <g id="ytick_10">
     <g id="line2d_21">
      <g>
       <use style="stroke:#000000;stroke-width:0.8;" x="310.671667" xlink:href="#mf1b4d58824" y="56.098095"/>
      </g>
     </g>
     <g id="text_22">
      <!-- 10 -->
      <g transform="translate(293.491667 59.13747)scale(0.08 -0.08)">
       <use xlink:href="#DejaVuSans-49"/>
       <use x="63.623047" xlink:href="#DejaVuSans-48"/>
      </g>
     </g>
    </g>
    <g id="ytick_11">
     <g id="line2d_22">
      <g>
       <use style="stroke:#000000;stroke-width:0.8;" x="310.671667" xlink:href="#mf1b4d58824" y="32.967143"/>
      </g>
     </g>
     <g id="text_23">
      <!-- 15 -->
      <g transform="translate(293.491667 36.006518)scale(0.08 -0.08)">
       <use xlink:href="#DejaVuSans-49"/>
       <use x="63.623047" xlink:href="#DejaVuSans-53"/>
      </g>
     </g>
    </g>
   </g>
   <g id="patch_13">
    <path d="M 310.671667 102.36 
L 310.671667 24.64 
" style="fill:none;stroke:#000000;stroke-linecap:square;stroke-linejoin:miter;stroke-width:0.8;"/>
   </g>
   <g id="patch_14">
    <path d="M 310.671667 102.36 
L 418.124424 102.36 
" style="fill:none;stroke:#000000;stroke-linecap:square;stroke-linejoin:miter;stroke-width:0.8;"/>
   </g>
   <g id="text_24">
    <!-- $w_{opt}$ projection -->
    <defs>
     <path d="M 8.5 54.6875 
L 17.390625 54.6875 
L 19.671875 10.6875 
L 40.09375 54.6875 
L 50.484375 54.6875 
L 53.515625 10.6875 
L 72.90625 54.6875 
L 81.890625 54.6875 
L 56.890625 0 
L 46.390625 0 
L 43.703125 45.3125 
L 22.796875 0 
L 12.203125 0 
z
" id="DejaVuSans-Oblique-119"/>
     <path d="M 25.390625 -1.421875 
Q 15.765625 -1.421875 10.171875 4.515625 
Q 4.59375 10.453125 4.59375 20.703125 
Q 4.59375 26.65625 6.515625 32.828125 
Q 8.453125 39.015625 11.53125 43.21875 
Q 16.359375 49.75 22.3125 52.875 
Q 28.265625 56 35.796875 56 
Q 45.125 56 50.859375 50.1875 
Q 56.59375 44.390625 56.59375 35.015625 
Q 56.59375 28.515625 54.6875 22.0625 
Q 52.78125 15.625 49.703125 11.375 
Q 44.921875 4.828125 38.96875 1.703125 
Q 33.015625 -1.421875 25.390625 -1.421875 
z
M 13.921875 21 
Q 13.921875 13.578125 17.015625 9.890625 
Q 20.125 6.203125 26.421875 6.203125 
Q 35.453125 6.203125 41.375 14.078125 
Q 47.3125 21.96875 47.3125 34.078125 
Q 47.3125 41.15625 44.140625 44.765625 
Q 40.96875 48.390625 34.8125 48.390625 
Q 29.734375 48.390625 25.78125 46.015625 
Q 21.828125 43.65625 18.703125 38.8125 
Q 16.40625 35.203125 15.15625 30.5625 
Q 13.921875 25.921875 13.921875 21 
z
" id="DejaVuSans-Oblique-111"/>
     <path d="M 49.609375 33.6875 
Q 49.609375 40.875 46.484375 44.671875 
Q 43.359375 48.484375 37.5 48.484375 
Q 33.5 48.484375 29.859375 46.4375 
Q 26.21875 44.390625 23.390625 40.484375 
Q 20.609375 36.625 18.9375 31.15625 
Q 17.28125 25.6875 17.28125 20.3125 
Q 17.28125 13.484375 20.40625 9.796875 
Q 23.53125 6.109375 29.296875 6.109375 
Q 33.546875 6.109375 37.1875 8.109375 
Q 40.828125 10.109375 43.40625 13.921875 
Q 46.1875 17.921875 47.890625 23.34375 
Q 49.609375 28.765625 49.609375 33.6875 
z
M 21.78125 46.390625 
Q 25.390625 51.125 30.296875 53.5625 
Q 35.203125 56 41.21875 56 
Q 49.609375 56 54.25 50.5 
Q 58.890625 45.015625 58.890625 35.109375 
Q 58.890625 27 56 19.65625 
Q 53.125 12.3125 47.703125 6.5 
Q 44.09375 2.640625 39.546875 0.609375 
Q 35.015625 -1.421875 29.984375 -1.421875 
Q 24.171875 -1.421875 20.21875 1 
Q 16.265625 3.421875 14.3125 8.203125 
L 8.6875 -20.796875 
L -0.296875 -20.796875 
L 14.40625 54.6875 
L 23.390625 54.6875 
z
" id="DejaVuSans-Oblique-112"/>
     <path d="M 42.28125 54.6875 
L 40.921875 47.703125 
L 23 47.703125 
L 17.1875 18.015625 
Q 16.890625 16.359375 16.75 15.234375 
Q 16.609375 14.109375 16.609375 13.484375 
Q 16.609375 10.359375 18.484375 8.9375 
Q 20.359375 7.515625 24.515625 7.515625 
L 33.59375 7.515625 
L 32.078125 0 
L 23.484375 0 
Q 15.484375 0 11.546875 3.125 
Q 7.625 6.25 7.625 12.59375 
Q 7.625 13.71875 7.765625 15.0625 
Q 7.90625 16.40625 8.203125 18.015625 
L 14.015625 47.703125 
L 6.390625 47.703125 
L 7.8125 54.6875 
L 15.28125 54.6875 
L 18.3125 70.21875 
L 27.296875 70.21875 
L 24.3125 54.6875 
z
" id="DejaVuSans-Oblique-116"/>
    </defs>
    <g transform="translate(329.214046 18.64)scale(0.096 -0.096)">
     <use transform="translate(0 0.015625)" xlink:href="#DejaVuSans-Oblique-119"/>
     <use transform="translate(81.787109 -16.390625)scale(0.7)" xlink:href="#DejaVuSans-Oblique-111"/>
     <use transform="translate(124.614258 -16.390625)scale(0.7)" xlink:href="#DejaVuSans-Oblique-112"/>
     <use transform="translate(169.047852 -16.390625)scale(0.7)" xlink:href="#DejaVuSans-Oblique-116"/>
     <use transform="translate(199.228516 0.015625)" xlink:href="#DejaVuSans-32"/>
     <use transform="translate(231.015625 0.015625)" xlink:href="#DejaVuSans-112"/>
     <use transform="translate(294.492188 0.015625)" xlink:href="#DejaVuSans-114"/>
     <use transform="translate(335.605469 0.015625)" xlink:href="#DejaVuSans-111"/>
     <use transform="translate(396.787109 0.015625)" xlink:href="#DejaVuSans-106"/>
     <use transform="translate(424.570312 0.015625)" xlink:href="#DejaVuSans-101"/>
     <use transform="translate(486.09375 0.015625)" xlink:href="#DejaVuSans-99"/>
     <use transform="translate(541.074219 0.015625)" xlink:href="#DejaVuSans-116"/>
     <use transform="translate(580.283203 0.015625)" xlink:href="#DejaVuSans-105"/>
     <use transform="translate(608.066406 0.015625)" xlink:href="#DejaVuSans-111"/>
     <use transform="translate(669.248047 0.015625)" xlink:href="#DejaVuSans-110"/>
    </g>
   </g>
  </g>
 </g>
 <defs>
  <clipPath id="p9a7605e388">
   <rect height="77.72" width="107.452758" x="33.765" y="24.64"/>
  </clipPath>
  <clipPath id="p2988385f2a">
   <rect height="77.72" width="107.452758" x="172.218333" y="24.64"/>
  </clipPath>
  <clipPath id="p8dd8f126b0">
   <rect height="77.72" width="107.452758" x="310.671667" y="24.64"/>
  </clipPath>
 </defs>
</svg>
