<?xml version="1.0" encoding="UTF-8" standalone="no"?>
<svg
   width="6.6999998in"
   height="3in"
   viewBox="0 0 482.39999 216"
   version="1.1"
   id="svg1403"
   sodipodi:docname="fig1.svg"
   inkscape:version="1.1.2 (1:1.1+202202050950+0a00cf5339)"
   xmlns:inkscape="http://www.inkscape.org/namespaces/inkscape"
   xmlns:sodipodi="http://sodipodi.sourceforge.net/DTD/sodipodi-0.dtd"
   xmlns="http://www.w3.org/2000/svg"
   xmlns:svg="http://www.w3.org/2000/svg"
   xmlns:rdf="http://www.w3.org/1999/02/22-rdf-syntax-ns#"
   xmlns:cc="http://creativecommons.org/ns#"
   xmlns:dc="http://purl.org/dc/elements/1.1/">
  <sodipodi:namedview
     id="namedview1405"
     pagecolor="#ffffff"
     bordercolor="#000000"
     borderopacity="1"
     inkscape:pageshadow="0"
     inkscape:pageopacity="0"
     inkscape:pagecheckerboard="0"
     inkscape:document-units="pt"
     showgrid="false"
     showborder="true"
     borderlayer="true"
     units="in"
     inkscape:zoom="1.0859375"
     inkscape:cx="330.1295"
     inkscape:cy="186.93526"
     inkscape:window-width="1920"
     inkscape:window-height="1043"
     inkscape:window-x="0"
     inkscape:window-y="0"
     inkscape:window-maximized="1"
     inkscape:current-layer="svg1403" />
  <metadata
     id="metadata1130">
    <rdf:RDF>
      <cc:Work>
        <dc:type
           rdf:resource="http://purl.org/dc/dcmitype/StillImage" />
        <dc:date>2022-05-16T13:16:01.869671</dc:date>
        <dc:format>image/svg+xml</dc:format>
        <dc:creator>
          <cc:Agent>
            <dc:title>Matplotlib v3.5.2, https://matplotlib.org/</dc:title>
          </cc:Agent>
        </dc:creator>
      </cc:Work>
    </rdf:RDF>
  </metadata>
  <defs
     id="defs1134">
    <marker
       style="overflow:visible"
       id="Arrow1Mend"
       refX="0"
       refY="0"
       orient="auto"
       inkscape:stockid="Arrow1Mend"
       inkscape:isstock="true">
      <path
         transform="matrix(-0.4,0,0,-0.4,-4,0)"
         style="fill:context-stroke;fill-rule:evenodd;stroke:context-stroke;stroke-width:1pt"
         d="M 0,0 5,-5 -12.5,0 5,5 Z"
         id="path63901" />
    </marker>
    <marker
       style="overflow:visible"
       id="Arrow1Mstart"
       refX="0"
       refY="0"
       orient="auto"
       inkscape:stockid="Arrow1Mstart"
       inkscape:isstock="true">
      <path
         transform="matrix(0.4,0,0,0.4,4,0)"
         style="fill:context-stroke;fill-rule:evenodd;stroke:context-stroke;stroke-width:1pt"
         d="M 0,0 5,-5 -12.5,0 5,5 Z"
         id="path63898" />
    </marker>
    <marker
       style="overflow:visible"
       id="Arrow1Lend"
       refX="0"
       refY="0"
       orient="auto"
       inkscape:stockid="Arrow1Lend"
       inkscape:isstock="true">
      <path
         transform="matrix(-0.8,0,0,-0.8,-10,0)"
         style="fill:context-stroke;fill-rule:evenodd;stroke:context-stroke;stroke-width:1pt"
         d="M 0,0 5,-5 -12.5,0 5,5 Z"
         id="path63895" />
    </marker>
    <marker
       style="overflow:visible"
       id="Arrow1Lstart"
       refX="0"
       refY="0"
       orient="auto"
       inkscape:stockid="Arrow1Lstart"
       inkscape:isstock="true">
      <path
         transform="matrix(0.8,0,0,0.8,10,0)"
         style="fill:context-stroke;fill-rule:evenodd;stroke:context-stroke;stroke-width:1pt"
         d="M 0,0 5,-5 -12.5,0 5,5 Z"
         id="path63892" />
    </marker>
    <style
       type="text/css"
       id="style1132">*{stroke-linejoin: round; stroke-linecap: butt}</style>
  </defs>
  <g
     id="matplotlib.axis_1" />
  <g
     id="matplotlib.axis_2" />
  <g
     id="matplotlib.axis_3" />
  <g
     id="matplotlib.axis_4" />
  <g
     id="matplotlib.axis_5" />
  <g
     id="matplotlib.axis_6" />
  <g
     id="matplotlib.axis_7" />
  <g
     id="matplotlib.axis_8" />
  <g
     id="g1255"
     transform="matrix(0.75,0,0,0.75,19.64192,-31.266268)">
    <g
       id="line2d_31"
       transform="translate(1.9376781,22.233997)">
      <path
         d="m 26.516629,227.73545 17.184905,-0.11263 4.854493,-0.25081 3.301056,-0.38128 2.621426,-0.5137 2.330157,-0.68178 2.038887,-0.82162 1.941797,-1.01873 1.844707,-1.2123 1.844708,-1.47292 1.941797,-1.84413 2.038887,-2.2549 2.330156,-2.9335 3.009786,-4.18732 5.048673,-7.06207 2.038887,-2.4403 1.650528,-1.64033 1.456347,-1.13611 1.262169,-0.71594 1.165078,-0.42156 1.165078,-0.18166 1.067989,0.0479 1.165078,0.28511 1.165078,0.52149 1.262169,0.81759 1.359258,1.14967 1.553437,1.61172 1.844708,2.2443 2.524336,3.45335 6.407926,8.93415 2.33016,2.78084 2.03889,2.09961 1.9418,1.69094 1.94179,1.39473 1.9418,1.11912 2.03889,0.91218 2.13597,0.71154 2.42725,0.56685 2.81561,0.41953 3.49523,0.28692 5.04867,0.17027 1.16508,0.0179 v 0"
         clip-path="url(#pff5b9a09b1)"
         style="fill:none;stroke:#1f77b4;stroke-width:1.5;stroke-linecap:square"
         id="path1270" />
    </g>
    <g
       id="line2d_32"
       transform="translate(1.9376781,22.233997)">
      <path
         d="m 18.002727,227.7332 12.815862,-0.12317 4.563223,-0.25642 3.203966,-0.39153 2.621426,-0.54236 2.233067,-0.68699 2.038887,-0.86057 1.941797,-1.06913 1.844707,-1.27328 1.844708,-1.54656 1.941797,-1.93347 2.038887,-2.35711 2.330157,-3.05067 3.301055,-4.74032 4.077774,-5.79142 2.038887,-2.50126 1.650528,-1.68 1.359258,-1.09309 1.262168,-0.74718 1.165078,-0.44207 1.067989,-0.18683 1.067988,0.0261 1.067989,0.2385 1.165078,0.49659 1.262168,0.80264 1.359258,1.147 1.553438,1.62398 1.844707,2.27604 2.524337,3.5159 6.310841,8.96327 2.233066,2.71616 2.038887,2.14114 1.941798,1.71867 1.844707,1.3479 1.9418,1.14001 1.94179,0.88614 2.13598,0.72709 2.33016,0.55658 2.71851,0.41811 3.39815,0.29058 4.85449,0.17336 0.77672,0.0135 v 0"
         clip-path="url(#pff5b9a09b1)"
         style="fill:none;stroke:#ff7f0e;stroke-width:1.5;stroke-linecap:square"
         id="path1273" />
    </g>
    <g
       id="patch_13"
       transform="translate(1.9376781,22.233997)"
       style="stroke:#000000;stroke-opacity:1">
      <path
         d="M 12.14,229.3 H 141.12"
         style="fill:none;stroke:#000000;stroke-width:0.8;stroke-linecap:square;stroke-linejoin:miter;stroke-opacity:1"
         id="path1279" />
    </g>
  </g>
  <g
     id="matplotlib.axis_9" />
  <g
     id="matplotlib.axis_10" />
  <g
     id="g1263"
     transform="matrix(0.75,0,0,0.75,19.64192,-45.501114)">
    <g
       id="line2d_33"
       transform="translate(1.9376781,44.733997)">
      <path
         d="m 26.434253,274.29545 17.310543,-0.11389 4.862512,-0.25342 3.306508,-0.385 2.625757,-0.51842 2.334006,-0.68769 2.042255,-0.82827 1.945005,-1.02641 1.847754,-1.22073 1.847755,-1.48223 1.945004,-1.85448 2.042256,-2.26566 2.334005,-2.94448 3.014758,-4.19678 4.959762,-6.93206 2.042255,-2.44755 1.653254,-1.64722 1.458754,-1.14265 1.264253,-0.72175 1.167003,-0.42687 1.167003,-0.1868 1.069752,0.0435 1.167003,0.28067 1.167003,0.51755 1.264253,0.81399 1.361504,1.14661 1.556004,1.6093 1.847754,2.24289 2.528506,3.4537 6.515766,9.06545 2.33401,2.76852 2.04225,2.0868 1.94501,1.67812 1.945,1.38216 1.94501,1.10744 2.04225,0.90132 2.13951,0.70198 2.43125,0.55829 2.82026,0.41237 3.59826,0.28663 5.15426,0.16441 0.778,0.0116 v 0"
         clip-path="url(#p5390d30768)"
         style="fill:none;stroke:#1f77b4;stroke-width:1.5;stroke-linecap:square"
         id="path1288" />
    </g>
    <g
       id="line2d_34"
       transform="translate(1.9376781,44.733997)">
      <path
         d="m 18.002727,274.29318 12.739782,-0.12058 4.668011,-0.261 3.209258,-0.39391 2.625757,-0.54576 2.236755,-0.69129 2.042255,-0.86588 1.945005,-1.07554 1.847755,-1.28061 1.847754,-1.55495 1.945005,-1.94312 2.042255,-2.36755 2.334006,-3.06177 3.306508,-4.75122 3.98726,-5.66185 2.042255,-2.51137 1.653254,-1.68919 1.361504,-1.10091 1.264253,-0.75436 1.167003,-0.44839 1.069752,-0.19221 1.069753,0.0212 1.069753,0.23422 1.167002,0.49272 1.264254,0.79943 1.361503,1.14472 1.556004,1.62282 1.847754,2.27645 2.431256,3.37828 6.515767,9.24159 2.236755,2.70389 2.042255,2.12724 1.945005,1.70438 1.847755,1.33433 1.945,1.12653 1.94501,0.87404 2.1395,0.71573 2.33401,0.54668 2.82026,0.42072 3.50101,0.28358 5.05701,0.16452 0.389,0.006 v 0"
         clip-path="url(#p5390d30768)"
         style="fill:none;stroke:#ff7f0e;stroke-width:1.5;stroke-linecap:square"
         id="path1291" />
    </g>
    <g
       id="patch_16"
       transform="translate(1.9376781,44.733997)">
      <path
         d="M 12.14,275.86 H 141.12"
         style="fill:none;stroke:#000000;stroke-width:0.8;stroke-linecap:square;stroke-linejoin:miter"
         id="path1297" />
    </g>
  </g>
  <g
     id="matplotlib.axis_11" />
  <g
     id="matplotlib.axis_12" />
  <g
     id="g1247"
     transform="matrix(0.75,0,0,0.75,29.42192,-31.266962)">
    <g
       id="line2d_35"
       transform="translate(1.9376781,22.233997)">
      <path
         d="m 188.43968,227.72939 9.38768,-0.13203 3.8317,-0.25972 2.68219,-0.38106 2.29902,-0.54583 1.91586,-0.67349 1.72426,-0.82455 1.72427,-1.07344 1.72426,-1.35843 1.72427,-1.66975 1.72427,-1.99136 1.91585,-2.57454 2.29902,-3.51148 7.47182,-11.85218 1.53268,-1.82266 1.3411,-1.24342 1.14951,-0.76445 0.95793,-0.40646 0.95792,-0.18742 0.95793,0.0356 0.95792,0.25791 0.95793,0.4747 1.14951,0.84138 1.14951,1.11368 1.3411,1.59961 1.72427,2.43581 2.29902,3.67371 5.1728,8.40025 2.10743,2.94404 1.91585,2.28736 1.72427,1.7198 1.72427,1.40567 1.72426,1.11575 1.72427,0.86082 1.91585,0.70627 2.10744,0.53668 2.49061,0.39837 3.25694,0.27463 4.78963,0.14982 0.38317,0.005 v 0"
         clip-path="url(#p6ec8572159)"
         style="fill:none;stroke:#1f77b4;stroke-width:1.5;stroke-linecap:square"
         id="path1306" />
    </g>
    <g
       id="line2d_36"
       transform="translate(1.9376781,22.233997)">
      <path
         d="m 159.12273,227.73545 16.09315,-0.10941 4.21487,-0.24633 2.87378,-0.37823 2.29902,-0.51709 1.91585,-0.63999 1.72427,-0.78594 1.72427,-1.02649 1.72426,-1.30371 1.72427,-1.60892 1.72427,-1.92739 1.91585,-2.50513 2.10744,-3.13952 3.25694,-5.33206 3.25695,-5.22321 1.72427,-2.39413 1.53268,-1.75942 1.3411,-1.18178 1.14951,-0.70905 0.95792,-0.35984 0.95793,-0.1415 0.95792,0.0798 0.95793,0.29949 0.95792,0.51282 1.14952,0.88159 1.34109,1.36178 1.53268,1.92944 1.91585,2.83149 3.06537,5.02411 3.44853,5.53734 2.10744,2.98174 1.91585,2.33203 1.72426,1.76394 1.72427,1.45003 1.72427,1.15769 1.72426,0.8985 1.91586,0.74189 2.10743,0.56785 2.49061,0.42508 3.06536,0.28442 4.40646,0.16553 1.3411,0.0217 v 0"
         clip-path="url(#p6ec8572159)"
         style="fill:none;stroke:#ff7f0e;stroke-width:1.5;stroke-linecap:square"
         id="path1309" />
    </g>
    <g
       id="patch_19"
       transform="translate(1.9376781,22.233997)"
       style="stroke:#000000;stroke-opacity:1">
      <path
         d="M 153.26,229.3 H 282.24"
         style="fill:none;stroke:#000000;stroke-width:0.8;stroke-linecap:square;stroke-linejoin:miter;stroke-opacity:1"
         id="path1315" />
    </g>
  </g>
  <g
     id="matplotlib.axis_13" />
  <g
     id="matplotlib.axis_14" />
  <g
     id="g1271"
     transform="matrix(0.75,0,0,0.75,29.42192,-45.501976)">
    <g
       id="line2d_37"
       transform="translate(1.9376781,44.733997)">
      <path
         d="m 172.7772,274.29545 11.81846,-0.12354 4.52622,-0.25997 3.1432,-0.39152 2.51457,-0.52503 2.2631,-0.70184 2.01166,-0.85908 1.88592,-1.04788 1.88592,-1.31611 1.88593,-1.60838 1.88592,-1.91063 2.01165,-2.36026 2.38884,-3.1763 3.39466,-4.94588 3.77185,-5.40396 2.01165,-2.49528 1.63447,-1.68224 1.38301,-1.12003 1.25728,-0.74282 1.13155,-0.42601 1.13156,-0.18584 1.13155,0.0587 1.13156,0.30182 1.13155,0.53793 1.25728,0.85932 1.38301,1.23508 1.50874,1.6466 1.88593,2.4037 2.64029,3.76784 5.40631,7.7925 2.26311,2.84097 2.01165,2.19032 1.88593,1.74292 1.88592,1.44415 1.88592,1.16382 1.88593,0.91297 2.01165,0.73741 2.26311,0.59293 2.64029,0.4528 3.26894,0.31938 4.52621,0.1948 5.65777,0.0725 v 0"
         clip-path="url(#p719bdaea18)"
         style="fill:none;stroke:#1f77b4;stroke-width:1.5;stroke-linecap:square"
         id="path1324" />
    </g>
    <g
       id="line2d_38"
       transform="translate(1.9376781,44.733997)">
      <path
         d="m 159.12273,274.28164 8.17233,-0.15065 4.14903,-0.28459 3.01748,-0.4187 2.51457,-0.57059 2.13738,-0.70513 2.01165,-0.89824 1.88592,-1.08799 1.88593,-1.35758 1.88592,-1.64861 1.88592,-1.94652 2.13738,-2.54922 2.38884,-3.21211 4.14903,-6.04568 3.01748,-4.20085 1.88592,-2.27038 1.63447,-1.62566 1.38301,-1.07002 1.25728,-0.69748 1.13156,-0.38661 1.13155,-0.14883 1.13155,0.0924 1.13156,0.33144 1.13155,0.56292 1.25729,0.88119 1.38301,1.25174 1.63446,1.80602 2.01165,2.59637 2.89175,4.14831 4.65195,6.65673 2.38884,3.00354 2.01165,2.19282 1.88592,1.75022 1.88593,1.45494 1.88592,1.17675 2.01165,0.98046 2.13738,0.77704 2.26311,0.58317 2.64029,0.44632 3.26894,0.31588 4.52621,0.19372 2.89175,0.0499 v 0"
         clip-path="url(#p719bdaea18)"
         style="fill:none;stroke:#ff7f0e;stroke-width:1.5;stroke-linecap:square"
         id="path1327" />
    </g>
    <g
       id="patch_22"
       transform="translate(1.9376781,44.733997)">
      <path
         d="M 153.26,275.86 H 282.24"
         style="fill:none;stroke:#000000;stroke-width:0.8;stroke-linecap:square;stroke-linejoin:miter"
         id="path1333" />
    </g>
  </g>
  <g
     id="matplotlib.axis_15" />
  <g
     id="matplotlib.axis_16" />
  <g
     id="g1239"
     transform="matrix(0.75,0,0,0.75,45.20192,-31.266899)">
    <g
       id="line2d_39"
       transform="translate(1.9376781,22.233997)">
      <path
         d="m 322.1548,227.73545 17.04668,-0.11082 4.16256,-0.2524 2.77505,-0.37792 2.18038,-0.50133 1.98218,-0.67977 1.78395,-0.84853 1.58574,-0.9823 1.58573,-1.22846 1.58574,-1.49779 1.78396,-2.02104 1.78395,-2.36883 2.18039,-3.30642 3.17148,-5.30437 3.17147,-5.20332 1.78396,-2.52829 1.38752,-1.62782 1.1893,-1.10025 1.1893,-0.78967 0.99109,-0.40146 0.99108,-0.15785 0.99109,0.0895 0.99109,0.33473 0.99108,0.57207 1.18931,0.98063 1.1893,1.27062 1.38752,1.79412 1.78395,2.68291 2.97326,4.96765 3.36969,5.55079 2.18039,3.16814 1.78396,2.23195 1.78395,1.87759 1.58574,1.37382 1.58574,1.11382 1.78395,0.97592 1.78396,0.72663 1.98217,0.57277 2.3786,0.44406 2.97326,0.3072 4.16256,0.1797 2.18039,0.0374 v 0"
         clip-path="url(#paa154e100c)"
         style="fill:none;stroke:#1f77b4;stroke-width:1.5;stroke-linecap:square"
         id="path1342" />
    </g>
    <g
       id="line2d_40"
       transform="translate(1.9376781,22.233997)">
      <path
         d="m 300.24273,227.73298 11.10016,-0.12258 3.96434,-0.26183 2.77504,-0.40271 2.18039,-0.53342 1.98218,-0.72173 1.78395,-0.89859 1.58574,-1.03724 1.58573,-1.2929 1.58574,-1.57028 1.78396,-2.10863 1.78395,-2.45673 2.18039,-3.40173 4.16256,-7.06329 2.37861,-3.77104 1.58574,-2.14329 1.38752,-1.52197 1.1893,-0.98772 0.99108,-0.57381 0.99109,-0.3324 0.99109,-0.083 0.99108,0.16836 0.99109,0.41568 0.99109,0.65308 1.1893,1.07501 1.38752,1.60968 1.58574,2.22109 2.18038,3.50349 5.94652,9.85075 1.98217,2.76151 1.78396,2.12062 1.78395,1.75867 1.58574,1.2695 1.78395,1.12686 1.78396,0.84992 1.98217,0.67849 2.18039,0.49816 2.57682,0.35382 3.3697,0.22935 0.99108,0.0371 v 0"
         clip-path="url(#paa154e100c)"
         style="fill:none;stroke:#ff7f0e;stroke-width:1.5;stroke-linecap:square"
         id="path1345" />
    </g>
    <g
       id="patch_25"
       transform="translate(1.9376781,22.233997)"
       style="stroke:#000000;stroke-opacity:1">
      <path
         d="M 294.38,229.3 H 423.36"
         style="fill:none;stroke:#000000;stroke-width:0.8;stroke-linecap:square;stroke-linejoin:miter;stroke-opacity:1"
         id="path1351" />
    </g>
  </g>
  <g
     id="matplotlib.axis_17" />
  <g
     id="matplotlib.axis_18" />
  <g
     id="g1279"
     transform="matrix(0.75,0,0,0.75,45.20192,-45.502183)">
    <g
       id="line2d_41"
       transform="translate(1.9376781,44.733997)">
      <path
         d="m 322.08564,274.29545 17.05905,-0.11077 4.16558,-0.25248 2.77705,-0.37815 2.18197,-0.50174 1.98361,-0.68039 1.78525,-0.84937 1.58689,-0.98333 1.58688,-1.22977 1.58689,-1.49938 1.78525,-2.02313 1.78525,-2.37112 2.18197,-3.30923 3.17378,-5.30748 3.17377,-5.2037 1.78525,-2.52672 1.38853,-1.62561 1.19016,-1.09767 1.19017,-0.78648 0.9918,-0.39842 0.99181,-0.15452 0.9918,0.0931 0.99181,0.33841 0.9918,0.5758 1.19017,0.98502 1.19017,1.27476 1.38852,1.79844 1.78525,2.68738 2.97542,4.97169 3.37213,5.55012 2.18197,3.16533 1.78525,2.22876 1.78525,1.87398 1.58689,1.37052 1.58689,1.11064 1.78525,0.97267 1.78524,0.7238 1.98361,0.57022 2.38034,0.44177 2.97541,0.30535 4.16558,0.17841 2.18197,0.0371 v 0"
         clip-path="url(#pb4fd9c8a4d)"
         style="fill:none;stroke:#1f77b4;stroke-width:1.5;stroke-linecap:square"
         id="path1360" />
    </g>
    <g
       id="line2d_42"
       transform="translate(1.9376781,44.733997)">
      <path
         d="m 300.24273,274.29293 10.90985,-0.11711 3.96722,-0.25268 2.77705,-0.39059 2.18197,-0.51925 1.98361,-0.70477 1.78525,-0.87991 1.58689,-1.01821 1.58689,-1.27219 1.58689,-1.54877 1.78525,-2.08507 1.78525,-2.43596 2.18197,-3.38371 3.57049,-6.05717 2.77706,-4.51166 1.78525,-2.46856 1.38852,-1.5535 1.19017,-1.01804 0.9918,-0.60064 0.99181,-0.35996 0.9918,-0.11064 0.99181,0.14135 0.9918,0.38992 0.99181,0.62915 1.19016,1.04944 1.38853,1.58503 1.58689,2.20062 1.98361,3.15732 6.74427,11.08664 1.98361,2.66 1.78525,2.02016 1.58689,1.49181 1.58689,1.21892 1.78524,1.07598 1.78525,0.80682 1.98361,0.6402 2.18197,0.46695 2.77706,0.34719 3.76886,0.21485 v 0"
         clip-path="url(#pb4fd9c8a4d)"
         style="fill:none;stroke:#ff7f0e;stroke-width:1.5;stroke-linecap:square"
         id="path1363" />
    </g>
    <g
       id="patch_28"
       transform="translate(1.9376781,44.733997)">
      <path
         d="M 294.38,275.86 H 423.36"
         style="fill:none;stroke:#000000;stroke-width:0.8;stroke-linecap:square;stroke-linejoin:miter"
         id="path1369" />
    </g>
  </g>
  <defs
     id="defs1401">
    <clipPath
       id="pb6799aacc2">
      <rect
         x="12.14"
         y="8.6400003"
         width="128.98"
         height="127.54"
         id="rect1374" />
    </clipPath>
    <clipPath
       id="pb237723868">
      <rect
         x="153.25999"
         y="8.6400003"
         width="128.98"
         height="127.54"
         id="rect1377" />
    </clipPath>
    <clipPath
       id="p4814dc419b">
      <rect
         x="294.38"
         y="8.6400003"
         width="128.98"
         height="127.54"
         id="rect1380" />
    </clipPath>
    <clipPath
       id="pff5b9a09b1">
      <rect
         x="12.14"
         y="194.88"
         width="128.98"
         height="34.419998"
         id="rect1383" />
    </clipPath>
    <clipPath
       id="p5390d30768">
      <rect
         x="12.14"
         y="241.44"
         width="128.98"
         height="34.419998"
         id="rect1386" />
    </clipPath>
    <clipPath
       id="p6ec8572159">
      <rect
         x="153.25999"
         y="194.88"
         width="128.98"
         height="34.419998"
         id="rect1389" />
    </clipPath>
    <clipPath
       id="p719bdaea18">
      <rect
         x="153.25999"
         y="241.44"
         width="128.98"
         height="34.419998"
         id="rect1392" />
    </clipPath>
    <clipPath
       id="paa154e100c">
      <rect
         x="294.38"
         y="194.88"
         width="128.98"
         height="34.419998"
         id="rect1395" />
    </clipPath>
    <clipPath
       id="pb4fd9c8a4d">
      <rect
         x="294.38"
         y="241.44"
         width="128.98"
         height="34.419998"
         id="rect1398" />
    </clipPath>
  </defs>
  <text
     xml:space="preserve"
     style="font-style:normal;font-weight:normal;font-size:8px;line-height:1.25;font-family:sans-serif;fill:#000000;fill-opacity:1;stroke:none;stroke-width:0.75;stroke-linecap:butt;stroke-linejoin:round"
     x="359.86023"
     y="182.4229"
     id="text3572-7"><tspan
       sodipodi:role="line"
       id="tspan3570-5"
       style="font-size:8px;stroke-width:0.75"
       x="359.86023"
       y="182.4229">Sub-optimal projection</tspan></text>
  <text
     xml:space="preserve"
     style="font-style:normal;font-weight:normal;font-size:8px;line-height:1.25;font-family:sans-serif;fill:#000000;fill-opacity:1;stroke:none;stroke-width:0.75;stroke-linecap:butt;stroke-linejoin:round"
     x="359.93835"
     y="146.09544"
     id="text3572-7-3"><tspan
       sodipodi:role="line"
       style="font-size:8px;stroke-width:0.75"
       x="359.93835"
       y="146.09544"
       id="tspan11401">Optimal projection</tspan></text>
  <text
     xml:space="preserve"
     style="font-style:normal;font-weight:normal;font-size:8px;line-height:1.25;font-family:sans-serif;fill:#000000;fill-opacity:1;stroke:none;stroke-width:0.75"
     x="170.63434"
     y="114.72531"
     id="text27075"><tspan
       sodipodi:role="line"
       id="tspan27073"
       style="font-size:8px;stroke-width:0.75"
       x="170.63434"
       y="114.72531">Neuron 1 (spks)</tspan></text>
  <text
     xml:space="preserve"
     style="font-style:normal;font-weight:normal;font-size:8px;line-height:1.25;font-family:sans-serif;fill:#000000;fill-opacity:1;stroke:none;stroke-width:0.75;stroke-linecap:butt;stroke-linejoin:round"
     x="46.759079"
     y="114.72531"
     id="text27075-3"><tspan
       sodipodi:role="line"
       id="tspan27073-6"
       style="font-size:8px;stroke-width:0.75"
       x="46.759079"
       y="114.72531">Neuron 1 (spks)</tspan></text>
  <text
     xml:space="preserve"
     style="font-style:normal;font-weight:normal;font-size:8px;line-height:1.25;font-family:sans-serif;fill:#000000;fill-opacity:1;stroke:none;stroke-width:0.75;stroke-linecap:butt;stroke-linejoin:round"
     x="283.99908"
     y="114.72531"
     id="text27075-7"><tspan
       sodipodi:role="line"
       id="tspan27073-5"
       style="font-size:8px;stroke-width:0.75"
       x="283.99908"
       y="114.72531">Neuron 1 (spks)</tspan></text>
  <text
     xml:space="preserve"
     style="font-style:normal;font-weight:normal;font-size:8px;line-height:1.25;font-family:sans-serif;fill:#000000;fill-opacity:1;stroke:none;stroke-width:0.75;stroke-linecap:butt;stroke-linejoin:round"
     x="-89.55307"
     y="24.860474"
     id="text27075-6"
     transform="rotate(-90)"><tspan
       sodipodi:role="line"
       id="tspan27073-2"
       style="font-size:8px;stroke-width:0.75"
       x="-89.55307"
       y="24.860474">Neuron 2 (spks)</tspan></text>
  <text
     xml:space="preserve"
     style="font-style:normal;font-weight:normal;font-size:8px;line-height:1.25;font-family:sans-serif;fill:#000000;fill-opacity:1;stroke:none;stroke-width:0.75;stroke-linecap:butt;stroke-linejoin:round"
     x="-89.55307"
     y="139.68057"
     id="text27075-6-3"
     transform="rotate(-90)"><tspan
       sodipodi:role="line"
       id="tspan27073-2-5"
       style="font-size:8px;stroke-width:0.75"
       x="-89.55307"
       y="139.68057">Neuron 2 (spks)</tspan></text>
  <text
     xml:space="preserve"
     style="font-style:normal;font-weight:normal;font-size:8px;line-height:1.25;font-family:sans-serif;fill:#000000;fill-opacity:1;stroke:none;stroke-width:0.75;stroke-linecap:butt;stroke-linejoin:round"
     x="-89.55307"
     y="260.72394"
     id="text27075-6-6"
     transform="rotate(-90)"><tspan
       sodipodi:role="line"
       id="tspan27073-2-2"
       style="font-size:8px;stroke-width:0.75"
       x="-89.55307"
       y="260.72394">Neuron 2 (spks)</tspan></text>
  <text
     xml:space="preserve"
     style="font-style:normal;font-weight:normal;font-size:6px;line-height:1.25;font-family:sans-serif;text-align:center;text-anchor:middle;fill:#000000;fill-opacity:1;stroke:none;stroke-width:0.75;stroke-linecap:butt;stroke-linejoin:round"
     x="399.81253"
     y="61.074028"
     id="text3572-3"><tspan
       sodipodi:role="line"
       style="font-size:6px;text-align:center;text-anchor:middle;stroke-width:0.75"
       x="399.81253"
       y="61.074028"
       id="tspan5851">sub-optimal</tspan><tspan
       sodipodi:role="line"
       style="font-size:6px;text-align:center;text-anchor:middle;stroke-width:0.75"
       x="399.81253"
       y="68.574028"
       id="tspan19561">discrimination boundary</tspan></text>
  <path
     style="fill:none;stroke:#808080;stroke-width:1.875;stroke-linecap:butt;stroke-linejoin:miter;stroke-miterlimit:4;stroke-dasharray:3.75, 1.875;stroke-dashoffset:0;stroke-opacity:1"
     d="m 451.95075,63.168755 h 24.21758"
     id="path40376" />
  <text
     xml:space="preserve"
     style="font-style:normal;font-weight:normal;font-size:6px;line-height:1.25;font-family:sans-serif;text-align:center;text-anchor:middle;fill:#000000;fill-opacity:1;stroke:none;stroke-width:0.75"
     x="401.98242"
     y="41.690971"
     id="text3572"><tspan
       sodipodi:role="line"
       id="tspan3570"
       style="font-size:6px;text-align:center;text-anchor:middle;stroke-width:0.75"
       x="401.98242"
       y="41.690971">optimal </tspan><tspan
       sodipodi:role="line"
       style="font-size:6px;text-align:center;text-anchor:middle;stroke-width:0.75"
       x="401.98242"
       y="49.190971"
       id="tspan25231">discrimination boundary</tspan></text>
  <path
     style="fill:none;stroke:#000000;stroke-width:1.875;stroke-linecap:butt;stroke-linejoin:miter;stroke-miterlimit:4;stroke-dasharray:3.75, 1.875;stroke-dashoffset:0;stroke-opacity:1"
     d="m 451.95074,43.785698 h 24.21759"
     id="path40376-9" />
  <text
     xml:space="preserve"
     style="font-style:normal;font-weight:normal;font-size:6px;line-height:1.25;font-family:sans-serif;text-align:center;text-anchor:middle;fill:#000000;fill-opacity:1;stroke:none;stroke-width:0.75;stroke-linecap:butt;stroke-linejoin:round"
     x="403.58121"
     y="29.807911"
     id="text3572-9-7"><tspan
       sodipodi:role="line"
       style="font-size:6px;text-align:center;text-anchor:middle;stroke-width:0.75"
       x="403.58121"
       y="29.807911"
       id="tspan40259">sub-optimal decoding axis</tspan></text>
  <text
     xml:space="preserve"
     style="font-style:normal;font-weight:normal;font-size:6px;line-height:1.25;font-family:sans-serif;text-align:center;text-anchor:middle;fill:#000000;fill-opacity:1;stroke:none;stroke-width:0.75;stroke-linecap:butt;stroke-linejoin:round"
     x="78.551567"
     y="201.61931"
     id="text3572-9-7-1"><tspan
       sodipodi:role="line"
       style="font-size:6px;text-align:center;text-anchor:middle;stroke-width:0.75"
       x="78.551567"
       y="201.61931"
       id="tspan40259-2">sub-optimal decoding axis</tspan></text>
  <text
     xml:space="preserve"
     style="font-style:normal;font-weight:normal;font-size:6px;line-height:1.25;font-family:sans-serif;text-align:center;text-anchor:middle;fill:#000000;fill-opacity:1;stroke:none;stroke-width:0.75;stroke-linecap:butt;stroke-linejoin:round"
     x="194.17157"
     y="201.61931"
     id="text3572-9-7-7"><tspan
       sodipodi:role="line"
       style="font-size:6px;text-align:center;text-anchor:middle;stroke-width:0.75"
       x="194.17157"
       y="201.61931"
       id="tspan40259-0">sub-optimal decoding axis</tspan></text>
  <text
     xml:space="preserve"
     style="font-style:normal;font-weight:normal;font-size:6px;line-height:1.25;font-family:sans-serif;text-align:center;text-anchor:middle;fill:#000000;fill-opacity:1;stroke:none;stroke-width:0.75;stroke-linecap:butt;stroke-linejoin:round"
     x="315.79156"
     y="201.61931"
     id="text3572-9-7-9"><tspan
       sodipodi:role="line"
       style="font-size:6px;text-align:center;text-anchor:middle;stroke-width:0.75"
       x="315.79156"
       y="201.61931"
       id="tspan40259-3">sub-optimal decoding axis</tspan></text>
  <path
     style="fill:none;stroke:#808080;stroke-width:1.875;stroke-linecap:butt;stroke-linejoin:miter;stroke-miterlimit:4;stroke-dasharray:none;stroke-dashoffset:0;stroke-opacity:1"
     d="m 451.95074,28.152637 h 24.21759"
     id="path40376-6" />
  <text
     xml:space="preserve"
     style="font-style:normal;font-weight:normal;font-size:6px;line-height:1.25;font-family:sans-serif;text-align:center;text-anchor:middle;fill:#000000;fill-opacity:1;stroke:none;stroke-width:0.75;stroke-linecap:butt;stroke-linejoin:round"
     x="397.79184"
     y="17.92485"
     id="text3572-9"><tspan
       sodipodi:role="line"
       style="font-size:6px;text-align:center;text-anchor:middle;stroke-width:0.75"
       x="397.79184"
       y="17.92485"
       id="tspan25231-2">optimal decoding axis</tspan></text>
  <text
     xml:space="preserve"
     style="font-style:normal;font-weight:normal;font-size:6px;line-height:1.25;font-family:sans-serif;text-align:center;text-anchor:middle;fill:#000000;fill-opacity:1;stroke:none;stroke-width:0.75;stroke-linecap:butt;stroke-linejoin:round"
     x="194.16864"
     y="163.87111"
     id="text3572-9-75"><tspan
       sodipodi:role="line"
       style="font-size:6px;text-align:center;text-anchor:middle;stroke-width:0.75"
       x="194.16864"
       y="163.87111"
       id="tspan25231-2-3">optimal decoding axis</tspan></text>
  <text
     xml:space="preserve"
     style="font-style:normal;font-weight:normal;font-size:6px;line-height:1.25;font-family:sans-serif;text-align:center;text-anchor:middle;fill:#000000;fill-opacity:1;stroke:none;stroke-width:0.75;stroke-linecap:butt;stroke-linejoin:round"
     x="78.548637"
     y="163.87111"
     id="text3572-9-75-5"><tspan
       sodipodi:role="line"
       style="font-size:6px;text-align:center;text-anchor:middle;stroke-width:0.75"
       x="78.548637"
       y="163.87111"
       id="tspan25231-2-3-6">optimal decoding axis</tspan></text>
  <text
     xml:space="preserve"
     style="font-style:normal;font-weight:normal;font-size:6px;line-height:1.25;font-family:sans-serif;text-align:center;text-anchor:middle;fill:#000000;fill-opacity:1;stroke:none;stroke-width:0.75;stroke-linecap:butt;stroke-linejoin:round"
     x="315.78864"
     y="163.87111"
     id="text3572-9-75-2"><tspan
       sodipodi:role="line"
       style="font-size:6px;text-align:center;text-anchor:middle;stroke-width:0.75"
       x="315.78864"
       y="163.87111"
       id="tspan25231-2-3-9">optimal decoding axis</tspan></text>
  <path
     style="fill:none;stroke:#000000;stroke-width:1.875;stroke-linecap:butt;stroke-linejoin:miter;stroke-miterlimit:4;stroke-dasharray:none;stroke-dashoffset:0;stroke-opacity:1"
     d="m 451.95074,16.269577 h 24.21759"
     id="path40376-3" />
  <text
     xml:space="preserve"
     style="font-style:normal;font-weight:normal;font-size:14px;line-height:1.25;font-family:sans-serif;fill:#000000;fill-opacity:1;stroke:none;stroke-width:0.75"
     x="1.456543"
     y="11.913483"
     id="text46939"><tspan
       sodipodi:role="line"
       id="tspan46937"
       style="font-size:14px;stroke-width:0.75"
       x="1.456543"
       y="11.913483">a</tspan></text>
  <text
     xml:space="preserve"
     style="font-style:normal;font-weight:normal;font-size:14px;line-height:1.25;font-family:sans-serif;fill:#000000;fill-opacity:1;stroke:none;stroke-width:0.75;stroke-linecap:butt;stroke-linejoin:round"
     x="117.03899"
     y="11.913483"
     id="text46939-0"><tspan
       sodipodi:role="line"
       id="tspan46937-6"
       style="font-size:14px;stroke-width:0.75"
       x="117.03899"
       y="11.913483">b</tspan></text>
  <text
     xml:space="preserve"
     style="font-style:normal;font-weight:normal;font-size:14px;line-height:1.25;font-family:sans-serif;fill:#000000;fill-opacity:1;stroke:none;stroke-width:0.75;stroke-linecap:butt;stroke-linejoin:round"
     x="250.84329"
     y="11.913483"
     id="text46939-0-3"><tspan
       sodipodi:role="line"
       id="tspan46937-6-6"
       style="font-size:14px;stroke-width:0.75"
       x="250.84329"
       y="11.913483">c</tspan></text>
  <path
     style="fill:none;stroke:#000000;stroke-width:0.690155px;stroke-linecap:butt;stroke-linejoin:miter;stroke-opacity:1;marker-start:url(#Arrow1Mstart);marker-end:url(#Arrow1Mend)"
     d="m 190.59137,130.2601 h 18.31437"
     id="path63890" />
  <text
     xml:space="preserve"
     style="font-style:normal;font-weight:normal;font-size:8px;line-height:1.25;font-family:sans-serif;fill:#000000;fill-opacity:1;stroke:none;stroke-width:0.75"
     x="195.83563"
     y="127.11101"
     id="text65608"><tspan
       sodipodi:role="line"
       id="tspan65606"
       style="font-style:italic;font-size:8px;stroke-width:0.75"
       x="195.83563"
       y="127.11101">d'<tspan
   style="font-style:italic;font-size:65%;baseline-shift:super"
   id="tspan67194">2</tspan></tspan></text>
  <g
     id="g1166"
     transform="matrix(0.75,0,0,0.75,19.64192,-19.089001)">
    <g
       id="line2d_1"
       style="stroke-width:2;stroke-miterlimit:4;stroke-dasharray:none"
       transform="translate(1.9376781,31.233997)">
      <path
         d="m 53.8692,75.444444 1.539034,-1.475271 1.57235,-1.430066 1.599333,-1.379102 1.619878,-1.322584 1.6339,-1.260742 1.641342,-1.193823 1.642175,-1.122096 1.636396,-1.045851 1.624027,-0.965396 1.60512,-0.881053 1.579749,-0.793161 1.548016,-0.702077 1.510052,-0.608165 1.466005,-0.511805 1.416057,-0.413383 1.360405,-0.313298 1.299277,-0.211949 1.232916,-0.109749 1.161591,-0.0071 1.085589,0.09557 1.005216,0.197853 0.920794,0.299342 0.832665,0.399627 0.741183,0.498302 0.646717,0.594971 0.549646,0.689245 0.450363,0.780743 0.349266,0.869096 0.246762,0.953952 0.143265,1.034964 0.03919,1.111811 -0.06504,1.18418 -0.16901,1.25178 -0.2723,1.314341 -0.374493,1.371609 -0.475177,1.423354 -0.57395,1.469367 -0.670409,1.509464 -0.764171,1.543483 -0.854855,1.571288 -0.942096,1.592763 -1.025545,1.607828 -1.104863,1.616416 -1.179733,1.618497 -1.249853,1.61406 -1.314939,1.603124 -1.374731,1.585733 -1.428988,1.561957 -1.47749,1.531891 -1.520043,1.495656 -1.556476,1.4534 -1.58664,1.405292 -1.610417,1.351523 -1.627708,1.292315 -1.638445,1.2279 -1.642586,1.15854 -1.640111,1.08452 -1.631033,1.00613 -1.615387,0.92369 -1.593236,0.83753 -1.564671,0.748 -1.529804,0.65545 -1.488778,0.56026 -1.441757,0.46283 -1.38893,0.36352 -1.330511,0.26276 -1.266734,0.16093 -1.197857,0.0585 -1.124156,-0.0443 -1.045929,-0.14678 -0.963489,-0.24872 -0.877172,-0.34966 -0.78732,-0.44919 -0.6943,-0.54692 -0.598483,-0.64243 -0.500256,-0.73536 -0.400016,-0.82533 -0.298164,-0.91199 -0.195112,-0.99496 -0.09127,-1.07393 0.01293,-1.14857 0.117085,-1.21859 0.220766,-1.28371 0.32356,-1.34365 0.425049,-1.398185 0.524827,-1.447089 0.622493,-1.490166 0.717652,-1.527243 0.80992,-1.55817 0.898928,-1.582822 0.984316,-1.601101 1.065741,-1.612934 1.142873,-1.618272 1.215405,-1.617092 1.283042,-1.609403 1.345513,-1.595231 1.402566,-1.574638 1.45397,-1.547703 1.499522,-1.514536"
         clip-path="url(#pb6799aacc2)"
         style="fill:none;stroke:#1f77b4;stroke-width:2;stroke-linecap:square;stroke-miterlimit:4;stroke-dasharray:none"
         id="path1144" />
    </g>
    <g
       id="line2d_3"
       transform="translate(1.9376781,31.233997)">
      <path
         d="M 76.63,72.41 31.786849,118.23964"
         clip-path="url(#pb6799aacc2)"
         style="fill:none;stroke:#000000;stroke-width:1.5;stroke-linecap:square"
         id="path1150" />
    </g>
    <g
       id="line2d_4"
       transform="translate(1.9376781,31.233997)">
      <path
         d="M 76.63,72.41 121.47315,26.580362"
         clip-path="url(#pb6799aacc2)"
         style="fill:none;stroke:#000000;stroke-width:1.5;stroke-linecap:square"
         id="path1153" />
    </g>
    <g
       id="line2d_5"
       transform="translate(1.9376781,31.233997)">
      <path
         d="m 76.63,72.41 46.34708,44.3425"
         clip-path="url(#pb6799aacc2)"
         style="fill:none;stroke:#000000;stroke-width:1.5;stroke-dasharray:5.55, 2.4;stroke-dashoffset:0"
         id="path1156" />
    </g>
    <g
       id="line2d_6"
       transform="translate(1.9376781,31.233997)">
      <path
         d="M 76.63,72.41 30.282919,28.067501"
         clip-path="url(#pb6799aacc2)"
         style="fill:none;stroke:#000000;stroke-width:1.5;stroke-dasharray:5.55, 2.4;stroke-dashoffset:0"
         id="path1159" />
    </g>
    <g
       id="line2d_7"
       transform="translate(1.9376781,31.233997)">
      <path
         d="M 76.63,72.41 31.168244,117.63978"
         clip-path="url(#pb6799aacc2)"
         style="fill:none;stroke:#808080;stroke-width:1.5;stroke-linecap:square"
         id="path1162" />
    </g>
    <g
       id="line2d_8"
       transform="translate(1.9376781,31.233997)">
      <path
         d="M 76.63,72.41 122.09176,27.18022"
         clip-path="url(#pb6799aacc2)"
         style="fill:none;stroke:#808080;stroke-width:1.5;stroke-linecap:square"
         id="path1165" />
    </g>
    <g
       id="line2d_9"
       transform="translate(1.9376781,31.233997)">
      <path
         d="m 76.63,72.41 45.74045,44.9542"
         clip-path="url(#pb6799aacc2)"
         style="fill:none;stroke:#808080;stroke-width:1.5;stroke-dasharray:5.55, 2.4;stroke-dashoffset:0"
         id="path1168" />
    </g>
    <g
       id="line2d_10"
       transform="translate(1.9376781,31.233997)">
      <path
         d="M 76.63,72.41 30.889549,27.455803"
         clip-path="url(#pb6799aacc2)"
         style="fill:none;stroke:#808080;stroke-width:1.5;stroke-dasharray:5.55, 2.4;stroke-dashoffset:0"
         id="path1171" />
    </g>
    <g
       id="line2d_2"
       style="stroke-width:2;stroke-miterlimit:4;stroke-dasharray:none"
       transform="translate(1.9376781,31.233997)">
      <path
         d="m 65.720454,83.133666 -0.580043,-0.665888 -0.482337,-0.757841 -0.382688,-0.846741 -0.2815,-0.932231 -0.179176,-1.013969 -0.07613,-1.091623 0.02722,-1.164882 0.13046,-1.23345 0.233176,-1.297051 0.334953,-1.35543 0.435381,-1.40835 0.534056,-1.455601 0.63058,-1.496989 0.724567,-1.53235 0.815634,-1.56154 0.903418,-1.584443 0.987564,-1.600967 1.067734,-1.611042 1.143603,-1.614632 1.214869,-1.611719 1.281242,-1.602317 1.342456,-1.586463 1.398264,-1.564221 1.448443,-1.53568 1.492789,-1.500955 1.531123,-1.460187 1.563294,-1.41354 1.589168,-1.361199 1.608644,-1.303378 1.621642,-1.24031 1.628111,-1.172246 1.628024,-1.099463 1.621381,-1.022251 1.608209,-0.940925 1.588563,-0.855809 1.562518,-0.767247 1.530183,-0.675596 1.491681,-0.581225 1.44718,-0.484512 1.39686,-0.385849 1.34089,-0.285633 1.27955,-0.184266 1.21303,-0.08216 1.14164,0.02028 1.06566,0.12264 0.98537,0.224504 0.90113,0.325465 0.81326,0.425114 0.7221,0.523052 0.62804,0.618883 0.53146,0.712223 0.43273,0.802695 0.33226,0.889935 0.23046,0.97359 0.12772,1.053326 0.0245,1.128821 -0.0789,1.19977 -0.18191,1.265887 -0.28421,1.326909 -0.38536,1.382586 -0.48496,1.432697 -0.58262,1.477038 -0.67791,1.515433 -0.77049,1.547724 -0.85996,1.573785 -0.94597,1.593507 -1.02816,1.606813 -1.10623,1.613649 -1.17983,1.613988 -1.24868,1.607828 -1.31251,1.595193 -1.37105,1.576136 -1.42407,1.550731 -1.471355,1.519082 -1.512717,1.481317 -1.547988,1.437587 -1.577025,1.388068 -1.599711,1.33296 -1.615957,1.272485 -1.625695,1.206885 -1.628887,1.136427 -1.625521,1.061391 -1.615609,0.982083 -1.599191,0.898819 -1.576334,0.811937 -1.54713,0.721785 -1.511695,0.628727 -1.470175,0.533137 -1.422734,0.4354 -1.369564,0.33591 -1.310879,0.235067 -1.246917,0.133279 -1.177932,0.03095 -1.104205,-0.0715 -1.026033,-0.17366 -0.943727,-0.275123 -0.857623,-0.375479 -0.768064,-0.474321 -0.675414,-0.571256"
         clip-path="url(#pb6799aacc2)"
         style="fill:none;stroke:#ff7f0e;stroke-width:2;stroke-linecap:square;stroke-miterlimit:4;stroke-dasharray:none"
         id="path1147" />
    </g>
    <g
       id="patch_3"
       transform="translate(1.9376781,31.233997)">
      <path
         d="M 12.14,136.18 V 8.64"
         style="fill:none;stroke:#000000;stroke-width:0.8;stroke-linecap:square;stroke-linejoin:miter"
         id="path1174" />
    </g>
    <g
       id="patch_4"
       transform="translate(1.9376781,31.233997)">
      <path
         d="M 12.14,136.18 H 141.12"
         style="fill:none;stroke:#000000;stroke-width:0.8;stroke-linecap:square;stroke-linejoin:miter"
         id="path1177" />
    </g>
    <circle
       style="fill:#ff7f0e;fill-opacity:1;stroke:none;stroke-width:2.5;stroke-miterlimit:4;stroke-dasharray:none;stroke-dashoffset:0;stroke-opacity:1"
       id="path68882"
       cx="91.342651"
       cy="90.867241"
       r="1.8338445" />
    <circle
       style="fill:#1f77b4;fill-opacity:1;stroke:none;stroke-width:2.5;stroke-linecap:butt;stroke-linejoin:round;stroke-miterlimit:4;stroke-dasharray:none;stroke-dashoffset:0;stroke-opacity:1"
       id="path68882-8"
       cx="65.62294"
       cy="116.43445"
       r="1.8338445" />
  </g>
  <g
     id="g1231"
     transform="matrix(0.75,0,0,0.75,45.20192,-19.089001)">
    <g
       id="line2d_23"
       transform="translate(1.9376781,31.233997)">
      <path
         d="m 358.87,72.41 45.72895,44.96564"
         clip-path="url(#p4814dc419b)"
         style="fill:none;stroke:#000000;stroke-width:1.5;stroke-linecap:square"
         id="path1234" />
    </g>
    <g
       id="line2d_24"
       transform="translate(1.9376781,31.233997)">
      <path
         d="M 358.87,72.41 313.14105,27.444358"
         clip-path="url(#p4814dc419b)"
         style="fill:none;stroke:#000000;stroke-width:1.5;stroke-linecap:square"
         id="path1237" />
    </g>
    <g
       id="line2d_25"
       transform="translate(1.9376781,31.233997)">
      <path
         d="M 358.87,72.41 404.34333,27.191597"
         clip-path="url(#p4814dc419b)"
         style="fill:none;stroke:#000000;stroke-width:1.5;stroke-dasharray:5.55, 2.4;stroke-dashoffset:0"
         id="path1240" />
    </g>
    <g
       id="line2d_26"
       transform="translate(1.9376781,31.233997)">
      <path
         d="m 358.87,72.41 -45.47333,45.2184"
         clip-path="url(#p4814dc419b)"
         style="fill:none;stroke:#000000;stroke-width:1.5;stroke-dasharray:5.55, 2.4;stroke-dashoffset:0"
         id="path1243" />
    </g>
    <g
       id="line2d_27"
       transform="translate(1.9376781,31.233997)">
      <path
         d="m 358.87,72.41 45.85812,44.83683"
         clip-path="url(#p4814dc419b)"
         style="fill:none;stroke:#808080;stroke-width:1.5;stroke-linecap:square"
         id="path1246" />
    </g>
    <g
       id="line2d_28"
       transform="translate(1.9376781,31.233997)">
      <path
         d="M 358.87,72.41 313.01188,27.573173"
         clip-path="url(#p4814dc419b)"
         style="fill:none;stroke:#808080;stroke-width:1.5;stroke-linecap:square"
         id="path1249" />
    </g>
    <g
       id="line2d_29"
       transform="translate(1.9376781,31.233997)">
      <path
         d="M 358.87,72.41 404.21306,27.063867"
         clip-path="url(#p4814dc419b)"
         style="fill:none;stroke:#808080;stroke-width:1.5;stroke-dasharray:5.55, 2.4;stroke-dashoffset:0"
         id="path1252" />
    </g>
    <g
       id="line2d_30"
       transform="translate(1.9376781,31.233997)">
      <path
         d="m 358.87,72.41 -45.34306,45.34613"
         clip-path="url(#p4814dc419b)"
         style="fill:none;stroke:#808080;stroke-width:1.5;stroke-dasharray:5.55, 2.4;stroke-dashoffset:0"
         id="path1255" />
    </g>
    <g
       id="line2d_21"
       style="stroke-width:2;stroke-miterlimit:4;stroke-dasharray:none"
       transform="translate(1.9376781,31.233997)">
      <path
         d="m 348.01776,108.76974 -0.58131,-0.66789 -0.48318,-0.76018 -0.38312,-0.84943 -0.2815,-0.93524 -0.17874,-1.0173 -0.0753,-1.09526 0.0285,-1.16881 0.13215,-1.23765 0.23527,-1.301502 0.33746,-1.360122 0.43827,-1.413263 0.53732,-1.460713 0.63422,-1.502281 0.72855,-1.5378 0.81996,-1.567126 0.90805,-1.590143 0.9925,-1.606756 1.07296,-1.616899 1.14907,-1.620533 1.22058,-1.61764 1.28717,-1.608234 1.34857,-1.592352 1.40454,-1.570058 1.45486,-1.541443 1.49932,-1.50662 1.53775,-1.465731 1.56997,-1.418939 1.59588,-1.366435 1.61536,-1.308428 1.62835,-1.245152 1.63476,-1.176863 1.6346,-1.103835 1.62786,-1.026362 1.61456,-0.944756 1.59476,-0.859346 1.56854,-0.770477 1.536,-0.678503 1.49728,-0.583799 1.45253,-0.486743 1.40193,-0.387729 1.34568,-0.287151 1.28402,-0.185418 1.21719,-0.08294 1.14545,0.01987 1.06911,0.122608 0.98845,0.224848 0.90383,0.326182 0.81554,0.426203 0.724,0.524507 0.62952,0.620701 0.53252,0.714394 0.43337,0.805211 0.33247,0.892785 0.23024,0.976765 0.12708,1.056811 0.0234,1.132603 -0.0804,1.203833 -0.1838,1.270216 -0.28651,1.331484 -0.38806,1.387392 -0.48804,1.437711 -0.58607,1.482243 -0.68172,1.520806 -0.77465,1.553245 -0.86444,1.57943 -0.95076,1.599254 -1.03325,1.61264 -1.11157,1.619531 -1.18543,1.619902 -1.2545,1.61375 -1.31853,1.601099 -1.37725,1.582002 -1.43042,1.556534 -1.47784,1.524799 -1.51929,1.486924 -1.55464,1.443062 -1.58373,1.393388 -1.60643,1.338099 -1.62267,1.27743 -1.63237,1.21162 -1.63551,1.14093 -1.63205,1.06563 -1.62202,0.98606 -1.60547,0.9025 -1.58245,0.81532 -1.55305,0.72486 -1.51741,0.63147 -1.47564,0.53554 -1.42795,0.43745 -1.3745,0.33761 -1.31552,0.23641 -1.25123,0.13424 -1.18192,0.0315 -1.10783,-0.0713 -1.0293,-0.17382 -0.94662,-0.27565 -0.86012,-0.37639 -0.77016,-0.47559 -0.6771,-0.57289"
         clip-path="url(#p4814dc419b)"
         style="fill:none;stroke:#1f77b4;stroke-width:2;stroke-linecap:square;stroke-miterlimit:4;stroke-dasharray:none"
         id="path1228" />
    </g>
    <g
       id="line2d_22"
       style="stroke-width:2;stroke-miterlimit:4;stroke-dasharray:none"
       transform="translate(1.9376781,31.233997)">
      <path
         d="m 322.30531,83.322311 -0.58523,-0.667366 -0.48759,-0.759818 -0.38797,-0.849211 -0.28681,-0.935184 -0.18448,-1.017392 -0.0814,-1.095503 0.022,-1.169203 0.12529,-1.238195 0.2281,-1.302201 0.32998,-1.360964 0.43054,-1.414247 0.52936,-1.461834 0.62605,-1.503536 0.72023,-1.539183 0.81149,-1.568633 0.8995,-1.591766 0.98388,-1.608489 1.06429,-1.618737 1.14043,-1.622466 1.21197,-1.619662 1.27864,-1.610335 1.34014,-1.594525 1.39626,-1.572295 1.44676,-1.543732 1.49142,-1.508955 1.53009,-1.4681 1.56259,-1.421335 1.5888,-1.368846 1.60861,-1.310846 1.62195,-1.247567 1.62875,-1.179264 1.62899,-1.106213 1.62269,-1.028708 1.60983,-0.947061 1.59051,-0.8616 1.56477,-0.772669 1.53273,-0.680628 1.49453,-0.585845 1.4503,-0.488704 1.40024,-0.389596 1.34454,-0.288917 1.28342,-0.187076 1.21713,-0.08448 1.14595,0.01845 1.07015,0.121314 0.99004,0.223685 0.90594,0.325157 0.8182,0.425318 0.72716,0.523768 0.6332,0.620107 0.53668,0.713952 0.438,0.804919 0.33756,0.892647 0.23576,0.97678 0.13302,1.05698 0.0297,1.132924 -0.0737,1.204305 -0.17679,1.270838 -0.27918,1.332253 -0.38045,1.388304 -0.48019,1.438765 -0.578,1.483432 -0.67348,1.522125 -0.76624,1.554691 -0.85593,1.580996 -0.94216,1.600933 -1.02461,1.614427 -1.10291,1.621417 -1.1768,1.62188 -1.24593,1.615812 -1.31004,1.603238 -1.3689,1.584207 -1.42222,1.558799 -1.46983,1.527112 -1.51152,1.489277 -1.54712,1.445446 -1.57648,1.395793 -1.59951,1.340521 -1.6161,1.27985 -1.62616,1.214027 -1.6297,1.143314 -1.62666,1.067999 -1.61707,0.988382 -1.60097,0.904785 -1.57844,0.817546 -1.54953,0.727015 -1.51439,0.633556 -1.47316,0.537545 -1.42599,0.439371 -1.37308,0.339427 -1.31464,0.238117 -1.25091,0.135847 -1.18213,0.03303 -1.10861,-0.06992 -1.03061,-0.172586 -0.94847,-0.274559 -0.86251,-0.375426 -0.77307,-0.474782 -0.68052,-0.572226"
         clip-path="url(#p4814dc419b)"
         style="fill:none;stroke:#ff7f0e;stroke-width:2;stroke-linecap:square;stroke-miterlimit:4;stroke-dasharray:none"
         id="path1231" />
    </g>
    <g
       id="patch_9"
       transform="translate(1.9376781,31.233997)">
      <path
         d="M 294.38,136.18 V 8.64"
         style="fill:none;stroke:#000000;stroke-width:0.8;stroke-linecap:square;stroke-linejoin:miter"
         id="path1258" />
    </g>
    <g
       id="patch_10"
       transform="translate(1.9376781,31.233997)">
      <path
         d="M 294.38,136.18 H 423.36"
         style="fill:none;stroke:#000000;stroke-width:0.8;stroke-linecap:square;stroke-linejoin:miter"
         id="path1261" />
    </g>
    <circle
       style="fill:#ff7f0e;fill-opacity:1;stroke:none;stroke-width:2.5;stroke-linecap:butt;stroke-linejoin:round;stroke-miterlimit:4;stroke-dasharray:none;stroke-dashoffset:0;stroke-opacity:1"
       id="path68882-2"
       cx="347.9086"
       cy="90.930611"
       r="1.8338445" />
    <circle
       style="fill:#1f77b4;fill-opacity:1;stroke:none;stroke-width:2.5;stroke-linecap:butt;stroke-linejoin:round;stroke-miterlimit:4;stroke-dasharray:none;stroke-dashoffset:0;stroke-opacity:1"
       id="path68882-0"
       cx="373.74295"
       cy="116.41459"
       r="1.8338445" />
  </g>
  <g
     id="line2d_13"
     transform="matrix(0.75,0,0,0.75,31.855856,3.611331)">
    <path
       d="M 217.75,72.41 165.03428,35.676222"
       clip-path="url(#pb237723868)"
       style="fill:none;stroke:#000000;stroke-width:1.5;stroke-linecap:square"
       id="path1192"
       transform="translate(3,1.5)" />
  </g>
  <g
     id="line2d_14"
     transform="matrix(0.75,0,0,0.75,34.105856,4.736331)">
    <path
       d="m 217.75,72.41 52.71572,36.73378"
       clip-path="url(#pb237723868)"
       style="fill:none;stroke:#000000;stroke-width:1.5;stroke-linecap:square"
       id="path1195" />
  </g>
  <g
     id="line2d_15"
     transform="matrix(0.75,0,0,0.75,34.105856,4.736331)">
    <path
       d="m 217.75,72.41 -37.14852,52.12718"
       clip-path="url(#pb237723868)"
       style="fill:none;stroke:#000000;stroke-width:1.5;stroke-dasharray:5.55, 2.4;stroke-dashoffset:0"
       id="path1198" />
  </g>
  <g
     id="line2d_16"
     transform="matrix(0.75,0,0,0.75,34.105856,4.736331)">
    <path
       d="M 217.75,72.41 254.89852,20.282824"
       clip-path="url(#pb237723868)"
       style="fill:none;stroke:#000000;stroke-width:1.5;stroke-dasharray:5.55, 2.4;stroke-dashoffset:0"
       id="path1201" />
  </g>
  <g
     id="g1327"
     transform="matrix(0.6400649,0,0,0.81725167,52.9697,-26.784404)">
    <g
       id="line2d_17"
       transform="translate(4.9376781,31.233997)">
      <path
         d="M 217.75,72.41 153.26018,72.258484"
         clip-path="url(#pb237723868)"
         style="fill:none;stroke:#808080;stroke-width:1.5;stroke-linecap:square"
         id="path1204" />
    </g>
    <g
       id="line2d_18"
       transform="translate(4.9376781,31.233997)">
      <path
         d="m 217.75,72.41 64.48982,0.151516"
         clip-path="url(#pb237723868)"
         style="fill:none;stroke:#808080;stroke-width:1.5;stroke-linecap:square"
         id="path1207" />
    </g>
  </g>
  <g
     id="line2d_19"
     transform="matrix(0.75,0,0,0.75,34.105856,4.736331)">
    <path
       d="m 217.75,72.41 -0.15323,63.76982"
       clip-path="url(#pb237723868)"
       style="fill:none;stroke:#808080;stroke-width:1.5;stroke-dasharray:5.55, 2.4;stroke-dashoffset:0"
       id="path1210" />
  </g>
  <g
     id="line2d_20"
     transform="matrix(0.75,0,0,0.75,34.105856,4.736331)">
    <path
       d="M 217.75,72.41 217.90323,8.64018"
       clip-path="url(#pb237723868)"
       style="fill:none;stroke:#808080;stroke-width:1.5;stroke-dasharray:5.55, 2.4;stroke-dashoffset:0"
       id="path1213" />
  </g>
  <g
     id="line2d_11"
     style="stroke-width:2;stroke-miterlimit:4;stroke-dasharray:none"
     transform="matrix(0.75,0,0,0.75,31.855856,3.611331)">
    <path
       d="m 181.32335,95.700848 -0.58082,-0.66471 -0.4834,-0.756654 -0.38404,-0.845549 -0.28312,-0.931042 -0.18107,-1.012784 -0.0783,-1.090449 0.0248,-1.163723 0.12781,-1.232311 0.23028,-1.295937 0.33184,-1.354344 0.43206,-1.407298 0.53054,-1.454586 0.62688,-1.496016 0.72069,-1.531423 0.81162,-1.560662 0.89926,-1.583618 0.98329,-1.600197 1.06336,-1.610332 1.13914,-1.613984 1.21034,-1.611137 1.27667,-1.601801 1.33785,-1.586016 1.39365,-1.563845 1.44384,-1.535376 1.48821,-1.500726 1.52659,-1.460031 1.55882,-1.41346 1.58478,-1.361195 1.60435,-1.303449 1.61746,-1.240456 1.62407,-1.172467 1.62413,-1.099758 1.61765,-1.022619 1.60466,-0.941364 1.58521,-0.856317 1.55937,-0.767822 1.52726,-0.676237 1.48899,-0.581927 1.44473,-0.485274 1.39465,-0.386669 1.33896,-0.286505 1.27787,-0.185187 1.21164,-0.08312 1.14054,0.01927 1.06483,0.121592 0.98484,0.223423 0.90088,0.324353 0.8133,0.423978 0.72245,0.521895 0.62868,0.617711 0.53238,0.71104 0.43393,0.801505 0.33375,0.888743 0.23222,0.972402 0.12974,1.052147 0.0268,1.127653 -0.0763,1.198621 -0.17914,1.26476 -0.2812,1.325808 -0.38214,1.381517 -0.48154,1.431663 -0.579,1.476044 -0.67413,1.514482 -0.76654,1.546821 -0.85587,1.572932 -0.94175,1.592709 -1.02384,1.606074 -1.10181,1.61297 -1.17533,1.613372 -1.24413,1.607278 -1.30792,1.594712 -1.36644,1.575723 -1.41946,1.550391 -1.46676,1.518816 -1.50816,1.481125 -1.54348,1.437469 -1.57259,1.388026 -1.59537,1.332993 -1.61172,1.272594 -1.62158,1.207069 -1.62492,1.136685 -1.62171,1.061722 -1.61196,0.982486 -1.59574,0.899293 -1.57308,0.812479 -1.54409,0.722393 -1.50888,0.629399 -1.4676,0.53387 -1.42041,0.436191 -1.36749,0.336756 -1.30908,0.235965 -1.24538,0.134224 -1.17668,0.03194 -1.10324,-0.07047 -1.02535,-0.172595 -0.94334,-0.274026 -0.85753,-0.374354 -0.76826,-0.473174 -0.6759,-0.57009"
       clip-path="url(#pb237723868)"
       style="fill:none;stroke:#1f77b4;stroke-width:2;stroke-linecap:square;stroke-miterlimit:4;stroke-dasharray:none"
       id="path1186" />
  </g>
  <g
     id="line2d_12"
     style="stroke-width:2;stroke-miterlimit:4;stroke-dasharray:none"
     transform="matrix(0.75,0,0,0.75,31.855856,3.611331)">
    <path
       d="m 231.36732,62.483513 1.53263,-1.473052 1.56631,-1.427641 1.59366,-1.376482 1.61462,-1.31978 1.62907,-1.257763 1.63695,-1.190683 1.63825,-1.118807 1.63295,-1.042427 1.62107,-0.961849 1.60267,-0.877398 1.57781,-0.789414 1.54661,-0.698252 1.50916,-0.604277 1.46565,-0.50787 1.41624,-0.409418 1.36112,-0.309317 1.30051,-0.20797 1.23468,-0.105787 1.16388,-0.0032 1.08837,0.09945 1.00851,0.201668 0.92456,0.303078 0.8369,0.403269 0.74587,0.501834 0.65184,0.598379 0.55518,0.692515 0.45629,0.783863 0.35555,0.872053 0.2534,0.956733 0.1502,1.03756 0.0464,1.114209 -0.0575,1.186372 -0.1613,1.253758 -0.26439,1.316094 -0.36643,1.373132 -0.46697,1.424641 -0.56565,1.470412 -0.66205,1.510264 -0.75577,1.544034 -0.84647,1.571586 -0.93374,1.592811 -1.01726,1.607622 -1.09668,1.615958 -1.17169,1.61779 -1.24197,1.613105 -1.30727,1.601926 -1.36729,1.584297 -1.4218,1.560288 -1.4706,1.529996 -1.51347,1.493543 -1.55025,1.451077 -1.58078,1.402768 -1.60495,1.348809 -1.62266,1.289421 -1.63383,1.22484 -1.63843,1.155326 -1.63642,1.081162 -1.62783,1.002642 -1.61268,0.920087 -1.59105,0.833826 -1.56299,0.744208 -1.52866,0.651592 -1.48815,0.556354 -1.44167,0.458875 -1.38938,0.359549 -1.33148,0.258773 -1.26824,0.156958 -1.19988,0.05451 -1.12669,-0.04816 -1.04897,-0.150633 -0.96702,-0.252501 -0.88118,-0.353351 -0.79179,-0.452779 -0.6992,-0.550384 -0.60382,-0.645772 -0.50599,-0.738561 -0.40612,-0.828375 -0.30463,-0.914854 -0.2019,-0.997648 -0.0984,-1.076427 0.006,-1.15087 0.10948,-1.220679 0.21296,-1.285573 0.31556,-1.345291 0.41691,-1.399591 0.51657,-1.448256 0.61416,-1.491088 0.70927,-1.527918 0.80152,-1.558595 0.89055,-1.582996 0.97599,-1.601022 1.05751,-1.612602 1.13475,-1.617688 1.20744,-1.616261 1.27527,-1.608326 1.33795,-1.593914 1.39525,-1.573084 1.44693,-1.54592 1.49278,-1.512531"
       clip-path="url(#pb237723868)"
       style="fill:none;stroke:#ff7f0e;stroke-width:2;stroke-linecap:square;stroke-miterlimit:4;stroke-dasharray:none"
       id="path1189" />
  </g>
  <g
     id="patch_6"
     transform="matrix(0.75,0,0,0.75,31.855856,3.611331)">
    <path
       d="M 153.26,136.18 V 8.64"
       style="fill:none;stroke:#000000;stroke-width:0.8;stroke-linecap:square;stroke-linejoin:miter"
       id="path1216" />
  </g>
  <g
     id="patch_7"
     transform="matrix(0.75,0,0,0.75,31.855856,3.611331)">
    <path
       d="M 153.26,136.18 H 282.24"
       style="fill:none;stroke:#000000;stroke-width:0.8;stroke-linecap:square;stroke-linejoin:miter"
       id="path1219" />
  </g>
  <circle
     style="fill:#1f77b4;fill-opacity:1;stroke:none;stroke-width:1.875;stroke-linecap:butt;stroke-linejoin:round;stroke-miterlimit:4;stroke-dasharray:none;stroke-dashoffset:0;stroke-opacity:1"
     id="path68882-7"
     cx="185.55818"
     cy="57.764343"
     r="1.3753834" />
  <circle
     style="fill:#ff7f0e;fill-opacity:1;stroke:none;stroke-width:1.875;stroke-linecap:butt;stroke-linejoin:round;stroke-miterlimit:4;stroke-dasharray:none;stroke-dashoffset:0;stroke-opacity:1"
     id="path68882-9"
     cx="212.80652"
     cy="57.831558"
     r="1.3753834" />
  <text
     xml:space="preserve"
     style="font-style:normal;font-weight:normal;font-size:6px;line-height:1.25;font-family:sans-serif;fill:#000000;fill-opacity:1;stroke:none;stroke-width:0.5625"
     x="181.54926"
     y="62.606003"
     id="text80605"><tspan
       sodipodi:role="line"
       id="tspan80603"
       style="font-size:6px;stroke-width:0.5625"
       x="181.54926"
       y="62.606003"><tspan
   style="font-size:65%;baseline-shift:sub"
   id="tspan4962">a</tspan></tspan></text>
  <text
     xml:space="preserve"
     style="font-style:normal;font-weight:normal;font-size:6px;line-height:1.25;font-family:sans-serif;fill:#000000;fill-opacity:1;stroke:none;stroke-width:0.5625;stroke-linecap:butt;stroke-linejoin:round"
     x="214.4426"
     y="54.961243"
     id="text80605-2"><tspan
       sodipodi:role="line"
       id="tspan80603-3"
       style="font-size:6px;stroke-width:0.5625"
       x="214.4426"
       y="54.961243"><tspan
   style="font-size:65%;baseline-shift:sub"
   id="tspan7628">b</tspan></tspan></text>
</svg>
